<svg width="28" height="28" viewBox="0 0 28 28" fill="none" xmlns="http://www.w3.org/2000/svg">
<path fill-rule="evenodd" clip-rule="evenodd" d="M14.0008 25.2001C20.1864 25.2001 25.2008 20.1856 25.2008 14C25.2008 7.81446 20.1864 2.80005 14.0008 2.80005C7.81519 2.80005 2.80078 7.81446 2.80078 14C2.80078 20.1856 7.81519 25.2001 14.0008 25.2001ZM19.1907 12.19C19.7375 11.6433 19.7375 10.7568 19.1907 10.2101C18.644 9.66337 17.7576 9.66337 17.2108 10.2101L12.6008 14.8201L10.7907 13.0101C10.244 12.4634 9.35757 12.4634 8.81083 13.0101C8.2641 13.5568 8.2641 14.4433 8.81083 14.99L11.6108 17.79C12.1576 18.3367 13.044 18.3367 13.5907 17.79L19.1907 12.19Z" fill="#00DBDC"/>
</svg>
