<svg width="20" height="20" viewBox="0 0 20 20" fill="none" xmlns="http://www.w3.org/2000/svg">
<path d="M13.0407 12.4442C13.3551 12.549 13.6949 12.3791 13.7997 12.0647C13.9045 11.7504 13.7346 11.4106 13.4202 11.3058L13.2305 11.875L13.0407 12.4442ZM10.418 10.9375H9.81797C9.81797 11.1958 9.98323 11.425 10.2282 11.5067L10.418 10.9375ZM11.018 7.01739C11.018 6.68602 10.7493 6.41739 10.418 6.41739C10.0866 6.41739 9.81797 6.68602 9.81797 7.01739H10.418H11.018ZM13.2305 11.875L13.4202 11.3058L10.6077 10.3683L10.418 10.9375L10.2282 11.5067L13.0407 12.4442L13.2305 11.875ZM10.418 10.9375H11.018V7.01739H10.418H9.81797V10.9375H10.418ZM17.918 10H17.318C17.318 13.8108 14.2287 16.9 10.418 16.9V17.5V18.1C14.8915 18.1 18.518 14.4735 18.518 10H17.918ZM10.418 17.5V16.9C6.6072 16.9 3.51797 13.8108 3.51797 10H2.91797H2.31797C2.31797 14.4735 5.94446 18.1 10.418 18.1V17.5ZM2.91797 10H3.51797C3.51797 6.18923 6.6072 3.1 10.418 3.1V2.5V1.9C5.94446 1.9 2.31797 5.52649 2.31797 10H2.91797ZM10.418 2.5V3.1C14.2287 3.1 17.318 6.18923 17.318 10H17.918H18.518C18.518 5.52649 14.8915 1.9 10.418 1.9V2.5Z" fill="#0BFFB6"/>
</svg>
