<svg width="104" height="36" viewBox="0 0 104 36" fill="none" xmlns="http://www.w3.org/2000/svg">
<path d="M8 0.400391H96.8682C98.4605 0.400391 99.6088 0.401166 100.434 0.523438C101.256 0.645388 101.635 0.87182 101.829 1.21777C102.023 1.56366 102.018 2.00452 101.693 2.76953C101.368 3.53711 100.77 4.51799 99.9395 5.87695L93.9336 15.7061C93.6277 16.2067 93.3818 16.6072 93.2158 16.9541C93.0458 17.3093 92.9443 17.6379 92.9443 18C92.9443 18.3621 93.0458 18.6907 93.2158 19.0459C93.3818 19.3928 93.6277 19.7933 93.9336 20.2939L99.9395 30.123C100.77 31.482 101.368 32.4629 101.693 33.2305C102.018 33.9955 102.023 34.4363 101.829 34.7822C101.635 35.1282 101.256 35.3546 100.434 35.4766C99.6088 35.5988 98.4605 35.5996 96.8682 35.5996H8C6.10307 35.5996 4.72047 35.5991 3.66406 35.457C2.61925 35.3165 1.95316 35.045 1.4541 34.5459C0.955048 34.0468 0.683458 33.3807 0.542969 32.3359C0.400939 31.2795 0.400391 29.8969 0.400391 28V8C0.400391 6.10307 0.400939 4.72047 0.542969 3.66406C0.683458 2.61925 0.955048 1.95316 1.4541 1.4541C1.95316 0.955048 2.61925 0.683458 3.66406 0.542969C4.72047 0.400939 6.10307 0.400391 8 0.400391Z" fill="#0BFFB6" fill-opacity="0.1" stroke="url(#paint0_linear_2730_1833)" stroke-width="0.8"/>
<path d="M16.9375 15.4205C16.8769 14.8826 16.6269 14.4659 16.1875 14.1705C15.7481 13.8712 15.1951 13.7216 14.5284 13.7216C14.0511 13.7216 13.6383 13.7973 13.2898 13.9489C12.9413 14.0966 12.6705 14.3011 12.4773 14.5625C12.2879 14.8201 12.1932 15.1136 12.1932 15.4432C12.1932 15.7197 12.2576 15.9583 12.3864 16.1591C12.5189 16.3598 12.6913 16.5284 12.9034 16.6648C13.1193 16.7973 13.3504 16.9091 13.5966 17C13.8428 17.0871 14.0795 17.1591 14.3068 17.2159L15.4432 17.5114C15.8144 17.6023 16.1951 17.7254 16.5852 17.8807C16.9754 18.036 17.3371 18.2405 17.6705 18.4943C18.0038 18.7481 18.2727 19.0625 18.4773 19.4375C18.6856 19.8125 18.7898 20.2614 18.7898 20.7841C18.7898 21.4432 18.6193 22.0284 18.2784 22.5398C17.9413 23.0511 17.4508 23.4545 16.8068 23.75C16.1667 24.0455 15.392 24.1932 14.483 24.1932C13.6117 24.1932 12.858 24.0549 12.2216 23.7784C11.5852 23.5019 11.0871 23.1098 10.7273 22.6023C10.3674 22.0909 10.1686 21.4848 10.1307 20.7841H11.892C11.9261 21.2045 12.0625 21.5549 12.3011 21.8352C12.5436 22.1117 12.8523 22.3182 13.2273 22.4545C13.6061 22.5871 14.0208 22.6534 14.4716 22.6534C14.9678 22.6534 15.4091 22.5758 15.7955 22.4205C16.1856 22.2614 16.4924 22.0417 16.7159 21.7614C16.9394 21.4773 17.0511 21.1458 17.0511 20.767C17.0511 20.4223 16.9527 20.1402 16.7557 19.9205C16.5625 19.7008 16.2992 19.5189 15.9659 19.375C15.6364 19.2311 15.2633 19.1042 14.8466 18.9943L13.4716 18.6193C12.5398 18.3655 11.8011 17.9924 11.2557 17.5C10.714 17.0076 10.4432 16.3561 10.4432 15.5455C10.4432 14.875 10.625 14.2898 10.9886 13.7898C11.3523 13.2898 11.8447 12.9015 12.4659 12.625C13.0871 12.3447 13.7879 12.2045 14.5682 12.2045C15.3561 12.2045 16.0511 12.3428 16.6534 12.6193C17.2595 12.8958 17.7367 13.2765 18.0852 13.7614C18.4337 14.2424 18.6155 14.7955 18.6307 15.4205H16.9375ZM23.2912 24.1932C22.7382 24.1932 22.2382 24.0909 21.7912 23.8864C21.3442 23.678 20.9901 23.3769 20.7287 22.983C20.4711 22.589 20.3423 22.1061 20.3423 21.5341C20.3423 21.0417 20.437 20.6364 20.6264 20.3182C20.8158 20 21.0715 19.7481 21.3935 19.5625C21.7154 19.3769 22.0753 19.2367 22.473 19.142C22.8707 19.0473 23.276 18.9754 23.6889 18.9261C24.2116 18.8655 24.6359 18.8163 24.9616 18.7784C25.2874 18.7367 25.5241 18.6705 25.6719 18.5795C25.8196 18.4886 25.8935 18.3409 25.8935 18.1364V18.0966C25.8935 17.6004 25.7533 17.2159 25.473 16.9432C25.1965 16.6705 24.7836 16.5341 24.2344 16.5341C23.6624 16.5341 23.2116 16.661 22.8821 16.9148C22.5563 17.1648 22.331 17.4432 22.206 17.75L20.6094 17.3864C20.7988 16.8561 21.0753 16.428 21.4389 16.1023C21.8063 15.7727 22.2287 15.5341 22.706 15.3864C23.1832 15.2348 23.6851 15.1591 24.2116 15.1591C24.5601 15.1591 24.9295 15.2008 25.3196 15.2841C25.7135 15.3636 26.081 15.5114 26.4219 15.7273C26.7666 15.9432 27.0488 16.2519 27.2685 16.6534C27.4882 17.0511 27.598 17.5682 27.598 18.2045V24H25.9389V22.8068H25.8707C25.7609 23.0265 25.5961 23.2424 25.3764 23.4545C25.1567 23.6667 24.8745 23.8428 24.5298 23.983C24.1851 24.1231 23.7723 24.1932 23.2912 24.1932ZM23.6605 22.8295C24.1302 22.8295 24.5317 22.7367 24.8651 22.5511C25.2022 22.3655 25.4579 22.1231 25.6321 21.8239C25.8101 21.5208 25.8991 21.197 25.8991 20.8523V19.7273C25.8385 19.7879 25.7211 19.8447 25.5469 19.8977C25.3764 19.947 25.1813 19.9905 24.9616 20.0284C24.742 20.0625 24.5279 20.0947 24.3196 20.125C24.1113 20.1515 23.937 20.1742 23.7969 20.1932C23.4673 20.2348 23.1662 20.3049 22.8935 20.4034C22.6245 20.5019 22.4086 20.6439 22.2457 20.8295C22.0866 21.0114 22.0071 21.2538 22.0071 21.5568C22.0071 21.9773 22.1624 22.2955 22.473 22.5114C22.7836 22.7235 23.1795 22.8295 23.6605 22.8295ZM37.0142 15.2727L33.8494 24H32.0312L28.8608 15.2727H30.6847L32.8949 21.9886H32.9858L35.1903 15.2727H37.0142ZM42.0753 24.1761C41.2154 24.1761 40.4749 23.9924 39.8537 23.625C39.2363 23.2538 38.759 22.733 38.4219 22.0625C38.0885 21.3883 37.9219 20.5985 37.9219 19.6932C37.9219 18.7992 38.0885 18.0114 38.4219 17.3295C38.759 16.6477 39.2287 16.1155 39.831 15.733C40.437 15.3504 41.1454 15.1591 41.956 15.1591C42.4484 15.1591 42.9257 15.2405 43.3878 15.4034C43.8499 15.5663 44.2647 15.822 44.6321 16.1705C44.9995 16.5189 45.2893 16.9716 45.5014 17.5284C45.7135 18.0814 45.8196 18.7538 45.8196 19.5455V20.1477H38.8821V18.875H44.1548C44.1548 18.428 44.0639 18.0322 43.8821 17.6875C43.7003 17.339 43.4446 17.0644 43.1151 16.8636C42.7893 16.6629 42.4067 16.5625 41.9673 16.5625C41.4901 16.5625 41.0734 16.6799 40.7173 16.9148C40.3651 17.1458 40.0923 17.4489 39.8991 17.8239C39.7098 18.1951 39.6151 18.5985 39.6151 19.0341V20.0284C39.6151 20.6117 39.7173 21.108 39.9219 21.517C40.1302 21.9261 40.42 22.2386 40.7912 22.4545C41.1624 22.6667 41.5961 22.7727 42.0923 22.7727C42.4143 22.7727 42.7079 22.7273 42.973 22.6364C43.2382 22.5417 43.4673 22.4015 43.6605 22.2159C43.8537 22.0303 44.0014 21.8011 44.1037 21.5284L45.7116 21.8182C45.5829 22.2917 45.3518 22.7064 45.0185 23.0625C44.6889 23.4148 44.2741 23.6894 43.7741 23.8864C43.2779 24.0795 42.7116 24.1761 42.0753 24.1761ZM55.9673 24.1591C55.187 24.1591 54.4901 24.0246 53.8764 23.7557C53.2666 23.4867 52.7836 23.1136 52.4276 22.6364C52.0753 22.1553 51.8859 21.5985 51.8594 20.9659H53.6435C53.6662 21.3106 53.7817 21.6098 53.9901 21.8636C54.2022 22.1136 54.4787 22.3068 54.8196 22.4432C55.1605 22.5795 55.5393 22.6477 55.956 22.6477C56.4143 22.6477 56.8196 22.5682 57.1719 22.4091C57.5279 22.25 57.8063 22.0284 58.0071 21.7443C58.2079 21.4564 58.3082 21.125 58.3082 20.75C58.3082 20.3598 58.2079 20.017 58.0071 19.7216C57.8101 19.4223 57.5204 19.1875 57.1378 19.017C56.759 18.8466 56.3007 18.7614 55.7628 18.7614H54.7798V17.3295H55.7628C56.1946 17.3295 56.5734 17.2519 56.8991 17.0966C57.2287 16.9413 57.4863 16.7254 57.6719 16.4489C57.8575 16.1686 57.9503 15.8409 57.9503 15.4659C57.9503 15.1061 57.8688 14.7936 57.706 14.5284C57.5469 14.2595 57.3196 14.0492 57.0241 13.8977C56.7325 13.7462 56.3878 13.6705 55.9901 13.6705C55.6113 13.6705 55.2571 13.7405 54.9276 13.8807C54.6018 14.017 54.3366 14.214 54.1321 14.4716C53.9276 14.7254 53.8177 15.0303 53.8026 15.3864H52.1037C52.1226 14.7576 52.3082 14.2045 52.6605 13.7273C53.0166 13.25 53.4863 12.8769 54.0696 12.608C54.6529 12.339 55.3007 12.2045 56.0128 12.2045C56.759 12.2045 57.4029 12.3504 57.9446 12.642C58.4901 12.9299 58.9105 13.3144 59.206 13.7955C59.5052 14.2765 59.6529 14.803 59.6491 15.375C59.6529 16.0265 59.4711 16.5795 59.1037 17.0341C58.7401 17.4886 58.2552 17.7936 57.6491 17.9489V18.0398C58.4219 18.1572 59.0204 18.464 59.4446 18.9602C59.8726 19.4564 60.0848 20.072 60.081 20.8068C60.0848 21.447 59.9067 22.0208 59.5469 22.5284C59.1908 23.036 58.7041 23.4356 58.0866 23.7273C57.4692 24.0152 56.7628 24.1591 55.9673 24.1591ZM66.2798 24.1932C65.3821 24.1894 64.6151 23.9527 63.9787 23.483C63.3423 23.0133 62.8556 22.3295 62.5185 21.4318C62.1813 20.5341 62.0128 19.4527 62.0128 18.1875C62.0128 16.9261 62.1813 15.8485 62.5185 14.9545C62.8594 14.0606 63.348 13.3788 63.9844 12.9091C64.6245 12.4394 65.3897 12.2045 66.2798 12.2045C67.17 12.2045 67.9332 12.4413 68.5696 12.9148C69.206 13.3845 69.6927 14.0663 70.0298 14.9602C70.3707 15.8504 70.5412 16.9261 70.5412 18.1875C70.5412 19.4564 70.3726 20.5398 70.0355 21.4375C69.6984 22.3314 69.2116 23.0152 68.5753 23.4886C67.9389 23.9583 67.1738 24.1932 66.2798 24.1932ZM66.2798 22.6761C67.0677 22.6761 67.6832 22.2917 68.1264 21.5227C68.5734 20.7538 68.7969 19.642 68.7969 18.1875C68.7969 17.2216 68.6946 16.4053 68.4901 15.7386C68.2893 15.0682 67.9995 14.5606 67.6207 14.2159C67.2457 13.8674 66.7988 13.6932 66.2798 13.6932C65.4957 13.6932 64.8802 14.0795 64.4332 14.8523C63.9863 15.625 63.7609 16.7367 63.7571 18.1875C63.7571 19.1572 63.8575 19.9773 64.0582 20.6477C64.2628 21.3144 64.5526 21.8201 64.9276 22.1648C65.3026 22.5057 65.7533 22.6761 66.2798 22.6761ZM78.6307 21.8182V21.2045C78.6307 20.7652 78.7216 20.3636 78.9034 20C79.089 19.6326 79.358 19.339 79.7102 19.1193C80.0663 18.8958 80.4962 18.7841 81 18.7841C81.5152 18.7841 81.947 18.8939 82.2955 19.1136C82.6439 19.3333 82.9072 19.6269 83.0852 19.9943C83.267 20.3617 83.358 20.7652 83.358 21.2045V21.8182C83.358 22.2576 83.267 22.661 83.0852 23.0284C82.9034 23.392 82.6364 23.6856 82.2841 23.9091C81.9356 24.1288 81.5076 24.2386 81 24.2386C80.4886 24.2386 80.0568 24.1288 79.7045 23.9091C79.3523 23.6856 79.0852 23.392 78.9034 23.0284C78.7216 22.661 78.6307 22.2576 78.6307 21.8182ZM79.9545 21.2045V21.8182C79.9545 22.1439 80.0322 22.4394 80.1875 22.7045C80.3428 22.9697 80.6136 23.1023 81 23.1023C81.3826 23.1023 81.6496 22.9697 81.8011 22.7045C81.9527 22.4394 82.0284 22.1439 82.0284 21.8182V21.2045C82.0284 20.8788 81.9545 20.5833 81.8068 20.3182C81.6629 20.053 81.3939 19.9205 81 19.9205C80.6212 19.9205 80.3523 20.053 80.1932 20.3182C80.0341 20.5833 79.9545 20.8788 79.9545 21.2045ZM72.7784 15.1591V14.5455C72.7784 14.1061 72.8693 13.7027 73.0511 13.3352C73.2367 12.9678 73.5057 12.6742 73.858 12.4545C74.214 12.2348 74.6439 12.125 75.1477 12.125C75.6629 12.125 76.0947 12.2348 76.4432 12.4545C76.7917 12.6742 77.0549 12.9678 77.233 13.3352C77.411 13.7027 77.5 14.1061 77.5 14.5455V15.1591C77.5 15.5985 77.4091 16.0019 77.2273 16.3693C77.0492 16.733 76.7841 17.0265 76.4318 17.25C76.0833 17.4697 75.6553 17.5795 75.1477 17.5795C74.6326 17.5795 74.1989 17.4697 73.8466 17.25C73.4981 17.0265 73.233 16.733 73.0511 16.3693C72.8693 16.0019 72.7784 15.5985 72.7784 15.1591ZM74.108 14.5455V15.1591C74.108 15.4848 74.1837 15.7803 74.3352 16.0455C74.4905 16.3106 74.7614 16.4432 75.1477 16.4432C75.5265 16.4432 75.7917 16.3106 75.9432 16.0455C76.0985 15.7803 76.1761 15.4848 76.1761 15.1591V14.5455C76.1761 14.2197 76.1023 13.9242 75.9545 13.6591C75.8068 13.3939 75.5379 13.2614 75.1477 13.2614C74.7689 13.2614 74.5 13.3939 74.3409 13.6591C74.1856 13.9242 74.108 14.2197 74.108 14.5455ZM73.3182 24L81.3182 12.3636H82.6761L74.6761 24H73.3182Z" fill="#0BFFB6"/>
<defs>
<linearGradient id="paint0_linear_2730_1833" x1="-6" y1="-5.62501" x2="96.5928" y2="28.1166" gradientUnits="userSpaceOnUse">
<stop stop-color="#0BFFB6"/>
<stop offset="1" stop-color="#00DBDC"/>
</linearGradient>
</defs>
</svg>
