<svg width="56" height="56" viewBox="0 0 56 56" fill="none" xmlns="http://www.w3.org/2000/svg">
<path d="M9.5 19.7856H46.5M15.0238 5V8.85759M40.5 5V8.85712M48 15.6071V43.25C48 46.9779 45.0152 50 41.3333 50H14.6667C10.9848 50 8 46.9779 8 43.25V15.6071C8 11.8792 10.9848 8.85712 14.6667 8.85712H41.3333C45.0152 8.85712 48 11.8792 48 15.6071Z" stroke="#00DBDC" stroke-width="2.5" stroke-linecap="round" stroke-linejoin="round"/>
<path d="M23 32L26 35L33 28" stroke="#00DBDC" stroke-width="2.5" stroke-linecap="round" stroke-linejoin="round"/>
<path d="M52 43C52 48.5228 47.5228 53 42 53C36.4772 53 32 48.5228 32 43C32 37.4772 36.4772 33 42 33C47.5228 33 52 37.4772 52 43Z" fill="#111111"/>
<path d="M45.3547 46.6859C46.0096 46.9042 46.7175 46.5502 46.9359 45.8953C47.1542 45.2404 46.8002 44.5325 46.1453 44.3141L45.3547 46.6859ZM42 44.25H40.75C40.75 44.788 41.0943 45.2657 41.6047 45.4359L42 44.25ZM43.25 39.0232C43.25 38.3328 42.6904 37.7732 42 37.7732C41.3096 37.7732 40.75 38.3328 40.75 39.0232H43.25ZM45.75 45.5L46.1453 44.3141L42.3953 43.0641L42 44.25L41.6047 45.4359L45.3547 46.6859L45.75 45.5ZM42 44.25H43.25V39.0232H42H40.75V44.25H42ZM52 43H50.75C50.75 47.8325 46.8325 51.75 42 51.75V53V54.25C48.2132 54.25 53.25 49.2132 53.25 43H52ZM42 53V51.75C37.1675 51.75 33.25 47.8325 33.25 43H32H30.75C30.75 49.2132 35.7868 54.25 42 54.25V53ZM32 43H33.25C33.25 38.1675 37.1675 34.25 42 34.25V33V31.75C35.7868 31.75 30.75 36.7868 30.75 43H32ZM42 33V34.25C46.8325 34.25 50.75 38.1675 50.75 43H52H53.25C53.25 36.7868 48.2132 31.75 42 31.75V33Z" fill="#00DBDC"/>
</svg>
