<svg width="50" height="40" viewBox="0 0 50 40" fill="none" xmlns="http://www.w3.org/2000/svg">
<path d="M1.66675 1.33331L11.0779 9.81816M1.66675 1.33331V38.6666L11.0779 30.1818M1.66675 1.33331H42.7334M11.0779 9.81816V30.1818M11.0779 9.81816H33.3223M11.0779 30.1818H33.3223M42.7334 1.33331L33.3223 9.81816M42.7334 1.33331V38.6666L33.3223 30.1818M33.3223 9.81816V30.1818M17.4945 9.81816V30.1818M27.7612 9.81816V30.1818M22.6279 9.81816L22.6279 30.1818M11.0779 14.9091H33.3223M11.0779 25.0909H33.3223M11.0779 20H33.3223" stroke="#00DBDC" stroke-width="2.33" stroke-linejoin="round"/>
<path d="M41.7999 38.6666C45.4082 38.6666 48.3333 35.6998 48.3333 32.04C48.3333 29.5872 47.0194 27.4457 45.0666 26.2999V18.6C45.0666 16.7959 43.6041 15.3333 41.7999 15.3333C39.9958 15.3333 38.5333 16.7959 38.5333 18.6V26.2999C36.5805 27.4457 35.2666 29.5872 35.2666 32.04C35.2666 35.6998 38.1917 38.6666 41.7999 38.6666Z" fill="#0D0D0D" stroke="#00DBDC" stroke-width="2.33"/>
<circle cx="41.8" cy="32.1333" r="1.36667" fill="#00DBDC" stroke="#00DBDC"/>
</svg>
