<svg width="56" height="56" viewBox="0 0 56 56" fill="none" xmlns="http://www.w3.org/2000/svg">
<path d="M4.66663 51.3334H30.3333C41.9313 51.3334 51.3333 41.9314 51.3333 30.3334C51.3333 18.7354 41.9313 9.33337 30.3333 9.33337C19.524 9.33337 10.494 17.5002 9.33329 28" stroke="#00DBDC" stroke-width="2.5" stroke-linecap="round"/>
<path d="M43.1667 12.8333L45.5 10.5M12.8334 10.5L15.1667 12.8333" stroke="#00DBDC" stroke-width="3.5" stroke-linecap="round" stroke-linejoin="round"/>
<path d="M38.5006 21L31.6421 27.8585M31.6421 27.8585C31.0087 27.2251 30.1337 26.8333 29.1672 26.8333C27.2342 26.8333 25.6672 28.4003 25.6672 30.3333C25.6672 32.2663 27.2342 33.8333 29.1672 33.8333C31.1002 33.8333 32.6672 32.2663 32.6672 30.3333C32.6672 29.3668 32.2755 28.4918 31.6421 27.8585Z" stroke="#00DBDC" stroke-width="2.33333" stroke-linecap="round"/>
<path d="M29.1666 8.16663V4.66663" stroke="#00DBDC" stroke-width="2.33333" stroke-linecap="round" stroke-linejoin="round"/>
<path d="M24.5 4.66663H33.8333" stroke="#00DBDC" stroke-width="2.33333" stroke-linecap="round" stroke-linejoin="round"/>
<path d="M4.66663 35H11.6666" stroke="#00DBDC" stroke-width="3.5" stroke-linecap="round" stroke-linejoin="round"/>
<path d="M4.66663 44.3334H16.3333" stroke="#00DBDC" stroke-width="2.33333" stroke-linecap="round" stroke-linejoin="round"/>
<path d="M52.5 42C52.5 47.1546 48.3214 51.3333 43.1667 51.3333C38.012 51.3333 33.8334 47.1546 33.8334 42C33.8334 36.8453 38.012 32.6666 43.1667 32.6666C48.3214 32.6666 52.5 36.8453 52.5 42Z" fill="#121212"/>
<path d="M52.5 42H51.3334C51.3334 46.5103 47.677 50.1666 43.1667 50.1666V51.3333V52.5C48.9657 52.5 53.6667 47.799 53.6667 42H52.5ZM43.1667 51.3333V50.1666C38.6564 50.1666 35 46.5103 35 42H33.8334H32.6667C32.6667 47.799 37.3677 52.5 43.1667 52.5V51.3333ZM33.8334 42H35C35 37.4896 38.6564 33.8333 43.1667 33.8333V32.6666V31.5C37.3677 31.5 32.6667 36.201 32.6667 42H33.8334ZM43.1667 32.6666V33.8333C47.677 33.8333 51.3334 37.4896 51.3334 42H52.5H53.6667C53.6667 36.201 48.9657 31.5 43.1667 31.5V32.6666Z" fill="#00DBDC"/>
<path d="M39.6666 42.3712L41.5259 44.3109C41.8716 44.6715 42.0444 44.8518 42.2592 44.8518C42.474 44.8518 42.6468 44.6715 42.9925 44.3109L47.4444 39.6666" stroke="#00DBDC" stroke-width="2.33333" stroke-linecap="round" stroke-linejoin="round"/>
</svg>
