<svg width="56" height="56" viewBox="0 0 56 56" fill="none" xmlns="http://www.w3.org/2000/svg">
<path d="M13.6137 40.0648C12.9979 35.7224 10.213 24.2659 4 21.6241C6.90805 22.1805 13.4293 23.8436 17.9453 28.1111M20.0456 39.8834C19.6921 33.7749 16.7954 17.7195 8.03706 10.8102C13.3058 12.286 25.1433 21.7394 28.2908 39.1939M28.2908 39.1939C29.1803 33.0733 34.5654 17.0155 48.9893 10.1933C45.0891 13.6407 37.1518 26.0939 36.6044 39.8834M28.2908 39.1939C28.2083 36.8715 28.2146 32.9822 28.289 30.9956M28.2908 39.1939C28.2696 37.1618 28.1271 33.5316 28.289 30.9956M20.5 20.7222C20.5228 17.3353 20.5862 9.09019 20.1483 7.58061C22.8863 9.95008 27.7817 17.6448 28.289 30.9956M28.289 30.9956C28.8026 22.9552 30.8168 12.2526 36.3307 7C35.943 9.80628 35.2838 16.5002 35.7491 20.8258M42.5574 40.0648C43.7776 35.807 47.3745 24.5126 52 21.8418C49.6964 22.1926 44.3447 23.1179 38.7613 28.1111M10.3293 45H45.7733" stroke="#00DBDC" stroke-width="2.33" stroke-linecap="round" stroke-linejoin="round"/>
<path d="M43.3821 34.1553L44.79 36.9943C44.9819 37.3895 45.4939 37.7686 45.9258 37.8411L48.4775 38.2686C50.1094 38.5428 50.4933 39.7365 49.3175 40.914L47.3337 42.9142C46.9977 43.2529 46.8137 43.9062 46.9177 44.374L47.4857 46.85C47.9336 48.8098 46.9017 49.568 45.1819 48.5437L42.7902 47.1162C42.3582 46.8581 41.6463 46.8581 41.2063 47.1162L38.8146 48.5437C37.1028 49.568 36.0629 48.8018 36.5109 46.85L37.0788 44.374C37.1828 43.9062 36.9988 43.2529 36.6629 42.9142L34.6791 40.914C33.5112 39.7365 33.8872 38.5428 35.519 38.2686L38.0707 37.8411C38.4946 37.7686 39.0066 37.3895 39.1986 36.9943L40.6064 34.1553C41.3743 32.6149 42.6222 32.6149 43.3821 34.1553Z" fill="#0D0D0D" stroke="#00DBDC" stroke-width="2" stroke-linecap="round" stroke-linejoin="round"/>
</svg>
