<svg width="56" height="56" viewBox="0 0 56 56" fill="none" xmlns="http://www.w3.org/2000/svg">
<path d="M6 51.8846H4.75C4.75 52.5749 5.30964 53.1346 6 53.1346V51.8846ZM20.8719 32.0444C21.5162 31.7965 21.8376 31.0732 21.5897 30.4289C21.3418 29.7846 20.6185 29.4632 19.9742 29.7111L20.8719 32.0444ZM36.7404 29.6035C36.0929 29.3639 35.3739 29.6946 35.1343 30.3421C34.8948 30.9895 35.2255 31.7086 35.8729 31.9481L36.7404 29.6035ZM51 51.8846V53.1346C51.6904 53.1346 52.25 52.5749 52.25 51.8846H51ZM16.9572 17.0944C17.1793 16.4408 16.8295 15.7308 16.1758 15.5088C15.5222 15.2867 14.8122 15.6365 14.5901 16.2902L16.9572 17.0944ZM16.9877 23.2432L18.2352 23.3226C18.2697 22.7805 17.9501 22.278 17.4444 22.0796L16.9877 23.2432ZM39.4471 23.2432L38.6559 22.2754C38.3656 22.5128 38.1971 22.8681 38.1971 23.2432H39.4471ZM42.4997 16.4784C42.3816 15.7982 41.7344 15.3426 41.0542 15.4607C40.3741 15.5789 39.9185 16.2261 40.0366 16.9062L42.4997 16.4784ZM41.2143 16.6981L40.8471 17.893L42.249 18.3238L42.4522 16.8713L41.2143 16.6981ZM15.2527 16.6981L14.0076 16.8085L14.1401 18.3025L15.5857 17.903L15.2527 16.6981ZM28.522 14.3846L28.5124 13.1347L28.522 14.3846ZM15.9455 16.2437C15.3791 15.849 14.6 15.9881 14.2053 16.5545C13.8105 17.1209 13.9497 17.9 14.516 18.2947L15.9455 16.2437ZM34.8462 20.7308L34.893 19.4816L34.8462 20.7308ZM41.9651 18.2517C42.5077 17.825 42.6016 17.0391 42.1748 16.4965C41.748 15.9538 40.9622 15.8599 40.4195 16.2867L41.9651 18.2517ZM6 51.8846H7.25C7.25 42.8391 12.9023 35.1106 20.8719 32.0444L20.4231 30.8778L19.9742 29.7111C11.0714 33.1364 4.75 41.7707 4.75 51.8846H6ZM36.3067 30.7758L35.8729 31.9481C43.9766 34.9462 49.75 42.7428 49.75 51.8846H51H52.25C52.25 41.6631 45.7934 32.9528 36.7404 29.6035L36.3067 30.7758ZM51 51.8846V50.6346H6V51.8846V53.1346H51V51.8846ZM15.7737 16.6923L14.5901 16.2902C14.2532 17.2819 13.9065 18.8483 13.9947 20.3535C14.0811 21.8284 14.6336 23.6622 16.5311 24.4068L16.9877 23.2432L17.4444 22.0796C16.9138 21.8713 16.5558 21.323 16.4904 20.2073C16.4268 19.1219 16.6872 17.8893 16.9572 17.0944L15.7737 16.6923ZM16.9877 23.2432L15.7402 23.1637C15.6701 24.2651 16.0685 25.6327 16.6583 26.9538C17.2675 28.3182 18.1548 29.7963 19.2351 31.1643C21.3359 33.8245 24.4431 36.4038 27.9231 36.4038V35.1538V33.9038C25.6338 33.9038 23.1722 32.116 21.1971 29.6149C20.2394 28.4022 19.4619 27.1012 18.9411 25.9346C18.401 24.7247 18.2042 23.8094 18.2352 23.3226L16.9877 23.2432ZM27.9231 35.1538V36.4038C31.254 36.4038 34.442 34.5899 36.7564 32.1444C39.0708 29.6991 40.6971 26.4288 40.6971 23.2432H39.4471H38.1971C38.1971 25.6221 36.9461 28.3071 34.9407 30.426C32.9355 32.5447 30.3614 33.9038 27.9231 33.9038V35.1538ZM39.4471 23.2432L40.2383 24.2109C41.0909 23.5138 41.7791 22.3564 42.1922 21.0556C42.6137 19.728 42.7875 18.1352 42.4997 16.4784L41.2682 16.6923L40.0366 16.9062C40.2499 18.1341 40.1202 19.3204 39.8094 20.299C39.4902 21.3042 39.0174 21.9799 38.6559 22.2754L39.4471 23.2432ZM41.2143 16.6981C42.4522 16.8713 42.4523 16.8706 42.4524 16.8698C42.4525 16.8694 42.4526 16.8686 42.4527 16.8679C42.4528 16.8666 42.4531 16.8651 42.4533 16.8635C42.4537 16.8601 42.4543 16.8559 42.4549 16.851C42.4562 16.8413 42.4578 16.8285 42.4597 16.8128C42.4635 16.7815 42.4684 16.7385 42.4739 16.6846C42.4847 16.577 42.4978 16.4255 42.5085 16.2364C42.5298 15.8587 42.5419 15.3275 42.5075 14.6924C42.4391 13.4289 42.1846 11.7147 41.422 9.97115C40.6542 8.21533 39.3707 6.43173 37.2679 5.07393C35.1694 3.71885 32.3361 2.84016 28.5497 2.75612L28.522 4.00581L28.4942 5.2555C31.9194 5.33152 34.2784 6.1194 35.9118 7.17414C37.541 8.22616 38.5292 9.59563 39.1315 10.9729C39.7392 12.3623 39.9534 13.7613 40.0112 14.8276C40.0399 15.3573 40.0294 15.7952 40.0125 16.0953C40.004 16.2451 39.9939 16.3598 39.9865 16.4335C39.9828 16.4704 39.9797 16.4969 39.9778 16.5124C39.9769 16.5202 39.9763 16.5251 39.976 16.5273C39.9758 16.5283 39.9758 16.5287 39.9759 16.5283C39.9759 16.5281 39.9759 16.5277 39.976 16.5272C39.976 16.5269 39.9761 16.5263 39.9761 16.5262C39.9762 16.5256 39.9763 16.5249 41.2143 16.6981ZM28.522 4.00581L28.5497 2.75612C24.7531 2.67185 21.874 3.46444 19.7115 4.78771C17.5476 6.11176 16.1898 7.91302 15.348 9.69899C14.5112 11.4743 14.1798 13.2416 14.0536 14.5499C13.9901 15.2076 13.9776 15.7592 13.9814 16.1515C13.9832 16.3479 13.9892 16.5052 13.995 16.6167C13.9978 16.6725 14.0007 16.7169 14.003 16.7491C14.0041 16.7652 14.0051 16.7783 14.0059 16.7882C14.0063 16.7932 14.0067 16.7974 14.0069 16.8008C14.0071 16.8025 14.0072 16.804 14.0073 16.8053C14.0074 16.8059 14.0074 16.8067 14.0075 16.807C14.0075 16.8078 14.0076 16.8085 15.2527 16.6981C16.4978 16.5877 16.4979 16.5883 16.4979 16.5889C16.498 16.589 16.498 16.5895 16.498 16.5898C16.4981 16.5903 16.4981 16.5906 16.4981 16.5907C16.4981 16.591 16.4981 16.5904 16.498 16.5891C16.4978 16.5866 16.4973 16.581 16.4967 16.5725C16.4955 16.5555 16.4937 16.5269 16.4916 16.4874C16.4875 16.4085 16.4828 16.2865 16.4813 16.1277C16.4782 15.8096 16.4883 15.3471 16.542 14.7899C16.6502 13.6684 16.9317 12.2027 17.6094 10.7649C18.282 9.33772 19.34 7.9459 21.0163 6.92016C22.6939 5.89363 25.0792 5.17971 28.4942 5.2555L28.522 4.00581ZM15.2527 16.6981C15.5857 17.903 15.5856 17.903 15.5856 17.903C15.5856 17.903 15.5856 17.903 15.5857 17.9029C15.5858 17.9029 15.5861 17.9028 15.5865 17.9027C15.5872 17.9025 15.5885 17.9022 15.5902 17.9017C15.5937 17.9007 15.5992 17.8993 15.6065 17.8972C15.6212 17.8932 15.6436 17.8871 15.6733 17.879C15.7328 17.8629 15.8214 17.8391 15.9366 17.8086C16.1669 17.7475 16.5029 17.6598 16.9225 17.5543C17.762 17.3432 18.9333 17.0612 20.259 16.7783C22.9373 16.2068 26.1486 15.6528 28.5315 15.6346L28.522 14.3846L28.5124 13.1347C25.8575 13.155 22.4342 13.7578 19.7373 14.3334C18.3754 14.624 17.174 14.9132 16.3127 15.1298C15.8818 15.2382 15.5354 15.3285 15.2959 15.392C15.1762 15.4238 15.0831 15.4488 15.0194 15.4661C14.9876 15.4747 14.9632 15.4814 14.9465 15.4859C14.9381 15.4882 14.9317 15.49 14.9272 15.4912C14.925 15.4918 14.9232 15.4923 14.922 15.4927C14.9213 15.4928 14.9209 15.493 14.9205 15.4931C14.9203 15.4931 14.9201 15.4932 14.92 15.4932C14.9199 15.4932 14.9197 15.4933 15.2527 16.6981ZM28.522 14.3846L28.5315 15.6346C30.8967 15.6165 33.9509 16.1658 36.4779 16.7453C37.7277 17.0319 38.8237 17.3199 39.6068 17.5361C39.998 17.6441 40.3104 17.7341 40.5239 17.7966C40.6306 17.8279 40.7126 17.8524 40.7673 17.8688C40.7947 17.877 40.8152 17.8833 40.8286 17.8873C40.8353 17.8894 40.8402 17.8909 40.8433 17.8918C40.8449 17.8923 40.846 17.8926 40.8466 17.8928C40.8469 17.8929 40.8471 17.893 40.8472 17.893C40.8472 17.893 40.8472 17.893 40.8472 17.893C40.8472 17.893 40.8471 17.893 41.2143 16.6981C41.5814 15.5033 41.5813 15.5032 41.5811 15.5032C41.581 15.5031 41.5808 15.5031 41.5806 15.503C41.5802 15.5029 41.5797 15.5027 41.5791 15.5026C41.5779 15.5022 41.5762 15.5017 41.5741 15.501C41.5698 15.4997 41.5636 15.4978 41.5557 15.4954C41.5398 15.4906 41.5168 15.4836 41.4868 15.4746C41.427 15.4566 41.3396 15.4306 41.2271 15.3976C41.0024 15.3317 40.6774 15.2382 40.2723 15.1263C39.4627 14.9027 38.3302 14.6051 37.0367 14.3085C34.4769 13.7216 31.185 13.1142 28.5124 13.1347L28.522 14.3846ZM15.2308 17.2692C14.516 18.2947 14.5161 18.2948 14.5163 18.2949C14.5163 18.2949 14.5165 18.2951 14.5166 18.2951C14.5169 18.2953 14.5173 18.2956 14.5177 18.2959C14.5185 18.2965 14.5197 18.2973 14.5212 18.2983C14.5241 18.3004 14.5283 18.3032 14.5336 18.3069C14.5443 18.3143 14.5597 18.325 14.5795 18.3386C14.6193 18.366 14.6769 18.4055 14.7505 18.4553C14.8975 18.555 15.1083 18.6965 15.3667 18.8657C15.8824 19.2033 16.5928 19.6547 17.3663 20.1059C18.1354 20.5544 18.9897 21.0161 19.7889 21.3649C20.5286 21.6878 21.4256 22.009 22.2007 21.9799L22.1538 20.7308L22.107 19.4816C21.9538 19.4874 21.5212 19.3933 20.7889 19.0736C20.1159 18.7799 19.3555 18.3719 18.6258 17.9463C17.9007 17.5234 17.2284 17.0964 16.7361 16.7741C16.4905 16.6133 16.291 16.4794 16.1537 16.3863C16.0851 16.3398 16.0321 16.3035 15.9967 16.2791C15.979 16.2669 15.9657 16.2578 15.9571 16.2518C15.9528 16.2488 15.9497 16.2466 15.9477 16.2453C15.9467 16.2446 15.9461 16.2441 15.9457 16.2439C15.9455 16.2437 15.9454 16.2437 15.9454 16.2436C15.9454 16.2436 15.9454 16.2437 15.9454 16.2436C15.9454 16.2437 15.9455 16.2437 15.2308 17.2692ZM34.8462 20.7308L34.7993 21.9799C35.5882 22.0095 36.4546 21.6794 37.1537 21.3501C37.9064 20.9955 38.6936 20.5279 39.3932 20.0764C40.0976 19.6219 40.7381 19.1674 41.201 18.8279C41.4332 18.6576 41.6221 18.5152 41.7539 18.4146C41.8199 18.3643 41.8716 18.3245 41.9073 18.2967C41.9252 18.2829 41.9391 18.272 41.9488 18.2645C41.9537 18.2607 41.9575 18.2577 41.9602 18.2556C41.9615 18.2545 41.9626 18.2537 41.9634 18.253C41.9639 18.2527 41.9642 18.2524 41.9645 18.2522C41.9646 18.2521 41.9648 18.252 41.9648 18.2519C41.965 18.2518 41.9651 18.2517 41.1923 17.2692C40.4195 16.2867 40.4196 16.2867 40.4197 16.2866C40.4197 16.2866 40.4197 16.2866 40.4197 16.2866C40.4197 16.2866 40.4197 16.2866 40.4195 16.2867C40.4193 16.2869 40.4187 16.2874 40.4179 16.288C40.4163 16.2893 40.4136 16.2913 40.4099 16.2942C40.4025 16.3 40.391 16.309 40.3755 16.321C40.3446 16.345 40.2981 16.3809 40.2376 16.427C40.1166 16.5193 39.9404 16.6522 39.7226 16.8119C39.2857 17.1323 38.6878 17.5563 38.0377 17.9758C37.3828 18.3984 36.6996 18.8005 36.0883 19.0885C35.4234 19.4017 35.0324 19.4869 34.893 19.4816L34.8462 20.7308ZM22.1538 20.7308L22.2007 21.9799C23.3121 21.9382 24.4496 21.5962 25.3818 21.3295C26.3901 21.0411 27.199 20.8269 27.9231 20.8269V19.5769V18.3269C26.7893 18.3269 25.6418 18.6549 24.6942 18.9259C23.6704 19.2188 22.8522 19.4537 22.107 19.4816L22.1538 20.7308ZM27.9231 19.5769V20.8269C28.686 20.8269 29.8037 21.0586 31.1155 21.3483C32.3275 21.616 33.7297 21.9398 34.7993 21.9799L34.8462 20.7308L34.893 19.4816C34.106 19.4521 32.9757 19.199 31.6547 18.9072C30.4335 18.6374 29.018 18.3269 27.9231 18.3269V19.5769Z" fill="#00DBDC"/>
</svg>
