<svg width="48" height="48" viewBox="0 0 48 48" fill="none" xmlns="http://www.w3.org/2000/svg">
<path d="M5.14453 44.5713H3.64453C3.64453 45.3998 4.3161 46.0713 5.14453 46.0713V44.5713ZM18.0469 27.9216C18.8199 27.6235 19.2048 26.7553 18.9067 25.9823C18.6086 25.2094 17.7404 24.8245 16.9674 25.1226L17.5072 26.5221L18.0469 27.9216ZM31.6432 25.0281C30.8665 24.74 30.0033 25.1362 29.7153 25.9129C29.4272 26.6896 29.8234 27.5528 30.6001 27.8409L31.1217 26.4345L31.6432 25.0281ZM43.716 44.5713V46.0713C44.5444 46.0713 45.216 45.3998 45.216 44.5713H43.716ZM14.9426 14.8153C15.2085 14.0307 14.7881 13.1791 14.0035 12.9132C13.2189 12.6473 12.3673 13.0677 12.1014 13.8523L13.522 14.3338L14.9426 14.8153ZM14.5626 19.9624L16.0596 20.0575C16.1009 19.4074 15.7179 18.805 15.1117 18.5665L14.5626 19.9624ZM33.8135 19.9624L32.8627 18.8022C32.5151 19.0871 32.3135 19.5129 32.3135 19.9624H33.8135ZM36.8524 14.0777C36.7109 13.2614 35.9345 12.7144 35.1183 12.8558C34.302 12.9973 33.755 13.7737 33.8964 14.5899L35.3744 14.3338L36.8524 14.0777ZM35.3282 14.3388L34.8866 15.7723L36.5703 16.2909L36.8138 14.5461L35.3282 14.3388ZM13.0754 14.3388L11.5813 14.471L11.74 16.2653L13.4759 15.7844L13.0754 14.3388ZM24.4491 12.351L24.4375 10.8511L24.4491 12.351ZM13.9157 13.5999C13.2366 13.1254 12.3014 13.2913 11.827 13.9704C11.3525 14.6495 11.5184 15.5847 12.1975 16.0591L13.0566 14.8295L13.9157 13.5999ZM29.8698 17.8037L29.9262 16.3048L29.8698 17.8037ZM36.2381 16.0074C36.8886 15.4945 37.0002 14.5514 36.4873 13.9008C35.9744 13.2503 35.0312 13.1387 34.3807 13.6516L35.3094 14.8295L36.2381 16.0074ZM5.14453 44.5713H6.64453C6.64453 36.9792 11.3768 30.494 18.0469 27.9216L17.5072 26.5221L16.9674 25.1226C9.17533 28.1277 3.64453 35.7016 3.64453 44.5713H5.14453ZM31.1217 26.4345L30.6001 27.8409C37.3822 30.3561 42.216 36.8983 42.216 44.5713H43.716H45.216C45.216 35.6072 39.5669 27.9666 31.6432 25.0281L31.1217 26.4345ZM43.716 44.5713V43.0713H5.14453V44.5713V46.0713H43.716V44.5713ZM13.522 14.3338L12.1014 13.8523C11.8013 14.7378 11.4896 16.1401 11.5693 17.5042C11.6468 18.8309 12.1526 20.6262 14.0135 21.3583L14.5626 19.9624L15.1117 18.5665C14.8914 18.4798 14.6167 18.2284 14.5642 17.3292C14.5138 16.4675 14.7224 15.4649 14.9426 14.8153L13.522 14.3338ZM14.5626 19.9624L13.0656 19.8672C12.9989 20.9174 13.3743 22.1689 13.8883 23.323C14.4254 24.5289 15.2046 25.829 16.1515 27.0309C17.973 29.3431 20.7472 31.6961 23.9357 31.6961V30.1961V28.6961C22.1792 28.6961 20.1801 27.2968 18.508 25.1744C17.708 24.1589 17.0603 23.0712 16.6288 22.1024C16.1743 21.0818 16.0396 20.3719 16.0596 20.0575L14.5626 19.9624ZM23.9357 30.1961V31.6961C26.9452 31.6961 29.7833 30.0588 31.8197 27.9019C33.8562 25.745 35.3135 22.8357 35.3135 19.9624H33.8135H32.3135C32.3135 21.8701 31.3044 24.0777 29.6383 25.8424C27.9721 27.6071 25.8714 28.6961 23.9357 28.6961V30.1961ZM33.8135 19.9624L34.7643 21.1225C35.579 20.4549 36.2053 19.3783 36.5752 18.2107C36.9552 17.011 37.1116 15.5737 36.8524 14.0777L35.3744 14.3338L33.8964 14.5899C34.0667 15.5724 33.9629 16.523 33.7153 17.3047C33.4574 18.1186 33.0886 18.6171 32.8627 18.8022L33.8135 19.9624ZM35.3282 14.3388C36.8138 14.5461 36.8139 14.5453 36.814 14.5443C36.8141 14.544 36.8142 14.543 36.8143 14.5423C36.8145 14.5409 36.8147 14.5393 36.815 14.5375C36.8154 14.534 36.816 14.5298 36.8166 14.5249C36.8179 14.5152 36.8195 14.5029 36.8212 14.4881C36.8248 14.4585 36.8293 14.4188 36.8343 14.3696C36.8442 14.2714 36.8559 14.1351 36.8654 13.9659C36.8844 13.6283 36.8951 13.1562 36.8646 12.5926C36.8042 11.4737 36.5792 9.94758 35.8995 8.38945C35.2133 6.81673 34.063 5.21341 32.1795 3.99423C30.3008 2.77819 27.7905 2.00743 24.4824 1.93383L24.4491 3.43346L24.4157 4.93309C27.289 4.99702 29.2292 5.65819 30.5493 6.51269C31.8646 7.36404 32.6615 8.46987 33.1498 9.5891C33.6444 10.7229 33.8213 11.8716 33.869 12.7545C33.8926 13.1918 33.884 13.5522 33.8702 13.7971C33.8633 13.9191 33.8552 14.0114 33.8494 14.0691C33.8465 14.0978 33.8442 14.1178 33.8429 14.1285C33.8422 14.1338 33.8419 14.1368 33.8418 14.1373C33.8418 14.1375 33.8418 14.1372 33.8419 14.1362C33.842 14.1358 33.8421 14.1351 33.8422 14.1343C33.8422 14.1339 33.8423 14.1332 33.8424 14.133C33.8425 14.1323 33.8426 14.1315 35.3282 14.3388ZM24.4491 3.43346L24.4824 1.93383C21.1622 1.85996 18.6091 2.55465 16.6722 3.74275C14.7338 4.93168 13.5189 6.54943 12.7688 8.14473C12.0247 9.72727 11.7322 11.2969 11.621 12.4525C11.565 13.0346 11.5538 13.5236 11.5572 13.8732C11.5588 14.0483 11.5641 14.1894 11.5693 14.2907C11.572 14.3414 11.5746 14.3822 11.5767 14.4125C11.5778 14.4276 11.5787 14.4401 11.5795 14.4499C11.5799 14.4548 11.5802 14.459 11.5805 14.4625C11.5807 14.4643 11.5808 14.4658 11.5809 14.4673C11.581 14.468 11.5811 14.4689 11.5811 14.4692C11.5812 14.4701 11.5813 14.471 13.0754 14.3388C14.5696 14.2066 14.5697 14.2074 14.5697 14.2081C14.5697 14.2083 14.5698 14.209 14.5698 14.2093C14.5699 14.2101 14.5699 14.2106 14.57 14.211C14.5701 14.2118 14.5701 14.212 14.57 14.2115C14.5699 14.2106 14.5697 14.207 14.5692 14.201C14.5684 14.189 14.567 14.1671 14.5654 14.1359C14.5621 14.0736 14.5583 13.9748 14.557 13.8447C14.5545 13.5839 14.5627 13.2016 14.6072 12.7398C14.6969 11.8077 14.9297 10.5994 15.4837 9.42124C16.0317 8.25583 16.8875 7.13005 18.2407 6.30001C19.5953 5.46915 21.5546 4.86943 24.4157 4.93309L24.4491 3.43346ZM13.0754 14.3388C13.4759 15.7844 13.4758 15.7844 13.4758 15.7844C13.4758 15.7844 13.4758 15.7844 13.4758 15.7844C13.4759 15.7844 13.476 15.7843 13.4763 15.7842C13.4769 15.7841 13.4779 15.7838 13.4793 15.7834C13.4821 15.7826 13.4866 15.7814 13.4927 15.7797C13.505 15.7764 13.5238 15.7712 13.5489 15.7644C13.5992 15.7507 13.6744 15.7304 13.7723 15.7044C13.9681 15.6524 14.2544 15.5775 14.612 15.4874C15.3279 15.3069 16.3267 15.0659 17.4567 14.8242C19.7492 14.3338 22.4651 13.8663 24.4606 13.851L24.4491 12.351L24.4375 10.8511C22.115 10.8689 19.144 11.3953 16.8292 11.8905C15.6556 12.1416 14.6206 12.3913 13.8787 12.5784C13.5074 12.672 13.2087 12.7501 13.0018 12.8051C12.8983 12.8326 12.8178 12.8543 12.7625 12.8693C12.7349 12.8768 12.7136 12.8826 12.6989 12.8867C12.6915 12.8887 12.6858 12.8902 12.6818 12.8913C12.6799 12.8919 12.6783 12.8923 12.6771 12.8927C12.6766 12.8928 12.6761 12.8929 12.6757 12.893C12.6755 12.8931 12.6754 12.8931 12.6753 12.8932C12.6751 12.8932 12.675 12.8932 13.0754 14.3388ZM24.4491 12.351L24.4606 13.851C26.4347 13.8358 29.0115 14.2978 31.1719 14.7944C32.2356 15.0389 33.1688 15.2847 33.8354 15.4692C34.1683 15.5613 34.4339 15.638 34.6149 15.6912C34.7054 15.7178 34.7748 15.7385 34.8208 15.7524C34.8438 15.7593 34.8609 15.7645 34.872 15.7679C34.8775 15.7696 34.8816 15.7708 34.884 15.7715C34.8852 15.7719 34.8861 15.7722 34.8865 15.7723C34.8867 15.7724 34.8868 15.7724 34.8869 15.7724C34.8869 15.7724 34.8868 15.7724 34.8868 15.7724C34.8867 15.7724 34.8866 15.7723 35.3282 14.3388C35.7697 12.9053 35.7696 12.9052 35.7694 12.9052C35.7693 12.9051 35.7691 12.9051 35.7689 12.905C35.7685 12.9049 35.7681 12.9047 35.7675 12.9046C35.7663 12.9042 35.7648 12.9037 35.7628 12.9031C35.7589 12.9019 35.7535 12.9003 35.7464 12.8981C35.7324 12.8939 35.7122 12.8877 35.6861 12.8799C35.6339 12.8641 35.5581 12.8415 35.4607 12.8129C35.2661 12.7557 34.9853 12.6747 34.6357 12.5779C33.9372 12.3845 32.9602 12.1272 31.8439 11.8706C29.6443 11.365 26.7816 10.8331 24.4375 10.8511L24.4491 12.351ZM13.0566 14.8295C12.1975 16.0591 12.1977 16.0592 12.1978 16.0593C12.1979 16.0594 12.198 16.0595 12.1982 16.0596C12.1985 16.0598 12.1988 16.06 12.1992 16.0603C12.2 16.0609 12.2011 16.0616 12.2025 16.0626C12.2052 16.0644 12.2089 16.067 12.2136 16.0703C12.2231 16.0769 12.2367 16.0863 12.2541 16.0983C12.2889 16.1223 12.3391 16.1568 12.403 16.2002C12.5307 16.287 12.7133 16.4099 12.937 16.5567C13.383 16.8494 13.9985 17.2415 14.6698 17.634C15.3357 18.0233 16.0842 18.4293 16.7909 18.7384C17.4262 19.0164 18.2752 19.3316 19.047 19.3026L18.9907 17.8037L18.9343 16.3048C18.9601 16.3038 18.8907 16.3077 18.6899 16.2505C18.5045 16.1977 18.2707 16.1113 17.9934 15.99C17.4383 15.7471 16.8026 15.4058 16.184 15.0441C15.5707 14.6855 15.001 14.3229 14.583 14.0486C14.3747 13.9119 14.2057 13.7982 14.0897 13.7193C14.0317 13.6799 13.9871 13.6492 13.9575 13.6288C13.9427 13.6186 13.9317 13.611 13.9246 13.6061C13.9211 13.6036 13.9186 13.6019 13.9171 13.6008C13.9163 13.6003 13.9158 13.6 13.9156 13.5998C13.9155 13.5997 13.9154 13.5997 13.9155 13.5997C13.9155 13.5997 13.9155 13.5998 13.9155 13.5998C13.9156 13.5998 13.9157 13.5999 13.0566 14.8295ZM29.8698 17.8037L29.8135 19.3026C30.6019 19.3323 31.4267 19.0062 32.0316 18.7206C32.7011 18.4045 33.3937 17.9914 34.0011 17.5985C34.6141 17.2019 35.1704 16.8062 35.5717 16.5112C35.7731 16.3631 35.9373 16.2391 36.0521 16.1513C36.1095 16.1073 36.1548 16.0724 36.1862 16.0479C36.202 16.0357 36.2143 16.0261 36.223 16.0193C36.2273 16.0159 36.2308 16.0132 36.2333 16.0112C36.2346 16.0102 36.2356 16.0094 36.2364 16.0088C36.2368 16.0084 36.2371 16.0082 36.2374 16.008C36.2375 16.0078 36.2377 16.0077 36.2378 16.0077C36.2379 16.0075 36.2381 16.0074 35.3094 14.8295C34.3807 13.6516 34.3808 13.6515 34.3809 13.6514C34.3809 13.6514 34.381 13.6514 34.381 13.6513C34.381 13.6513 34.381 13.6513 34.3809 13.6514C34.3808 13.6515 34.3804 13.6518 34.3798 13.6522C34.3786 13.6532 34.3765 13.6548 34.3736 13.6571C34.3676 13.6618 34.3581 13.6692 34.3453 13.6792C34.3196 13.6992 34.2806 13.7293 34.2297 13.7682C34.1279 13.8461 33.979 13.9586 33.7947 14.0941C33.4248 14.3661 32.9196 14.7251 32.3716 15.0796C31.818 15.4377 31.2502 15.7719 30.7506 16.0078C30.5014 16.1255 30.2931 16.2072 30.1295 16.2563C29.9537 16.309 29.8962 16.3036 29.9262 16.3048L29.8698 17.8037ZM18.9907 17.8037L19.047 19.3026C20.063 19.2644 21.0931 18.952 21.8762 18.7275C22.7511 18.4766 23.3859 18.3123 23.9357 18.3123V16.8123V15.3123C22.8931 15.3123 21.851 15.6138 21.0493 15.8437C20.1559 16.0998 19.5098 16.2831 18.9343 16.3048L18.9907 17.8037ZM23.9357 16.8123V18.3123C24.5323 18.3123 25.4389 18.4977 26.5789 18.7501C27.5989 18.9759 28.8478 19.2663 29.8135 19.3026L29.8698 17.8037L29.9262 16.3048C29.3004 16.2812 28.3786 16.0759 27.2275 15.821C26.1964 15.5927 24.9317 15.3123 23.9357 15.3123V16.8123Z" fill="#00DBDC"/>
</svg>
