<svg width="100" height="100" viewBox="0 0 100 100" fill="none" xmlns="http://www.w3.org/2000/svg">
<circle cx="50" cy="50" r="49.5" fill="#00DBDC" fill-opacity="0.05" stroke="#00DBDC"/>
<path d="M49.4758 45C39 46 38.0002 45 39.9997 69H43.9997M69 48C53 49 42.05 43.1499 38 31M54.9993 48C35.999 61 30.9996 44 31.9997 43C32.9998 42 41 37 45 31M62 39C62 41.2091 60.2091 43 58 43C55.7909 43 54 41.2091 54 39C54 36.7909 55.7909 35 58 35C60.2091 35 62 36.7909 62 39Z" stroke="#00DBDC" stroke-width="3.2" stroke-linecap="round" stroke-linejoin="round"/>
</svg>
