<svg width="121" height="34" viewBox="0 0 121 34" fill="none" xmlns="http://www.w3.org/2000/svg">
<g filter="url(#filter0_d_2325_2059)">
<rect x="3.79883" y="1.98779" width="113" height="24" rx="12" transform="rotate(-1 3.79883 1.98779)" fill="url(#paint0_linear_2325_2059)"/>
<path d="M19.9559 17.8276C19.3708 17.8378 18.8464 17.7461 18.3827 17.5525C17.9219 17.3588 17.5548 17.0853 17.2816 16.7321C17.0111 16.376 16.8618 15.9609 16.8337 15.4869L18.1715 15.4635C18.1931 15.7217 18.2836 15.9446 18.4432 16.1322C18.6055 16.3169 18.8154 16.4581 19.0728 16.5559C19.3303 16.6537 19.6152 16.6999 19.9276 16.6944C20.2713 16.6884 20.5742 16.6235 20.8363 16.4996C21.1012 16.3756 21.3071 16.2058 21.4539 15.9901C21.6007 15.7716 21.6716 15.5218 21.6667 15.2406C21.6616 14.948 21.5819 14.6922 21.4275 14.4733C21.2758 14.2515 21.0555 14.0792 20.7664 13.9564C20.4801 13.8335 20.1353 13.7756 19.7319 13.7826L18.9948 13.7955L18.9761 12.7218L19.7132 12.7089C20.037 12.7033 20.32 12.6401 20.5623 12.5194C20.8074 12.3986 20.9977 12.2333 21.1332 12.0235C21.2688 11.8109 21.3341 11.564 21.3292 11.2828C21.3244 11.0129 21.2593 10.7797 21.1337 10.583C21.0108 10.3834 20.8377 10.2287 20.6141 10.1189C20.3934 10.0091 20.134 9.95684 19.8357 9.96205C19.5517 9.96701 19.287 10.0242 19.0417 10.1336C18.7992 10.2401 18.6029 10.3913 18.4529 10.5871C18.3029 10.7801 18.2245 11.0102 18.2178 11.2774L16.9438 11.2997C16.9498 10.8279 17.0818 10.4107 17.3397 10.0482C17.6004 9.68568 17.9478 9.39974 18.3817 9.19043C18.8156 8.98112 19.2995 8.87181 19.8336 8.86249C20.3931 8.85272 20.8779 8.95365 21.2879 9.16528C21.7007 9.37401 22.021 9.65682 22.2489 10.0137C22.4796 10.3705 22.5973 10.7634 22.6019 11.1924C22.6133 11.6809 22.4842 12.098 22.2146 12.4436C21.9479 12.7893 21.5883 13.0243 21.1358 13.1487L21.137 13.2168C21.718 13.2948 22.1708 13.517 22.4955 13.8836C22.8229 14.2501 22.99 14.7089 22.9968 15.26C23.008 15.74 22.8821 16.1726 22.6189 16.5579C22.3585 16.9432 21.9987 17.2493 21.5395 17.4761C21.0803 17.7 20.5524 17.8172 19.9559 17.8276ZM27.6896 17.7182C27.0164 17.7271 26.4381 17.5596 25.9547 17.2157C25.4714 16.8718 25.0974 16.3655 24.8329 15.6967C24.5683 15.028 24.4277 14.2192 24.4112 13.2705C24.3947 12.3246 24.507 11.5143 24.7481 10.8395C24.992 10.1647 25.3495 9.64702 25.8206 9.28647C26.2945 8.92588 26.8652 8.73975 27.5327 8.7281C28.2002 8.71645 28.7756 8.88399 29.259 9.23072C29.7424 9.57461 30.1163 10.0795 30.3808 10.7455C30.6481 11.4085 30.79 12.213 30.8065 13.1589C30.8231 14.1104 30.7109 14.925 30.4699 15.6026C30.2288 16.2774 29.8727 16.7964 29.4017 17.1598C28.9306 17.5204 28.3599 17.7065 27.6896 17.7182ZM27.6697 16.5806C28.2606 16.5703 28.7171 16.2739 29.0394 15.6915C29.3645 15.109 29.5175 14.2724 29.4985 13.1817C29.4858 12.4574 29.3985 11.8466 29.2363 11.3493C29.077 10.8492 28.8531 10.4724 28.5645 10.2188C28.2788 9.96243 27.9413 9.83761 27.5522 9.84441C26.9642 9.85467 26.5077 10.1525 26.1826 10.7378C25.8575 11.3231 25.7031 12.1597 25.7192 13.2477C25.7319 13.9748 25.8179 14.5885 25.9772 15.0886C26.1394 15.5858 26.3633 15.9613 26.649 16.2148C26.9347 16.4656 27.2749 16.5875 27.6697 16.5806ZM35.4345 17.583C34.7613 17.5919 34.183 17.4244 33.6996 17.0806C33.2163 16.7367 32.8423 16.2303 32.5778 15.5615C32.3132 14.8928 32.1727 14.084 32.1561 13.1353C32.1396 12.1894 32.2519 11.3791 32.493 10.7043C32.7369 10.0295 33.0944 9.51183 33.5655 9.15129C34.0394 8.79069 34.6101 8.60456 35.2776 8.59291C35.9451 8.58126 36.5206 8.7488 37.0039 9.09553C37.4873 9.43942 37.8612 9.94433 38.1257 10.6103C38.393 11.2733 38.5349 12.0778 38.5514 13.0237C38.568 13.9752 38.4558 14.7898 38.2148 15.4674C37.9737 16.1422 37.6176 16.6613 37.1466 17.0246C36.6756 17.3852 36.1049 17.5713 35.4345 17.583ZM35.4146 16.4454C36.0055 16.4351 36.462 16.1387 36.7843 15.5563C37.1094 14.9738 37.2624 14.1372 37.2434 13.0465C37.2307 12.3222 37.1434 11.7114 36.9813 11.2141C36.8219 10.714 36.598 10.3372 36.3094 10.0837C36.0237 9.82724 35.6862 9.70243 35.2971 9.70922C34.7091 9.71948 34.2526 10.0173 33.9275 10.6026C33.6024 11.1879 33.448 12.0245 33.4641 13.1125C33.4768 13.8396 33.5628 14.4533 33.7222 14.9534C33.8843 15.4507 34.1082 15.8261 34.3939 16.0796C34.6796 16.3304 35.0198 16.4523 35.4146 16.4454ZM43.4336 17.2985L43.2813 8.57254L48.6924 8.47809L48.7122 9.61144L44.6176 9.68291L44.664 12.3416L48.3709 12.2769L48.3906 13.406L44.6837 13.4707L44.7502 17.2755L43.4336 17.2985ZM50.2795 17.179L50.1653 10.6345L51.3966 10.613L51.4148 11.6527L51.4829 11.6515C51.5961 11.2972 51.8014 11.0165 52.099 10.8096C52.3994 10.5998 52.7413 10.4915 53.1248 10.4848C53.2043 10.4835 53.2981 10.4847 53.4061 10.4885C53.517 10.4922 53.6037 10.4978 53.6664 10.5052L53.6877 11.7238C53.6363 11.7105 53.5451 11.6964 53.4142 11.6817C53.2831 11.6641 53.1523 11.6564 53.0216 11.6587C52.7206 11.664 52.4532 11.7326 52.2197 11.8645C51.989 11.9935 51.8074 12.1714 51.675 12.3982C51.5425 12.6222 51.4787 12.8762 51.4837 13.1602L51.5535 17.1568L50.2795 17.179ZM56.7328 17.2113C56.318 17.2185 55.9418 17.1483 55.6039 17.0008C55.266 16.8504 54.9965 16.6293 54.7953 16.3373C54.597 16.0452 54.4941 15.6848 54.4866 15.2558C54.4802 14.8866 54.5459 14.5814 54.6838 14.3403C54.8216 14.0993 55.0101 13.907 55.2491 13.7636C55.4881 13.6202 55.7561 13.5104 56.0531 13.4342C56.3501 13.358 56.6531 13.2987 56.9621 13.2564C57.3533 13.2041 57.6707 13.1616 57.9145 13.1289C58.1583 13.0934 58.3349 13.0406 58.4445 12.9705C58.5541 12.9004 58.6076 12.7887 58.6049 12.6353L58.6044 12.6054C58.5979 12.2333 58.4877 11.9469 58.274 11.746C58.063 11.5451 57.7516 11.4483 57.3398 11.4555C56.9109 11.463 56.5745 11.564 56.3307 11.7586C56.0897 11.9504 55.9243 12.1621 55.8346 12.3938L54.6326 12.142C54.7677 11.7419 54.9694 11.4173 55.2379 11.1682C55.5091 10.9163 55.8227 10.7318 56.1786 10.6148C56.5345 10.4949 56.9099 10.4316 57.3047 10.4247C57.5661 10.4201 57.8436 10.4465 58.1372 10.5039C58.4337 10.5584 58.7111 10.6644 58.9696 10.8218C59.2309 10.9792 59.4466 11.207 59.6166 11.5052C59.7865 11.8006 59.8757 12.1869 59.884 12.6641L59.9598 17.01L58.7157 17.0317L58.7001 16.137L58.649 16.1379C58.5695 16.3041 58.4487 16.4681 58.2868 16.6301C58.1248 16.792 57.9155 16.9278 57.6588 17.0374C57.4022 17.147 57.0935 17.205 56.7328 17.2113ZM56.9919 16.1839C57.3441 16.1777 57.6439 16.1029 57.8915 15.9593C58.1419 15.8157 58.3304 15.6306 58.4572 15.4039C58.5867 15.1743 58.6492 14.9303 58.6447 14.6718L58.63 13.8282C58.5853 13.8744 58.498 13.9186 58.368 13.9606C58.2409 13.9998 58.0951 14.035 57.9309 14.0663C57.7666 14.0947 57.6065 14.1217 57.4507 14.1471C57.2948 14.1697 57.1645 14.1891 57.0596 14.2051C56.813 14.2407 56.5881 14.2971 56.3849 14.3746C56.1845 14.4519 56.0245 14.5613 55.9048 14.7026C55.7878 14.841 55.7314 15.0239 55.7353 15.2511C55.7408 15.5664 55.8615 15.803 56.0972 15.9608C56.3329 16.1158 56.6311 16.1901 56.9919 16.1839ZM62.8628 13.0724L62.9306 16.9582L61.6567 16.9804L61.5424 10.4359L62.7653 10.4146L62.7839 11.4798L62.8648 11.4784C63.0093 11.1292 63.2402 10.8467 63.5575 10.6309C63.8777 10.4151 64.2834 10.3029 64.7748 10.2943C65.2208 10.2865 65.613 10.3734 65.9514 10.555C66.2898 10.7338 66.5546 11.0048 66.7456 11.368C66.9366 11.7312 67.0368 12.1826 67.0463 12.7223L67.1189 16.8851L65.845 16.9073L65.775 12.898C65.7667 12.4236 65.6367 12.0551 65.3849 11.7924C65.1331 11.5269 64.7913 11.3979 64.3595 11.4054C64.0641 11.4105 63.8025 11.479 63.5746 11.6109C63.3496 11.7427 63.1725 11.9333 63.0433 12.1827C62.9169 12.4293 62.8568 12.7259 62.8628 13.0724ZM71.5864 16.9392C70.953 16.9503 70.4051 16.8163 69.9428 16.5374C69.4833 16.2556 69.1269 15.8626 68.8738 15.3585C68.6206 14.8543 68.4883 14.2741 68.4769 13.618C68.4653 12.9533 68.58 12.3646 68.8211 11.8517C69.0621 11.3361 69.4074 10.9309 69.8569 10.636C70.3063 10.3412 70.8393 10.1884 71.4556 10.1777C71.9527 10.169 72.3974 10.2536 72.7898 10.4314C73.1821 10.6064 73.5005 10.8566 73.7448 11.1819C73.992 11.5072 74.1422 11.8896 74.1953 12.329L72.9554 12.3507C72.8819 12.0451 72.7211 11.7837 72.4729 11.5664C72.2276 11.349 71.9019 11.2439 71.4957 11.251C71.1406 11.2572 70.8312 11.3564 70.5675 11.5485C70.3066 11.7377 70.1052 12.0055 69.9635 12.3518C69.8218 12.6952 69.755 13.0998 69.7631 13.5657C69.7714 14.0429 69.851 14.4535 70.002 14.7975C70.1529 15.1415 70.3621 15.4064 70.6296 15.5921C70.8999 15.7777 71.2154 15.8674 71.5762 15.8611C71.8176 15.8569 72.0355 15.809 72.23 15.7176C72.4272 15.6232 72.5912 15.491 72.7217 15.3211C72.8552 15.1512 72.9468 14.9478 72.9966 14.7111L74.2365 14.6895C74.1984 15.1135 74.0673 15.4937 73.843 15.83C73.6187 16.1664 73.3151 16.4331 72.9321 16.6302C72.552 16.8272 72.1034 16.9302 71.5864 16.9392ZM76.8411 12.8284L76.909 16.7142L75.635 16.7364L75.4827 8.01046L76.7396 7.98853L76.7963 11.2352L76.8772 11.2338C77.0245 10.8789 77.2539 10.595 77.5656 10.3821C77.8773 10.1693 78.2873 10.0584 78.7958 10.0495C79.2446 10.0417 79.6382 10.1272 79.9766 10.306C80.3178 10.4847 80.5839 10.7557 80.775 11.1189C80.9688 11.4792 81.0705 11.932 81.08 12.4774L81.1526 16.6401L79.8787 16.6623L79.8087 12.653C79.8003 12.173 79.6703 11.803 79.4185 11.5432C79.1668 11.2805 78.8207 11.153 78.3805 11.1607C78.0794 11.1659 77.8106 11.2345 77.5743 11.3665C77.3407 11.4985 77.158 11.6892 77.0259 11.9387C76.8967 12.1853 76.8351 12.4819 76.8411 12.8284ZM82.8527 16.6104L82.7384 10.066L84.0124 10.0437L84.1266 16.5882L82.8527 16.6104ZM83.3642 9.04495C83.1426 9.04881 82.951 8.97828 82.7894 8.83336C82.6305 8.68554 82.5493 8.50795 82.5457 8.3006C82.542 8.0904 82.617 7.91009 82.7706 7.75966C82.9271 7.60633 83.1161 7.52774 83.3376 7.52387C83.5592 7.52 83.7494 7.59198 83.9082 7.7398C84.0699 7.88473 84.1525 8.06229 84.1562 8.27248C84.1598 8.47984 84.0834 8.66018 83.927 8.8135C83.7733 8.96393 83.5857 9.04108 83.3642 9.04495ZM90.6582 11.526L89.5071 11.7506C89.4563 11.6038 89.3771 11.4645 89.2697 11.3329C89.1651 11.2011 89.024 11.0942 88.8464 11.0121C88.6688 10.9299 88.448 10.8912 88.1838 10.8958C87.823 10.9021 87.5234 10.9883 87.2848 11.1544C87.0461 11.3177 86.929 11.5257 86.9334 11.7785C86.9372 11.9972 87.0212 12.1719 87.1855 12.3026C87.3497 12.4333 87.6129 12.5381 87.9752 12.617L89.0189 12.8375C89.6235 12.9661 90.0761 13.1728 90.3766 13.4573C90.677 13.7419 90.8313 14.1157 90.8394 14.5787C90.8462 14.9707 90.7387 15.322 90.5168 15.6328C90.2977 15.9406 89.988 16.1847 89.5877 16.365C89.1902 16.5453 88.7273 16.64 88.199 16.6492C87.4661 16.662 86.8655 16.5162 86.397 16.2119C85.9285 15.9046 85.6367 15.4622 85.5215 14.8846L86.7495 14.6756C86.8318 14.9953 86.9937 15.2354 87.2352 15.396C87.4766 15.5537 87.7891 15.6292 88.1725 15.6225C88.5901 15.6153 88.9223 15.5228 89.1693 15.3452C89.4161 15.1647 89.5374 14.9481 89.533 14.6952C89.5294 14.4907 89.4497 14.3202 89.2939 14.1837C89.1409 14.0472 88.9076 13.9461 88.5939 13.8805L87.4819 13.657C86.8687 13.5285 86.4132 13.3148 86.1154 13.016C85.8203 12.7171 85.6687 12.3348 85.6606 11.8689C85.6539 11.4826 85.7559 11.1427 85.9667 10.8492C86.1775 10.5557 86.4719 10.3247 86.8497 10.1562C87.2274 9.98477 87.662 9.89479 88.1534 9.88621C88.8607 9.87386 89.4201 10.0175 89.8316 10.3172C90.2431 10.6141 90.5186 11.017 90.6582 11.526ZM95.096 16.5288C94.4512 16.5401 93.8935 16.412 93.4229 16.1446C92.955 15.8743 92.5903 15.49 92.3287 14.9917C92.0699 14.4904 91.9346 13.9004 91.9227 13.2215C91.911 12.5511 92.0257 11.9581 92.2667 11.4425C92.5106 10.9268 92.8559 10.5216 93.3025 10.2268C93.752 9.93197 94.2806 9.77926 94.8885 9.76865C95.2578 9.7622 95.6167 9.81702 95.9654 9.93312C96.3141 10.0492 96.6285 10.2355 96.9085 10.492C97.1886 10.7485 97.4118 11.0842 97.5782 11.499C97.7445 11.9109 97.8328 12.4137 97.8432 13.0073L97.8511 13.459L92.6488 13.5498L92.6321 12.5954L96.586 12.5264C96.5802 12.1912 96.5068 11.8956 96.366 11.6395C96.2251 11.3805 96.0298 11.1779 95.78 11.0317C95.5331 10.8854 95.2449 10.8151 94.9154 10.8209C94.5575 10.8271 94.2466 10.9206 93.9826 11.1014C93.7215 11.2793 93.521 11.5101 93.381 11.7938C93.2438 12.0747 93.1781 12.3784 93.1838 12.7051L93.1968 13.4507C93.2045 13.8882 93.2876 14.2589 93.4464 14.563C93.608 14.8671 93.8294 15.0976 94.1105 15.2546C94.3917 15.4089 94.7183 15.4827 95.0904 15.4762C95.3319 15.472 95.5514 15.4341 95.749 15.3624C95.9466 15.288 96.1167 15.1799 96.2591 15.0381C96.4015 14.8964 96.5093 14.7226 96.5824 14.5168L97.792 14.713C97.7016 15.0698 97.5338 15.3838 97.2885 15.6552C97.046 15.9237 96.7385 16.1351 96.3662 16.2893C95.9966 16.4407 95.5732 16.5205 95.096 16.5288ZM104.133 11.2908L102.982 11.5155C102.931 11.3686 102.852 11.2293 102.744 11.0977C102.64 10.9659 102.499 10.859 102.321 10.7769C102.143 10.6947 101.922 10.656 101.658 10.6606C101.298 10.6669 100.998 10.7531 100.759 10.9192C100.521 11.0825 100.403 11.2905 100.408 11.5433C100.412 11.762 100.496 11.9367 100.66 12.0674C100.824 12.1981 101.087 12.3029 101.45 12.3818L102.493 12.6023C103.098 12.7309 103.551 12.9376 103.851 13.2221C104.152 13.5067 104.306 13.8805 104.314 14.3435C104.321 14.7355 104.213 15.0868 103.991 15.3976C103.772 15.7054 103.463 15.9495 103.062 16.1298C102.665 16.3101 102.202 16.4048 101.673 16.414C100.941 16.4268 100.34 16.281 99.8715 15.9767C99.403 15.6694 99.1112 15.227 98.996 14.6494L100.224 14.4404C100.306 14.7601 100.468 15.0002 100.71 15.1608C100.951 15.3185 101.264 15.394 101.647 15.3873C102.065 15.3801 102.397 15.2876 102.644 15.11C102.891 14.9295 103.012 14.7129 103.007 14.4601C103.004 14.2555 102.924 14.085 102.768 13.9485C102.615 13.812 102.382 13.7109 102.068 13.6454L100.956 13.4218C100.343 13.2933 99.8877 13.0796 99.5899 12.7808C99.2948 12.4819 99.1433 12.0996 99.1351 11.6337C99.1284 11.2474 99.2304 10.9075 99.4412 10.614C99.6521 10.3205 99.9464 10.0895 100.324 9.92096C100.702 9.74957 101.136 9.65959 101.628 9.65101C102.335 9.63866 102.895 9.78233 103.306 10.082C103.718 10.3789 103.993 10.7818 104.133 11.2908Z" fill="#141414"/>
</g>
<defs>
<filter id="filter0_d_2325_2059" x="0.00585938" y="0.223145" width="120.986" height="33.5535" filterUnits="userSpaceOnUse" color-interpolation-filters="sRGB">
<feFlood flood-opacity="0" result="BackgroundImageFix"/>
<feColorMatrix in="SourceAlpha" type="matrix" values="0 0 0 0 0 0 0 0 0 0 0 0 0 0 0 0 0 0 127 0" result="hardAlpha"/>
<feOffset dy="4"/>
<feGaussianBlur stdDeviation="2"/>
<feComposite in2="hardAlpha" operator="out"/>
<feColorMatrix type="matrix" values="0 0 0 0 0 0 0 0 0 0 0 0 0 0 0 0 0 0 0.25 0"/>
<feBlend mode="normal" in2="BackgroundImageFix" result="effect1_dropShadow_2325_2059"/>
<feBlend mode="normal" in="SourceGraphic" in2="effect1_dropShadow_2325_2059" result="shape"/>
</filter>
<linearGradient id="paint0_linear_2325_2059" x1="11.6938" y1="1.98779" x2="19.0776" y2="42.4001" gradientUnits="userSpaceOnUse">
<stop stop-color="#0BFFB6"/>
<stop offset="0.581731" stop-color="#00DBDC"/>
</linearGradient>
</defs>
</svg>
