<svg width="165" height="44" viewBox="0 0 165 44" fill="none" xmlns="http://www.w3.org/2000/svg">
<g filter="url(#filter0_d_2532_1356)">
<rect x="4" y="6.10352e-05" width="157" height="36" rx="18" fill="url(#paint0_linear_2532_1356)"/>
<path d="M29.1705 24.1592C28.3902 24.1592 27.6932 24.0247 27.0795 23.7557C26.4697 23.4868 25.9867 23.1137 25.6307 22.6364C25.2784 22.1554 25.089 21.5985 25.0625 20.966H26.8466C26.8693 21.3107 26.9848 21.6099 27.1932 21.8637C27.4053 22.1137 27.6818 22.3069 28.0227 22.4432C28.3636 22.5796 28.7424 22.6478 29.1591 22.6478C29.6174 22.6478 30.0227 22.5682 30.375 22.4092C30.7311 22.2501 31.0095 22.0285 31.2102 21.7444C31.411 21.4565 31.5114 21.1251 31.5114 20.7501C31.5114 20.3599 31.411 20.0171 31.2102 19.7217C31.0133 19.4224 30.7235 19.1876 30.3409 19.0171C29.9621 18.8467 29.5038 18.7614 28.9659 18.7614H27.983V17.3296H28.9659C29.3977 17.3296 29.7765 17.252 30.1023 17.0967C30.4318 16.9413 30.6894 16.7254 30.875 16.4489C31.0606 16.1686 31.1534 15.841 31.1534 15.466C31.1534 15.1061 31.072 14.7936 30.9091 14.5285C30.75 14.2595 30.5227 14.0493 30.2273 13.8978C29.9356 13.7463 29.5909 13.6705 29.1932 13.6705C28.8144 13.6705 28.4602 13.7406 28.1307 13.8807C27.8049 14.0171 27.5398 14.2141 27.3352 14.4717C27.1307 14.7254 27.0208 15.0304 27.0057 15.3864H25.3068C25.3258 14.7576 25.5114 14.2046 25.8636 13.7273C26.2197 13.2501 26.6894 12.877 27.2727 12.608C27.8561 12.3391 28.5038 12.2046 29.2159 12.2046C29.9621 12.2046 30.6061 12.3504 31.1477 12.6421C31.6932 12.93 32.1136 13.3145 32.4091 13.7955C32.7083 14.2766 32.8561 14.8031 32.8523 15.3751C32.8561 16.0266 32.6742 16.5796 32.3068 17.0342C31.9432 17.4887 31.4583 17.7936 30.8523 17.9489V18.0398C31.625 18.1573 32.2235 18.4641 32.6477 18.9603C33.0758 19.4565 33.2879 20.072 33.2841 20.8069C33.2879 21.447 33.1098 22.0209 32.75 22.5285C32.3939 23.036 31.9072 23.4357 31.2898 23.7273C30.6723 24.0152 29.9659 24.1592 29.1705 24.1592ZM39.323 24.1932C38.4252 24.1895 37.6582 23.9527 37.0218 23.483C36.3855 23.0133 35.8987 22.3296 35.5616 21.4319C35.2245 20.5342 35.0559 19.4527 35.0559 18.1876C35.0559 16.9262 35.2245 15.8485 35.5616 14.9546C35.9025 14.0607 36.3911 13.3788 37.0275 12.9092C37.6677 12.4395 38.4328 12.2046 39.323 12.2046C40.2131 12.2046 40.9764 12.4413 41.6127 12.9148C42.2491 13.3845 42.7358 14.0663 43.073 14.9603C43.4139 15.8504 43.5843 16.9262 43.5843 18.1876C43.5843 19.4565 43.4158 20.5398 43.0786 21.4376C42.7415 22.3315 42.2548 23.0152 41.6184 23.4887C40.982 23.9584 40.2169 24.1932 39.323 24.1932ZM39.323 22.6762C40.1108 22.6762 40.7264 22.2917 41.1695 21.5228C41.6165 20.7538 41.84 19.6421 41.84 18.1876C41.84 17.2217 41.7377 16.4054 41.5332 15.7387C41.3324 15.0682 41.0427 14.5607 40.6639 14.216C40.2889 13.8675 39.8419 13.6932 39.323 13.6932C38.5389 13.6932 37.9233 14.0796 37.4764 14.8523C37.0294 15.6251 36.804 16.7368 36.8002 18.1876C36.8002 19.1573 36.9006 19.9773 37.1014 20.6478C37.3059 21.3145 37.5957 21.8201 37.9707 22.1648C38.3457 22.5057 38.7964 22.6762 39.323 22.6762ZM49.4911 24.1932C48.5934 24.1895 47.8263 23.9527 47.1899 23.483C46.5536 23.0133 46.0668 22.3296 45.7297 21.4319C45.3926 20.5342 45.224 19.4527 45.224 18.1876C45.224 16.9262 45.3926 15.8485 45.7297 14.9546C46.0706 14.0607 46.5593 13.3788 47.1956 12.9092C47.8358 12.4395 48.6009 12.2046 49.4911 12.2046C50.3812 12.2046 51.1445 12.4413 51.7809 12.9148C52.4172 13.3845 52.904 14.0663 53.2411 14.9603C53.582 15.8504 53.7524 16.9262 53.7524 18.1876C53.7524 19.4565 53.5839 20.5398 53.2468 21.4376C52.9096 22.3315 52.4229 23.0152 51.7865 23.4887C51.1502 23.9584 50.385 24.1932 49.4911 24.1932ZM49.4911 22.6762C50.279 22.6762 50.8945 22.2917 51.3377 21.5228C51.7846 20.7538 52.0081 19.6421 52.0081 18.1876C52.0081 17.2217 51.9059 16.4054 51.7013 15.7387C51.5005 15.0682 51.2108 14.5607 50.832 14.216C50.457 13.8675 50.01 13.6932 49.4911 13.6932C48.707 13.6932 48.0915 14.0796 47.6445 14.8523C47.1975 15.6251 46.9721 16.7368 46.9684 18.1876C46.9684 19.1573 47.0687 19.9773 47.2695 20.6478C47.474 21.3145 47.7638 21.8201 48.1388 22.1648C48.5138 22.5057 48.9646 22.6762 49.4911 22.6762ZM59.8415 24.0001V12.3637H67.0574V13.8751H61.5972V17.4205H66.5404V18.9262H61.5972V24.0001H59.8415ZM68.8108 24.0001V15.2728H70.4528V16.6592H70.5438C70.7028 16.1895 70.9831 15.8201 71.3847 15.5512C71.79 15.2785 72.2483 15.1421 72.7597 15.1421C72.8657 15.1421 72.9907 15.1459 73.1347 15.1535C73.2824 15.161 73.3979 15.1705 73.4813 15.1819V16.8069C73.4131 16.7879 73.2919 16.7671 73.1176 16.7444C72.9434 16.7179 72.7691 16.7046 72.5949 16.7046C72.1934 16.7046 71.8354 16.7898 71.521 16.9603C71.2104 17.127 70.9642 17.3599 70.7824 17.6592C70.6006 17.9546 70.5097 18.2917 70.5097 18.6705V24.0001H68.8108ZM77.2531 24.1932C76.7 24.1932 76.2 24.091 75.7531 23.8864C75.3061 23.6781 74.9519 23.377 74.6906 22.983C74.433 22.5891 74.3042 22.1061 74.3042 21.5342C74.3042 21.0417 74.3989 20.6364 74.5883 20.3182C74.7777 20.0001 75.0334 19.7482 75.3553 19.5626C75.6773 19.377 76.0372 19.2368 76.4349 19.1421C76.8326 19.0474 77.2379 18.9754 77.6508 18.9262C78.1735 18.8656 78.5978 18.8163 78.9235 18.7785C79.2493 18.7368 79.486 18.6705 79.6338 18.5796C79.7815 18.4887 79.8553 18.341 79.8553 18.1364V18.0967C79.8553 17.6004 79.7152 17.216 79.4349 16.9432C79.1584 16.6705 78.7455 16.5342 78.1963 16.5342C77.6243 16.5342 77.1735 16.661 76.844 16.9148C76.5182 17.1648 76.2928 17.4432 76.1678 17.7501L74.5713 17.3864C74.7606 16.8561 75.0372 16.4281 75.4008 16.1023C75.7682 15.7728 76.1906 15.5342 76.6678 15.3864C77.1451 15.2349 77.647 15.1592 78.1735 15.1592C78.522 15.1592 78.8913 15.2008 79.2815 15.2842C79.6754 15.3637 80.0428 15.5114 80.3838 15.7273C80.7284 15.9432 81.0106 16.252 81.2303 16.6535C81.45 17.0512 81.5599 17.5682 81.5599 18.2046V24.0001H79.9008V22.8069H79.8326C79.7228 23.0266 79.558 23.2425 79.3383 23.4546C79.1186 23.6667 78.8364 23.8429 78.4917 23.983C78.147 24.1232 77.7341 24.1932 77.2531 24.1932ZM77.6224 22.8296C78.0921 22.8296 78.4936 22.7368 78.8269 22.5512C79.1641 22.3656 79.4197 22.1232 79.594 21.8239C79.772 21.5209 79.861 21.197 79.861 20.8523V19.7273C79.8004 19.7879 79.683 19.8448 79.5088 19.8978C79.3383 19.947 79.1432 19.9906 78.9235 20.0285C78.7038 20.0626 78.4898 20.0948 78.2815 20.1251C78.0731 20.1516 77.8989 20.1743 77.7588 20.1932C77.4292 20.2349 77.1281 20.305 76.8553 20.4035C76.5864 20.502 76.3705 20.644 76.2076 20.8296C76.0485 21.0114 75.969 21.2538 75.969 21.5569C75.969 21.9773 76.1243 22.2955 76.4349 22.5114C76.7455 22.7235 77.1413 22.8296 77.6224 22.8296ZM85.3615 18.8182V24.0001H83.6627V15.2728H85.2934V16.6932H85.4013C85.6021 16.2311 85.9165 15.8599 86.3445 15.5796C86.7763 15.2993 87.3199 15.1592 87.9752 15.1592C88.5699 15.1592 89.0907 15.2842 89.5377 15.5342C89.9846 15.7804 90.3312 16.1478 90.5774 16.6364C90.8237 17.1251 90.9468 17.7292 90.9468 18.4489V24.0001H89.2479V18.6535C89.2479 18.0209 89.0831 17.5266 88.7536 17.1705C88.424 16.8107 87.9714 16.6307 87.3956 16.6307C87.0017 16.6307 86.6513 16.716 86.3445 16.8864C86.0415 17.0569 85.8009 17.3069 85.6229 17.6364C85.4487 17.9622 85.3615 18.3561 85.3615 18.8182ZM96.7413 24.1762C95.8966 24.1762 95.1693 23.9849 94.5595 23.6023C93.9534 23.216 93.4875 22.6838 93.1618 22.0057C92.836 21.3277 92.6731 20.5512 92.6731 19.6762C92.6731 18.7898 92.8398 18.0076 93.1731 17.3296C93.5065 16.6478 93.9762 16.1156 94.5822 15.733C95.1883 15.3504 95.9023 15.1592 96.7243 15.1592C97.3871 15.1592 97.9781 15.2823 98.497 15.5285C99.0159 15.7709 99.4345 16.1118 99.7527 16.5512C100.075 16.9906 100.266 17.5038 100.327 18.091H98.6731C98.5822 17.6819 98.3739 17.3296 98.0481 17.0342C97.7262 16.7387 97.2943 16.591 96.7527 16.591C96.2792 16.591 95.8644 16.716 95.5084 16.966C95.1561 17.2122 94.8815 17.5645 94.6845 18.0228C94.4875 18.4773 94.389 19.0152 94.389 19.6364C94.389 20.2728 94.4856 20.822 94.6788 21.2842C94.872 21.7463 95.1447 22.1042 95.497 22.358C95.8531 22.6118 96.2716 22.7387 96.7527 22.7387C97.0746 22.7387 97.3663 22.68 97.6277 22.5626C97.8928 22.4413 98.1144 22.269 98.2924 22.0455C98.4743 21.822 98.6012 21.5531 98.6731 21.2387H100.327C100.266 21.8031 100.082 22.3069 99.7754 22.7501C99.4686 23.1932 99.0576 23.5417 98.5424 23.7955C98.0311 24.0493 97.4307 24.1762 96.7413 24.1762ZM103.682 18.8182V24.0001H101.983V12.3637H103.659V16.6932H103.767C103.972 16.2235 104.284 15.8504 104.705 15.5739C105.125 15.2974 105.675 15.1592 106.353 15.1592C106.951 15.1592 107.474 15.2823 107.921 15.5285C108.372 15.7747 108.72 16.1421 108.966 16.6307C109.216 17.1156 109.341 17.7217 109.341 18.4489V24.0001H107.642V18.6535C107.642 18.0133 107.478 17.5171 107.148 17.1648C106.819 16.8088 106.36 16.6307 105.773 16.6307C105.372 16.6307 105.012 16.716 104.694 16.8864C104.379 17.0569 104.131 17.3069 103.949 17.6364C103.771 17.9622 103.682 18.3561 103.682 18.8182ZM111.448 24.0001V15.2728H113.147V24.0001H111.448ZM112.306 13.9262C112.011 13.9262 111.757 13.8277 111.545 13.6307C111.337 13.43 111.232 13.1913 111.232 12.9148C111.232 12.6345 111.337 12.3959 111.545 12.1989C111.757 11.9982 112.011 11.8978 112.306 11.8978C112.602 11.8978 112.854 11.9982 113.062 12.1989C113.274 12.3959 113.38 12.6345 113.38 12.9148C113.38 13.1913 113.274 13.43 113.062 13.6307C112.854 13.8277 112.602 13.9262 112.306 13.9262ZM121.812 17.4035L120.273 17.6762C120.208 17.4792 120.106 17.2917 119.966 17.1137C119.829 16.9357 119.644 16.7898 119.409 16.6762C119.174 16.5626 118.881 16.5057 118.528 16.5057C118.047 16.5057 117.646 16.6137 117.324 16.8296C117.002 17.0417 116.841 17.3163 116.841 17.6535C116.841 17.9451 116.949 18.18 117.165 18.358C117.381 18.536 117.729 18.6819 118.21 18.7955L119.597 19.1137C120.4 19.2993 120.998 19.5853 121.392 19.9717C121.786 20.358 121.983 20.8599 121.983 21.4773C121.983 22.0001 121.831 22.466 121.528 22.8751C121.229 23.2804 120.811 23.5985 120.273 23.8296C119.739 24.0607 119.119 24.1762 118.415 24.1762C117.437 24.1762 116.64 23.9679 116.023 23.5512C115.405 23.1307 115.026 22.5342 114.886 21.7614L116.528 21.5114C116.631 21.9395 116.841 22.2633 117.159 22.483C117.477 22.6989 117.892 22.8069 118.403 22.8069C118.96 22.8069 119.405 22.6913 119.739 22.4603C120.072 22.2254 120.239 21.9395 120.239 21.6023C120.239 21.3296 120.136 21.1004 119.932 20.9148C119.731 20.7292 119.422 20.5891 119.006 20.4944L117.528 20.1705C116.714 19.9849 116.112 19.6895 115.722 19.2842C115.335 18.8788 115.142 18.3656 115.142 17.7444C115.142 17.2292 115.286 16.7785 115.574 16.3921C115.862 16.0057 116.259 15.7046 116.767 15.4887C117.275 15.269 117.856 15.1592 118.511 15.1592C119.454 15.1592 120.197 15.3637 120.739 15.7728C121.28 16.1781 121.638 16.7217 121.812 17.4035ZM127.452 24.1762C126.592 24.1762 125.852 23.9925 125.231 23.6251C124.613 23.2538 124.136 22.733 123.799 22.0626C123.465 21.3883 123.299 20.5985 123.299 19.6932C123.299 18.7993 123.465 18.0114 123.799 17.3296C124.136 16.6478 124.606 16.1156 125.208 15.733C125.814 15.3504 126.522 15.1592 127.333 15.1592C127.825 15.1592 128.303 15.2406 128.765 15.4035C129.227 15.5663 129.642 15.822 130.009 16.1705C130.376 16.519 130.666 16.9717 130.878 17.5285C131.09 18.0815 131.196 18.7538 131.196 19.5455V20.1478H124.259V18.8751H129.532C129.532 18.4281 129.441 18.0323 129.259 17.6876C129.077 17.3391 128.821 17.0645 128.492 16.8637C128.166 16.6629 127.784 16.5626 127.344 16.5626C126.867 16.5626 126.45 16.68 126.094 16.9148C125.742 17.1459 125.469 17.4489 125.276 17.8239C125.087 18.1951 124.992 18.5985 124.992 19.0342V20.0285C124.992 20.6118 125.094 21.108 125.299 21.5171C125.507 21.9262 125.797 22.2387 126.168 22.4546C126.539 22.6667 126.973 22.7728 127.469 22.7728C127.791 22.7728 128.085 22.7273 128.35 22.6364C128.615 22.5417 128.844 22.4016 129.037 22.216C129.231 22.0304 129.378 21.8012 129.481 21.5285L131.089 21.8182C130.96 22.2917 130.729 22.7065 130.395 23.0626C130.066 23.4148 129.651 23.6895 129.151 23.8864C128.655 24.0796 128.089 24.1762 127.452 24.1762ZM139.461 17.4035L137.921 17.6762C137.857 17.4792 137.755 17.2917 137.615 17.1137C137.478 16.9357 137.293 16.7898 137.058 16.6762C136.823 16.5626 136.529 16.5057 136.177 16.5057C135.696 16.5057 135.295 16.6137 134.973 16.8296C134.651 17.0417 134.49 17.3163 134.49 17.6535C134.49 17.9451 134.598 18.18 134.813 18.358C135.029 18.536 135.378 18.6819 135.859 18.7955L137.245 19.1137C138.048 19.2993 138.647 19.5853 139.041 19.9717C139.435 20.358 139.632 20.8599 139.632 21.4773C139.632 22.0001 139.48 22.466 139.177 22.8751C138.878 23.2804 138.459 23.5985 137.921 23.8296C137.387 24.0607 136.768 24.1762 136.063 24.1762C135.086 24.1762 134.289 23.9679 133.671 23.5512C133.054 23.1307 132.675 22.5342 132.535 21.7614L134.177 21.5114C134.279 21.9395 134.49 22.2633 134.808 22.483C135.126 22.6989 135.541 22.8069 136.052 22.8069C136.609 22.8069 137.054 22.6913 137.387 22.4603C137.721 22.2254 137.887 21.9395 137.887 21.6023C137.887 21.3296 137.785 21.1004 137.581 20.9148C137.38 20.7292 137.071 20.5891 136.654 20.4944L135.177 20.1705C134.363 19.9849 133.76 19.6895 133.37 19.2842C132.984 18.8788 132.791 18.3656 132.791 17.7444C132.791 17.2292 132.935 16.7785 133.223 16.3921C133.51 16.0057 133.908 15.7046 134.416 15.4887C134.923 15.269 135.505 15.1592 136.16 15.1592C137.103 15.1592 137.846 15.3637 138.387 15.7728C138.929 16.1781 139.287 16.7217 139.461 17.4035Z" fill="#141414"/>
</g>
<defs>
<filter id="filter0_d_2532_1356" x="0" y="6.10352e-05" width="165" height="44" filterUnits="userSpaceOnUse" color-interpolation-filters="sRGB">
<feFlood flood-opacity="0" result="BackgroundImageFix"/>
<feColorMatrix in="SourceAlpha" type="matrix" values="0 0 0 0 0 0 0 0 0 0 0 0 0 0 0 0 0 0 127 0" result="hardAlpha"/>
<feOffset dy="4"/>
<feGaussianBlur stdDeviation="2"/>
<feComposite in2="hardAlpha" operator="out"/>
<feColorMatrix type="matrix" values="0 0 0 0 0 0 0 0 0 0 0 0 0 0 0 0 0 0 0.25 0"/>
<feBlend mode="normal" in2="BackgroundImageFix" result="effect1_dropShadow_2532_1356"/>
<feBlend mode="normal" in="SourceGraphic" in2="effect1_dropShadow_2532_1356" result="shape"/>
</filter>
<linearGradient id="paint0_linear_2532_1356" x1="14.9691" y1="6.12946e-05" x2="26.863" y2="60.296" gradientUnits="userSpaceOnUse">
<stop stop-color="#0BFFB6"/>
<stop offset="0.581731" stop-color="#00DBDC"/>
</linearGradient>
</defs>
</svg>
