<svg width="106" height="45" viewBox="0 0 106 45" fill="none" xmlns="http://www.w3.org/2000/svg">
<g filter="url(#filter0_d_2532_1359)">
<rect x="4.61133" y="0.681641" width="97" height="36" rx="18" fill="url(#paint0_linear_2532_1359)"/>
<path d="M29.7818 24.7704C29.0015 24.7704 28.3045 24.6359 27.6909 24.367C27.081 24.0981 26.5981 23.725 26.242 23.2477C25.8897 22.7666 25.7003 22.2098 25.6738 21.5772H27.4579C27.4806 21.9219 27.5962 22.2212 27.8045 22.475C28.0166 22.725 28.2931 22.9181 28.6341 23.0545C28.975 23.1909 29.3538 23.2591 29.7704 23.2591C30.2288 23.2591 30.6341 23.1795 30.9863 23.0204C31.3424 22.8613 31.6208 22.6397 31.8216 22.3556C32.0223 22.0678 32.1227 21.7363 32.1227 21.3613C32.1227 20.9712 32.0223 20.6284 31.8216 20.3329C31.6246 20.0337 31.3348 19.7988 30.9522 19.6284C30.5734 19.4579 30.1151 19.3727 29.5772 19.3727H28.5943V17.9409H29.5772C30.0091 17.9409 30.3878 17.8632 30.7136 17.7079C31.0431 17.5526 31.3007 17.3367 31.4863 17.0602C31.6719 16.7799 31.7647 16.4522 31.7647 16.0772C31.7647 15.7174 31.6833 15.4049 31.5204 15.1397C31.3613 14.8708 31.1341 14.6606 30.8386 14.5091C30.5469 14.3575 30.2022 14.2818 29.8045 14.2818C29.4257 14.2818 29.0716 14.3519 28.742 14.492C28.4163 14.6284 28.1511 14.8253 27.9466 15.0829C27.742 15.3367 27.6322 15.6416 27.617 15.9977H25.9181C25.9371 15.3689 26.1227 14.8159 26.475 14.3386C26.831 13.8613 27.3007 13.4882 27.8841 13.2193C28.4674 12.9503 29.1151 12.8159 29.8272 12.8159C30.5734 12.8159 31.2174 12.9617 31.7591 13.2534C32.3045 13.5413 32.725 13.9257 33.0204 14.4068C33.3197 14.8878 33.4674 15.4144 33.4636 15.9863C33.4674 16.6378 33.2856 17.1909 32.9181 17.6454C32.5545 18.1 32.0697 18.4049 31.4636 18.5602V18.6511C32.2363 18.7685 32.8348 19.0753 33.2591 19.5716C33.6871 20.0678 33.8992 20.6833 33.8954 21.4181C33.8992 22.0583 33.7212 22.6322 33.3613 23.1397C33.0053 23.6473 32.5185 24.0469 31.9011 24.3386C31.2837 24.6265 30.5772 24.7704 29.7818 24.7704ZM39.2189 12.975H41.2132L44.253 18.2647H44.378L47.4177 12.975H49.4121L45.1905 20.0431V24.6113H43.4405V20.0431L39.2189 12.975ZM53.0972 24.7875C52.2374 24.7875 51.4969 24.6038 50.8756 24.2363C50.2582 23.8651 49.7809 23.3443 49.4438 22.6738C49.1105 21.9996 48.9438 21.2098 48.9438 20.3045C48.9438 19.4106 49.1105 18.6227 49.4438 17.9409C49.7809 17.2591 50.2506 16.7269 50.8529 16.3443C51.459 15.9617 52.1673 15.7704 52.9779 15.7704C53.4703 15.7704 53.9476 15.8519 54.4097 16.0147C54.8719 16.1776 55.2866 16.4333 55.6541 16.7818C56.0215 17.1303 56.3113 17.5829 56.5234 18.1397C56.7355 18.6928 56.8416 19.3651 56.8416 20.1568V20.7591H49.9041V19.4863H55.1768C55.1768 19.0394 55.0859 18.6435 54.9041 18.2988C54.7222 17.9503 54.4666 17.6757 54.137 17.475C53.8113 17.2742 53.4287 17.1738 52.9893 17.1738C52.512 17.1738 52.0953 17.2913 51.7393 17.5261C51.387 17.7572 51.1143 18.0602 50.9211 18.4352C50.7317 18.8064 50.637 19.2098 50.637 19.6454V20.6397C50.637 21.2231 50.7393 21.7193 50.9438 22.1284C51.1522 22.5375 51.4419 22.85 51.8131 23.0659C52.1844 23.278 52.6181 23.3841 53.1143 23.3841C53.4363 23.3841 53.7298 23.3386 53.995 23.2477C54.2601 23.153 54.4893 23.0128 54.6825 22.8272C54.8756 22.6416 55.0234 22.4125 55.1256 22.1397L56.7336 22.4295C56.6048 22.903 56.3738 23.3178 56.0404 23.6738C55.7109 24.0261 55.2961 24.3007 54.7961 24.4977C54.2999 24.6909 53.7336 24.7875 53.0972 24.7875ZM61.1063 24.8045C60.5532 24.8045 60.0532 24.7022 59.6063 24.4977C59.1593 24.2894 58.8051 23.9882 58.5438 23.5943C58.2862 23.2003 58.1574 22.7174 58.1574 22.1454C58.1574 21.653 58.2521 21.2477 58.4415 20.9295C58.6309 20.6113 58.8866 20.3594 59.2085 20.1738C59.5305 19.9882 59.8904 19.8481 60.2881 19.7534C60.6858 19.6587 61.0911 19.5867 61.504 19.5375C62.0267 19.4769 62.451 19.4276 62.7767 19.3897C63.1025 19.3481 63.3392 19.2818 63.487 19.1909C63.6347 19.1 63.7085 18.9522 63.7085 18.7477V18.7079C63.7085 18.2117 63.5684 17.8272 63.2881 17.5545C63.0116 17.2818 62.5987 17.1454 62.0495 17.1454C61.4775 17.1454 61.0267 17.2723 60.6972 17.5261C60.3714 17.7761 60.146 18.0545 60.021 18.3613L58.4245 17.9977C58.6138 17.4674 58.8904 17.0394 59.254 16.7136C59.6214 16.3841 60.0438 16.1454 60.521 15.9977C60.9983 15.8462 61.5002 15.7704 62.0267 15.7704C62.3752 15.7704 62.7445 15.8121 63.1347 15.8954C63.5286 15.975 63.896 16.1227 64.237 16.3386C64.5817 16.5545 64.8638 16.8632 65.0835 17.2647C65.3032 17.6625 65.4131 18.1795 65.4131 18.8159V24.6113H63.754V23.4181H63.6858C63.576 23.6378 63.4112 23.8538 63.1915 24.0659C62.9718 24.278 62.6896 24.4541 62.3449 24.5943C62.0002 24.7344 61.5873 24.8045 61.1063 24.8045ZM61.4756 23.4409C61.9453 23.4409 62.3468 23.3481 62.6801 23.1625C63.0173 22.9769 63.2729 22.7344 63.4472 22.4352C63.6252 22.1322 63.7142 21.8083 63.7142 21.4636V20.3386C63.6536 20.3992 63.5362 20.456 63.362 20.5091C63.1915 20.5583 62.9964 20.6019 62.7767 20.6397C62.557 20.6738 62.343 20.706 62.1347 20.7363C61.9263 20.7628 61.7521 20.7856 61.612 20.8045C61.2824 20.8462 60.9813 20.9163 60.7085 21.0147C60.4396 21.1132 60.2237 21.2553 60.0608 21.4409C59.9017 21.6227 59.8222 21.8651 59.8222 22.1681C59.8222 22.5886 59.9775 22.9068 60.2881 23.1227C60.5987 23.3348 60.9945 23.4409 61.4756 23.4409ZM67.5159 24.6113V15.8841H69.1579V17.2704H69.2488C69.4079 16.8007 69.6882 16.4314 70.0897 16.1625C70.495 15.8897 70.9534 15.7534 71.4647 15.7534C71.5708 15.7534 71.6958 15.7572 71.8397 15.7647C71.9875 15.7723 72.103 15.7818 72.1863 15.7931V17.4181C72.1181 17.3992 71.9969 17.3784 71.8227 17.3556C71.6485 17.3291 71.4742 17.3159 71.3 17.3159C70.8985 17.3159 70.5405 17.4011 70.2261 17.5716C69.9155 17.7382 69.6693 17.9712 69.4875 18.2704C69.3056 18.5659 69.2147 18.903 69.2147 19.2818V24.6113H67.5159ZM80.0363 18.0147L78.4965 18.2875C78.4321 18.0905 78.3298 17.903 78.1897 17.725C78.0533 17.5469 77.8677 17.4011 77.6329 17.2875C77.398 17.1738 77.1045 17.117 76.7522 17.117C76.2711 17.117 75.8696 17.225 75.5476 17.4409C75.2257 17.653 75.0647 17.9276 75.0647 18.2647C75.0647 18.5564 75.1726 18.7913 75.3885 18.9693C75.6045 19.1473 75.9529 19.2931 76.434 19.4068L77.8204 19.725C78.6234 19.9106 79.2219 20.1966 79.6158 20.5829C80.0098 20.9693 80.2067 21.4712 80.2067 22.0886C80.2067 22.6113 80.0552 23.0772 79.7522 23.4863C79.4529 23.8916 79.0344 24.2098 78.4965 24.4409C77.9624 24.6719 77.3431 24.7875 76.6385 24.7875C75.6613 24.7875 74.8639 24.5791 74.2465 24.1625C73.6291 23.742 73.2503 23.1454 73.1101 22.3727L74.7522 22.1227C74.8545 22.5507 75.0647 22.8746 75.3829 23.0943C75.701 23.3102 76.1158 23.4181 76.6272 23.4181C77.184 23.4181 77.6291 23.3026 77.9624 23.0716C78.2957 22.8367 78.4624 22.5507 78.4624 22.2136C78.4624 21.9409 78.3601 21.7117 78.1556 21.5261C77.9548 21.3405 77.6461 21.2003 77.2295 21.1056L75.7522 20.7818C74.9378 20.5962 74.3355 20.3007 73.9454 19.8954C73.559 19.4901 73.3658 18.9769 73.3658 18.3556C73.3658 17.8405 73.5098 17.3897 73.7976 17.0034C74.0855 16.617 74.4832 16.3159 74.9908 16.1C75.4984 15.8803 76.0798 15.7704 76.7351 15.7704C77.6783 15.7704 78.4207 15.975 78.9624 16.3841C79.5041 16.7894 79.862 17.3329 80.0363 18.0147Z" fill="#141414"/>
</g>
<defs>
<filter id="filter0_d_2532_1359" x="0.611328" y="0.681641" width="105" height="44" filterUnits="userSpaceOnUse" color-interpolation-filters="sRGB">
<feFlood flood-opacity="0" result="BackgroundImageFix"/>
<feColorMatrix in="SourceAlpha" type="matrix" values="0 0 0 0 0 0 0 0 0 0 0 0 0 0 0 0 0 0 127 0" result="hardAlpha"/>
<feOffset dy="4"/>
<feGaussianBlur stdDeviation="2"/>
<feComposite in2="hardAlpha" operator="out"/>
<feColorMatrix type="matrix" values="0 0 0 0 0 0 0 0 0 0 0 0 0 0 0 0 0 0 0.25 0"/>
<feBlend mode="normal" in2="BackgroundImageFix" result="effect1_dropShadow_2532_1359"/>
<feBlend mode="normal" in="SourceGraphic" in2="effect1_dropShadow_2532_1359" result="shape"/>
</filter>
<linearGradient id="paint0_linear_2532_1359" x1="11.3884" y1="0.681641" x2="29.5383" y2="57.529" gradientUnits="userSpaceOnUse">
<stop stop-color="#0BFFB6"/>
<stop offset="0.581731" stop-color="#00DBDC"/>
</linearGradient>
</defs>
</svg>
