<svg width="56" height="56" viewBox="0 0 56 56" fill="none" xmlns="http://www.w3.org/2000/svg">
<path d="M48 19.599L27.9226 17.6542C26.6065 17.5226 25.3782 18.3122 24.9395 19.5698L21.2252 30.3031C20.5233 32.3357 22.1611 34.4268 24.3107 34.2075L38.963 32.7598C41.3611 32.5258 43.54 34.1782 43.964 36.5472L46.6985 52.2084M24.8953 40.0129C21.1079 44.9409 15.9459 49.2839 9 51.5651M28.9164 33.7543C32.1042 27.7881 33.742 21.8511 34.5024 18.2977M36.0235 8.23697C36.0235 10.6921 34.0332 12.6824 31.5781 12.6824C29.123 12.6824 27.1327 10.6921 27.1327 8.23697C27.1327 5.78184 29.123 3.79156 31.5781 3.79156C34.0332 3.79156 36.0235 5.78184 36.0235 8.23697Z" stroke="#00DBDC" stroke-width="2.5" stroke-linecap="round" stroke-linejoin="round"/>
</svg>
