<svg width="56" height="56" viewBox="0 0 56 56" fill="none" xmlns="http://www.w3.org/2000/svg">
<path d="M23.462 5.65332C25.4829 4.01598 28.3322 3.78705 30.6075 5.0957C30.8825 5.25386 31.1029 5.42445 31.5372 5.72949C33.9476 8.1529 34.4751 11.0245 33.2736 13.6211C32.0785 16.2038 29.3668 17.7503 26.7579 17.4512C24.1861 17.1561 22.0167 15.2676 21.2609 12.5186C20.557 9.95863 21.403 7.32177 23.462 5.65332Z" stroke="#00DBDC" stroke-width="2.5"/>
<path d="M24.0923 24.1709C25.7874 22.8054 28.1803 22.6133 30.0913 23.7061C30.3189 23.8362 30.4966 23.9726 30.8696 24.2334C32.9035 26.2723 33.3295 28.6598 32.3276 30.8125C31.3239 32.969 29.0457 34.2598 26.8599 34.0107C24.7034 33.7649 22.8804 32.1907 22.2446 29.8916C21.6551 27.7594 22.3631 25.5638 24.0923 24.1709Z" stroke="#00DBDC" stroke-width="2.5"/>
<path d="M13.804 33.8076C12.9794 28.6164 14.577 18.2968 27.5632 18.5485C40.5494 18.8002 41.477 28.4592 41.477 33.8076" stroke="#00DBDC" stroke-width="2.5" stroke-linecap="round"/>
<path d="M35.5172 42.9323L35.5113 41.6823C34.853 41.6855 34.3099 42.1986 34.2696 42.8557L35.5172 42.9323ZM33.6512 52.9236C33.6088 53.6127 34.1331 54.2056 34.8222 54.2479C35.5112 54.2902 36.1041 53.7659 36.1465 53.0769L33.6512 52.9236ZM20.985 42.9323H22.235C22.235 42.2569 21.6984 41.7037 21.0233 41.6829L20.985 42.9323ZM19.735 53.0002C19.735 53.6906 20.2946 54.2502 20.985 54.2502C21.6753 54.2502 22.235 53.6906 22.235 53.0002H19.735ZM5.52522 37.2691L5.52515 38.5191C9.74424 38.5194 45.2034 38.3659 49.8538 38.5185L49.8948 37.2691L49.9358 36.0198C45.2312 35.8655 9.67622 36.0193 5.52528 36.0191L5.52522 37.2691ZM49.8948 37.2691L49.8538 38.5185C51.9682 38.5878 52.6658 39.4919 52.739 39.7885C52.7612 39.8786 52.7688 40.009 52.569 40.2069C52.3341 40.4395 51.8029 40.7513 50.7837 40.9108L50.977 42.1458L51.1703 43.3807C52.5013 43.1724 53.5945 42.7098 54.3283 41.9831C55.0971 41.2216 55.4174 40.2076 55.1662 39.1896C54.6926 37.2703 52.499 36.1039 49.9358 36.0198L49.8948 37.2691ZM50.977 42.1458L50.7837 40.9108C48.5208 41.265 44.73 41.4607 41.4446 41.5656C39.8147 41.6177 38.3302 41.6469 37.253 41.663C36.7146 41.6711 36.2784 41.676 35.9771 41.6788C35.8264 41.6802 35.7096 41.6811 35.6306 41.6816C35.5911 41.6819 35.561 41.6821 35.541 41.6822C35.531 41.6822 35.5234 41.6823 35.5185 41.6823C35.516 41.6823 35.5141 41.6823 35.5129 41.6823C35.5123 41.6823 35.5119 41.6823 35.5116 41.6823C35.5115 41.6823 35.5114 41.6823 35.5114 41.6823C35.5113 41.6823 35.5113 41.6823 35.5172 42.9323C35.5231 44.1823 35.5232 44.1823 35.5233 44.1823C35.5234 44.1823 35.5236 44.1823 35.5238 44.1823C35.5241 44.1823 35.5247 44.1823 35.5254 44.1823C35.5268 44.1823 35.5289 44.1823 35.5316 44.1823C35.537 44.1822 35.545 44.1822 35.5554 44.1821C35.5764 44.182 35.6074 44.1818 35.6478 44.1816C35.7287 44.181 35.8476 44.1801 36.0004 44.1787C36.3058 44.1758 36.7469 44.1709 37.2906 44.1628C38.3777 44.1464 39.8768 44.1169 41.5244 44.0643C44.7937 43.9599 48.7329 43.7623 51.1703 43.3807L50.977 42.1458ZM35.5172 42.9323L34.2696 42.8557L33.6512 52.9236L34.8988 53.0002L36.1465 53.0769L36.7649 43.009L35.5172 42.9323ZM5.52522 37.2691L5.52528 36.0191C3.03838 36.019 1.05511 37.386 0.779676 39.3717C0.641893 40.365 0.9851 41.3556 1.75954 42.1003C2.51553 42.8273 3.61269 43.2623 4.94186 43.39L5.06143 42.1458L5.18099 40.9015C4.23533 40.8106 3.72993 40.5267 3.49243 40.2983C3.2734 40.0877 3.23222 39.8864 3.25597 39.7152C3.30359 39.3718 3.82704 38.519 5.52515 38.5191L5.52522 37.2691ZM5.06143 42.1458L4.94186 43.39C7.25601 43.6124 11.2707 43.8102 14.6773 43.9519C16.387 44.0231 17.9539 44.0805 19.0932 44.1202C19.663 44.14 20.126 44.1554 20.4467 44.1658C20.6071 44.171 20.7319 44.175 20.8167 44.1777C20.8591 44.179 20.8914 44.18 20.9133 44.1807C20.9242 44.181 20.9325 44.1813 20.9381 44.1815C20.9408 44.1816 20.9429 44.1816 20.9444 44.1817C20.9451 44.1817 20.9456 44.1817 20.946 44.1817C20.9462 44.1817 20.9463 44.1817 20.9464 44.1817C20.9465 44.1817 20.9466 44.1817 20.985 42.9323C21.0233 41.6829 21.0233 41.6829 21.0232 41.6829C21.0232 41.6829 21.023 41.6829 21.0229 41.6829C21.0226 41.6829 21.0221 41.6829 21.0214 41.6829C21.02 41.6828 21.018 41.6828 21.0153 41.6827C21.0099 41.6825 21.0018 41.6823 20.9911 41.6819C20.9696 41.6813 20.9376 41.6802 20.8956 41.6789C20.8115 41.6763 20.6875 41.6723 20.528 41.6671C20.2089 41.6567 19.7478 41.6414 19.1802 41.6217C18.0448 41.5822 16.4838 41.5249 14.7813 41.4541C11.3635 41.3119 7.41649 41.1163 5.18099 40.9015L5.06143 42.1458ZM20.985 42.9323H19.735V53.0002H20.985H22.235V42.9323H20.985Z" fill="#00DBDC"/>
<path d="M14.1601 40.5133C11.1918 40.2616 9.67676 42.3703 9.67676 43.5023C9.67676 44.6342 11.1918 46.8057 14.1601 46.8057C17.1284 46.8057 18.025 44.4999 18.025 43.5023C18.025 42.5046 17.1284 40.765 14.1601 40.5133Z" fill="#111111" stroke="#00DBDC" stroke-width="2.5"/>
<path d="M42.0839 40.6698C39.2393 40.544 37.6006 42.0855 37.6006 43.5014C37.6006 44.9174 38.4973 46.7736 42.0839 46.6477C45.6706 46.5219 46.1036 44.4463 45.9489 43.5014C45.7941 42.5566 44.9285 40.7957 42.0839 40.6698Z" fill="#111111" stroke="#00DBDC" stroke-width="2.5"/>
</svg>
