<svg width="56" height="56" viewBox="0 0 56 56" fill="none" xmlns="http://www.w3.org/2000/svg">
<mask id="mask0_210_397" style="mask-type:alpha" maskUnits="userSpaceOnUse" x="2" y="4" width="52" height="52">
<rect x="2" y="4" width="52" height="52" fill="#D9D9D9"/>
</mask>
<g mask="url(#mask0_210_397)">
<path d="M19.121 131.615C19.4588 131.615 19.7743 131.563 20.059 131.451C20.9282 131.108 21.9392 130.906 22.2797 129.929H15.4741C15.5042 130.181 15.666 130.415 16.0183 130.613C17.1084 131.227 18.1981 131.615 19.121 131.615ZM38.6483 131.615C39.5712 131.615 40.6609 131.227 41.751 130.613C42.1033 130.415 42.2651 130.181 42.2952 129.929H35.4896C35.8301 130.906 36.8411 131.108 37.7103 131.451C37.995 131.563 38.3105 131.615 38.6483 131.615ZM15.4839 129.679H22.3483C22.3811 129.52 22.3986 129.344 22.3986 129.147C22.3986 127.471 22.3986 126.843 22.8239 126.843C23.1283 126.843 23.3238 126.413 23.3323 125.862H18.0633C17.9069 126.497 17.6948 127.076 17.2945 127.471C16.7105 128.047 15.6248 128.918 15.4839 129.679ZM35.4213 129.679H42.2854C42.1448 128.918 41.0592 128.047 40.4748 127.471C40.0745 127.076 39.8624 126.497 39.706 125.862H34.4373C34.4458 126.413 34.641 126.843 34.9457 126.843C35.371 126.843 35.371 127.471 35.371 129.147C35.371 129.344 35.3886 129.52 35.4213 129.679ZM18.1218 125.612H23.3235C23.3117 125.467 23.287 125.317 23.2488 125.167C23.0364 124.329 22.6111 123.91 22.6111 123.282C22.6111 122.883 22.6966 122.317 22.705 121.795H18.6585C18.7551 122.474 18.8602 122.844 18.5704 123.701C18.3711 124.289 18.2653 124.969 18.1218 125.612ZM34.4458 125.612H39.6475C39.504 124.969 39.3982 124.289 39.1989 123.701C38.9091 122.844 39.0145 122.474 39.1108 121.795H35.0643C35.0727 122.317 35.1582 122.883 35.1582 123.282C35.1582 123.91 34.7329 124.329 34.5204 125.167C34.4823 125.317 34.458 125.467 34.4458 125.612ZM18.6261 121.545H22.7023C22.6935 121.337 22.6672 121.143 22.6111 120.977C22.3986 120.349 22.1858 119.302 22.3986 118.045C22.4118 117.967 22.4307 117.86 22.4543 117.728H18.2042C18.4268 118.987 18.5704 119.997 18.5704 120.558C18.5704 120.96 18.5947 121.277 18.6261 121.545ZM35.067 121.545H39.1432C39.1746 121.277 39.1989 120.96 39.1989 120.558C39.1989 119.997 39.3425 118.987 39.5651 117.728H35.3153C35.3389 117.86 35.3578 117.967 35.371 118.045C35.5835 119.302 35.371 120.349 35.1582 120.977C35.1025 121.143 35.0758 121.337 35.067 121.545ZM18.1596 117.479H22.4996C22.6472 116.668 22.9104 115.252 23.1911 113.662H17.4158C17.6928 115.028 17.9549 116.345 18.1596 117.479ZM35.27 117.479H39.6097C39.8144 116.345 40.0765 115.028 40.3539 113.662H34.5782C34.8589 115.252 35.1224 116.668 35.27 117.479ZM17.3651 113.412H23.2353C23.4542 112.164 23.6812 110.825 23.8697 109.595H16.5939C16.8378 110.831 17.1067 112.139 17.3651 113.412ZM34.5343 113.412H40.4042C40.6629 112.139 40.9315 110.831 41.1757 109.595H33.8996C34.0884 110.825 34.3151 112.164 34.5343 113.412ZM16.5446 109.345H23.9076C24.1447 107.775 24.3126 106.41 24.3126 105.686C24.3126 105.634 24.3122 105.581 24.3112 105.528H16.0494C16.0974 106.554 16.2183 107.662 16.4439 108.828C16.4767 108.999 16.5105 109.171 16.5446 109.345ZM33.8617 109.345H41.2247C41.2591 109.171 41.2926 108.999 41.3257 108.828C41.5513 107.662 41.6723 106.554 41.7202 105.528H33.4584C33.4574 105.581 33.4571 105.634 33.4571 105.686C33.4571 106.41 33.6249 107.775 33.8617 109.345ZM16.0393 105.279H24.3041C24.2511 103.954 23.9619 102.642 23.8826 101.461H16.2315C16.0832 102.506 15.9862 103.802 16.0393 105.279ZM33.4655 105.279H41.7304C41.7831 103.802 41.6861 102.506 41.5378 101.461H33.8867C33.8074 102.642 33.5185 103.954 33.4655 105.279ZM16.2686 101.212H23.869C23.8424 100.557 23.8927 99.9462 24.0998 99.4022C24.3629 98.7108 24.6264 98.0906 24.8747 97.3945H16.952C16.8892 98.1977 16.7956 98.9231 16.6564 99.4022C16.5311 99.834 16.3872 100.448 16.2686 101.212ZM33.9002 101.212H41.501C41.3821 100.448 41.2382 99.834 41.1129 99.4022C40.974 98.9231 40.8805 98.1977 40.8173 97.3945H32.895C33.1432 98.0906 33.4064 98.7108 33.6699 99.4022C33.8769 99.9462 33.9269 100.557 33.9002 101.212ZM16.9706 97.145H24.9618C25.281 96.2104 25.5719 95.1171 25.8009 93.5373C25.8107 93.4708 25.8212 93.4009 25.832 93.3277H17.0814C17.0793 94.2487 17.0655 95.7812 16.9706 97.145ZM32.8078 97.145H40.7991C40.7038 95.7812 40.69 94.2487 40.6879 93.3277H31.9373C31.9485 93.4009 31.9586 93.4708 31.9684 93.5373C32.1974 95.1171 32.4883 96.2104 32.8078 97.145ZM17.0817 93.0782H25.8708C26.0184 92.1432 26.259 90.7861 26.5295 89.2609H16.6395C16.8746 91.0057 17.082 92.2883 17.082 92.9085C17.082 92.9607 17.082 93.0173 17.0817 93.0782ZM31.8985 93.0782H40.6876C40.6876 93.0173 40.6876 92.9607 40.6876 92.9085C40.6876 92.2883 40.8947 91.0057 41.1301 89.2609H31.2401C31.5103 90.7861 31.7509 92.1432 31.8985 93.0782ZM16.6061 89.0113H26.5738C26.7896 87.7929 27.0224 86.4783 27.2406 85.194H16.1822C16.3024 86.6094 16.4578 87.8981 16.6061 89.0113ZM31.1958 89.0113H41.1635C41.3115 87.8981 41.4672 86.6094 41.5875 85.194H30.529C30.7469 86.4783 30.9797 87.7929 31.1958 89.0113ZM16.1612 84.9445H27.2828C27.5139 83.577 27.726 82.2538 27.8814 81.1276H15.991C15.9886 81.631 15.997 82.1377 16.0183 82.6444C16.0521 83.4396 16.1018 84.2085 16.1612 84.9445ZM30.4865 84.9445H41.6081C41.6679 84.2085 41.7172 83.4396 41.751 82.6444C41.7723 82.1377 41.7807 81.631 41.7787 81.1276H29.8879C30.0436 82.2538 30.2558 83.577 30.4865 84.9445ZM15.259 81.944C15.6461 81.944 15.9122 81.8792 15.9122 81.7018C15.9122 81.5711 15.7569 81.3691 15.5366 81.1276H12.5201C12.8089 81.4323 13.0977 81.6503 13.3602 81.7018C13.974 81.8229 14.7296 81.944 15.259 81.944ZM42.5107 81.944C43.0397 81.944 43.7953 81.8229 44.4091 81.7018C44.6719 81.6503 44.9604 81.4323 45.2492 81.1276H42.2327C42.0128 81.3691 41.8574 81.5711 41.8574 81.7018C41.8574 81.8792 42.1232 81.944 42.5107 81.944ZM12.2992 80.878H15.3022C14.8276 80.3823 14.229 79.7837 14.1044 79.2933C13.8919 78.4551 13.2541 77.827 13.8919 77.4081C14.0189 77.3246 14.1716 77.2061 14.329 77.0607H10.4619C10.493 77.6097 10.5359 78.0236 10.5953 78.1411C10.7423 78.4302 11.4962 79.9158 12.2992 80.878ZM15.993 80.878H27.9155C28.0547 79.8389 28.1405 78.9875 28.1405 78.4551C28.1405 78.4551 28.435 78.5985 28.7786 78.6475V78.6648C28.8141 78.6648 28.8495 78.6614 28.8846 78.6588C28.9198 78.6614 28.9552 78.6648 28.9907 78.6648V78.6475C29.3342 78.5985 29.6288 78.4551 29.6288 78.4551C29.6288 78.9875 29.7146 79.8389 29.8541 80.878H41.7766C41.7611 79.5604 41.6743 78.2685 41.5547 77.0607H16.2146C16.0953 78.2685 16.0082 79.5604 15.993 80.878ZM42.4671 80.878H45.4701C46.2731 79.9158 47.027 78.4302 47.174 78.1411C47.2334 78.0236 47.2763 77.6097 47.3074 77.0607H43.4403C43.5977 77.2061 43.7504 77.3246 43.8774 77.4081C44.5155 77.827 43.8774 78.4551 43.6649 79.2933C43.5403 79.7837 42.9421 80.3823 42.4671 80.878ZM15.1458 79.6805C15.4336 79.6805 15.4336 78.8301 15.4336 77.98C15.4336 77.6327 15.4816 77.3329 15.5383 77.0607H14.383C14.5692 77.4939 14.5705 77.7731 14.5705 78.2632C14.5705 78.8301 14.8583 79.6805 15.1458 79.6805ZM42.6961 79.3967C42.9839 79.3967 43.2714 78.547 43.2714 77.98C43.2714 77.6044 43.2734 77.3525 43.3572 77.0607H42.3563C42.3871 77.2557 42.4083 77.4656 42.4083 77.6965C42.4083 78.547 42.4083 79.3967 42.6961 79.3967ZM10.4491 76.8112H15.5934C15.6599 76.5207 15.7214 76.2585 15.7214 75.996C15.7214 75.7618 15.5383 75.2983 15.3245 74.8362C15.3012 74.6505 15.2525 74.4602 15.1681 74.2659C15.0792 74.0622 14.9826 73.8749 14.8813 73.7009H10.3845C10.3889 74.5447 10.4031 75.8333 10.4491 76.8112ZM16.2399 76.8112H41.5297C41.4125 75.6793 41.2689 74.6262 41.1318 73.7009H16.6375C16.5007 74.6262 16.3568 75.6793 16.2399 76.8112ZM42.3107 76.8112H47.3202C47.3662 75.8333 47.3804 74.5447 47.3847 73.7009H42.8883C42.7867 73.8749 42.6901 74.0622 42.6016 74.2659C42.5495 74.3857 42.5144 74.5034 42.4864 74.6199C42.286 75.0594 42.1205 75.4896 42.1205 75.7125C42.1205 76.0576 42.2273 76.4026 42.3107 76.8112ZM10.2724 72.0377H13.624C13.4497 71.8034 13.3159 71.5772 13.2541 71.3333C13.2008 71.1233 13.2812 70.4253 13.4281 69.4677H9.84306C10.0201 70.5018 10.1744 71.4085 10.2724 72.0377ZM16.8925 72.0377H40.8771C40.794 71.501 40.7264 71.0501 40.6876 70.7051C40.6501 70.3734 40.5866 69.9512 40.5079 69.4677H17.2614C17.183 69.9512 17.1192 70.3734 17.082 70.7051C17.0428 71.0501 16.9753 71.501 16.8925 72.0377ZM44.1453 72.0377H47.4969C47.5949 71.4085 47.7492 70.5018 47.9262 69.4677H44.3412C44.4885 70.4253 44.5689 71.1233 44.5155 71.3333C44.4537 71.5772 44.3196 71.8034 44.1453 72.0377ZM9.61505 68.1368H13.6446C13.7966 67.2345 13.973 66.229 14.1398 65.2349H9.12963C9.284 66.1881 9.4529 67.1863 9.61505 68.1368ZM17.4837 68.1368H40.2856C40.1319 67.2225 39.9651 66.2131 39.8336 65.2349H17.9356C17.8046 66.2131 17.6374 67.2225 17.4837 68.1368ZM44.125 68.1368H48.1542C48.3164 67.1863 48.4853 66.1881 48.6397 65.2349H43.6295C43.7963 66.229 43.9727 67.2345 44.125 68.1368ZM8.97121 64.2367H14.3043C14.5033 62.9996 14.6688 61.8428 14.7316 61.0017H8.57261C8.59558 61.4156 8.63104 61.8242 8.68137 62.2214C8.75603 62.8077 8.85635 63.4961 8.97121 64.2367ZM18.0566 64.2367H39.7127C39.6093 63.2658 39.5617 62.3735 39.6242 61.6977C39.6455 61.4678 39.6539 61.2356 39.6526 61.0017H18.1167C18.1154 61.2356 18.1238 61.4678 18.1451 61.6977C18.2076 62.3735 18.1599 63.2658 18.0566 64.2367ZM43.465 64.2367H48.7981C48.9129 63.4961 49.0133 62.8077 49.0879 62.2214C49.1383 61.8242 49.1737 61.4156 49.1967 61.0017H43.0376C43.1005 61.8428 43.266 62.9996 43.465 64.2367ZM8.54626 60.3362H14.7587C14.758 60.2174 14.7526 60.112 14.7425 60.0221C14.6134 58.8766 14.4057 57.7314 14.3577 56.7269H8.68746C8.58443 57.8126 8.51484 59.0792 8.54626 60.3362ZM18.1437 60.3362H39.6256C39.5404 59.1478 39.2793 57.927 39.2178 56.7269H18.5514C18.4903 57.927 18.2292 59.1478 18.1437 60.3362ZM43.0106 60.3362H49.2234C49.2548 59.0792 49.1849 57.8126 49.0818 56.7269H43.4116C43.3636 57.7314 43.1562 58.8766 43.0268 60.0221C43.0167 60.112 43.0113 60.2174 43.0106 60.3362ZM8.71212 56.4773H14.3493C14.3385 55.9267 14.3847 55.424 14.53 54.9948C14.6735 54.5705 14.938 53.6932 15.2339 52.6601H9.28941C9.21137 53.2553 9.14721 53.6828 9.10667 53.8425C9.01479 54.2055 8.84285 55.1974 8.71212 56.4773ZM18.5612 56.4773H39.2084C39.1912 55.8339 39.2395 55.197 39.4117 54.5759C39.5556 54.0555 39.7215 53.3854 39.8917 52.6601H17.8776C18.0481 53.3854 18.2137 54.0555 18.3579 54.5759C18.5298 55.197 18.5781 55.8339 18.5612 56.4773ZM43.42 56.4773H49.0572C48.9264 55.1974 48.7545 54.2055 48.6626 53.8425C48.6221 53.6828 48.5579 53.2553 48.4799 52.6601H42.5353C42.8313 53.6932 43.0961 54.5705 43.2396 54.9948C43.3849 55.424 43.4308 55.9267 43.42 56.4773ZM9.32183 52.4105H15.3052C15.6616 51.1575 16.0518 49.7191 16.3254 48.5932H9.77651C9.61538 49.9913 9.45189 51.3961 9.32183 52.4105ZM17.8194 52.4105H39.9502C40.2535 51.1043 40.5653 49.6569 40.7893 48.5932H16.98C17.2043 49.6569 17.5158 51.1043 17.8194 52.4105ZM42.4644 52.4105H48.4475C48.3174 51.3961 48.1539 49.9913 47.9928 48.5932H41.4439C41.7179 49.7191 42.108 51.1575 42.4644 52.4105ZM9.80522 48.344H16.3852C16.5159 47.7937 16.6128 47.3355 16.6564 47.0351C16.6564 47.0351 16.7625 47.5568 16.9277 48.344H40.842C41.0071 47.5568 41.1129 47.0351 41.1129 47.0351C41.1565 47.3355 41.2537 47.7937 41.3841 48.344H47.9641C47.7965 46.8887 47.634 45.466 47.5165 44.5267H10.2528C10.1353 45.466 9.97277 46.8887 9.80522 48.344ZM10.2846 44.2772H47.4847C47.4449 43.9654 47.4114 43.7252 47.3864 43.5788C47.2996 43.0661 47.2128 41.8553 47.025 40.4599H10.7443C10.5565 41.8553 10.4697 43.0661 10.3829 43.5788C10.3579 43.7252 10.3244 43.9654 10.2846 44.2772ZM10.7788 40.2104H46.9905C46.8108 38.9394 46.5446 37.5429 46.119 36.3931H11.6506C11.2246 37.5429 10.9585 38.9394 10.7788 40.2104ZM11.7469 36.1435H46.0224C45.8083 35.6142 45.5566 35.1467 45.26 34.781C44.625 33.9995 42.9542 33.1304 41.0865 32.3262H16.6162C14.7857 33.1304 13.1444 33.9995 12.5093 34.781C12.2127 35.1467 11.961 35.6142 11.7469 36.1435ZM17.1945 32.0767H40.4964C37.5028 30.8336 34.2387 29.7906 33.9888 29.5444C33.8661 29.4239 33.704 28.9155 33.5584 28.2597H23.9984C23.8528 28.9155 23.6904 29.4239 23.5681 29.5444C23.3181 29.7906 20.1273 30.8336 17.1945 32.0767ZM24.0518 28.0102H33.505C33.3952 27.4732 33.2993 26.8643 33.2442 26.2977C33.1335 25.1561 33.2442 24.4125 33.2442 24.4125C33.3013 24.3563 33.3473 24.2811 33.3834 24.1929H24.1734C24.2095 24.2811 24.2555 24.3563 24.3126 24.4125C24.3126 24.4125 24.423 25.1561 24.3126 26.2977C24.2575 26.8643 24.1616 27.4732 24.0518 28.0102ZM24.1001 23.9434H33.4567C33.577 23.3541 33.4571 22.5273 33.4571 22.5273C33.5628 22.5689 33.6601 22.5879 33.7496 22.5879C34.5627 22.5879 34.7542 21.04 34.9457 20.8514C35.0393 20.7592 35.1741 20.4638 35.2778 20.1261H22.279C22.3824 20.4638 22.5175 20.7592 22.6111 20.8514C22.8026 21.04 22.9942 22.5879 23.8069 22.5879C23.8967 22.5879 23.994 22.5689 24.0998 22.5273C24.0998 22.5273 23.9798 23.3541 24.1001 23.9434ZM22.2105 19.8765H35.346C35.4328 19.5182 35.4673 19.1562 35.371 18.9662C35.2646 18.7566 35.0518 18.7044 34.8657 18.7044C34.6799 18.7044 34.5204 18.7566 34.5204 18.7566C34.5204 18.7566 34.5735 17.4996 34.334 16.0592H23.2225C22.9833 17.4996 23.0364 18.7566 23.0364 18.7566C23.0364 18.7566 22.8769 18.7044 22.6911 18.7044C22.505 18.7044 22.2922 18.7566 22.1858 18.9662C22.0892 19.1562 22.124 19.5182 22.2105 19.8765ZM23.2668 15.8097H34.2901C34.0317 14.4359 33.4959 12.9543 32.3937 12.2632C32.238 12.1654 32.0755 12.0752 31.9072 11.9927H25.6492C25.4813 12.0752 25.3189 12.1654 25.1628 12.2632C24.0606 12.9543 23.5252 14.4359 23.2668 15.8097ZM26.2336 11.7432H31.3229C30.5328 11.4527 29.6555 11.3077 28.7782 11.3077C27.901 11.3077 27.0237 11.4527 26.2336 11.7432Z" fill="#00DBDC"/>
</g>
<path d="M15.6154 6H6.76923C5.79211 6 5 6.79211 5 7.76923V16.6154" stroke="white" stroke-width="2.83077" stroke-linecap="round"/>
<path d="M40.3846 6H49.2308C50.2079 6 51 6.79211 51 7.76923V16.6154" stroke="white" stroke-width="2.83077" stroke-linecap="round"/>
<path d="M15.6154 52H6.76923C5.79211 52 5 51.2079 5 50.2308V41.3846" stroke="white" stroke-width="2.83077" stroke-linecap="round"/>
<path d="M40.3846 52H49.2308C50.2079 52 51 51.2079 51 50.2308V41.3846" stroke="white" stroke-width="2.83077" stroke-linecap="round"/>
<line x1="11.1922" y1="29.8846" x2="46.5768" y2="29.8846" stroke="white" stroke-width="1.76923" stroke-linecap="round"/>
</svg>
