<svg width="56" height="56" viewBox="0 0 56 56" fill="none" xmlns="http://www.w3.org/2000/svg">
<path d="M35.1259 25.5309L34.0408 24.9104L34.04 24.9117L35.1259 25.5309ZM21.1332 25.5309L22.2191 24.9117L22.2183 24.9104L21.1332 25.5309ZM13.0749 11.4388L11.9886 12.0573L11.9902 12.0601L13.0749 11.4388ZM13.0972 8.63835L14.1697 9.28034L14.1704 9.27915L13.0972 8.63835ZM18.0254 8.60983L19.0923 7.9584L19.0916 7.95731L18.0254 8.60983ZM23.1366 16.9804L24.2047 16.331L24.2034 16.3289L23.1366 16.9804ZM33.1202 16.9804L34.1862 17.6331L34.1871 17.6318L33.1202 16.9804ZM38.2314 8.60983L39.2982 9.26126L39.2988 9.26026L38.2314 8.60983ZM43.1596 8.63835L44.2343 7.99992L44.2341 7.99961L43.1596 8.63835ZM43.1819 11.4388L42.0999 10.8129L42.0973 10.8175L43.1819 11.4388ZM20.2417 45.1404C20.2417 44.45 19.682 43.8904 18.9917 43.8904C18.3013 43.8904 17.7417 44.45 17.7417 45.1404H20.2417ZM13.5934 47.7504H14.8434V45.462L12.9179 46.6987L13.5934 47.7504ZM9.12946 34.8486L10.2204 34.2383L10.2196 34.237L9.12946 34.8486ZM3.27053 24.4038L2.17923 25.0134L2.18078 25.0162L3.27053 24.4038ZM3.28675 22.3282L4.36467 22.9612L4.36536 22.96L3.28675 22.3282ZM6.8699 22.3071L7.94224 21.6648L7.94159 21.6637L6.8699 22.3071ZM10.5861 28.5111L11.6596 27.8708L11.6584 27.8688L10.5861 28.5111ZM15.9016 30.8631C16.592 30.8631 17.1516 30.3035 17.1516 29.6131C17.1516 28.9227 16.592 28.3631 15.9016 28.3631V30.8631ZM14.8159 38.7193C14.8159 38.0289 14.2563 37.4693 13.5659 37.4693C12.8756 37.4693 12.3159 38.0289 12.3159 38.7193H14.8159ZM12.3159 47.8246C12.3159 48.5149 12.8756 49.0746 13.5659 49.0746C14.2563 49.0746 14.8159 48.5149 14.8159 47.8246H12.3159ZM46.8704 35.1684L45.7844 34.5494L45.7837 34.5507L46.8704 35.1684ZM39.7074 47.0171C39.0171 47.0171 38.4574 47.5767 38.4574 48.2671C38.4574 48.9575 39.0171 49.5171 39.7074 49.5171V47.0171ZM40.0967 28.7661C39.4064 28.7661 38.8467 29.3257 38.8467 30.0161C38.8467 30.7064 39.4064 31.2661 40.0967 31.2661V28.7661ZM45.4122 28.9316L46.4791 29.5828L46.48 29.5815L45.4122 28.9316ZM49.1283 22.826L50.1961 23.4759L50.1967 23.4749L49.1283 22.826ZM52.7114 22.8468L53.787 22.2099L53.7868 22.2096L52.7114 22.8468ZM52.7276 24.8895L51.6447 24.2651L51.6421 24.2697L52.7276 24.8895ZM42.4108 38.1579C42.4108 37.4675 41.8512 36.9079 41.1608 36.9079C40.4704 36.9079 39.9108 37.4675 39.9108 38.1579H42.4108ZM28.5228 31C28.5228 30.3096 27.9632 29.75 27.2728 29.75C26.5825 29.75 26.0228 30.3096 26.0228 31H28.5228ZM22.704 8.33333H23.954C23.954 6.10305 25.808 4.25 28.1297 4.25V3V1.75C24.4679 1.75 21.454 4.68202 21.454 8.33333H22.704ZM28.1297 3V4.25C30.4514 4.25 32.3055 6.10305 32.3055 8.33333H33.5555H34.8055C34.8055 4.68202 31.7915 1.75 28.1297 1.75V3ZM33.5555 8.33333H32.3055C32.3055 10.5636 30.4514 12.4167 28.1297 12.4167V13.6667V14.9167C31.7915 14.9167 34.8055 11.9846 34.8055 8.33333H33.5555ZM28.1297 13.6667V12.4167C25.808 12.4167 23.954 10.5636 23.954 8.33333H22.704H21.454C21.454 11.9846 24.4679 14.9167 28.1297 14.9167V13.6667ZM35.1259 25.5309L34.04 24.9117C33.656 25.5852 33.4475 26.3529 33.4475 27.1318H34.6975H35.9475C35.9475 26.7967 36.0381 26.4547 36.2117 26.1501L35.1259 25.5309ZM34.6975 27.1318H33.4475V49.0703H34.6975H35.9475V27.1318H34.6975ZM34.6975 49.0703H33.4475C33.4475 50.3686 32.3587 51.4695 30.9852 51.4695V52.7195V53.9695C33.6988 53.9695 35.9475 51.7896 35.9475 49.0703H34.6975ZM30.9852 52.7195V51.4695C29.6117 51.4695 28.5228 50.3686 28.5228 49.0703H27.2728H26.0228C26.0228 51.7896 28.2716 53.9695 30.9852 53.9695V52.7195ZM27.2728 49.0703H28.5228V44.2875H27.2728H26.0228V49.0703H27.2728ZM27.2728 44.2875L26.6065 43.2299C26.2253 43.47 25.7709 43.6098 25.2739 43.6098V44.8598V46.1098C26.2493 46.1098 27.1647 45.833 27.9392 45.3451L27.2728 44.2875ZM25.2739 44.8598V43.6098C23.9004 43.6098 22.8115 42.5089 22.8115 41.2107H21.5615H20.3115C20.3115 43.93 22.5603 46.1098 25.2739 46.1098V44.8598ZM21.5615 41.2107H22.8115V27.1318H21.5615H20.3115V41.2107H21.5615ZM21.5615 27.1318H22.8115C22.8115 26.3477 22.6027 25.5845 22.2191 24.9117L21.1332 25.5309L20.0473 26.1501C20.2214 26.4554 20.3115 26.7932 20.3115 27.1318H21.5615ZM13.0749 11.4388L14.1611 10.8203C13.8785 10.324 13.8854 9.75537 14.1697 9.28034L13.0972 8.63835L12.0247 7.99636C11.2694 9.2582 11.2673 10.7905 11.9886 12.0573L13.0749 11.4388ZM13.0972 8.63835L14.1704 9.27915C14.4616 8.79151 14.9768 8.49579 15.5691 8.49579V7.24579V5.99579C14.1088 5.99579 12.7724 6.74394 12.0239 7.99755L13.0972 8.63835ZM15.5691 7.24579V8.49579C16.1412 8.49579 16.6751 8.79801 16.9593 9.26235L18.0254 8.60983L19.0916 7.95731C18.345 6.73742 16.9959 5.99579 15.5691 5.99579V7.24579ZM18.0254 8.60983L16.9586 9.26126L22.0697 17.6318L23.1366 16.9804L24.2034 16.3289L19.0923 7.9584L18.0254 8.60983ZM23.1366 16.9804L22.0685 17.6297C22.8611 18.9333 24.2999 19.7172 25.8093 19.7172V18.4672V17.2172C25.1501 17.2172 24.5321 16.8695 24.2047 16.331L23.1366 16.9804ZM25.8093 18.4672V19.7172H30.4475V18.4672V17.2172H25.8093V18.4672ZM30.4475 18.4672V19.7172C31.9694 19.7172 33.3969 18.9222 34.1862 17.6331L33.1202 16.9804L32.0542 16.3276C31.7236 16.8675 31.1076 17.2172 30.4475 17.2172V18.4672ZM33.1202 16.9804L34.1871 17.6318L39.2982 9.26126L38.2314 8.60983L37.1646 7.9584L32.0534 16.3289L33.1202 16.9804ZM38.2314 8.60983L39.2988 9.26026C39.5798 8.79917 40.114 8.49579 40.6877 8.49579V7.24579V5.99579C39.2624 5.99579 37.9092 6.73628 37.1639 7.9594L38.2314 8.60983ZM40.6877 7.24579V8.49579C41.2832 8.49579 41.7969 8.7922 42.0851 9.27709L43.1596 8.63835L44.2341 7.99961C43.4872 6.74324 42.1492 5.99579 40.6877 5.99579V7.24579ZM43.1596 8.63835L42.085 9.27678C42.3765 9.76754 42.3792 10.33 42.0999 10.8129L43.1819 11.4388L44.264 12.0647C45.002 10.7888 44.9824 9.25916 44.2343 7.99992L43.1596 8.63835ZM43.1819 11.4388L42.0973 10.8175C38.5994 16.9241 37.0307 19.6818 34.0408 24.9104L35.1259 25.5309L36.211 26.1514C39.2036 20.9181 40.7688 18.1665 44.2666 12.0601L43.1819 11.4388ZM21.1332 25.5309L22.2183 24.9104C19.2278 19.6807 17.6584 16.9257 14.1595 10.8175L13.0749 11.4388L11.9902 12.0601C15.4886 18.1676 17.0559 20.9188 20.0481 26.1514L21.1332 25.5309ZM10.2715 21.5845H11.5215C11.5215 20.0928 12.734 18.8816 14.2164 18.8816V17.6316V16.3816C11.3484 16.3816 9.02152 18.7169 9.02152 21.5845H10.2715ZM14.2164 17.6316V18.8816C15.6988 18.8816 16.9113 20.0928 16.9113 21.5845H18.1613H19.4113C19.4113 18.7169 17.0844 16.3816 14.2164 16.3816V17.6316ZM18.1613 21.5845H16.9113C16.9113 23.0762 15.6988 24.2874 14.2164 24.2874V25.5374V26.7874C17.0844 26.7874 19.4113 24.4521 19.4113 21.5845H18.1613ZM14.2164 25.5374V24.2874C12.734 24.2874 11.5215 23.0762 11.5215 21.5845H10.2715H9.02152C9.02152 24.4521 11.3484 26.7874 14.2164 26.7874V25.5374ZM18.9917 45.1404H17.7417V51.2954H18.9917H20.2417V45.1404H18.9917ZM18.9917 51.2954H17.7417C17.7417 52.0963 17.0856 52.75 16.2925 52.75V54V55.25C18.4711 55.25 20.2417 53.4722 20.2417 51.2954H18.9917ZM16.2925 54V52.75C15.4995 52.75 14.8434 52.0963 14.8434 51.2954H13.5934H12.3434C12.3434 53.4722 14.114 55.25 16.2925 55.25V54ZM13.5934 51.2954H14.8434V47.7504H13.5934H12.3434V51.2954H13.5934ZM13.5934 47.7504L12.9179 46.6987C12.6952 46.8417 12.431 46.9246 12.14 46.9246V48.1746V49.4246C12.9197 49.4246 13.6514 49.1988 14.2689 48.8022L13.5934 47.7504ZM12.14 48.1746V46.9246C11.347 46.9246 10.6909 46.2709 10.6909 45.47H9.4409H8.1909C8.1909 47.6468 9.96146 49.4246 12.14 49.4246V48.1746ZM9.4409 45.47H10.6909V36.0351H9.4409H8.1909V45.47H9.4409ZM9.4409 36.0351H10.6909C10.6909 35.4009 10.5252 34.7833 10.2204 34.2383L9.12946 34.8486L8.03854 35.4588C8.13919 35.6387 8.1909 35.8371 8.1909 36.0351H9.4409ZM3.27053 24.4038L4.36183 23.7943C4.20943 23.5215 4.21512 23.2158 4.36467 22.9612L3.28675 22.3282L2.20883 21.6953C1.60249 22.7279 1.60169 23.9795 2.17923 25.0134L3.27053 24.4038ZM3.28675 22.3282L4.36536 22.96C4.51989 22.6961 4.78336 22.5461 5.08399 22.5461V21.2961V20.0461C3.8923 20.0461 2.8095 20.6697 2.20814 21.6965L3.28675 22.3282ZM5.08399 21.2961V22.5461C5.37198 22.5461 5.64957 22.7029 5.79821 22.9505L6.8699 22.3071L7.94159 21.6637C7.34079 20.663 6.24938 20.0461 5.08399 20.0461V21.2961ZM6.8699 22.3071L5.79756 22.9494L9.51372 29.1534L10.5861 28.5111L11.6584 27.8688L7.94224 21.6648L6.8699 22.3071ZM10.5861 28.5111L9.5125 29.1514C10.1471 30.2154 11.3045 30.8631 12.5293 30.8631V29.6131V28.3631C12.1774 28.3631 11.8393 28.1721 11.6596 27.8708L10.5861 28.5111ZM12.5293 29.6131V30.8631H15.9016V29.6131V28.3631H12.5293V29.6131ZM9.12946 34.8486L10.2196 34.237C8.04555 30.3613 6.9042 28.3189 4.36028 23.7915L3.27053 24.4038L2.18078 25.0162C4.72427 29.5428 5.86355 31.5815 8.03927 35.4601L9.12946 34.8486ZM13.5659 38.7193H12.3159V47.8246H13.5659H14.8159V38.7193H13.5659ZM37.839 22.0832H39.089C39.089 20.6449 40.2825 19.443 41.7838 19.443V18.193V16.943C38.9348 16.943 36.589 19.2314 36.589 22.0832H37.839ZM41.7838 18.193V19.443C43.2851 19.443 44.4786 20.6449 44.4786 22.0832H45.7286H46.9786C46.9786 19.2314 44.6328 16.943 41.7838 16.943V18.193ZM45.7286 22.0832H44.4786C44.4786 23.5215 43.2851 24.7233 41.7838 24.7233V25.9733V27.2233C44.6328 27.2233 46.9786 24.9349 46.9786 22.0832H45.7286ZM41.7838 25.9733V24.7233C40.2825 24.7233 39.089 23.5215 39.089 22.0832H37.839H36.589C36.589 24.9349 38.9348 27.2233 41.7838 27.2233V25.9733ZM46.8704 35.1684L45.7837 34.5507C45.4762 35.0917 45.309 35.7087 45.309 36.3361H46.559H47.809C47.809 36.1509 47.8591 35.9585 47.9571 35.7861L46.8704 35.1684ZM46.559 36.3361H45.309V51.3383H46.559H47.809V36.3361H46.559ZM46.559 51.3383H45.309C45.309 52.0968 44.6718 52.75 43.8599 52.75V54V55.25C46.0195 55.25 47.809 53.5102 47.809 51.3383H46.559ZM43.8599 54V52.75C43.048 52.75 42.4108 52.0968 42.4108 51.3383H41.1608H39.9108C39.9108 53.5102 41.7002 55.25 43.8599 55.25V54ZM41.1608 51.3383H42.4108V47.8496H41.1608H39.9108V51.3383H41.1608ZM41.1608 47.8496L40.4929 46.793C40.2696 46.9342 40.0027 47.0171 39.7074 47.0171V48.2671V49.5171C40.4828 49.5171 41.2118 49.2962 41.8287 48.9062L41.1608 47.8496ZM40.0967 30.0161V31.2661H43.469V30.0161V28.7661H40.0967V30.0161ZM43.469 30.0161V31.2661C44.6949 31.2661 45.8435 30.6242 46.4791 29.5828L45.4122 28.9316L44.3452 28.2803C44.1666 28.573 43.8294 28.7661 43.469 28.7661V30.0161ZM45.4122 28.9316L46.48 29.5815L50.1961 23.4759L49.1283 22.826L48.0605 22.1761L44.3444 28.2817L45.4122 28.9316ZM49.1283 22.826L50.1967 23.4749C50.3384 23.2415 50.6152 23.0811 50.9142 23.0811V21.8311V20.5811C49.7598 20.5811 48.6643 21.1821 48.0599 22.1771L49.1283 22.826ZM50.9142 21.8311V23.0811C51.227 23.0811 51.4882 23.2345 51.636 23.484L52.7114 22.8468L53.7868 22.2096C53.1821 21.1891 52.0969 20.5811 50.9142 20.5811V21.8311ZM52.7114 22.8468L51.6358 23.4837C51.7867 23.7385 51.7864 24.0194 51.6447 24.2651L52.7276 24.8895L53.8105 25.5139C54.4085 24.4767 54.392 23.2317 53.787 22.2099L52.7114 22.8468ZM52.7276 24.8895L51.6421 24.2697C49.0989 28.724 47.9579 30.7362 45.7844 34.5494L46.8704 35.1684L47.9564 35.7874C50.1325 31.9696 51.2701 29.9634 53.8131 25.5093L52.7276 24.8895ZM41.1608 38.1579H39.9108V47.8496H41.1608H42.4108V38.1579H41.1608ZM27.2728 31H26.0228V44.2875H27.2728H28.5228V31H27.2728Z" fill="#00DBDC"/>
</svg>
