<svg width="56" height="56" viewBox="0 0 56 56" fill="none" xmlns="http://www.w3.org/2000/svg">
<path d="M37.8533 29.147L37.7377 32.0863C39.9214 32.9572 44.8784 34.9929 47.2368 36.1686C49.5952 37.3443 49.3114 39.9244 48.8746 41.0674L41.8321 50.7017C37.7377 53.5 35.0947 49.5 36.4274 46.9459L40.5219 40.5775C39.3209 40.0332 36.4602 38.7486 34.6259 37.9648C32.7915 37.181 31.2411 37.6383 30.6952 37.9648L12.0244 50.7017C10.605 51.6814 7.7654 53 6.45593 50.7017C5.18147 48.4648 6.89267 46.4561 7.76616 45.8029L25.9456 32.5762V23.9217L22.0149 25.228L25.5954 28.5C25.5954 29.5 26.4369 32.9681 22.5062 32.5762C22.5062 32.5762 15.0954 26.5 14.6449 25.7179C14.1943 24.9358 13.6294 22.8766 15.4637 21.9622C17.2981 21.0477 23.2159 18.3153 25.9456 17.0634H37.7377L48.5471 21.6356C49.6389 22.3976 51.233 24.3789 48.8746 26.2078L41.0947 32.5762C40.0799 32.9028 38.2078 32.6742 37.8533 29.147ZM37.8533 29.147L38.0652 23.7584L41.8321 25.228L37.8533 29.147ZM38.229 10.0418C38.229 13.3786 35.5159 16.0836 32.1692 16.0836C28.8224 16.0836 26.1094 13.3786 26.1094 10.0418C26.1094 6.70502 28.8224 4 32.1692 4C35.5159 4 38.229 6.70502 38.229 10.0418Z" stroke="#00DBDC" stroke-width="2.5" stroke-linejoin="round"/>
</svg>
