<svg width="412" height="224" viewBox="0 0 412 224" fill="none" xmlns="http://www.w3.org/2000/svg">
<mask id="mask0_789_742" style="mask-type:alpha" maskUnits="userSpaceOnUse" x="0" y="0" width="412" height="224">
<rect width="412" height="224" fill="#D9D9D9"/>
</mask>
<g mask="url(#mask0_789_742)">
<path d="M412 207C412 320.771 319.771 413 206 413C92.2293 413 0 320.771 0 207C0 93.2293 92.2293 1 206 1C319.771 1 412 93.2293 412 207Z" fill="url(#paint0_linear_789_742)"/>
<path d="M382.36 207C382.36 304.401 303.401 383.36 206 383.36C108.599 383.36 29.6403 304.401 29.6403 207C29.6403 109.599 108.599 30.6403 206 30.6403C303.401 30.6403 382.36 109.599 382.36 207Z" fill="url(#paint1_linear_789_742)"/>
<path d="M352.719 207C352.719 288.031 287.031 353.719 206 353.719C124.969 353.719 59.2806 288.031 59.2806 207C59.2806 125.969 124.969 60.2806 206 60.2806C287.031 60.2806 352.719 125.969 352.719 207Z" fill="url(#paint2_linear_789_742)"/>
<path d="M323.079 207C323.079 271.661 270.661 324.079 206 324.079C141.339 324.079 88.9209 271.661 88.9209 207C88.9209 142.339 141.339 89.9209 206 89.9209C270.661 89.9209 323.079 142.339 323.079 207Z" fill="url(#paint3_linear_789_742)"/>
<path d="M294.921 207C294.921 255.291 255.11 294.439 206 294.439C156.89 294.439 117.079 255.291 117.079 207C117.079 158.709 156.89 119.561 206 119.561C255.11 119.561 294.921 158.709 294.921 207Z" fill="url(#paint4_linear_789_742)"/>
<path d="M263.799 207C263.799 238.921 237.921 264.799 206 264.799C174.079 264.799 148.201 238.921 148.201 207C148.201 175.079 174.079 149.201 206 149.201C237.921 149.201 263.799 175.079 263.799 207Z" fill="url(#paint5_linear_789_742)"/>
<path d="M232.676 207C232.676 221.733 220.733 233.676 206 233.676C191.267 233.676 179.324 221.733 179.324 207C179.324 192.267 191.267 180.324 206 180.324C220.733 180.324 232.676 192.267 232.676 207Z" fill="url(#paint6_linear_789_742)"/>
<path d="M206 1.25C319.633 1.25 411.75 93.3674 411.75 207C411.75 320.633 319.633 412.75 206 412.75C92.3674 412.75 0.25 320.633 0.25 207C0.25 93.3674 92.3674 1.25 206 1.25ZM382.109 207C382.109 304.263 303.263 383.109 206 383.109C108.737 383.109 29.8906 304.263 29.8906 207C29.8906 109.737 108.737 30.8906 206 30.8906C303.263 30.8906 382.109 109.737 382.109 207ZM352.47 207C352.47 287.893 286.893 353.47 206 353.47C125.107 353.47 59.5303 287.893 59.5303 207C59.5303 126.107 125.107 60.5303 206 60.5303C286.893 60.5303 352.47 126.107 352.47 207ZM322.829 207C322.829 271.523 270.523 323.829 206 323.829C141.477 323.829 89.1709 271.523 89.1709 207C89.1709 142.477 141.477 90.1709 206 90.1709C270.523 90.1709 322.829 142.477 322.829 207ZM294.671 207C294.671 255.149 254.976 294.188 206 294.188C157.024 294.188 117.329 255.149 117.329 207C117.329 158.851 157.024 119.812 206 119.812C254.976 119.812 294.671 158.851 294.671 207ZM263.549 207C263.549 238.783 237.783 264.549 206 264.549C174.217 264.549 148.451 238.783 148.451 207C148.451 175.217 174.217 149.451 206 149.451C237.783 149.451 263.549 175.217 263.549 207ZM232.426 207C232.426 221.595 220.595 233.426 206 233.426C191.405 233.426 179.574 221.595 179.574 207C179.574 192.405 191.405 180.574 206 180.574C220.595 180.574 232.426 192.405 232.426 207ZM232.926 207C232.926 192.129 220.871 180.074 206 180.074C191.129 180.074 179.074 192.129 179.074 207C179.074 221.871 191.129 233.926 206 233.926C220.871 233.926 232.926 221.871 232.926 207ZM264.049 207C264.049 174.941 238.059 148.951 206 148.951C173.941 148.951 147.951 174.941 147.951 207C147.951 239.059 173.941 265.049 206 265.049C238.059 265.049 264.049 239.059 264.049 207ZM295.171 207C295.171 158.567 255.244 119.312 206 119.312C156.756 119.312 116.829 158.567 116.829 207C116.829 255.433 156.756 294.688 206 294.688C255.244 294.688 295.171 255.433 295.171 207ZM323.329 207C323.329 142.201 270.799 89.6709 206 89.6709C141.201 89.6709 88.6709 142.201 88.6709 207C88.6709 271.799 141.201 324.329 206 324.329C270.799 324.329 323.329 271.799 323.329 207ZM352.97 207C352.97 125.831 287.169 60.0303 206 60.0303C124.831 60.0303 59.0303 125.831 59.0303 207C59.0303 288.169 124.831 353.97 206 353.97C287.169 353.97 352.97 288.169 352.97 207ZM382.609 207C382.609 109.461 303.539 30.3906 206 30.3906C108.461 30.3906 29.3906 109.461 29.3906 207C29.3906 304.539 108.461 383.609 206 383.609C303.539 383.609 382.609 304.539 382.609 207Z" stroke="url(#paint7_linear_789_742)" stroke-opacity="0.7" stroke-width="0.5"/>
<circle cx="156.274" cy="38.7698" r="15.6911" fill="#0D0D0D" stroke="#333333" stroke-width="0.617778"/>
<g filter="url(#filter0_d_789_742)">
<path d="M156.285 45.4896C156.285 45.4896 161.627 40.7407 161.627 37.1789C161.627 34.2283 159.235 31.8363 156.285 31.8363C153.334 31.8363 150.942 34.2283 150.942 37.1789C150.942 40.7407 156.285 45.4896 156.285 45.4896Z" fill="#00DBDC"/>
</g>
<circle cx="156.274" cy="36.6369" r="2.13333" fill="#0D0D0D"/>
<circle cx="47.4961" cy="75.0288" r="11.7683" fill="#0D0D0D" stroke="#333333" stroke-width="0.463333"/>
<g filter="url(#filter1_d_789_742)">
<path d="M47.504 80.0687C47.504 80.0687 51.511 76.507 51.511 73.8357C51.511 71.6227 49.717 69.8287 47.504 69.8287C45.291 69.8287 43.4971 71.6227 43.4971 73.8357C43.4971 76.507 47.504 80.0687 47.504 80.0687Z" fill="#00DBDC"/>
</g>
<circle cx="47.497" cy="73.4291" r="1.6" fill="#0D0D0D"/>
<circle cx="345.432" cy="52.89" r="11.7683" fill="#0D0D0D" stroke="#333333" stroke-width="0.463333"/>
<g filter="url(#filter2_d_789_742)">
<path d="M345.438 57.9299C345.438 57.9299 349.445 54.3682 349.445 51.6969C349.445 49.4839 347.651 47.6899 345.438 47.6899C343.225 47.6899 341.431 49.4839 341.431 51.6969C341.431 54.3682 345.438 57.9299 345.438 57.9299Z" fill="#00DBDC"/>
</g>
<circle cx="345.433" cy="51.2903" r="1.6" fill="#0D0D0D"/>
<circle cx="340" cy="154.458" r="9.80694" fill="#0D0D0D" stroke="#333333" stroke-width="0.386111"/>
<g filter="url(#filter3_d_789_742)">
<path d="M340.005 158.658C340.005 158.658 343.344 155.69 343.344 153.464C343.344 151.62 341.849 150.125 340.005 150.125C338.161 150.125 336.666 151.62 336.666 153.464C336.666 155.69 340.005 158.658 340.005 158.658Z" fill="#00DBDC"/>
</g>
<circle cx="340.001" cy="153.125" r="1.33333" fill="#0D0D0D"/>
</g>
<defs>
<filter id="filter0_d_789_742" x="138.586" y="21.9519" width="35.3962" height="38.3644" filterUnits="userSpaceOnUse" color-interpolation-filters="sRGB">
<feFlood flood-opacity="0" result="BackgroundImageFix"/>
<feColorMatrix in="SourceAlpha" type="matrix" values="0 0 0 0 0 0 0 0 0 0 0 0 0 0 0 0 0 0 127 0" result="hardAlpha"/>
<feOffset dy="2.47111"/>
<feGaussianBlur stdDeviation="6.17778"/>
<feComposite in2="hardAlpha" operator="out"/>
<feColorMatrix type="matrix" values="0 0 0 0 0 0 0 0 0 0.858824 0 0 0 0 0.862745 0 0 0 0.4 0"/>
<feBlend mode="normal" in2="BackgroundImageFix" result="effect1_dropShadow_789_742"/>
<feBlend mode="normal" in="SourceGraphic" in2="effect1_dropShadow_789_742" result="shape"/>
</filter>
<filter id="filter1_d_789_742" x="34.2304" y="62.4154" width="26.547" height="28.7733" filterUnits="userSpaceOnUse" color-interpolation-filters="sRGB">
<feFlood flood-opacity="0" result="BackgroundImageFix"/>
<feColorMatrix in="SourceAlpha" type="matrix" values="0 0 0 0 0 0 0 0 0 0 0 0 0 0 0 0 0 0 127 0" result="hardAlpha"/>
<feOffset dy="1.85333"/>
<feGaussianBlur stdDeviation="4.63333"/>
<feComposite in2="hardAlpha" operator="out"/>
<feColorMatrix type="matrix" values="0 0 0 0 0 0 0 0 0 0.858824 0 0 0 0 0.862745 0 0 0 0.4 0"/>
<feBlend mode="normal" in2="BackgroundImageFix" result="effect1_dropShadow_789_742"/>
<feBlend mode="normal" in="SourceGraphic" in2="effect1_dropShadow_789_742" result="shape"/>
</filter>
<filter id="filter2_d_789_742" x="332.164" y="40.2766" width="26.547" height="28.7733" filterUnits="userSpaceOnUse" color-interpolation-filters="sRGB">
<feFlood flood-opacity="0" result="BackgroundImageFix"/>
<feColorMatrix in="SourceAlpha" type="matrix" values="0 0 0 0 0 0 0 0 0 0 0 0 0 0 0 0 0 0 127 0" result="hardAlpha"/>
<feOffset dy="1.85333"/>
<feGaussianBlur stdDeviation="4.63333"/>
<feComposite in2="hardAlpha" operator="out"/>
<feColorMatrix type="matrix" values="0 0 0 0 0 0 0 0 0 0.858824 0 0 0 0 0.862745 0 0 0 0.4 0"/>
<feBlend mode="normal" in2="BackgroundImageFix" result="effect1_dropShadow_789_742"/>
<feBlend mode="normal" in="SourceGraphic" in2="effect1_dropShadow_789_742" result="shape"/>
</filter>
<filter id="filter3_d_789_742" x="328.944" y="143.947" width="22.1227" height="23.9778" filterUnits="userSpaceOnUse" color-interpolation-filters="sRGB">
<feFlood flood-opacity="0" result="BackgroundImageFix"/>
<feColorMatrix in="SourceAlpha" type="matrix" values="0 0 0 0 0 0 0 0 0 0 0 0 0 0 0 0 0 0 127 0" result="hardAlpha"/>
<feOffset dy="1.54444"/>
<feGaussianBlur stdDeviation="3.86111"/>
<feComposite in2="hardAlpha" operator="out"/>
<feColorMatrix type="matrix" values="0 0 0 0 0 0 0 0 0 0.858824 0 0 0 0 0.862745 0 0 0 0.4 0"/>
<feBlend mode="normal" in2="BackgroundImageFix" result="effect1_dropShadow_789_742"/>
<feBlend mode="normal" in="SourceGraphic" in2="effect1_dropShadow_789_742" result="shape"/>
</filter>
<linearGradient id="paint0_linear_789_742" x1="206" y1="25.305" x2="206" y2="232.935" gradientUnits="userSpaceOnUse">
<stop stop-color="#0F0E0E"/>
<stop offset="1" stop-color="#0D0D0D"/>
</linearGradient>
<linearGradient id="paint1_linear_789_742" x1="206" y1="25.305" x2="206" y2="232.935" gradientUnits="userSpaceOnUse">
<stop stop-color="#0F0E0E"/>
<stop offset="1" stop-color="#0D0D0D"/>
</linearGradient>
<linearGradient id="paint2_linear_789_742" x1="206" y1="25.305" x2="206" y2="232.935" gradientUnits="userSpaceOnUse">
<stop stop-color="#0F0E0E"/>
<stop offset="1" stop-color="#0D0D0D"/>
</linearGradient>
<linearGradient id="paint3_linear_789_742" x1="206" y1="25.305" x2="206" y2="232.935" gradientUnits="userSpaceOnUse">
<stop stop-color="#0F0E0E"/>
<stop offset="1" stop-color="#0D0D0D"/>
</linearGradient>
<linearGradient id="paint4_linear_789_742" x1="206" y1="25.305" x2="206" y2="232.935" gradientUnits="userSpaceOnUse">
<stop stop-color="#0F0E0E"/>
<stop offset="1" stop-color="#0D0D0D"/>
</linearGradient>
<linearGradient id="paint5_linear_789_742" x1="206" y1="25.305" x2="206" y2="232.935" gradientUnits="userSpaceOnUse">
<stop stop-color="#0F0E0E"/>
<stop offset="1" stop-color="#0D0D0D"/>
</linearGradient>
<linearGradient id="paint6_linear_789_742" x1="206" y1="25.305" x2="206" y2="232.935" gradientUnits="userSpaceOnUse">
<stop stop-color="#0F0E0E"/>
<stop offset="1" stop-color="#0D0D0D"/>
</linearGradient>
<linearGradient id="paint7_linear_789_742" x1="206" y1="49.1655" x2="206" y2="227.304" gradientUnits="userSpaceOnUse">
<stop stop-color="#333333"/>
<stop offset="0.811126" stop-color="#0D0D0D" stop-opacity="0.5"/>
</linearGradient>
</defs>
</svg>
