<svg width="1440" height="700" viewBox="0 0 1440 700" fill="none" xmlns="http://www.w3.org/2000/svg">
<mask id="mask0_789_767" style="mask-type:alpha" maskUnits="userSpaceOnUse" x="0" y="0" width="1440" height="700">
<rect width="1440" height="700" fill="#D9D9D9"/>
</mask>
<g mask="url(#mask0_789_767)">
<path d="M1415 620C1415 1003.84 1103.84 1315 720 1315C336.162 1315 25 1003.84 25 620C25 236.162 336.162 -75 720 -75C1103.84 -75 1415 236.162 1415 620Z" fill="url(#paint0_linear_789_767)"/>
<path d="M1315 620C1315 948.609 1048.61 1215 720 1215C391.391 1215 125 948.609 125 620C125 291.391 391.391 25 720 25C1048.61 25 1315 291.391 1315 620Z" fill="url(#paint1_linear_789_767)"/>
<path d="M1215 620C1215 893.381 993.381 1115 720 1115C446.619 1115 225 893.381 225 620C225 346.619 446.619 125 720 125C993.381 125 1215 346.619 1215 620Z" fill="url(#paint2_linear_789_767)"/>
<path d="M1115 620C1115 838.152 938.152 1015 720 1015C501.848 1015 325 838.152 325 620C325 401.848 501.848 225 720 225C938.152 225 1115 401.848 1115 620Z" fill="url(#paint3_linear_789_767)"/>
<path d="M1020 620C1020 782.924 885.685 915 720 915C554.315 915 420 782.924 420 620C420 457.076 554.315 325 720 325C885.685 325 1020 457.076 1020 620Z" fill="url(#paint4_linear_789_767)"/>
<path d="M915 620C915 727.696 827.696 815 720 815C612.304 815 525 727.696 525 620C525 512.304 612.304 425 720 425C827.696 425 915 512.304 915 620Z" fill="url(#paint5_linear_789_767)"/>
<path d="M810 620C810 669.706 769.706 710 720 710C670.294 710 630 669.706 630 620C630 570.294 670.294 530 720 530C769.706 530 810 570.294 810 620Z" fill="url(#paint6_linear_789_767)"/>
<path d="M720 -74.75C1103.7 -74.75 1414.75 236.3 1414.75 620C1414.75 1003.7 1103.7 1314.75 720 1314.75C336.3 1314.75 25.25 1003.7 25.25 620C25.25 236.3 336.3 -74.75 720 -74.75ZM1314.75 620C1314.75 948.471 1048.47 1214.75 720 1214.75C391.529 1214.75 125.25 948.471 125.25 620C125.25 291.529 391.529 25.25 720 25.25C1048.47 25.25 1314.75 291.529 1314.75 620ZM1214.75 620C1214.75 893.243 993.243 1114.75 720 1114.75C446.757 1114.75 225.25 893.243 225.25 620C225.25 346.757 446.757 125.25 720 125.25C993.243 125.25 1214.75 346.757 1214.75 620ZM1114.75 620C1114.75 838.014 938.014 1014.75 720 1014.75C501.986 1014.75 325.25 838.014 325.25 620C325.25 401.986 501.986 225.25 720 225.25C938.014 225.25 1114.75 401.986 1114.75 620ZM1019.75 620C1019.75 782.782 885.551 914.75 720 914.75C554.449 914.75 420.25 782.782 420.25 620C420.25 457.218 554.449 325.25 720 325.25C885.551 325.25 1019.75 457.218 1019.75 620ZM914.75 620C914.75 727.557 827.557 814.75 720 814.75C612.443 814.75 525.25 727.557 525.25 620C525.25 512.443 612.443 425.25 720 425.25C827.557 425.25 914.75 512.443 914.75 620ZM809.75 620C809.75 669.568 769.568 709.75 720 709.75C670.432 709.75 630.25 669.568 630.25 620C630.25 570.432 670.432 530.25 720 530.25C769.568 530.25 809.75 570.432 809.75 620ZM810.25 620C810.25 570.156 769.844 529.75 720 529.75C670.156 529.75 629.75 570.156 629.75 620C629.75 669.844 670.156 710.25 720 710.25C769.844 710.25 810.25 669.844 810.25 620ZM915.25 620C915.25 512.166 827.834 424.75 720 424.75C612.166 424.75 524.75 512.166 524.75 620C524.75 727.834 612.166 815.25 720 815.25C827.834 815.25 915.25 727.834 915.25 620ZM1020.25 620C1020.25 456.934 885.82 324.75 720 324.75C554.18 324.75 419.75 456.934 419.75 620C419.75 783.066 554.18 915.25 720 915.25C885.82 915.25 1020.25 783.066 1020.25 620ZM1115.25 620C1115.25 401.709 938.291 224.75 720 224.75C501.709 224.75 324.75 401.709 324.75 620C324.75 838.291 501.709 1015.25 720 1015.25C938.291 1015.25 1115.25 838.291 1115.25 620ZM1215.25 620C1215.25 346.481 993.519 124.75 720 124.75C446.481 124.75 224.75 346.481 224.75 620C224.75 893.519 446.481 1115.25 720 1115.25C993.519 1115.25 1215.25 893.519 1215.25 620ZM1315.25 620C1315.25 291.252 1048.75 24.75 720 24.75C391.252 24.75 124.75 291.252 124.75 620C124.75 948.748 391.252 1215.25 720 1215.25C1048.75 1215.25 1315.25 948.748 1315.25 620Z" stroke="url(#paint7_linear_789_767)" stroke-opacity="0.7" stroke-width="0.5"/>
</g>
<circle cx="237" cy="275" r="29.5" fill="#0D0D0D" stroke="#333333"/>
<g filter="url(#filter0_d_789_767)">
<path d="M237.017 287.6C237.017 287.6 247.035 278.696 247.035 272.017C247.035 266.485 242.55 262 237.017 262C231.485 262 227 266.485 227 272.017C227 278.696 237.017 287.6 237.017 287.6Z" fill="#00DBDC"/>
</g>
<circle cx="237" cy="271" r="4" fill="#0D0D0D"/>
<circle cx="1106" cy="166" r="19.5" fill="#0D0D0D" stroke="#333333"/>
<g filter="url(#filter1_d_789_767)">
<path d="M1106.01 174.4C1106.01 174.4 1112.69 168.464 1112.69 164.012C1112.69 160.323 1109.7 157.333 1106.01 157.333C1102.32 157.333 1099.33 160.323 1099.33 164.012C1099.33 168.464 1106.01 174.4 1106.01 174.4Z" fill="#00DBDC"/>
</g>
<circle cx="1106" cy="163.334" r="2.66667" fill="#0D0D0D"/>
<circle cx="609" cy="136" r="24.5" fill="#0D0D0D" stroke="#333333"/>
<g filter="url(#filter2_d_789_767)">
<path d="M609.016 146.5C609.016 146.5 617.364 139.08 617.364 133.514C617.364 128.904 613.626 125.167 609.016 125.167C604.405 125.167 600.668 128.904 600.668 133.514C600.668 139.08 609.016 146.5 609.016 146.5Z" fill="#00DBDC"/>
</g>
<circle cx="609.001" cy="132.667" r="3.33333" fill="#0D0D0D"/>
<circle cx="1146" cy="373" r="19.5" fill="#0D0D0D" stroke="#333333"/>
<g filter="url(#filter3_d_789_767)">
<path d="M1146.01 381.4C1146.01 381.4 1152.69 375.464 1152.69 371.012C1152.69 367.323 1149.7 364.333 1146.01 364.333C1142.32 364.333 1139.33 367.323 1139.33 371.012C1139.33 375.464 1146.01 381.4 1146.01 381.4Z" fill="#00DBDC"/>
</g>
<circle cx="1146" cy="370.334" r="2.66667" fill="#0D0D0D"/>
<defs>
<filter id="filter0_d_789_767" x="207" y="246" width="60.0347" height="65.6" filterUnits="userSpaceOnUse" color-interpolation-filters="sRGB">
<feFlood flood-opacity="0" result="BackgroundImageFix"/>
<feColorMatrix in="SourceAlpha" type="matrix" values="0 0 0 0 0 0 0 0 0 0 0 0 0 0 0 0 0 0 127 0" result="hardAlpha"/>
<feOffset dy="4"/>
<feGaussianBlur stdDeviation="10"/>
<feComposite in2="hardAlpha" operator="out"/>
<feColorMatrix type="matrix" values="0 0 0 0 0 0 0 0 0 0.858824 0 0 0 0 0.862745 0 0 0 0.4 0"/>
<feBlend mode="normal" in2="BackgroundImageFix" result="effect1_dropShadow_789_767"/>
<feBlend mode="normal" in="SourceGraphic" in2="effect1_dropShadow_789_767" result="shape"/>
</filter>
<filter id="filter1_d_789_767" x="1079.33" y="141.333" width="53.3564" height="57.0667" filterUnits="userSpaceOnUse" color-interpolation-filters="sRGB">
<feFlood flood-opacity="0" result="BackgroundImageFix"/>
<feColorMatrix in="SourceAlpha" type="matrix" values="0 0 0 0 0 0 0 0 0 0 0 0 0 0 0 0 0 0 127 0" result="hardAlpha"/>
<feOffset dy="4"/>
<feGaussianBlur stdDeviation="10"/>
<feComposite in2="hardAlpha" operator="out"/>
<feColorMatrix type="matrix" values="0 0 0 0 0 0 0 0 0 0.858824 0 0 0 0 0.862745 0 0 0 0.4 0"/>
<feBlend mode="normal" in2="BackgroundImageFix" result="effect1_dropShadow_789_767"/>
<feBlend mode="normal" in="SourceGraphic" in2="effect1_dropShadow_789_767" result="shape"/>
</filter>
<filter id="filter2_d_789_767" x="580.668" y="109.167" width="56.6958" height="61.3334" filterUnits="userSpaceOnUse" color-interpolation-filters="sRGB">
<feFlood flood-opacity="0" result="BackgroundImageFix"/>
<feColorMatrix in="SourceAlpha" type="matrix" values="0 0 0 0 0 0 0 0 0 0 0 0 0 0 0 0 0 0 127 0" result="hardAlpha"/>
<feOffset dy="4"/>
<feGaussianBlur stdDeviation="10"/>
<feComposite in2="hardAlpha" operator="out"/>
<feColorMatrix type="matrix" values="0 0 0 0 0 0 0 0 0 0.858824 0 0 0 0 0.862745 0 0 0 0.4 0"/>
<feBlend mode="normal" in2="BackgroundImageFix" result="effect1_dropShadow_789_767"/>
<feBlend mode="normal" in="SourceGraphic" in2="effect1_dropShadow_789_767" result="shape"/>
</filter>
<filter id="filter3_d_789_767" x="1119.33" y="348.333" width="53.3564" height="57.0667" filterUnits="userSpaceOnUse" color-interpolation-filters="sRGB">
<feFlood flood-opacity="0" result="BackgroundImageFix"/>
<feColorMatrix in="SourceAlpha" type="matrix" values="0 0 0 0 0 0 0 0 0 0 0 0 0 0 0 0 0 0 127 0" result="hardAlpha"/>
<feOffset dy="4"/>
<feGaussianBlur stdDeviation="10"/>
<feComposite in2="hardAlpha" operator="out"/>
<feColorMatrix type="matrix" values="0 0 0 0 0 0 0 0 0 0.858824 0 0 0 0 0.862745 0 0 0 0.4 0"/>
<feBlend mode="normal" in2="BackgroundImageFix" result="effect1_dropShadow_789_767"/>
<feBlend mode="normal" in="SourceGraphic" in2="effect1_dropShadow_789_767" result="shape"/>
</filter>
<linearGradient id="paint0_linear_789_767" x1="720" y1="7" x2="720" y2="707.5" gradientUnits="userSpaceOnUse">
<stop stop-color="#0F0E0E"/>
<stop offset="1" stop-color="#0D0D0D"/>
</linearGradient>
<linearGradient id="paint1_linear_789_767" x1="720" y1="7" x2="720" y2="707.5" gradientUnits="userSpaceOnUse">
<stop stop-color="#0F0E0E"/>
<stop offset="1" stop-color="#0D0D0D"/>
</linearGradient>
<linearGradient id="paint2_linear_789_767" x1="720" y1="7" x2="720" y2="707.5" gradientUnits="userSpaceOnUse">
<stop stop-color="#0F0E0E"/>
<stop offset="1" stop-color="#0D0D0D"/>
</linearGradient>
<linearGradient id="paint3_linear_789_767" x1="720" y1="7" x2="720" y2="707.5" gradientUnits="userSpaceOnUse">
<stop stop-color="#0F0E0E"/>
<stop offset="1" stop-color="#0D0D0D"/>
</linearGradient>
<linearGradient id="paint4_linear_789_767" x1="720" y1="7" x2="720" y2="707.5" gradientUnits="userSpaceOnUse">
<stop stop-color="#0F0E0E"/>
<stop offset="1" stop-color="#0D0D0D"/>
</linearGradient>
<linearGradient id="paint5_linear_789_767" x1="720" y1="7" x2="720" y2="707.5" gradientUnits="userSpaceOnUse">
<stop stop-color="#0F0E0E"/>
<stop offset="1" stop-color="#0D0D0D"/>
</linearGradient>
<linearGradient id="paint6_linear_789_767" x1="720" y1="7" x2="720" y2="707.5" gradientUnits="userSpaceOnUse">
<stop stop-color="#0F0E0E"/>
<stop offset="1" stop-color="#0D0D0D"/>
</linearGradient>
<linearGradient id="paint7_linear_789_767" x1="720" y1="87.5" x2="720" y2="688.5" gradientUnits="userSpaceOnUse">
<stop stop-color="#333333"/>
<stop offset="0.811126" stop-color="#0D0D0D" stop-opacity="0.5"/>
</linearGradient>
</defs>
</svg>
