<svg width="16" height="16" viewBox="0 0 16 16" fill="none" xmlns="http://www.w3.org/2000/svg">
<path fill-rule="evenodd" clip-rule="evenodd" d="M2.34629 0.500279C2.37202 0.500409 2.3971 0.500537 2.42144 0.500537H4.53434C4.55515 0.500537 4.57657 0.500447 4.59851 0.500355C4.83038 0.499381 5.1214 0.498158 5.38718 0.60021C5.61648 0.688253 5.82065 0.831258 5.98175 1.01666C6.16849 1.23157 6.26679 1.50549 6.34512 1.72373C6.35253 1.74438 6.35976 1.76454 6.36687 1.78409L7.24143 4.18913C7.24382 4.19569 7.2462 4.20224 7.24859 4.2088C7.30261 4.35729 7.35618 4.50456 7.39271 4.63437C7.43342 4.779 7.46817 4.95131 7.45539 5.14784C7.43736 5.42484 7.34283 5.6914 7.18231 5.91786C7.06842 6.07853 6.93286 6.19045 6.81013 6.27712C6.69997 6.35491 6.56556 6.43553 6.43004 6.51681L5.98248 6.78535C6.73491 8.13948 7.86075 9.26621 9.21446 10.0178L9.4832 9.56994C9.56448 9.43443 9.6451 9.30003 9.72288 9.18987C9.80955 9.06714 9.92147 8.93158 10.0821 8.8177C10.3086 8.65717 10.5752 8.56264 10.8522 8.54462C11.0487 8.53183 11.221 8.56658 11.3656 8.60729C11.4954 8.64382 11.6427 8.6974 11.7912 8.75142L14.2159 9.63313C14.2355 9.64024 14.2556 9.64747 14.2763 9.65488C14.4945 9.73321 14.7684 9.83151 14.9833 10.0182C15.1687 10.1794 15.3117 10.3835 15.3998 10.6128C15.5018 10.8786 15.5006 11.1696 15.4996 11.4015C15.4996 11.4234 15.4995 11.4448 15.4995 11.4657V13.5786C15.4995 13.6029 15.4996 13.628 15.4997 13.6537C15.5011 13.9306 15.5029 14.2829 15.3506 14.5988C15.2234 14.8626 15.0017 15.1011 14.7479 15.2472C14.4448 15.4218 14.1128 15.4444 13.8562 15.462C13.8337 15.4635 13.8118 15.465 13.7905 15.4666C13.488 15.4887 13.1825 15.5 12.8746 15.5C6.04028 15.5 0.5 9.95972 0.5 3.12544C0.5 2.8175 0.511263 2.51204 0.533418 2.2095C0.534975 2.18823 0.536473 2.16632 0.53801 2.14383C0.555549 1.88725 0.578244 1.55524 0.752802 1.25206C0.898918 0.998281 1.13742 0.776602 1.40119 0.649411C1.71709 0.497085 2.06939 0.498873 2.34629 0.500279ZM2.05785 2.00733C2.05405 2.03138 2.04991 2.06534 2.04525 2.11621C2.04019 2.17152 2.03548 2.23551 2.02936 2.31904C2.00987 2.58517 1.99995 2.85408 1.99995 3.12544C1.99995 9.13132 6.86868 14.0001 12.8746 14.0001C13.1459 14.0001 13.4148 13.9901 13.681 13.9706C13.7645 13.9645 13.8285 13.9598 13.8838 13.9547C13.9347 13.9501 13.9686 13.9459 13.9927 13.9421C13.9928 13.9412 13.9928 13.9403 13.9929 13.9393C13.9989 13.8691 13.9995 13.7711 13.9995 13.5786V11.4657C13.9995 11.3043 13.9991 11.2202 13.995 11.1595C13.9949 11.1575 13.9947 11.1557 13.9946 11.1539C13.993 11.1532 13.9913 11.1524 13.9895 11.1516C13.9338 11.127 13.855 11.0979 13.7033 11.0428L11.2983 10.1682C11.1223 10.1042 11.0286 10.0706 10.9593 10.0511C10.9568 10.0505 10.9545 10.0498 10.9523 10.0492C10.951 10.0511 10.9496 10.053 10.9481 10.0551C10.9066 10.1139 10.855 10.199 10.7586 10.3596L10.1428 11.386C9.94683 11.7126 9.53721 11.8405 9.19027 11.6833C7.03678 10.708 5.29318 8.96189 4.31688 6.81021C4.15943 6.4632 4.28723 6.05328 4.61398 5.85723L5.64042 5.24136C5.80098 5.14503 5.88612 5.09338 5.94491 5.05186C5.94698 5.05041 5.94893 5.04901 5.95079 5.04768C5.95019 5.04548 5.94955 5.04316 5.94886 5.04073C5.92936 4.97145 5.89578 4.8777 5.83179 4.70173L4.95723 2.29669C4.90209 2.14505 4.87299 2.06617 4.84836 2.01049C4.84757 2.00871 4.84681 2.00701 4.84609 2.00539C4.84432 2.00526 4.84246 2.00513 4.84052 2.005C4.77977 2.00088 4.6957 2.00048 4.53434 2.00048H2.42144C2.22893 2.00048 2.13089 2.00111 2.06065 2.00709C2.0597 2.00717 2.05876 2.00725 2.05785 2.00733Z" fill="#131313"/>
</svg>
