<svg width="18" height="14" viewBox="0 0 18 14" fill="none" xmlns="http://www.w3.org/2000/svg">
<path fill-rule="evenodd" clip-rule="evenodd" d="M0.666748 3.09724C0.666748 1.5706 1.86347 0.333008 3.3397 0.333008H14.6605C16.1367 0.333008 17.3334 1.57059 17.3334 3.09724V10.9021C17.3334 12.4288 16.1367 13.6663 14.6605 13.6663H3.3397C1.86347 13.6663 0.666748 12.4288 0.666748 10.9021V3.09724ZM3.3407 1.95902L8.91058 5.94677C8.96443 5.98532 9.03573 5.98532 9.08958 5.94677L14.6595 1.95902H3.3407ZM15.7611 3.0976C15.7117 3.16566 15.651 3.22678 15.5796 3.27788L9.98456 7.28367C9.39229 7.70771 8.60788 7.70771 8.0156 7.28367L2.42051 3.27788C2.34914 3.22678 2.28848 3.16566 2.23908 3.0976V10.9021C2.23908 11.5307 2.73184 12.0403 3.3397 12.0403H14.6605C15.2683 12.0403 15.7611 11.5307 15.7611 10.9021V3.0976Z" fill="#131313"/>
</svg>
