<svg width="84" height="26" viewBox="0 0 84 26" fill="none" xmlns="http://www.w3.org/2000/svg">
<path d="M82 8C82 4.22876 82 2.34315 80.8284 1.17157C79.6569 0 77.7712 0 74 0H8C4.22877 0 2.34315 0 1.17157 1.17157C0 2.34315 0 4.22876 0 8V16C0 19.7712 0 21.6569 1.17157 22.8284C2.34315 24 4.22877 24 8 24H77.764L84 26L82 20.6667V8Z" fill="url(#paint0_linear_2325_1963)"/>
<path d="M13.7841 16H10.9588V7.27273H13.8736C14.7287 7.27273 15.4631 7.44744 16.0767 7.79688C16.6903 8.14347 17.1605 8.64205 17.4872 9.29261C17.8168 9.94034 17.9815 10.7173 17.9815 11.6236C17.9815 12.5327 17.8153 13.3139 17.483 13.9673C17.1534 14.6207 16.6761 15.1236 16.0511 15.4759C15.4261 15.8253 14.6705 16 13.7841 16ZM12.2756 14.8494H13.7116C14.3764 14.8494 14.929 14.7244 15.3693 14.4744C15.8097 14.2216 16.1392 13.8565 16.358 13.3793C16.5767 12.8991 16.6861 12.3139 16.6861 11.6236C16.6861 10.9389 16.5767 10.358 16.358 9.88068C16.142 9.40341 15.8196 9.04119 15.3906 8.79403C14.9616 8.54687 14.429 8.4233 13.7926 8.4233H12.2756V14.8494ZM22.3377 16.1321C21.6928 16.1321 21.1374 15.9943 20.6715 15.7188C20.2085 15.4403 19.8505 15.0497 19.5977 14.5469C19.3477 14.0412 19.2227 13.4489 19.2227 12.7699C19.2227 12.0994 19.3477 11.5085 19.5977 10.9972C19.8505 10.4858 20.2028 10.0866 20.6545 9.79972C21.109 9.51278 21.6403 9.36932 22.2482 9.36932C22.6175 9.36932 22.9755 9.4304 23.3221 9.55256C23.6687 9.67472 23.9798 9.86648 24.2553 10.1278C24.5309 10.3892 24.7482 10.7287 24.9073 11.1463C25.0664 11.5611 25.146 12.0653 25.146 12.6591V13.1108H19.9428V12.1562H23.8974C23.8974 11.821 23.8292 11.5241 23.6928 11.2656C23.5565 11.0043 23.3647 10.7983 23.1175 10.6477C22.8732 10.4972 22.5863 10.4219 22.2567 10.4219C21.8988 10.4219 21.5863 10.5099 21.3192 10.6861C21.055 10.8594 20.8505 11.0866 20.7056 11.3679C20.5636 11.6463 20.4925 11.9489 20.4925 12.2756V13.0213C20.4925 13.4588 20.5692 13.831 20.7227 14.1378C20.8789 14.4446 21.0962 14.679 21.3746 14.8409C21.6531 15 21.9783 15.0795 22.3505 15.0795C22.592 15.0795 22.8121 15.0455 23.011 14.9773C23.2099 14.9062 23.3817 14.8011 23.5266 14.6619C23.6715 14.5227 23.7823 14.3509 23.859 14.1463L25.065 14.3636C24.9684 14.7187 24.7951 15.0298 24.5451 15.2969C24.2979 15.5611 23.9869 15.767 23.6119 15.9148C23.2397 16.0597 22.815 16.1321 22.3377 16.1321ZM27.7315 13.7798L27.723 12.2244H27.9446L30.5526 9.45455H32.0781L29.1037 12.608H28.9034L27.7315 13.7798ZM26.5597 16V7.27273H27.8338V16H26.5597ZM30.6932 16L28.3494 12.8892L29.2273 11.9986L32.2571 16H30.6932ZM35.7908 16.1321C35.146 16.1321 34.5906 15.9943 34.1246 15.7188C33.6616 15.4403 33.3036 15.0497 33.0508 14.5469C32.8008 14.0412 32.6758 13.4489 32.6758 12.7699C32.6758 12.0994 32.8008 11.5085 33.0508 10.9972C33.3036 10.4858 33.6559 10.0866 34.1076 9.79972C34.5621 9.51278 35.0934 9.36932 35.7013 9.36932C36.0707 9.36932 36.4286 9.4304 36.7752 9.55256C37.1218 9.67472 37.4329 9.86648 37.7085 10.1278C37.984 10.3892 38.2013 10.7287 38.3604 11.1463C38.5195 11.5611 38.5991 12.0653 38.5991 12.6591V13.1108H33.396V12.1562H37.3505C37.3505 11.821 37.2823 11.5241 37.146 11.2656C37.0096 11.0043 36.8178 10.7983 36.5707 10.6477C36.3263 10.4972 36.0394 10.4219 35.7099 10.4219C35.3519 10.4219 35.0394 10.5099 34.7724 10.6861C34.5082 10.8594 34.3036 11.0866 34.1587 11.3679C34.0167 11.6463 33.9457 11.9489 33.9457 12.2756V13.0213C33.9457 13.4588 34.0224 13.831 34.1758 14.1378C34.332 14.4446 34.5494 14.679 34.8278 14.8409C35.1062 15 35.4315 15.0795 35.8036 15.0795C36.0451 15.0795 36.2653 15.0455 36.4641 14.9773C36.663 14.9062 36.8349 14.8011 36.9798 14.6619C37.1246 14.5227 37.2354 14.3509 37.3121 14.1463L38.5181 14.3636C38.4215 14.7187 38.2482 15.0298 37.9982 15.2969C37.7511 15.5611 37.44 15.767 37.065 15.9148C36.6928 16.0597 36.2681 16.1321 35.7908 16.1321ZM48.0508 9.56534C48.0053 9.16193 47.8178 8.84943 47.4883 8.62784C47.1587 8.40341 46.744 8.29119 46.244 8.29119C45.886 8.29119 45.5763 8.34801 45.315 8.46165C45.0536 8.57244 44.8505 8.72585 44.7056 8.92188C44.5636 9.11506 44.4925 9.33523 44.4925 9.58239C44.4925 9.78977 44.5408 9.96875 44.6374 10.1193C44.7369 10.2699 44.8661 10.3963 45.0252 10.4986C45.1871 10.598 45.3604 10.6818 45.5451 10.75C45.7298 10.8153 45.9073 10.8693 46.0778 10.9119L46.93 11.1335C47.2085 11.2017 47.494 11.294 47.7866 11.4105C48.0792 11.527 48.3505 11.6804 48.6005 11.8707C48.8505 12.0611 49.0522 12.2969 49.2056 12.5781C49.3619 12.8594 49.44 13.196 49.44 13.5881C49.44 14.0824 49.3121 14.5213 49.0565 14.9048C48.8036 15.2884 48.4357 15.5909 47.9528 15.8125C47.4727 16.0341 46.8917 16.1449 46.2099 16.1449C45.5565 16.1449 44.9911 16.0412 44.5138 15.8338C44.0366 15.6264 43.663 15.3324 43.3931 14.9517C43.1232 14.5682 42.9741 14.1136 42.9457 13.5881H44.2667C44.2923 13.9034 44.3945 14.1662 44.5735 14.3764C44.7553 14.5838 44.9869 14.7386 45.2681 14.8409C45.5522 14.9403 45.8633 14.9901 46.2013 14.9901C46.5735 14.9901 46.9045 14.9318 47.1942 14.8153C47.4869 14.696 47.717 14.5312 47.8846 14.321C48.0522 14.108 48.136 13.8594 48.136 13.5753C48.136 13.3168 48.0621 13.1051 47.9144 12.9403C47.7695 12.7756 47.5721 12.6392 47.3221 12.5312C47.0749 12.4233 46.7951 12.3281 46.4826 12.2457L45.4513 11.9645C44.7525 11.7741 44.1985 11.4943 43.7894 11.125C43.3832 10.7557 43.18 10.267 43.18 9.65909C43.18 9.15625 43.3164 8.71733 43.5891 8.34233C43.8619 7.96733 44.2312 7.67614 44.6971 7.46875C45.163 7.25852 45.6886 7.15341 46.2738 7.15341C46.8647 7.15341 47.386 7.2571 47.8377 7.46449C48.2923 7.67188 48.6502 7.95739 48.9116 8.32102C49.1729 8.68182 49.3093 9.09659 49.3207 9.56534H48.0508ZM50.9112 16V9.45455H52.1342V10.5199H52.2152C52.3516 10.1591 52.5746 9.87784 52.8842 9.67614C53.1939 9.47159 53.5646 9.36932 53.9964 9.36932C54.4339 9.36932 54.8004 9.47159 55.0959 9.67614C55.3942 9.88068 55.6143 10.1619 55.7564 10.5199H55.8246C55.9808 10.1705 56.2294 9.89205 56.5703 9.68466C56.9112 9.47443 57.3175 9.36932 57.7891 9.36932C58.3828 9.36932 58.8672 9.5554 59.2422 9.92756C59.62 10.2997 59.8089 10.8608 59.8089 11.6108V16H58.5348V11.7301C58.5348 11.2869 58.4141 10.9659 58.1726 10.767C57.9311 10.5682 57.6428 10.4688 57.3075 10.4688C56.8928 10.4688 56.5703 10.5966 56.3402 10.8523C56.1101 11.1051 55.995 11.4304 55.995 11.8281V16H54.7251V11.6491C54.7251 11.294 54.6143 11.0085 54.3928 10.7926C54.1712 10.5767 53.8828 10.4688 53.5277 10.4688C53.2862 10.4688 53.0632 10.5327 52.8587 10.6605C52.657 10.7855 52.4936 10.9602 52.3686 11.1847C52.2464 11.4091 52.1854 11.669 52.1854 11.9645V16H50.9112ZM61.5167 16V9.45455H62.7908V16H61.5167ZM62.1602 8.4446C61.9386 8.4446 61.7482 8.37074 61.5891 8.22301C61.4329 8.07244 61.3548 7.89347 61.3548 7.68608C61.3548 7.47585 61.4329 7.29687 61.5891 7.14915C61.7482 6.99858 61.9386 6.9233 62.1602 6.9233C62.3817 6.9233 62.5707 6.99858 62.7269 7.14915C62.886 7.29687 62.9656 7.47585 62.9656 7.68608C62.9656 7.89347 62.886 8.07244 62.7269 8.22301C62.5707 8.37074 62.3817 8.4446 62.1602 8.4446ZM67.5604 9.45455V10.4773H63.9851V9.45455H67.5604ZM64.9439 7.88636H66.218V14.0781C66.218 14.3253 66.255 14.5114 66.3288 14.6364C66.4027 14.7585 66.4979 14.8423 66.6143 14.8878C66.7337 14.9304 66.8629 14.9517 67.0021 14.9517C67.1044 14.9517 67.1939 14.9446 67.2706 14.9304C67.3473 14.9162 67.407 14.9048 67.4496 14.8963L67.6797 15.9489C67.6058 15.9773 67.5007 16.0057 67.3643 16.0341C67.228 16.0653 67.0575 16.0824 66.853 16.0852C66.5178 16.0909 66.2053 16.0312 65.9155 15.9062C65.6257 15.7812 65.3913 15.5881 65.2124 15.3267C65.0334 15.0653 64.9439 14.7372 64.9439 14.3423V7.88636ZM70.3846 12.1136V16H69.1104V7.27273H70.3675V10.5199H70.4485C70.6019 10.1676 70.8363 9.88778 71.1516 9.6804C71.467 9.47301 71.8789 9.36932 72.3874 9.36932C72.8363 9.36932 73.2283 9.46165 73.5636 9.64631C73.9016 9.83097 74.163 10.1065 74.3477 10.473C74.5352 10.8366 74.6289 11.2912 74.6289 11.8366V16H73.3548V11.9901C73.3548 11.5099 73.2312 11.1378 72.984 10.8736C72.7369 10.6065 72.3931 10.473 71.9528 10.473C71.6516 10.473 71.3817 10.5369 71.1431 10.6648C70.9073 10.7926 70.7212 10.9801 70.5849 11.2273C70.4513 11.4716 70.3846 11.767 70.3846 12.1136Z" fill="#121313"/>
<defs>
<linearGradient id="paint0_linear_2325_1963" x1="74.8271" y1="1.28734e-06" x2="66.9781" y2="43.8361" gradientUnits="userSpaceOnUse">
<stop stop-color="#0BFFB6"/>
<stop offset="0.581731" stop-color="#00DBDC"/>
</linearGradient>
</defs>
</svg>
