<svg width="130" height="38" viewBox="0 0 130 38" fill="none" xmlns="http://www.w3.org/2000/svg">
<path d="M3.48659 12C3.48659 6.34315 3.48659 3.51472 5.24395 1.75736C7.00131 0 9.82974 0 15.4866 0H118C123.657 0 126.485 0 128.243 1.75736C130 3.51472 130 6.34315 130 12V24C130 29.6569 130 32.4853 128.243 34.2426C126.485 36 123.657 36 118 36H15.4572C11.9663 36 10.2208 36 8.49091 36.2015C6.76105 36.403 5.0623 36.8043 1.66481 37.6068L0 38C0.337934 37.3215 0.506901 36.9823 0.665432 36.6431C2.41668 32.8955 3.374 28.8263 3.47724 24.691C3.48659 24.3167 3.48659 23.9377 3.48659 23.1797V12Z" fill="url(#paint0_linear_2325_1393)"/>
<path d="M18.2619 25H13.5531V10.4545H18.411C19.8362 10.4545 21.0602 10.7457 22.0829 11.3281C23.1056 11.9058 23.8893 12.7367 24.4338 13.821C24.983 14.9006 25.2576 16.1955 25.2576 17.706C25.2576 19.2211 24.9806 20.5232 24.4267 21.6122C23.8774 22.7012 23.082 23.5393 22.0403 24.1264C20.9986 24.7088 19.7392 25 18.2619 25ZM15.7477 23.0824H18.1412C19.2491 23.0824 20.17 22.8741 20.9039 22.4574C21.6378 22.036 22.1871 21.4276 22.5517 20.6321C22.9163 19.8319 23.0985 18.8565 23.0985 17.706C23.0985 16.5649 22.9163 15.5966 22.5517 14.8011C22.1918 14.0057 21.6544 13.402 20.9395 12.9901C20.2245 12.5781 19.3367 12.3722 18.2761 12.3722H15.7477V23.0824ZM32.1179 25.2202C31.0431 25.2202 30.1175 24.9905 29.3409 24.5312C28.5692 24.0672 27.9726 23.4162 27.5512 22.5781C27.1345 21.7353 26.9262 20.7481 26.9262 19.6165C26.9262 18.4991 27.1345 17.5142 27.5512 16.6619C27.9726 15.8097 28.5597 15.1444 29.3125 14.6662C30.0701 14.188 30.9555 13.9489 31.9688 13.9489C32.5843 13.9489 33.1809 14.0507 33.7586 14.2543C34.3362 14.4579 34.8547 14.7775 35.314 15.2131C35.7732 15.6487 36.1355 16.2145 36.4006 16.9105C36.6658 17.6018 36.7983 18.4422 36.7983 19.4318V20.1847H28.1265V18.5938H34.7174C34.7174 18.035 34.6037 17.5402 34.3765 17.1094C34.1492 16.6738 33.8296 16.3305 33.4176 16.0795C33.0105 15.8286 32.5322 15.7031 31.983 15.7031C31.3864 15.7031 30.8656 15.8499 30.4205 16.1435C29.9801 16.4323 29.6392 16.8111 29.3978 17.2798C29.161 17.7438 29.0426 18.2481 29.0426 18.7926V20.0355C29.0426 20.7647 29.1705 21.3849 29.4262 21.8963C29.6866 22.4077 30.0488 22.7983 30.5128 23.0682C30.9768 23.3333 31.519 23.4659 32.1392 23.4659C32.5417 23.4659 32.9087 23.4091 33.2401 23.2955C33.5715 23.1771 33.858 23.0019 34.0995 22.7699C34.3409 22.5379 34.5256 22.2514 34.6534 21.9105L36.6634 22.2727C36.5024 22.8646 36.2136 23.383 35.7969 23.8281C35.385 24.2685 34.8665 24.6117 34.2415 24.858C33.6212 25.0994 32.9134 25.2202 32.1179 25.2202ZM40.7076 21.2997L40.6934 18.7074H41.0627L45.4093 14.0909H47.952L42.9946 19.3466H42.6608L40.7076 21.2997ZM38.7545 25V10.4545H40.8781V25H38.7545ZM45.6437 25L41.7375 19.8153L43.2005 18.331L48.2503 25H45.6437ZM53.7398 25.2202C52.665 25.2202 51.7393 24.9905 50.9628 24.5312C50.191 24.0672 49.5944 23.4162 49.173 22.5781C48.7564 21.7353 48.548 20.7481 48.548 19.6165C48.548 18.4991 48.7564 17.5142 49.173 16.6619C49.5944 15.8097 50.1816 15.1444 50.9344 14.6662C51.692 14.188 52.5774 13.9489 53.5907 13.9489C54.2062 13.9489 54.8028 14.0507 55.3804 14.2543C55.9581 14.4579 56.4766 14.7775 56.9358 15.2131C57.3951 15.6487 57.7573 16.2145 58.0225 16.9105C58.2876 17.6018 58.4202 18.4422 58.4202 19.4318V20.1847H49.7483V18.5938H56.3392C56.3392 18.035 56.2256 17.5402 55.9983 17.1094C55.7711 16.6738 55.4515 16.3305 55.0395 16.0795C54.6323 15.8286 54.1541 15.7031 53.6049 15.7031C53.0083 15.7031 52.4874 15.8499 52.0424 16.1435C51.602 16.4323 51.2611 16.8111 51.0196 17.2798C50.7829 17.7438 50.6645 18.2481 50.6645 18.7926V20.0355C50.6645 20.7647 50.7924 21.3849 51.048 21.8963C51.3085 22.4077 51.6707 22.7983 52.1347 23.0682C52.5987 23.3333 53.1408 23.4659 53.7611 23.4659C54.1636 23.4659 54.5305 23.4091 54.862 23.2955C55.1934 23.1771 55.4799 23.0019 55.7213 22.7699C55.9628 22.5379 56.1475 22.2514 56.2753 21.9105L58.2853 22.2727C58.1243 22.8646 57.8355 23.383 57.4188 23.8281C57.0069 24.2685 56.4884 24.6117 55.8634 24.858C55.2431 25.0994 54.5353 25.2202 53.7398 25.2202ZM73.373 14.2756C73.2973 13.6032 72.9848 13.0824 72.4355 12.7131C71.8863 12.339 71.195 12.152 70.3617 12.152C69.7651 12.152 69.249 12.2467 68.8134 12.4361C68.3778 12.6207 68.0392 12.8764 67.7978 13.2031C67.561 13.5251 67.4426 13.892 67.4426 14.304C67.4426 14.6496 67.5231 14.9479 67.6841 15.1989C67.8498 15.4498 68.0653 15.6605 68.3304 15.831C68.6003 15.9967 68.8891 16.1364 69.1969 16.25C69.5047 16.3589 69.8006 16.4489 70.0847 16.5199L71.5051 16.8892C71.9692 17.0028 72.445 17.1567 72.9327 17.3509C73.4204 17.545 73.8726 17.8007 74.2892 18.1179C74.7059 18.4351 75.0421 18.8281 75.2978 19.2969C75.5582 19.7656 75.6884 20.3267 75.6884 20.9801C75.6884 21.804 75.4753 22.5355 75.0492 23.1747C74.6278 23.8139 74.0146 24.3182 73.2097 24.6875C72.4095 25.0568 71.4412 25.2415 70.3049 25.2415C69.2158 25.2415 68.2736 25.0687 67.4782 24.723C66.6827 24.3774 66.0601 23.8873 65.6103 23.2528C65.1605 22.6136 64.9119 21.8561 64.8645 20.9801H67.0662C67.1088 21.5057 67.2793 21.9437 67.5776 22.294C67.8806 22.6397 68.2665 22.8977 68.7353 23.0682C69.2087 23.2339 69.7272 23.3168 70.2907 23.3168C70.9109 23.3168 71.4625 23.2197 71.9455 23.0256C72.4332 22.8267 72.8167 22.5521 73.0961 22.2017C73.3754 21.8466 73.5151 21.4323 73.5151 20.9588C73.5151 20.5279 73.392 20.1752 73.1458 19.9006C72.9043 19.6259 72.5752 19.3987 72.1586 19.2188C71.7466 19.0388 71.2802 18.8802 70.7594 18.7429L69.0407 18.2741C67.8759 17.9569 66.9526 17.4905 66.2708 16.875C65.5937 16.2595 65.2551 15.4451 65.2551 14.4318C65.2551 13.5937 65.4824 12.8622 65.937 12.2372C66.3915 11.6122 67.007 11.1269 67.7836 10.7812C68.5601 10.4309 69.436 10.2557 70.4114 10.2557C71.3962 10.2557 72.2651 10.4285 73.0179 10.7741C73.7755 11.1198 74.3721 11.5956 74.8077 12.2017C75.2433 12.803 75.4706 13.4943 75.4895 14.2756H73.373ZM77.7404 25V14.0909H79.7788V15.8665H79.9137C80.141 15.2652 80.5127 14.7964 81.0288 14.4602C81.5449 14.1193 82.1628 13.9489 82.8825 13.9489C83.6117 13.9489 84.2225 14.1193 84.7149 14.4602C85.212 14.8011 85.579 15.2699 85.8157 15.8665H85.9294C86.1898 15.2841 86.6041 14.8201 87.1723 14.4744C87.7404 14.1241 88.4175 13.9489 89.2035 13.9489C90.1931 13.9489 91.0004 14.259 91.6254 14.8793C92.2551 15.4995 92.57 16.4347 92.57 17.6847V25H90.4464V17.8835C90.4464 17.1449 90.2452 16.6098 89.8427 16.2784C89.4403 15.947 88.9597 15.7812 88.401 15.7812C87.7097 15.7812 87.1723 15.9943 86.7887 16.4205C86.4052 16.8419 86.2135 17.384 86.2135 18.0469V25H84.097V17.7486C84.097 17.1567 83.9123 16.6809 83.543 16.321C83.1737 15.9612 82.6931 15.7812 82.1012 15.7812C81.6988 15.7812 81.3271 15.8878 80.9862 16.1009C80.65 16.3092 80.3778 16.6004 80.1694 16.9744C79.9658 17.3485 79.864 17.7817 79.864 18.2741V25H77.7404ZM95.0162 25V14.0909H97.1398V25H95.0162ZM96.0887 12.4077C95.7194 12.4077 95.4021 12.2846 95.137 12.0384C94.8765 11.7874 94.7463 11.4891 94.7463 11.1435C94.7463 10.7931 94.8765 10.4948 95.137 10.2486C95.4021 9.99763 95.7194 9.87216 96.0887 9.87216C96.458 9.87216 96.7729 9.99763 97.0333 10.2486C97.2984 10.4948 97.431 10.7931 97.431 11.1435C97.431 11.4891 97.2984 11.7874 97.0333 12.0384C96.7729 12.2846 96.458 12.4077 96.0887 12.4077ZM104.689 14.0909V15.7955H98.7302V14.0909H104.689ZM100.328 11.4773H102.452V21.7969C102.452 22.2088 102.513 22.5189 102.636 22.7273C102.76 22.9309 102.918 23.0705 103.112 23.1463C103.311 23.2173 103.527 23.2528 103.759 23.2528C103.929 23.2528 104.078 23.241 104.206 23.2173C104.334 23.1937 104.433 23.1747 104.504 23.1605L104.888 24.9148C104.765 24.9621 104.59 25.0095 104.362 25.0568C104.135 25.1089 103.851 25.1373 103.51 25.142C102.951 25.1515 102.431 25.0521 101.948 24.8438C101.465 24.6354 101.074 24.3134 100.776 23.8778C100.477 23.4422 100.328 22.8954 100.328 22.2372V11.4773ZM108.996 18.5227V25H106.872V10.4545H108.968V15.8665H109.103C109.358 15.2794 109.749 14.813 110.274 14.4673C110.8 14.1217 111.487 13.9489 112.334 13.9489C113.082 13.9489 113.736 14.1027 114.294 14.4105C114.858 14.7183 115.293 15.1776 115.601 15.7884C115.914 16.3944 116.07 17.152 116.07 18.0611V25H113.946V18.3168C113.946 17.5166 113.74 16.8963 113.328 16.456C112.917 16.0109 112.344 15.7884 111.61 15.7884C111.108 15.7884 110.658 15.8949 110.26 16.108C109.867 16.321 109.557 16.6335 109.33 17.0455C109.107 17.4527 108.996 17.9451 108.996 18.5227Z" fill="#121313"/>
<defs>
<linearGradient id="paint0_linear_2325_1393" x1="9.08267" y1="2.73898e-07" x2="24.7211" y2="62.1898" gradientUnits="userSpaceOnUse">
<stop stop-color="#0BFFB6"/>
<stop offset="0.581731" stop-color="#00DBDC"/>
</linearGradient>
</defs>
</svg>
