<svg width="48" height="48" viewBox="0 0 48 48" fill="none" xmlns="http://www.w3.org/2000/svg">
<circle cx="24" cy="24" r="24" fill="#0D0D0D"/>
<mask id="mask0_113_54192" style="mask-type:alpha" maskUnits="userSpaceOnUse" x="0" y="0" width="48" height="48">
<circle cx="24" cy="24" r="24" fill="#0D0D0D"/>
</mask>
<g mask="url(#mask0_113_54192)">
<path d="M36 29.9993C36 36.6271 30.6271 41.9995 24.0002 41.9995C17.3729 41.9995 12 36.6271 12 29.9993C12 23.3719 17.3724 17.999 24.0002 17.999C30.6271 17.999 36 23.3714 36 29.9993Z" fill="#E3E3E3"/>
<mask id="mask1_113_54192" style="mask-type:luminance" maskUnits="userSpaceOnUse" x="12" y="17" width="24" height="25">
<path d="M36 29.9983C36 36.6261 30.6271 41.9985 24.0002 41.9985C17.3729 41.9985 12 36.6261 12 29.9983C12 23.3709 17.3724 17.998 24.0002 17.998C30.6271 17.998 36 23.3705 36 29.9983Z" fill="white"/>
</mask>
<g mask="url(#mask1_113_54192)">
<path d="M35.3677 25.9902C35.3677 33.4263 29.3391 39.455 21.9029 39.455C14.4664 39.455 8.43814 33.4263 8.43814 25.9902C8.43814 18.5541 14.4668 12.5254 21.9029 12.5254C29.3391 12.5254 35.3677 18.5536 35.3677 25.9902Z" fill="white"/>
</g>
<mask id="mask2_113_54192" style="mask-type:luminance" maskUnits="userSpaceOnUse" x="12" y="17" width="24" height="25">
<path d="M36 29.9983C36 36.6261 30.6271 41.9985 24.0002 41.9985C17.3729 41.9985 12 36.6261 12 29.9983C12 23.3709 17.3724 17.998 24.0002 17.998C30.6271 17.998 36 23.3705 36 29.9983Z" fill="white"/>
</mask>
<g mask="url(#mask2_113_54192)">
<path d="M19.2089 38.0815C19.089 38.1239 19.0725 38.2878 19.1825 38.3515C19.3029 38.4214 19.4469 38.5271 19.5574 38.6763C19.7415 38.9233 19.9974 39.0352 20.2731 39.071C20.3676 39.0833 20.4407 38.9917 20.411 38.9015C20.3421 38.6914 20.3321 38.4525 20.0758 38.2491C19.8246 38.0489 19.4932 37.9814 19.2089 38.0815Z" fill="#00DBDC"/>
<path d="M18.1 37.8333C17.9773 37.8649 17.9466 38.0268 18.0505 38.1C18.1647 38.1803 18.2983 38.2983 18.3956 38.456C18.5571 38.7185 18.8026 38.8521 19.0745 38.9121C19.1675 38.9324 19.2483 38.8474 19.227 38.7554C19.177 38.5401 19.1874 38.3016 18.9499 38.076C18.7162 37.8545 18.3923 37.7582 18.1 37.8333Z" fill="#00DBDC"/>
<path d="M17.0166 37.4878C16.8914 37.5086 16.8471 37.6668 16.9438 37.7489C17.0505 37.8386 17.1738 37.9675 17.2569 38.1337C17.3947 38.409 17.628 38.5638 17.8933 38.6469C17.984 38.6753 18.0718 38.5978 18.0586 38.5039C18.0274 38.2853 18.059 38.0483 17.8414 37.8027C17.6289 37.5624 17.314 37.4383 17.0166 37.4878Z" fill="#00DBDC"/>
<path d="M15.9681 37.0478C15.8416 37.0577 15.7835 37.2117 15.8732 37.3018C15.9714 37.401 16.0828 37.5398 16.1513 37.7126C16.2651 37.9987 16.4837 38.1734 16.741 38.2792C16.8288 38.3155 16.9232 38.2461 16.9176 38.1512C16.9058 37.9307 16.9577 37.6975 16.7622 37.434C16.5715 37.1753 16.2689 37.0242 15.9681 37.0478Z" fill="#00DBDC"/>
<path d="M14.961 36.5195C14.834 36.5181 14.7627 36.6668 14.8444 36.7641C14.9332 36.8713 15.0323 37.0195 15.0857 37.1975C15.1735 37.4926 15.376 37.6852 15.623 37.8132C15.7075 37.8571 15.8076 37.7962 15.8104 37.7008C15.818 37.4803 15.8897 37.2523 15.7188 36.9728C15.5507 36.6994 15.2627 36.5224 14.961 36.5195Z" fill="#00DBDC"/>
<path d="M14.0038 35.905C13.8773 35.8928 13.7932 36.0344 13.8659 36.1388C13.9457 36.253 14.0312 36.4098 14.069 36.5915C14.1308 36.8932 14.3159 37.1028 14.5505 37.2516C14.6308 37.3026 14.7356 37.2506 14.7474 37.1557C14.7739 36.9367 14.8654 36.7157 14.7191 36.4225C14.576 36.1359 14.3041 35.9343 14.0038 35.905Z" fill="#00DBDC"/>
<path d="M13.1043 35.2092C12.9796 35.186 12.8838 35.3197 12.947 35.4297C13.0164 35.5505 13.0877 35.7144 13.1094 35.898C13.1449 36.204 13.311 36.4292 13.532 36.5982C13.6075 36.6558 13.7166 36.6133 13.7364 36.5198C13.7818 36.3036 13.8922 36.0916 13.7723 35.7871C13.6543 35.4892 13.4008 35.2649 13.1043 35.2092Z" fill="#00DBDC"/>
<path d="M12.2689 34.4383C12.1466 34.4043 12.0395 34.5294 12.0923 34.6446C12.1509 34.7711 12.208 34.9402 12.2132 35.1252C12.2222 35.4331 12.3676 35.672 12.573 35.8594C12.6433 35.9241 12.7557 35.8906 12.7831 35.7995C12.8473 35.5884 12.9757 35.3868 12.8827 35.0728C12.7921 34.765 12.5593 34.5195 12.2689 34.4383Z" fill="#00DBDC"/>
<path d="M11.503 33.5988C11.384 33.5539 11.2665 33.6691 11.3094 33.7886C11.3567 33.9194 11.3987 34.0931 11.3878 34.2782C11.3699 34.5855 11.4941 34.8362 11.6824 35.0407C11.7466 35.111 11.8614 35.0879 11.8973 34.9996C11.9794 34.7942 12.1248 34.6049 12.0597 34.2838C11.9959 33.9694 11.7858 33.7045 11.503 33.5988Z" fill="#00DBDC"/>
<path d="M32.8254 18.7765C32.935 18.8411 33.0709 18.7481 33.0497 18.623C33.0251 18.4856 33.0143 18.3076 33.0572 18.1273C33.1281 17.8279 33.0492 17.5593 32.8996 17.3251C32.8486 17.2449 32.731 17.2482 32.6814 17.3289C32.5648 17.5163 32.3882 17.6773 32.3963 18.0055C32.4048 18.326 32.5662 18.623 32.8254 18.7765Z" fill="#00DBDC"/>
<path d="M33.3477 19.7879C33.4511 19.8616 33.5947 19.7813 33.5838 19.6548C33.572 19.5155 33.5758 19.3375 33.6343 19.1614C33.7316 18.8692 33.6764 18.5949 33.5475 18.3484C33.5031 18.2644 33.3865 18.2568 33.3293 18.3328C33.1971 18.5099 33.0069 18.6548 32.987 18.982C32.9677 19.3026 33.1022 19.6128 33.3477 19.7879Z" fill="#00DBDC"/>
<path d="M33.7796 20.841C33.8759 20.9237 34.0261 20.8557 34.0261 20.7287C34.0265 20.5894 34.0459 20.4119 34.1196 20.2419C34.2418 19.9591 34.2107 19.681 34.104 19.4246C34.0672 19.3364 33.9515 19.3194 33.8877 19.3902C33.7404 19.555 33.5388 19.6829 33.4902 20.0073C33.4435 20.3241 33.5502 20.6446 33.7796 20.841Z" fill="#00DBDC"/>
<path d="M34.1171 21.9247C34.2059 22.0153 34.3617 21.961 34.3725 21.8345C34.3848 21.6957 34.4197 21.521 34.508 21.3576C34.6544 21.0862 34.6473 20.8067 34.5637 20.5413C34.5349 20.4507 34.4207 20.4233 34.3513 20.4884C34.1898 20.6395 33.9783 20.7495 33.9018 21.0682C33.8267 21.3803 33.9061 21.7089 34.1171 21.9247Z" fill="#00DBDC"/>
<path d="M34.3592 23.0368C34.4399 23.135 34.6 23.0944 34.6222 22.9688C34.6472 22.8315 34.6972 22.6605 34.7992 22.5057C34.9682 22.2484 34.9862 21.9693 34.9253 21.6979C34.9045 21.6048 34.794 21.5675 34.7185 21.6266C34.5447 21.7625 34.3238 21.8541 34.2204 22.1648C34.1179 22.4698 34.168 22.8041 34.3592 23.0368Z" fill="#00DBDC"/>
<path d="M34.5044 24.1645C34.5761 24.2693 34.7386 24.2424 34.7716 24.1196C34.808 23.9851 34.8731 23.8189 34.9883 23.6735C35.1791 23.4322 35.2216 23.1555 35.1843 22.8798C35.172 22.7854 35.0643 22.7386 34.9845 22.7906C34.7995 22.9114 34.5719 22.9827 34.4416 23.2835C34.3132 23.5776 34.3339 23.9152 34.5044 24.1645Z" fill="#00DBDC"/>
<path d="M34.549 25.2992C34.6113 25.4097 34.7751 25.3974 34.8191 25.2785C34.8672 25.1477 34.9465 24.9876 35.0735 24.8531C35.2851 24.6288 35.3507 24.3569 35.3384 24.0792C35.3346 23.9844 35.2312 23.9286 35.1477 23.973C34.9527 24.0774 34.7194 24.1288 34.5632 24.4168C34.4097 24.6987 34.4007 25.0367 34.549 25.2992Z" fill="#00DBDC"/>
<path d="M34.4958 26.4366C34.5478 26.5522 34.7135 26.5541 34.7668 26.4389C34.8263 26.3129 34.9184 26.1604 35.0572 26.0371C35.2871 25.8327 35.3768 25.5674 35.3882 25.2897C35.3924 25.1948 35.2947 25.1302 35.2069 25.1675C35.0039 25.2539 34.7668 25.285 34.5865 25.5584C34.4099 25.8261 34.3712 26.1618 34.4958 26.4366Z" fill="#00DBDC"/>
<path d="M34.3439 27.5626C34.3864 27.6825 34.5498 27.6986 34.614 27.5886C34.6829 27.4682 34.7892 27.3242 34.9384 27.2137C35.1853 27.0295 35.2977 26.7737 35.3331 26.4975C35.3453 26.403 35.2542 26.3303 35.1636 26.3596C34.9539 26.4285 34.715 26.4384 34.5111 26.6953C34.3114 26.9469 34.2434 27.2784 34.3439 27.5626Z" fill="#00DBDC"/>
<path d="M34.0942 28.6713C34.1258 28.794 34.2877 28.8247 34.3609 28.7213C34.4412 28.607 34.5592 28.4734 34.7169 28.3757C34.979 28.2142 35.113 27.9687 35.1725 27.6968C35.1933 27.6038 35.1078 27.523 35.0158 27.5452C34.8005 27.5953 34.5616 27.5844 34.3364 27.8224C34.1154 28.0551 34.0191 28.379 34.0942 28.6713Z" fill="#00DBDC"/>
<path d="M33.7475 29.7558C33.7683 29.8814 33.9269 29.9253 34.009 29.8285C34.0987 29.7218 34.2281 29.5986 34.3934 29.5155C34.6686 29.3776 34.8235 29.1444 34.9066 28.8786C34.9349 28.7879 34.857 28.7001 34.763 28.7138C34.5444 28.745 34.3079 28.7138 34.0624 28.9305C33.8221 29.1435 33.6984 29.4584 33.7475 29.7558Z" fill="#00DBDC"/>
<path d="M33.3097 30.8047C33.3196 30.9312 33.4735 30.9893 33.5632 30.9C33.6624 30.8018 33.8017 30.6899 33.9735 30.6219C34.2601 30.5086 34.4343 30.2896 34.5406 30.0327C34.5764 29.9449 34.5075 29.8505 34.4121 29.8557C34.1921 29.8675 33.9584 29.816 33.695 30.0105C33.4377 30.2013 33.2866 30.5039 33.3097 30.8047Z" fill="#00DBDC"/>
<path d="M32.7805 31.8107C32.779 31.9381 32.9278 32.0089 33.025 31.9277C33.1322 31.8385 33.2809 31.7394 33.4584 31.6865C33.7535 31.5982 33.9461 31.3956 34.0746 31.1487C34.1185 31.0642 34.0571 30.9641 33.9622 30.9613C33.7417 30.9537 33.5137 30.882 33.2342 31.0529C32.9608 31.221 32.7838 31.5094 32.7805 31.8107Z" fill="#00DBDC"/>
<path d="M32.167 32.7674C32.1552 32.894 32.2964 32.978 32.4007 32.9053C32.515 32.8255 32.6712 32.74 32.8535 32.7027C33.1547 32.6404 33.3643 32.4553 33.5135 32.2202C33.564 32.14 33.5126 32.0351 33.4177 32.0238C33.1986 31.9974 32.9781 31.9058 32.6845 32.0521C32.3979 32.1952 32.1967 32.4671 32.167 32.7674Z" fill="#00DBDC"/>
<path d="M31.4715 33.6667C31.4479 33.7918 31.582 33.8877 31.692 33.8244C31.8134 33.755 31.9772 33.6837 32.1604 33.662C32.4663 33.6261 32.692 33.4604 32.8605 33.2389C32.9181 33.1634 32.8757 33.0543 32.7826 33.035C32.5659 32.9897 32.3544 32.8787 32.0494 32.9991C31.7515 33.1171 31.5272 33.3707 31.4715 33.6667Z" fill="#00DBDC"/>
<path d="M30.7003 34.5024C30.6658 34.6247 30.7905 34.7323 30.9061 34.6785C31.0327 34.62 31.2017 34.5629 31.3868 34.5577C31.6946 34.5492 31.9335 34.4033 32.1214 34.1979C32.1856 34.1275 32.1526 34.0152 32.0615 33.9878C31.8499 33.9236 31.6488 33.7952 31.3339 33.8882C31.0265 33.9793 30.7815 34.2121 30.7003 34.5024Z" fill="#00DBDC"/>
<path d="M29.8593 35.2675C29.8144 35.386 29.9296 35.504 30.0491 35.4611C30.1798 35.4134 30.3536 35.3714 30.5382 35.3822C30.8456 35.4002 31.0967 35.276 31.3012 35.0876C31.371 35.0229 31.3479 34.9082 31.2596 34.8728C31.0542 34.7902 30.8654 34.6448 30.5439 34.7104C30.2299 34.7751 29.965 34.9852 29.8593 35.2675Z" fill="#00DBDC"/>
<path d="M28.9553 35.9586C28.9005 36.0734 29.0049 36.2008 29.1276 36.1678C29.2626 36.1319 29.4388 36.105 29.6224 36.1324C29.9274 36.1767 30.1871 36.0748 30.408 35.9053C30.4826 35.8472 30.4704 35.7311 30.3854 35.6881C30.188 35.5885 30.0124 35.4265 29.6862 35.4634C29.3679 35.4997 29.0856 35.6862 28.9553 35.9586Z" fill="#00DBDC"/>
<path d="M27.9943 36.5642C27.9296 36.6738 28.0231 36.8097 28.1478 36.788C28.2852 36.7639 28.4632 36.7526 28.6435 36.7956C28.9433 36.8669 29.2115 36.788 29.4457 36.6379C29.5264 36.5869 29.5231 36.4698 29.4424 36.4198C29.2544 36.3031 29.0939 36.1266 28.7653 36.1351C28.4447 36.1436 28.1478 36.3046 27.9943 36.5642Z" fill="#00DBDC"/>
<path d="M26.9838 37.0866C26.9096 37.1895 26.9908 37.3335 27.1169 37.3227C27.2557 37.3108 27.4342 37.3151 27.6098 37.3732C27.9025 37.4704 28.1764 37.4152 28.4233 37.2863C28.5078 37.2419 28.5144 37.1253 28.4389 37.0682C28.2618 36.9355 28.1169 36.7457 27.7897 36.7259C27.4691 36.707 27.1594 36.8415 26.9838 37.0866Z" fill="#00DBDC"/>
<path d="M25.9316 37.518C25.849 37.6143 25.917 37.7644 26.044 37.7644C26.1833 37.7649 26.3608 37.7847 26.5308 37.8579C26.8136 37.9802 27.0917 37.9485 27.348 37.8418C27.4359 37.805 27.4533 37.6893 27.3825 37.6261C27.2173 37.4788 27.0898 37.2772 26.7654 37.2285C26.4486 37.1818 26.128 37.289 25.9316 37.518Z" fill="#00DBDC"/>
<path d="M24.8463 37.8566C24.7556 37.9454 24.8099 38.1007 24.9365 38.1121C25.0753 38.1243 25.2499 38.1597 25.4133 38.2476C25.6843 38.3939 25.9638 38.3873 26.2292 38.3033C26.3198 38.2745 26.3472 38.1607 26.282 38.0913C26.1314 37.9303 26.0209 37.7183 25.7023 37.6418C25.3902 37.5663 25.0616 37.6451 24.8463 37.8566Z" fill="#00DBDC"/>
<path d="M23.7351 38.0975C23.6369 38.1783 23.678 38.3378 23.8031 38.36C23.9405 38.3846 24.1114 38.4351 24.2663 38.5366C24.5236 38.7061 24.8031 38.7236 25.0741 38.6627C25.1671 38.6419 25.204 38.5309 25.1454 38.4559C25.009 38.2821 24.9178 38.0612 24.6067 37.9573C24.3026 37.8563 23.9684 37.9063 23.7351 38.0975Z" fill="#00DBDC"/>
<path d="M22.607 38.2422C22.5022 38.314 22.5291 38.4769 22.6514 38.5095C22.7864 38.5458 22.9521 38.611 23.0975 38.7257C23.3388 38.9169 23.6155 38.9585 23.8912 38.9221C23.9856 38.9094 24.0324 38.8027 23.98 38.7224C23.8596 38.5373 23.7878 38.3093 23.4871 38.179C23.1939 38.0515 22.8558 38.0718 22.607 38.2422Z" fill="#00DBDC"/>
<path d="M21.4717 38.2881C21.3608 38.3504 21.3735 38.5147 21.4925 38.5586C21.6233 38.6068 21.7833 38.6856 21.9179 38.8131C22.1417 39.0246 22.4136 39.0903 22.6917 39.078C22.7866 39.0737 22.8428 38.9708 22.7979 38.8868C22.6936 38.6923 22.6421 38.4586 22.3546 38.3027C22.0723 38.1488 21.7342 38.1403 21.4717 38.2881Z" fill="#00DBDC"/>
<path d="M20.3359 38.236C20.2202 38.2884 20.2183 38.4532 20.3335 38.507C20.4596 38.5665 20.6121 38.6591 20.7353 38.7974C20.9402 39.0278 21.2051 39.117 21.4831 39.1284C21.578 39.1326 21.6427 39.0349 21.6054 38.9475C21.5186 38.7445 21.4879 38.5075 21.2145 38.3267C20.9463 38.1496 20.6102 38.1114 20.3359 38.236Z" fill="#00DBDC"/>
</g>
<mask id="mask3_113_54192" style="mask-type:luminance" maskUnits="userSpaceOnUse" x="12" y="17" width="24" height="25">
<path d="M36 29.9983C36 36.6261 30.6271 41.9985 24.0002 41.9985C17.3729 41.9985 12 36.6261 12 29.9983C12 23.3709 17.3724 17.998 24.0002 17.998C30.6271 17.998 36 23.3705 36 29.9983Z" fill="white"/>
</mask>
<g mask="url(#mask3_113_54192)">
<path d="M19.9635 39.6065C19.8417 39.6495 19.8247 39.8162 19.937 39.8813C20.0598 39.9526 20.2061 40.0602 20.3185 40.2118C20.5055 40.4635 20.7666 40.5772 21.0475 40.6141C21.1438 40.6263 21.2179 40.5333 21.1877 40.4413C21.1178 40.2274 21.1074 39.9842 20.8459 39.777C20.5905 39.573 20.2534 39.5041 19.9635 39.6065Z" fill="#00DBDC"/>
<path d="M18.8344 39.3518C18.7093 39.3839 18.6781 39.5487 18.7839 39.6233C18.9 39.705 19.0365 39.8249 19.1352 39.9859C19.2999 40.2526 19.5492 40.3891 19.8264 40.4495C19.9213 40.4703 20.0029 40.3844 19.9812 40.2899C19.9302 40.0709 19.9411 39.8277 19.6989 39.5983C19.4619 39.3735 19.1319 39.2753 18.8344 39.3518Z" fill="#00DBDC"/>
<path d="M17.7311 39.0011C17.6036 39.0223 17.5583 39.1838 17.657 39.2669C17.7656 39.3585 17.8907 39.4897 17.9752 39.6583C18.1159 39.9387 18.3529 40.096 18.623 40.1805C18.7155 40.2097 18.8047 40.1309 18.7915 40.0346C18.7599 39.8117 18.7915 39.5709 18.5705 39.3212C18.3543 39.0771 18.0337 38.951 17.7311 39.0011Z" fill="#00DBDC"/>
<path d="M16.6634 38.5541C16.5345 38.5641 16.4755 38.7213 16.5666 38.8129C16.6667 38.9134 16.78 39.0555 16.8499 39.2307C16.9656 39.522 17.188 39.7 17.4495 39.8077C17.5388 39.8445 17.6351 39.7737 17.6299 39.6769C17.6176 39.4521 17.6705 39.2151 17.4722 38.947C17.2777 38.684 16.9698 38.5305 16.6634 38.5541Z" fill="#00DBDC"/>
<path d="M15.6383 38.0161C15.509 38.0147 15.4367 38.1658 15.5193 38.2654C15.6105 38.374 15.711 38.5256 15.7653 38.7064C15.8546 39.0067 16.0609 39.2031 16.3125 39.3334C16.3985 39.3778 16.5004 39.3159 16.5033 39.2191C16.5104 38.9944 16.584 38.7626 16.4098 38.4783C16.2389 38.1993 15.9452 38.0194 15.6383 38.0161Z" fill="#00DBDC"/>
<path d="M14.6648 37.3899C14.5359 37.3772 14.4505 37.5217 14.5246 37.6279C14.6058 37.7441 14.6932 37.9036 14.7309 38.0887C14.7942 38.3956 14.9826 38.609 15.2215 38.761C15.3036 38.8125 15.4099 38.7596 15.4217 38.6638C15.4486 38.4405 15.5416 38.2157 15.3929 37.9173C15.247 37.6251 14.9703 37.4202 14.6648 37.3899Z" fill="#00DBDC"/>
<path d="M13.7483 36.6834C13.6208 36.6597 13.5231 36.7962 13.5873 36.9081C13.6581 37.0313 13.7313 37.1975 13.753 37.3849C13.7893 37.6961 13.9584 37.9255 14.1836 38.0974C14.2605 38.1564 14.371 38.113 14.3913 38.0181C14.4376 37.7981 14.5499 37.5823 14.4277 37.2716C14.3077 36.9681 14.05 36.7395 13.7483 36.6834Z" fill="#00DBDC"/>
<path d="M12.8984 35.8973C12.7737 35.8629 12.6647 35.9899 12.719 36.1074C12.7785 36.2359 12.8365 36.4082 12.8422 36.597C12.8512 36.9105 12.9994 37.1532 13.2086 37.3444C13.2799 37.4101 13.3941 37.3761 13.4225 37.2835C13.4881 37.0682 13.6184 36.8633 13.524 36.5432C13.4309 36.2297 13.1939 35.98 12.8984 35.8973Z" fill="#00DBDC"/>
<path d="M12.1189 35.0438C11.9976 34.998 11.8777 35.1156 11.9221 35.2369C11.9702 35.3705 12.0132 35.5471 12.0018 35.7355C11.9834 36.0485 12.11 36.3035 12.3016 36.5122C12.3673 36.5834 12.4844 36.5598 12.5202 36.4701C12.6038 36.2614 12.7521 36.0688 12.6855 35.7421C12.6203 35.4206 12.406 35.1515 12.1189 35.0438Z" fill="#00DBDC"/>
<path d="M12.178 17.9845C12.2016 17.8575 12.0651 17.7598 11.9532 17.824C11.83 17.8943 11.6638 17.9675 11.4764 17.9897C11.1648 18.0261 10.9358 18.1951 10.7639 18.4198C10.7049 18.4968 10.7483 18.6077 10.8432 18.6276C11.0632 18.6738 11.279 18.7862 11.5897 18.6639C11.8933 18.544 12.1213 18.2862 12.178 17.9845Z" fill="#00DBDC"/>
<path d="M32.5049 18.0567C32.6263 18.102 32.7462 17.9849 32.7023 17.8631C32.6537 17.7295 32.6116 17.5529 32.6225 17.3645C32.6404 17.0515 32.5144 16.7966 32.3222 16.5879C32.2561 16.5166 32.1395 16.5397 32.1036 16.6299C32.0196 16.8386 31.8713 17.0317 31.9379 17.3584C32.004 17.679 32.2174 17.9486 32.5049 18.0567Z" fill="#00DBDC"/>
<path d="M33.2073 18.9755C33.3239 19.0312 33.4533 18.925 33.4202 18.7998C33.3839 18.6625 33.3565 18.483 33.3843 18.2966C33.4301 17.9864 33.3258 17.721 33.153 17.4968C33.094 17.4198 32.9755 17.4335 32.9316 17.5199C32.83 17.7205 32.6657 17.8995 32.7035 18.2309C32.7399 18.5558 32.9301 18.8428 33.2073 18.9755Z" fill="#00DBDC"/>
<path d="M33.8257 19.9545C33.9372 20.0201 34.0755 19.9257 34.0533 19.7982C34.0288 19.6585 34.0174 19.4772 34.0613 19.2935C34.1336 18.9885 34.0533 18.7152 33.9008 18.4767C33.8489 18.3951 33.7294 18.3979 33.678 18.4805C33.559 18.6713 33.3801 18.8351 33.3886 19.1689C33.3975 19.4956 33.5618 19.7982 33.8257 19.9545Z" fill="#00DBDC"/>
<path d="M34.3558 20.9834C34.4616 21.059 34.6075 20.9763 34.5971 20.8474C34.5848 20.7058 34.5886 20.5245 34.648 20.3456C34.7467 20.0481 34.691 19.7691 34.5593 19.5179C34.514 19.4325 34.395 19.4249 34.3369 19.5023C34.2024 19.6822 34.0088 19.83 33.9894 20.1633C33.9696 20.4891 34.1065 20.8049 34.3558 20.9834Z" fill="#00DBDC"/>
<path d="M34.7957 22.0535C34.8934 22.1375 35.0459 22.0686 35.0464 21.9388C35.0469 21.7971 35.0672 21.6163 35.1422 21.4435C35.2664 21.1555 35.2343 20.8727 35.1257 20.6111C35.0884 20.5214 34.9708 20.5039 34.9057 20.5757C34.756 20.7428 34.5506 20.8736 34.5015 21.2036C34.4529 21.5271 34.5625 21.8533 34.7957 22.0535Z" fill="#00DBDC"/>
<path d="M35.1403 23.1586C35.2305 23.2512 35.3882 23.1959 35.4004 23.067C35.4127 22.9259 35.4486 22.7479 35.5383 22.5817C35.6875 22.306 35.6804 22.0208 35.595 21.7512C35.5652 21.6587 35.4491 21.6308 35.3787 21.6969C35.2144 21.8508 34.9987 21.9627 34.9212 22.2871C34.8447 22.6044 34.925 22.9396 35.1403 23.1586Z" fill="#00DBDC"/>
<path d="M35.3868 24.2899C35.468 24.39 35.6314 24.3484 35.6535 24.2209C35.6786 24.0812 35.7296 23.907 35.8334 23.7493C36.0058 23.4872 36.0237 23.2035 35.9623 22.9273C35.9411 22.8324 35.8282 22.7946 35.7522 22.8546C35.5752 22.9934 35.3504 23.0864 35.2447 23.4027C35.1403 23.7124 35.1913 24.0529 35.3868 24.2899Z" fill="#00DBDC"/>
<path d="M35.534 25.4392C35.6062 25.5459 35.7724 25.5185 35.8055 25.3938C35.8428 25.2569 35.9089 25.0879 36.0264 24.9396C36.2209 24.6937 36.2634 24.4123 36.2261 24.1318C36.2134 24.036 36.1039 23.9878 36.0227 24.0412C35.8343 24.1639 35.6025 24.2371 35.4693 24.543C35.3395 24.8424 35.3598 25.1861 35.534 25.4392Z" fill="#00DBDC"/>
<path d="M35.5799 26.5949C35.6432 26.7077 35.8103 26.695 35.8552 26.5736C35.9043 26.4405 35.9846 26.2776 36.1139 26.1402C36.3297 25.9126 36.3967 25.6355 36.3835 25.3527C36.3788 25.2559 36.2744 25.1988 36.189 25.2446C35.9907 25.3508 35.7532 25.4027 35.5941 25.6964C35.4383 25.983 35.4293 26.3277 35.5799 26.5949Z" fill="#00DBDC"/>
<path d="M35.5257 27.7515C35.579 27.8691 35.7466 27.8709 35.8019 27.7539C35.8618 27.6254 35.9563 27.4701 36.0974 27.345C36.3316 27.1368 36.4223 26.8667 36.4345 26.5839C36.4383 26.4871 36.3392 26.421 36.2499 26.4593C36.0431 26.548 35.8023 26.5792 35.6177 26.8573C35.4374 27.1297 35.3982 27.4715 35.5257 27.7515Z" fill="#00DBDC"/>
<path d="M35.3711 28.8961C35.4146 29.0179 35.5812 29.0345 35.6459 28.923C35.7177 28.8003 35.8248 28.6539 35.9764 28.5411C36.2276 28.3541 36.3413 28.093 36.3786 27.8126C36.3914 27.7163 36.2979 27.6421 36.2058 27.6724C35.9924 27.7422 35.7488 27.7526 35.542 28.0137C35.3376 28.2691 35.2691 28.6067 35.3711 28.8961Z" fill="#00DBDC"/>
<path d="M35.1169 30.0279C35.1485 30.1535 35.3138 30.1842 35.3879 30.0784C35.4701 29.9623 35.59 29.8258 35.751 29.7267C36.0173 29.5624 36.1542 29.3122 36.2141 29.036C36.2354 28.9411 36.149 28.8589 36.0546 28.8811C35.8355 28.9321 35.5923 28.9208 35.3624 29.1634C35.1377 29.4004 35.0399 29.7305 35.1169 30.0279Z" fill="#00DBDC"/>
<path d="M34.7641 31.1292C34.7849 31.2571 34.9464 31.302 35.0299 31.2033C35.1215 31.0952 35.2532 30.9691 35.4218 30.8846C35.7022 30.7444 35.8595 30.5069 35.944 30.2364C35.9732 30.1438 35.8944 30.0546 35.7981 30.0683C35.5748 30.0999 35.3344 30.0678 35.0842 30.2892C34.8406 30.5064 34.7136 30.8265 34.7641 31.1292Z" fill="#00DBDC"/>
<path d="M34.3177 32.1976C34.3277 32.3265 34.4853 32.3855 34.5765 32.2944C34.6775 32.1943 34.8192 32.081 34.9943 32.0111C35.2861 31.8954 35.4636 31.6731 35.5717 31.411C35.6086 31.3213 35.5382 31.2255 35.4414 31.2307C35.2167 31.2429 34.9802 31.1901 34.7115 31.3888C34.4485 31.5834 34.2946 31.8917 34.3177 32.1976Z" fill="#00DBDC"/>
<path d="M33.7794 33.2211C33.7789 33.3504 33.9296 33.4232 34.0287 33.3405C34.1373 33.2494 34.2893 33.1488 34.4697 33.095C34.7704 33.0053 34.9668 32.799 35.0967 32.5473C35.1415 32.4614 35.0797 32.3599 34.9829 32.3566C34.7577 32.3491 34.5259 32.2759 34.2421 32.4501C33.9631 32.6205 33.7827 32.9142 33.7794 33.2211Z" fill="#00DBDC"/>
<path d="M33.1538 34.1967C33.1411 34.3252 33.2851 34.4111 33.3913 34.337C33.5079 34.2558 33.6675 34.1689 33.8526 34.1306C34.159 34.0678 34.3734 33.8795 34.5249 33.6401C34.5768 33.5584 34.524 33.4517 34.4277 33.4399C34.2043 33.413 33.9801 33.3195 33.6812 33.4687C33.3885 33.6146 33.1836 33.8913 33.1538 34.1967Z" fill="#00DBDC"/>
<path d="M32.4459 35.1121C32.4223 35.2395 32.5588 35.3373 32.6711 35.2726C32.7944 35.2022 32.9606 35.1291 33.148 35.1073C33.4596 35.071 33.6886 34.902 33.8609 34.6772C33.9195 34.5998 33.876 34.4893 33.7816 34.4695C33.5611 34.4232 33.3453 34.3109 33.0356 34.4331C32.7306 34.5526 32.5026 34.8104 32.4459 35.1121Z" fill="#00DBDC"/>
<path d="M31.6608 35.9642C31.6269 36.0888 31.7534 36.1979 31.8709 36.1436C31.9989 36.0841 32.1717 36.026 32.3601 36.0203C32.6736 36.0109 32.9167 35.8631 33.1075 35.654C33.1731 35.5822 33.1386 35.4679 33.0461 35.4401C32.8313 35.3745 32.6259 35.2437 32.3062 35.3386C31.9932 35.4316 31.7435 35.6681 31.6608 35.9642Z" fill="#00DBDC"/>
<path d="M30.806 36.7434C30.7598 36.8643 30.8773 36.9847 30.9992 36.9408C31.1323 36.8921 31.3089 36.8496 31.4977 36.8605C31.8108 36.8789 32.0657 36.7524 32.2744 36.5602C32.3457 36.4946 32.3216 36.378 32.2324 36.3421C32.0237 36.2581 31.8301 36.1098 31.5034 36.1764C31.1833 36.2415 30.9137 36.4559 30.806 36.7434Z" fill="#00DBDC"/>
<path d="M29.8847 37.4429C29.8295 37.5595 29.9353 37.6894 30.0604 37.6563C30.1973 37.6195 30.3772 37.5926 30.5637 37.62C30.8734 37.6658 31.1392 37.5614 31.363 37.3891C31.44 37.3296 31.4267 37.2111 31.3403 37.1677C31.1392 37.0661 30.9603 36.9018 30.6288 36.9396C30.3045 36.976 30.0174 37.1658 29.8847 37.4429Z" fill="#00DBDC"/>
<path d="M28.9066 38.0606C28.8405 38.172 28.9354 38.3103 29.0629 38.2882C29.2026 38.2641 29.3839 38.2523 29.5671 38.2962C29.8716 38.3684 30.1455 38.2882 30.3839 38.1357C30.4656 38.0837 30.4623 37.9647 30.3796 37.9133C30.1894 37.7943 30.0246 37.6149 29.6913 37.6239C29.365 37.6324 29.0629 37.7967 28.9066 38.0606Z" fill="#00DBDC"/>
<path d="M27.8781 38.5932C27.8031 38.6985 27.8847 38.8444 28.0141 38.8335C28.1553 38.8217 28.3366 38.8255 28.516 38.885C28.8134 38.9837 29.0925 38.9275 29.3432 38.7962C29.4291 38.7509 29.4366 38.6319 29.3592 38.5739C29.1789 38.4388 29.0316 38.2457 28.6982 38.2254C28.372 38.2061 28.0561 38.3435 27.8781 38.5932Z" fill="#00DBDC"/>
<path d="M26.807 39.0328C26.7229 39.131 26.7918 39.284 26.9212 39.284C27.0633 39.2845 27.2442 39.3043 27.417 39.3794C27.7045 39.5036 27.9878 39.4719 28.2498 39.3629C28.339 39.3256 28.357 39.2075 28.2843 39.1433C28.1171 38.9932 27.9868 38.7878 27.6568 38.7387C27.3334 38.6905 27.0067 38.8001 26.807 39.0328Z" fill="#00DBDC"/>
<path d="M25.702 39.376C25.6099 39.4667 25.6651 39.6248 25.794 39.6362C25.9352 39.6489 26.1137 39.6848 26.2794 39.7745C26.5551 39.9237 26.8403 39.9166 27.1099 39.8307C27.2024 39.8014 27.2302 39.6853 27.1637 39.6149C27.0102 39.4506 26.8979 39.2349 26.5735 39.157C26.2562 39.0809 25.9215 39.1612 25.702 39.376Z" fill="#00DBDC"/>
<path d="M24.5712 39.6234C24.4716 39.7056 24.5131 39.868 24.6401 39.8906C24.7799 39.9157 24.9541 39.9667 25.1118 40.0705C25.3738 40.2429 25.6581 40.2608 25.9338 40.199C26.0282 40.1777 26.0669 40.0649 26.0065 39.9884C25.8677 39.8118 25.7752 39.5866 25.4584 39.4808C25.1491 39.3779 24.8087 39.4284 24.5712 39.6234Z" fill="#00DBDC"/>
<path d="M23.4229 39.7705C23.3162 39.8437 23.3436 40.0089 23.4682 40.0429C23.6051 40.0802 23.7742 40.1458 23.9224 40.2634C24.1679 40.4579 24.4498 40.5004 24.7307 40.4631C24.8266 40.4504 24.8742 40.3413 24.8209 40.2596C24.6981 40.0712 24.625 39.8394 24.319 39.7067C24.0202 39.5764 23.6764 39.5972 23.4229 39.7705Z" fill="#00DBDC"/>
<path d="M22.2669 39.8164C22.154 39.8796 22.1668 40.0468 22.2881 40.0916C22.4213 40.1407 22.5837 40.221 22.7211 40.3504C22.9491 40.5656 23.2258 40.6327 23.5086 40.6199C23.6054 40.6157 23.6625 40.5109 23.6172 40.4254C23.5109 40.2271 23.459 39.9896 23.1653 39.8301C22.8783 39.6752 22.5341 39.6658 22.2669 39.8164Z" fill="#00DBDC"/>
<path d="M21.1106 39.7624C20.993 39.8157 20.9911 39.9838 21.1082 40.0386C21.2366 40.099 21.392 40.1934 21.5171 40.3346C21.7253 40.5693 21.9953 40.6599 22.2781 40.6717C22.3749 40.6755 22.441 40.5763 22.4028 40.4871C22.3145 40.2803 22.2833 40.0391 22.0048 39.8549C21.7319 39.675 21.3901 39.6359 21.1106 39.7624Z" fill="#00DBDC"/>
</g>
<path d="M28.2563 8.5839C28.9749 7.19729 31.0303 7.45279 31.3874 8.97322L32.6372 14.2921C32.6828 14.486 32.8108 14.6504 32.9877 14.7421L37.8386 17.2563C39.2249 17.975 38.9694 20.0302 37.4492 20.3875L32.1304 21.6372C31.9365 21.6828 31.772 21.8109 31.6804 21.9877L29.1662 26.8386C28.4475 28.225 26.3923 27.9694 26.035 26.4493L24.7852 21.1304C24.7397 20.9365 24.6116 20.7721 24.4347 20.6804L19.5839 18.1662C18.1972 17.4476 18.4528 15.3922 19.9732 15.035L25.2921 13.7853C25.486 13.7397 25.6504 13.6116 25.7421 13.4348L28.2563 8.5839Z" fill="#00DBDC" stroke="#0D0D0D" stroke-linejoin="round"/>
</g>
</svg>
