<svg width="48" height="48" viewBox="0 0 48 48" fill="none" xmlns="http://www.w3.org/2000/svg">
<circle cx="24" cy="24" r="24" fill="#0D0D0D"/>
<mask id="mask0_159_364" style="mask-type:alpha" maskUnits="userSpaceOnUse" x="0" y="0" width="48" height="48">
<circle cx="24" cy="24" r="24" fill="#0D0D0D"/>
</mask>
<g mask="url(#mask0_159_364)">
<path d="M39.9827 17.9658H12.9474C11.1357 17.9658 9.66711 19.4209 9.66711 21.2158V43.1136C9.66711 44.9086 11.1357 46.3636 12.9474 46.3636H39.9827C41.7943 46.3636 43.2629 44.9086 43.2629 43.1136V21.2158C43.2629 19.4209 41.7943 17.9658 39.9827 17.9658Z" fill="white" stroke="#007273" stroke-miterlimit="10"/>
<path d="M9.0937 45.2667C8.65313 45.271 8.21594 45.1888 7.80764 45.0247C7.39933 44.8607 7.02788 44.6181 6.71479 44.311C6.40169 44.0038 6.15322 43.6383 5.98361 43.2354C5.814 42.8326 5.72674 42.4003 5.72676 41.9638L10.3938 21.3607C10.5338 20.8125 10.6338 20.2576 10.7204 19.7027C10.8077 19.1461 11.0372 18.6207 11.3872 18.1768C10.8054 18.3708 10.289 18.7201 9.89487 19.1863C9.50077 19.6525 9.24429 20.2176 9.1536 20.819C9.06693 21.3739 8.96026 21.9288 8.82692 22.4771L4.15991 43.0801C4.15989 43.5167 4.24716 43.9489 4.41677 44.3518C4.58638 44.7547 4.83501 45.1203 5.1481 45.4274C5.46119 45.7346 5.83265 45.9772 6.24096 46.1412C6.64926 46.3053 7.08629 46.3873 7.52686 46.383H12.1538V45.2865L9.0937 45.2667Z" fill="white" stroke="#0A2144" stroke-miterlimit="10"/>
<path d="M11.9605 46.3633H7.33358C6.44946 46.3633 5.60164 46.0154 4.97647 45.396C4.3513 44.7766 4 43.9364 4 43.0604C4 42.1845 8.66701 22.4574 8.66701 22.4574C8.80702 21.9091 8.91369 21.3542 9.00036 20.7993C9.12091 20.0118 9.52474 19.2938 10.1373 18.7779C10.7499 18.262 11.53 17.9829 12.3339 17.9919" fill="white"/>
<path d="M11.9605 46.3633H7.33358C6.44946 46.3633 5.60164 46.0154 4.97647 45.396C4.3513 44.7766 4 43.9364 4 43.0604C4 42.1845 8.66701 22.4574 8.66701 22.4574C8.80702 21.9091 8.91369 21.3542 9.00036 20.7993C9.12091 20.0118 9.52474 19.2938 10.1373 18.7779C10.7499 18.262 11.53 17.9829 12.3339 17.9919" stroke="#007273" stroke-miterlimit="10"/>
<path d="M41.6227 44.745H14.5942C14.1635 44.7459 13.7366 44.6627 13.3383 44.5002C12.94 44.3376 12.578 44.099 12.2728 43.7978C11.9676 43.4967 11.7252 43.1389 11.5595 42.7449C11.3938 42.3509 11.3081 41.9284 11.3072 41.5017V19.5907C11.3084 19.1346 11.4085 18.684 11.6007 18.2695C11.0252 18.5244 10.5364 18.9387 10.1934 19.4626C9.85029 19.9865 9.66753 20.5977 9.66711 21.2223V43.1266C9.66799 43.5534 9.75376 43.9759 9.91941 44.3699C10.0851 44.7638 10.3275 45.1216 10.6327 45.4228C10.9379 45.724 11.2999 45.9626 11.6982 46.1251C12.0965 46.2877 12.5232 46.3708 12.954 46.37H39.9826C40.613 46.3697 41.2301 46.1897 41.7598 45.8511C42.2895 45.5126 42.7094 45.0299 42.9695 44.461C42.5461 44.6496 42.0869 44.7464 41.6227 44.745Z" fill="white" stroke="#007273" stroke-miterlimit="10"/>
<path d="M39.9827 17.9658H12.9474C11.1357 17.9658 9.66711 19.4209 9.66711 21.2158V43.1136C9.66711 44.9086 11.1357 46.3636 12.9474 46.3636H39.9827C41.7943 46.3636 43.2629 44.9086 43.2629 43.1136V21.2158C43.2629 19.4209 41.7943 17.9658 39.9827 17.9658Z" fill="#00DBDC"/>
<path d="M18.8417 25.0068H17.395C16.5113 25.0068 15.7949 25.7151 15.7949 26.5889C15.7949 27.4626 16.5113 28.171 17.395 28.171H18.8417C19.7255 28.171 20.4419 27.4626 20.4419 26.5889C20.4419 25.7151 19.7255 25.0068 18.8417 25.0068Z" fill="#0D0D0D"/>
<path d="M27.2483 24.8818H25.8015C24.9178 24.8818 24.2014 25.5901 24.2014 26.4639C24.2014 27.3376 24.9178 28.046 25.8015 28.046H27.2483C28.132 28.046 28.8484 27.3376 28.8484 26.4639C28.8484 25.5901 28.132 24.8818 27.2483 24.8818Z" fill="#0D0D0D"/>
<path d="M36.0025 25.0068H34.5557C33.672 25.0068 32.9556 25.7151 32.9556 26.5889C32.9556 27.4626 33.672 28.171 34.5557 28.171H36.0025C36.8862 28.171 37.6026 27.4626 37.6026 26.5889C37.6026 25.7151 36.8862 25.0068 36.0025 25.0068Z" fill="#0D0D0D"/>
<path d="M18.8417 30.8662H17.395C16.5113 30.8662 15.7949 31.5745 15.7949 32.4483C15.7949 33.322 16.5113 34.0303 17.395 34.0303H18.8417C19.7255 34.0303 20.4419 33.322 20.4419 32.4483C20.4419 31.5745 19.7255 30.8662 18.8417 30.8662Z" fill="#0D0D0D"/>
<path d="M27.2483 30.8662H25.8015C24.9178 30.8662 24.2014 31.5745 24.2014 32.4483C24.2014 33.322 24.9178 34.0303 25.8015 34.0303H27.2483C28.132 34.0303 28.8484 33.322 28.8484 32.4483C28.8484 31.5745 28.132 30.8662 27.2483 30.8662Z" fill="white"/>
<path d="M36.0025 30.8662H34.5557C33.672 30.8662 32.9556 31.5745 32.9556 32.4483C32.9556 33.322 33.672 34.0303 34.5557 34.0303H36.0025C36.8862 34.0303 37.6026 33.322 37.6026 32.4483C37.6026 31.5745 36.8862 30.8662 36.0025 30.8662Z" fill="#0D0D0D"/>
<path d="M18.8417 36.7056H17.395C16.5113 36.7056 15.7949 37.4139 15.7949 38.2876C15.7949 39.1614 16.5113 39.8697 17.395 39.8697H18.8417C19.7255 39.8697 20.4419 39.1614 20.4419 38.2876C20.4419 37.4139 19.7255 36.7056 18.8417 36.7056Z" fill="#0D0D0D"/>
<path d="M27.2483 36.7056H25.8015C24.9178 36.7056 24.2014 37.4139 24.2014 38.2876C24.2014 39.1614 24.9178 39.8697 25.8015 39.8697H27.2483C28.132 39.8697 28.8484 39.1614 28.8484 38.2876C28.8484 37.4139 28.132 36.7056 27.2483 36.7056Z" fill="#0D0D0D"/>
<path d="M36.0025 36.7056H34.5557C33.672 36.7056 32.9556 37.4139 32.9556 38.2876C32.9556 39.1614 33.672 39.8697 34.5557 39.8697H36.0025C36.8862 39.8697 37.6026 39.1614 37.6026 38.2876C37.6026 37.4139 36.8862 36.7056 36.0025 36.7056Z" fill="#0D0D0D"/>
<path d="M15.9608 18.0254C15.9483 17.3888 16.1912 16.7732 16.6361 16.3138C17.0811 15.8544 17.6918 15.5886 18.3343 15.5747C18.6527 15.5807 18.9668 15.6488 19.2586 15.7753C19.5503 15.9018 19.814 16.0842 20.0345 16.3119C20.255 16.5396 20.4281 16.8081 20.5436 17.1021C20.6592 17.3961 20.715 17.7099 20.7079 18.0254C20.715 18.3408 20.6592 18.6546 20.5436 18.9487C20.4281 19.2427 20.255 19.5112 20.0345 19.7389C19.814 19.9666 19.5503 20.1489 19.2586 20.2754C18.9668 20.402 18.6527 20.4701 18.3343 20.4761" stroke="white" stroke-miterlimit="10"/>
<path d="M23.3346 18.0254C23.3221 17.3888 23.565 16.7732 24.01 16.3138C24.4549 15.8544 25.0657 15.5886 25.7082 15.5747C26.0266 15.5807 26.3406 15.6488 26.6324 15.7753C26.9241 15.9018 27.1878 16.0842 27.4083 16.3119C27.6288 16.5396 27.8018 16.8081 27.9173 17.1021C28.0329 17.3961 28.0888 17.7099 28.0817 18.0254C28.0888 18.3408 28.0329 18.6546 27.9173 18.9487C27.8018 19.2427 27.6288 19.5112 27.4083 19.7389C27.1878 19.9666 26.9241 20.1489 26.6324 20.2754C26.3406 20.402 26.0266 20.4701 25.7082 20.4761" stroke="white" stroke-miterlimit="10"/>
<path d="M31.4148 18.0254C31.4023 17.3888 31.645 16.7732 32.0899 16.3138C32.5349 15.8544 33.1456 15.5886 33.7881 15.5747C34.1066 15.5807 34.4208 15.6488 34.7125 15.7753C35.0043 15.9018 35.268 16.0842 35.4885 16.3119C35.709 16.5396 35.8819 16.8081 35.9975 17.1021C36.113 17.3961 36.1688 17.7099 36.1617 18.0254C36.1688 18.3408 36.113 18.6546 35.9975 18.9487C35.8819 19.2427 35.709 19.5112 35.4885 19.7389C35.268 19.9666 35.0043 20.1489 34.7125 20.2754C34.4208 20.402 34.1066 20.4701 33.7881 20.4761" stroke="white" stroke-miterlimit="10"/>
<path d="M9.60723 19.3726L6.31366 46.2246L11.3207 46.2973L9.60723 43.9655V19.3726Z" fill="#0D0D0D"/>
</g>
</svg>
