<svg width="48" height="48" viewBox="0 0 48 48" fill="none" xmlns="http://www.w3.org/2000/svg">
<circle cx="24" cy="24" r="24" fill="#0D0D0D"/>
<mask id="mask0_113_54161" style="mask-type:alpha" maskUnits="userSpaceOnUse" x="0" y="0" width="48" height="48">
<circle cx="24" cy="24" r="24" fill="#0D0D0D"/>
</mask>
<g mask="url(#mask0_113_54161)">
<path d="M19.9599 35.2953L21.8893 25.803C22.0933 24.7989 23.0805 23.9849 24.0939 23.9849H42.6465C43.66 23.9849 44.3161 24.7989 44.1119 25.803L42.1826 35.2953C41.9785 36.2994 40.9913 37.1134 39.9779 37.1134H21.4253C20.4119 37.1134 19.7557 36.2994 19.9599 35.2953Z" fill="#007D7D"/>
<path d="M14.9404 9.75244H18.1975L23.2652 34.3745H20.0081C13.1456 34.3745 6.44815 28.8626 5.04874 22.0636C3.64915 15.2643 8.0779 9.75244 14.9404 9.75244Z" fill="#007D7D"/>
<path d="M30.9408 31.2003C35.0955 26.6429 33.8929 18.8581 28.2546 13.8123C22.6163 8.76646 14.6775 8.3705 10.5228 12.9279C6.36807 17.4852 7.57072 25.2701 13.209 30.3159C18.8473 35.3617 26.7861 35.7577 30.9408 31.2003Z" fill="#42FEFF"/>
<path d="M37.7138 31.6353L38.8993 25.803C39.1034 24.7989 40.0905 23.9849 41.104 23.9849H42.9628C43.9765 23.9849 44.6325 24.7989 44.4284 25.803L42.4989 35.2953C42.2947 36.2994 41.3077 37.1134 40.2942 37.1134H39.9054H38.4352H16.9502V31.6353H37.7138Z" fill="#407BFF"/>
<path d="M37.7138 31.6353L38.8993 25.803C39.1034 24.7989 40.0905 23.9849 41.104 23.9849H42.9628C43.9765 23.9849 44.6325 24.7989 44.4284 25.803L42.4989 35.2953C42.2947 36.2994 41.3077 37.1134 40.2942 37.1134H39.9054H38.4352H16.9502V31.6353H37.7138Z" fill="#00C2C2"/>
<path d="M15.0007 49.4399H16.1783L19.0379 37.1143H16.9071L15.0007 49.4399Z" fill="white"/>
<path d="M9.15424 49.4399H10.3318L13.1914 37.1143H11.0606L9.15424 49.4399Z" fill="white"/>
<path d="M33.4931 49.4399H32.3153L29.4557 37.1143H31.5865L33.4931 49.4399Z" fill="white"/>
<path d="M39.3388 49.4399H38.1612L35.3016 37.1143H37.4325L39.3388 49.4399Z" fill="white"/>
<path d="M5.13632 26.1865L6.94883 35.2185C7.14051 36.1739 8.06789 36.9484 9.01998 36.9484H15.2471C16.1991 36.9484 16.8156 36.1739 16.6239 35.2185L14.8114 26.1865C14.6197 25.2311 13.6923 24.4565 12.7402 24.4565H6.51316C5.56091 24.4565 4.94464 25.2311 5.13632 26.1865Z" fill="#007D7D"/>
<path d="M18.7238 35.2185L16.8401 26.1865C16.6409 25.2311 15.6771 24.4565 14.6876 24.4565H12.8726C11.8831 24.4565 11.2425 25.2311 11.4417 26.1865L13.3254 35.2185C13.5246 36.1739 14.4884 36.9484 15.4779 36.9484H17.2929C18.2825 36.9484 18.9232 36.1739 18.7238 35.2185Z" fill="#0FEBEC"/>
</g>
</svg>
