<svg width="48" height="48" viewBox="0 0 48 48" fill="none" xmlns="http://www.w3.org/2000/svg">
<circle cx="24" cy="24" r="24" fill="#0D0D0D"/>
<mask id="mask0_113_54183" style="mask-type:alpha" maskUnits="userSpaceOnUse" x="0" y="0" width="48" height="48">
<circle cx="24" cy="24" r="24" fill="#0D0D0D"/>
</mask>
<g mask="url(#mask0_113_54183)">
<path d="M18.9813 82C19.1722 82 19.3506 81.9705 19.5115 81.9072C20.0028 81.7134 20.5742 81.5991 20.7667 81.0468H16.9201C16.937 81.1893 17.0285 81.3213 17.2276 81.4334C17.8438 81.7802 18.4597 82 18.9813 82ZM30.0185 82C30.5401 82 31.1561 81.7802 31.7722 81.4334C31.9713 81.3213 32.0628 81.1893 32.0798 81.0468H28.2331C28.4256 81.5991 28.997 81.7134 29.4883 81.9072C29.6493 81.9705 29.8276 82 30.0185 82ZM16.9256 80.9057H20.8054C20.824 80.8158 20.8339 80.716 20.8339 80.6046C20.8339 79.6576 20.8339 79.3023 21.0743 79.3023C21.2463 79.3023 21.3569 79.0595 21.3616 78.7479H18.3835C18.2951 79.1068 18.1752 79.4345 17.949 79.6576C17.6188 79.9829 17.0052 80.4754 16.9256 80.9057ZM28.1946 80.9057H32.0742C31.9948 80.4754 31.3812 79.9829 31.0509 79.6576C30.8246 79.4345 30.7047 79.1068 30.6163 78.7479H27.6384C27.6432 79.0595 27.7535 79.3023 27.9257 79.3023C28.1661 79.3023 28.1661 79.6576 28.1661 80.6046C28.1661 80.716 28.176 80.8158 28.1946 80.9057ZM18.4166 78.6069H21.3567C21.35 78.5247 21.336 78.4399 21.3145 78.355C21.1944 77.8815 20.954 77.6447 20.954 77.2896C20.954 77.0644 21.0023 76.7442 21.0071 76.4493H18.7199C18.7745 76.8331 18.8339 77.0424 18.6701 77.5265C18.5575 77.859 18.4977 78.2434 18.4166 78.6069ZM27.6432 78.6069H30.5833C30.5021 78.2434 30.4424 77.859 30.3297 77.5265C30.1659 77.0424 30.2255 76.8331 30.2799 76.4493H27.9928C27.9975 76.7442 28.0458 77.0644 28.0458 77.2896C28.0458 77.6447 27.8055 77.8815 27.6854 78.355C27.6638 78.4399 27.65 78.5247 27.6432 78.6069ZM18.7016 76.3082H21.0055C21.0006 76.1907 20.9857 76.0807 20.954 75.9872C20.8339 75.6322 20.7136 75.0402 20.8339 74.3297C20.8413 74.2857 20.852 74.2255 20.8654 74.1508H18.4631C18.589 74.8624 18.6701 75.433 18.6701 75.7505C18.6701 75.9776 18.6838 76.1569 18.7016 76.3082ZM27.9943 76.3082H30.2982C30.316 76.1569 30.3297 75.9776 30.3297 75.7505C30.3297 75.433 30.4109 74.8624 30.5367 74.1508H28.1346C28.148 74.2255 28.1587 74.2857 28.1661 74.3297C28.2862 75.0402 28.1661 75.6322 28.0458 75.9872C28.0143 76.0807 27.9992 76.1907 27.9943 76.3082ZM18.4379 74.0098H20.891C20.9744 73.5517 21.1232 72.7513 21.2818 71.8522H18.0175C18.1741 72.6245 18.3222 73.3687 18.4379 74.0098ZM28.109 74.0098H30.5619C30.6776 73.3687 30.8258 72.6245 30.9825 71.8522H27.718C27.8767 72.7513 28.0256 73.5517 28.109 74.0098ZM17.9889 71.7111H21.3068C21.4305 71.0059 21.5589 70.2488 21.6654 69.5535H17.553C17.6908 70.2526 17.8428 70.9918 17.9889 71.7111ZM27.6932 71.7111H31.011C31.1572 70.9918 31.309 70.2526 31.447 69.5535H27.3344C27.4412 70.2488 27.5693 71.0059 27.6932 71.7111ZM17.5251 69.4125H21.6868C21.8208 68.5251 21.9157 67.7536 21.9157 67.3444C21.9157 67.3147 21.9155 67.2848 21.9149 67.2551H17.2452C17.2723 67.8347 17.3407 68.4609 17.4682 69.1204C17.4867 69.2167 17.5058 69.3143 17.5251 69.4125ZM27.3131 69.4125H31.4747C31.4942 69.3143 31.5131 69.2167 31.5318 69.1204C31.6593 68.4609 31.7277 67.8347 31.7548 67.2551H27.0851C27.0845 67.2848 27.0843 67.3147 27.0843 67.3444C27.0843 67.7536 27.1792 68.5251 27.3131 69.4125ZM17.2395 67.114H21.9109C21.8809 66.3654 21.7175 65.6235 21.6726 64.9564H17.3481C17.2643 65.5468 17.2095 66.2796 17.2395 67.114ZM27.0891 67.114H31.7605C31.7903 66.2796 31.7355 65.5468 31.6517 64.9564H27.3272C27.2823 65.6235 27.1191 66.3654 27.0891 67.114ZM17.3691 64.8154H21.665C21.6499 64.4451 21.6784 64.1 21.7954 63.7926C21.9441 63.4018 22.0931 63.0512 22.2334 62.6578H17.7554C17.7199 63.1118 17.667 63.5217 17.5883 63.7926C17.5175 64.0367 17.4361 64.3838 17.3691 64.8154ZM27.3348 64.8154H31.6309C31.5637 64.3838 31.4824 64.0367 31.4115 63.7926C31.3331 63.5217 31.2802 63.1118 31.2445 62.6578H26.7666C26.9069 63.0512 27.0557 63.4018 27.2046 63.7926C27.3216 64.1 27.3499 64.4451 27.3348 64.8154ZM17.7659 62.5168H22.2827C22.4631 61.9885 22.6275 61.3705 22.7569 60.4776C22.7625 60.44 22.7684 60.4005 22.7745 60.3592H17.8285C17.8273 60.8797 17.8195 61.7459 17.7659 62.5168ZM26.7174 62.5168H31.2341C31.1803 61.7459 31.1725 60.8797 31.1713 60.3592H26.2253C26.2316 60.4005 26.2374 60.44 26.2429 60.4776C26.3723 61.3705 26.5367 61.9885 26.7174 62.5168ZM17.8287 60.2181H22.7964C22.8799 59.6897 23.0158 58.9226 23.1688 58.0605H17.5788C17.7116 59.0467 17.8289 59.7717 17.8289 60.1222C17.8289 60.1517 17.8289 60.1837 17.8287 60.2181ZM26.2034 60.2181H31.1711C31.1711 60.1837 31.1711 60.1517 31.1711 60.1222C31.1711 59.7717 31.2882 59.0467 31.4213 58.0605H25.8313C25.984 58.9226 26.1199 59.6897 26.2034 60.2181ZM17.5599 57.9195H23.1938C23.3158 57.2308 23.4473 56.4878 23.5707 55.7619H17.3202C17.3882 56.5619 17.476 57.2902 17.5599 57.9195ZM25.8062 57.9195H31.4402C31.5238 57.2902 31.6118 56.5619 31.6798 55.7619H25.4294C25.5525 56.4878 25.684 57.2308 25.8062 57.9195ZM17.3084 55.6208H23.5945C23.7251 54.8479 23.845 54.1 23.9329 53.4634H17.2122C17.2108 53.7479 17.2156 54.0344 17.2276 54.3208C17.2467 54.7702 17.2748 55.2048 17.3084 55.6208ZM25.4053 55.6208H31.6914C31.7252 55.2048 31.7531 54.7702 31.7722 54.3208C31.7842 54.0344 31.789 53.7479 31.7878 53.4634H25.067C25.155 54.1 25.2749 54.8479 25.4053 55.6208ZM16.7984 53.9249C17.0172 53.9249 17.1677 53.8882 17.1677 53.788C17.1677 53.7141 17.0799 53.5999 16.9554 53.4634H15.2504C15.4136 53.6357 15.5769 53.7589 15.7252 53.788C16.0721 53.8565 16.4992 53.9249 16.7984 53.9249ZM32.2016 53.9249C32.5006 53.9249 32.9277 53.8565 33.2746 53.788C33.4231 53.7589 33.5862 53.6357 33.7494 53.4634H32.0444C31.9202 53.5999 31.8323 53.7141 31.8323 53.788C31.8323 53.8882 31.9826 53.9249 32.2016 53.9249ZM15.1255 53.3224H16.8229C16.5546 53.0422 16.2163 52.7038 16.1458 52.4266C16.0257 51.9529 15.6653 51.5979 16.0257 51.3611C16.0975 51.3139 16.1838 51.247 16.2728 51.1648H14.0871C14.1046 51.4751 14.1289 51.709 14.1625 51.7754C14.2455 51.9388 14.6717 52.7785 15.1255 53.3224ZM17.2133 53.3224H23.9521C24.0308 52.7351 24.0793 52.2538 24.0793 51.9529C24.0793 51.9529 24.2458 52.034 24.44 52.0616V52.0714C24.46 52.0714 24.4801 52.0695 24.4999 52.068C24.5198 52.0695 24.5398 52.0714 24.5599 52.0714V52.0616C24.754 52.034 24.9205 51.9529 24.9205 51.9529C24.9205 52.2538 24.969 52.7351 25.0479 53.3224H31.7867C31.7779 52.5777 31.7288 51.8474 31.6613 51.1648H17.3386C17.2712 51.8474 17.2219 52.5777 17.2133 53.3224ZM32.177 53.3224H33.8743C34.3281 52.7785 34.7543 51.9388 34.8373 51.7754C34.871 51.709 34.8952 51.4751 34.9128 51.1648H32.727C32.816 51.247 32.9023 51.3139 32.9741 51.3611C33.3347 51.5979 32.9741 51.9529 32.854 52.4266C32.7835 52.7038 32.4454 53.0422 32.177 53.3224ZM16.7345 52.6455C16.8971 52.6455 16.8971 52.1649 16.8971 51.6844C16.8971 51.488 16.9243 51.3186 16.9563 51.1648H16.3034C16.4086 51.4096 16.4093 51.5674 16.4093 51.8444C16.4093 52.1649 16.572 52.6455 16.7345 52.6455ZM32.3064 52.4851C32.4691 52.4851 32.6316 52.0048 32.6316 51.6844C32.6316 51.4721 32.6327 51.3297 32.68 51.1648H32.1143C32.1317 51.275 32.1437 51.3936 32.1437 51.5241C32.1437 52.0048 32.1437 52.4851 32.3064 52.4851ZM14.0798 51.0237H16.9875C17.0251 50.8596 17.0598 50.7114 17.0598 50.563C17.0598 50.4306 16.9563 50.1686 16.8355 49.9074C16.8223 49.8025 16.7948 49.6949 16.7471 49.5851C16.6969 49.47 16.6423 49.3641 16.585 49.2658H14.0433C14.0458 49.7427 14.0538 50.471 14.0798 51.0237ZM17.3529 51.0237H31.6471C31.5809 50.3839 31.4997 49.7887 31.4222 49.2658H17.5776C17.5003 49.7887 17.419 50.3839 17.3529 51.0237ZM32.0886 51.0237H34.92C34.946 50.471 34.954 49.7427 34.9565 49.2658H32.415C32.3576 49.3641 32.303 49.47 32.2529 49.5851C32.2235 49.6528 32.2037 49.7193 32.1878 49.7852C32.0746 50.0336 31.9811 50.2768 31.9811 50.4028C31.9811 50.5978 32.0414 50.7928 32.0886 51.0237ZM13.9799 48.3256H15.8743C15.7758 48.1932 15.7002 48.0654 15.6653 47.9275C15.6351 47.8089 15.6805 47.4143 15.7636 46.8731H13.7373C13.8373 47.4576 13.9246 47.97 13.9799 48.3256ZM17.7218 48.3256H31.2783C31.2313 48.0223 31.1931 47.7675 31.1711 47.5725C31.1499 47.385 31.1141 47.1463 31.0696 46.8731H17.9303C17.886 47.1463 17.8499 47.385 17.8289 47.5725C17.8067 47.7675 17.7685 48.0223 17.7218 48.3256ZM33.1255 48.3256H35.0199C35.0752 47.97 35.1625 47.4576 35.2625 46.8731H33.2362C33.3195 47.4143 33.3649 47.8089 33.3347 47.9275C33.2998 48.0654 33.224 48.1932 33.1255 48.3256ZM13.6084 46.1208H15.886C15.9719 45.6108 16.0716 45.0425 16.1659 44.4806H13.334C13.4213 45.0194 13.5168 45.5836 13.6084 46.1208ZM18.0559 46.1208H30.9439C30.8571 45.6041 30.7627 45.0335 30.6885 44.4806H18.3113C18.2373 45.0335 18.1428 45.6041 18.0559 46.1208ZM33.114 46.1208H35.3914C35.4831 45.5836 35.5785 45.0194 35.6658 44.4806H32.8339C32.9283 45.0425 33.0279 45.6108 33.114 46.1208ZM13.2445 43.9164H16.2589C16.3713 43.2172 16.4649 42.5633 16.5004 42.0879H13.0192C13.0322 42.3219 13.0522 42.5528 13.0807 42.7773C13.1229 43.1087 13.1796 43.4978 13.2445 43.9164ZM18.3797 43.9164H30.6201C30.5617 43.3677 30.5348 42.8633 30.5701 42.4813C30.5821 42.3514 30.5869 42.2201 30.5861 42.0879H18.4137C18.4129 42.2201 18.4177 42.3514 18.4297 42.4813C18.465 42.8633 18.4381 43.3677 18.3797 43.9164ZM32.741 43.9164H35.7553C35.8203 43.4978 35.877 43.1087 35.9192 42.7773C35.9476 42.5528 35.9676 42.3219 35.9806 42.0879H32.4994C32.5349 42.5633 32.6285 43.2172 32.741 43.9164ZM13.0043 41.7118H16.5157C16.5153 41.6447 16.5122 41.585 16.5065 41.5343C16.4336 40.8868 16.3161 40.2395 16.289 39.6717H13.0841C13.0259 40.2854 12.9865 41.0013 13.0043 41.7118ZM18.429 41.7118H30.5709C30.5227 41.0401 30.3752 40.3501 30.3404 39.6717H18.6594C18.6249 40.3501 18.4773 41.0401 18.429 41.7118ZM32.4842 41.7118H35.9957C36.0135 41.0013 35.9739 40.2854 35.9157 39.6717H32.7108C32.6837 40.2395 32.5664 40.8868 32.4933 41.5343C32.4876 41.585 32.4845 41.6447 32.4842 41.7118ZM13.098 39.5307H16.2843C16.2782 39.2195 16.3043 38.9353 16.3864 38.6927C16.4676 38.4529 16.617 37.957 16.7843 37.3731H13.4243C13.3802 37.7095 13.344 37.9512 13.3211 38.0415C13.2691 38.2466 13.1719 38.8072 13.098 39.5307ZM18.6649 39.5307H30.3351C30.3253 39.167 30.3526 38.807 30.45 38.4559C30.5313 38.1618 30.6251 37.7831 30.7213 37.3731H18.2785C18.3749 37.7831 18.4685 38.1618 18.55 38.4559C18.6472 38.807 18.6745 39.167 18.6649 39.5307ZM32.7156 39.5307H35.9018C35.8279 38.8072 35.7307 38.2466 35.6788 38.0415C35.6559 37.9512 35.6196 37.7095 35.5755 37.3731H32.2155C32.3828 37.957 32.5325 38.4529 32.6136 38.6927C32.6957 38.9353 32.7217 39.2195 32.7156 39.5307ZM13.4427 37.232H16.8246C17.026 36.5238 17.2465 35.7108 17.4012 35.0744H13.6997C13.6086 35.8647 13.5162 36.6587 13.4427 37.232ZM18.2457 37.232H30.7543C30.9258 36.4937 31.102 35.6757 31.2286 35.0744H17.7712C17.898 35.6757 18.074 36.4937 18.2457 37.232ZM32.1754 37.232H35.5572C35.4836 36.6587 35.3912 35.8647 35.3002 35.0744H31.5986C31.7535 35.7108 31.974 36.5238 32.1754 37.232ZM13.7159 34.9336H17.435C17.5089 34.6225 17.5637 34.3636 17.5883 34.1938C17.5883 34.1938 17.6483 34.4886 17.7416 34.9336H31.2584C31.3518 34.4886 31.4115 34.1938 31.4115 34.1938C31.4362 34.3636 31.4911 34.6225 31.5648 34.9336H35.2839C35.1892 34.111 35.0974 33.3069 35.031 32.776H13.9689C13.9024 33.3069 13.8106 34.111 13.7159 34.9336ZM13.9868 32.6349H35.013C34.9905 32.4587 34.9716 32.323 34.9574 32.2402C34.9084 31.9504 34.8593 31.2661 34.7532 30.4773H14.2467C14.1405 31.2661 14.0914 31.9504 14.0424 32.2402C14.0283 32.323 14.0093 32.4587 13.9868 32.6349ZM14.2662 30.3363H34.7337C34.6321 29.6179 34.4817 28.8286 34.2411 28.1787H14.7589C14.5182 28.8286 14.3677 29.6179 14.2662 30.3363ZM14.8133 28.0377H34.1865C34.0654 27.7385 33.9232 27.4742 33.7556 27.2676C33.3966 26.8258 32.4523 26.3346 31.3966 25.8801H17.5656C16.5309 26.3346 15.6032 26.8258 15.2443 27.2676C15.0766 27.4742 14.9344 27.7385 14.8133 28.0377ZM17.8925 25.739H31.0631C29.3711 25.0364 27.5261 24.4469 27.3848 24.3077C27.3155 24.2396 27.2239 23.9523 27.1416 23.5816H21.7381C21.6558 23.9523 21.564 24.2396 21.4949 24.3077C21.3536 24.4469 19.5501 25.0364 17.8925 25.739ZM21.7683 23.4406H27.1114C27.0494 23.137 26.9952 22.7929 26.964 22.4726C26.9014 21.8274 26.964 21.4071 26.964 21.4071C26.9963 21.3753 27.0223 21.3328 27.0427 21.283H21.837C21.8575 21.3328 21.8834 21.3753 21.9157 21.4071C21.9157 21.4071 21.9781 21.8274 21.9157 22.4726C21.8846 22.7929 21.8303 23.137 21.7683 23.4406ZM21.7956 21.1419H27.0841C27.1521 20.8089 27.0843 20.3415 27.0843 20.3415C27.1441 20.365 27.1991 20.3758 27.2497 20.3758C27.7092 20.3758 27.8175 19.5009 27.9257 19.3943C27.9786 19.3422 28.0548 19.1752 28.1134 18.9843H20.7663C20.8247 19.1752 20.9011 19.3422 20.954 19.3943C21.0622 19.5009 21.1705 20.3758 21.6299 20.3758C21.6807 20.3758 21.7357 20.365 21.7954 20.3415C21.7954 20.3415 21.7276 20.8089 21.7956 21.1419ZM20.7275 18.8433H28.152C28.2011 18.6407 28.2205 18.4361 28.1661 18.3287C28.106 18.2103 27.9857 18.1807 27.8805 18.1807C27.7755 18.1807 27.6854 18.2103 27.6854 18.2103C27.6854 18.2103 27.7153 17.4998 27.58 16.6857H21.2996C21.1644 17.4998 21.1944 18.2103 21.1944 18.2103C21.1944 18.2103 21.1042 18.1807 20.9992 18.1807C20.894 18.1807 20.7738 18.2103 20.7136 18.3287C20.659 18.4361 20.6787 18.6407 20.7275 18.8433ZM21.3246 16.5446H27.5551C27.4091 15.7681 27.1063 14.9307 26.4833 14.5401C26.3953 14.4848 26.3034 14.4339 26.2083 14.3872H22.6712C22.5763 14.4339 22.4845 14.4848 22.3963 14.5401C21.7733 14.9307 21.4706 15.7681 21.3246 16.5446ZM23.0015 14.2462H25.878C25.4315 14.082 24.9356 14 24.4398 14C23.9439 14 23.4481 14.082 23.0015 14.2462Z" fill="#00DBDC"/>
<path d="M17 11H12C11.4477 11 11 11.4477 11 12V17" stroke="white" stroke-width="1.6" stroke-linecap="round"/>
<path d="M31 11H36C36.5523 11 37 11.4477 37 12V17" stroke="white" stroke-width="1.6" stroke-linecap="round"/>
<path d="M17 37H12C11.4477 37 11 36.5523 11 36V31" stroke="white" stroke-width="1.6" stroke-linecap="round"/>
<path d="M31 37H36C36.5523 37 37 36.5523 37 36V31" stroke="white" stroke-width="1.6" stroke-linecap="round"/>
<line x1="14.5" y1="24.5" x2="34.5" y2="24.5" stroke="white" stroke-linecap="round"/>
</g>
</svg>
