<svg width="48" height="48" viewBox="0 0 48 48" fill="none" xmlns="http://www.w3.org/2000/svg">
<circle cx="24" cy="24" r="24" fill="#0D0D0D"/>
<mask id="mask0_113_53952" style="mask-type:alpha" maskUnits="userSpaceOnUse" x="0" y="0" width="48" height="48">
<circle cx="24" cy="24" r="24" fill="#0D0D0D"/>
</mask>
<g mask="url(#mask0_113_53952)">
<path d="M7 16C7 13.7909 8.79086 12 11 12H33.3333C33.7661 12 34.1871 12.1404 34.5333 12.4L38 15H14.9084C13.8403 15 12.9607 15.8394 12.9106 16.9064L11.5894 45.0937C11.5393 46.1606 10.6597 47 9.59155 47H9C7.89543 47 7 46.1046 7 45V16Z" fill="#007D7D"/>
<path fill-rule="evenodd" clip-rule="evenodd" d="M34.7945 52.1274H14.9957V19.1267H34.7945V52.1274ZM11 21.2473C11 18.4189 11 17.0047 11.8787 16.126C12.7574 15.2473 14.1716 15.2473 17 15.2473H33C35.8284 15.2473 37.2426 15.2473 38.1213 16.126C39 17.0047 39 18.4189 39 21.2473V52.1274H36.3014C36.3014 39.0261 36.3014 30.735 36.3014 17.6336H13.4886V52.1274H11V21.2473Z" fill="#42FEFF"/>
<path fill-rule="evenodd" clip-rule="evenodd" d="M22.7992 43.6965V49.2915H27.7288V43.6965H22.7992ZM22.7992 36.6111V42.2034H27.7288V36.6111H22.7992ZM22.7992 29.5231V35.1181H27.7288V29.5231H22.7992ZM16.5309 35.1181V29.5231H21.292V35.1181H16.5309ZM16.5309 42.2034V36.6111H21.292V42.2034H16.5309ZM16.5309 49.2915V43.6965H21.292V49.2915H16.5309ZM33.7842 43.6965V49.2915H29.2357V43.6965H33.7842ZM33.7842 36.6111V42.2034H29.2357V36.6111H33.7842ZM33.7842 29.5231V35.1181H29.2357V29.5231H33.7842ZM29.2357 21.5168H33.7842V28.03H29.2357V21.5168ZM22.7992 21.5168H27.7288V28.03H22.7992V21.5168ZM16.5309 21.5168H21.292V28.03H16.5309V21.5168Z" fill="#0D0D0D"/>
</g>
</svg>
