<svg width="48" height="48" viewBox="0 0 48 48" fill="none" xmlns="http://www.w3.org/2000/svg">
<circle cx="24" cy="24" r="24" fill="#0D0D0D"/>
<mask id="mask0_159_340" style="mask-type:alpha" maskUnits="userSpaceOnUse" x="0" y="0" width="48" height="48">
<circle cx="24" cy="24" r="24" fill="#0D0D0D"/>
</mask>
<g mask="url(#mask0_159_340)">
<path d="M30.4319 33.3137L46.3311 49.0662L60.0425 31.1152L68 42.2744C68 42.2744 54.1663 63.986 51.2285 65.9262C48.2907 67.8665 44.8622 69.6862 40.0878 65.9262C35.3134 62.1663 23.6304 39.3585 23.6304 39.3585L28.2421 32.3281L30.4319 33.3137Z" fill="#00DBDC"/>
<path d="M33.3624 28.5586C33.1501 27.9669 33.2162 27.0194 33.3353 26.3687C33.455 25.7174 33.156 25.0071 32.8571 24.5929C32.5582 24.1788 32.7374 23.6461 32.5582 22.521C32.3789 21.3965 30.8254 20.9818 30.8254 20.9818C30.8254 20.9818 30.5867 20.449 30.2282 19.6201C29.8697 18.7912 27.7785 17.9629 26.1654 17.5482C24.5524 17.134 23.9552 18.0809 23.9552 18.0809L24.0147 18.436L24.7911 19.4425L21.565 20.6856L19.4142 32.3467L18.3389 34.6375L26.514 38.2742L28.3757 35.3065C28.3757 35.3065 32.6772 31.2222 33.0357 30.5034C33.3948 29.7853 33.574 29.151 33.3624 28.5586Z" fill="white"/>
<path d="M24.4683 18.4883C24.4683 18.4883 23.1356 17.0173 22.0318 17.2433C20.928 17.4694 18.7197 18.6391 18.6813 19.9214C18.643 21.2038 20.1284 21.1664 21.0801 20.9397L21.5748 20.7136L22.381 21.2542L25.6071 20.0112L24.4683 18.4883Z" fill="#00DBDC"/>
<path d="M18.6805 20.6667C18.6805 20.6667 16.4934 20.4773 15.6984 20.9818C14.9035 21.4857 13.9862 23.0426 15.2679 24.5124L18.9471 23.7582L24.3464 23.7851C24.3464 23.7851 24.5693 21.9582 24.3464 21.643C24.1242 21.3278 21.0489 20.5769 18.6805 20.6667Z" fill="#00DBDC"/>
<path d="M15.0167 24.5791C15.0167 24.5791 13.8402 25.294 14.0009 26.6451C14.1609 27.9963 15.4446 28.4727 15.4446 28.4727L19.3215 26.8037L27.9305 26.9629C27.9305 26.9629 29.2671 25.3208 27.5562 24.5791C25.8452 23.8373 21.5867 23.7718 19.803 23.7633C18.0193 23.7541 15.0167 24.5791 15.0167 24.5791Z" fill="#00DBDC"/>
<path d="M15.4443 28.472C15.4443 28.472 14.484 29.5027 15.1017 30.6881C15.7194 31.8742 16.2598 31.8742 16.2598 31.8742C16.2598 31.8742 16.2598 33.3655 16.7227 33.8629C17.1857 34.3602 17.9198 34.8576 17.9198 34.8576L20.8153 32.6008C20.8153 32.6008 24.9071 32.2208 25.4481 31.6651C25.9884 31.1095 26.3363 30.1914 26.3363 30.1914C26.3363 30.1914 27.8164 30.4208 28.4275 29.7708C29.0386 29.1207 29.0797 27.3404 27.6511 26.9957L19.3212 26.8037L15.4443 28.472Z" fill="#00DBDC"/>
<path d="M-4.04261 36.0826L5.53195 46.2916L18.3399 34.6377L28.8463 34.8572C28.8463 34.8572 12.6443 61.921 8.90557 64.0893C5.16688 66.2576 2.34021 65.2635 -1.85416 62.7342C-6.04852 60.2042 -20 42.6778 -20 42.6778L-4.04261 36.0826Z" fill="white"/>
<path d="M26.1967 30.4023C26.8157 29.9646 24.5631 29.7758 22.1729 29.9102C19.7186 30.0727 17.8198 30.7581 17.7874 30.6572C17.7722 30.6172 18.2266 30.3944 19.0076 30.1493C19.7867 29.9043 20.8991 29.6553 22.1491 29.5694C23.3984 29.481 24.5347 29.5714 25.3409 29.7038C25.5432 29.7404 25.7225 29.7706 25.8852 29.8066C26.0492 29.8433 26.2112 29.9187 26.2806 30.0491C26.3455 30.1723 26.3243 30.2876 26.2846 30.3459C26.2436 30.4062 26.2006 30.4101 26.1967 30.4023Z" fill="#019A9A"/>
<path d="M27.9126 27.0804C27.9106 27.1256 27.3299 27.1472 26.3934 27.1177C25.328 27.0666 24.1031 27.0083 22.7506 26.9441C21.332 26.8903 20.0549 26.9709 19.1383 27.1125C18.2216 27.2481 17.6608 27.3916 17.6449 27.3385C17.633 27.3018 18.172 27.0751 19.0953 26.8753C20.0166 26.6702 21.3267 26.5489 22.7619 26.6033C24.1964 26.6518 25.4801 26.7914 26.41 26.8779C27.3392 26.9683 27.9146 27.0319 27.9126 27.0804Z" fill="#019A9A"/>
<path d="M24.4455 23.8565C24.4383 23.9626 22.4595 23.8447 20.0329 23.9803C17.6051 24.1153 15.6606 24.4901 15.6395 24.3879C15.6302 24.3446 16.1057 24.1965 16.8941 24.0353C17.6818 23.8741 18.7849 23.7103 20.0131 23.6396C21.2406 23.5701 22.3543 23.6042 23.1559 23.6664C23.9575 23.7293 24.4488 23.8119 24.4455 23.8565Z" fill="#019A9A"/>
<path d="M24.3148 21.5629C24.2784 21.6487 22.6905 20.9987 20.5874 20.9371C18.4975 20.8559 16.7799 20.9843 16.7739 20.8683C16.7706 20.8224 17.1946 20.7477 17.8857 20.6776C18.5762 20.6095 19.5378 20.5446 20.6052 20.5964C21.672 20.6481 22.633 20.8408 23.2957 21.0708C23.961 21.2982 24.3327 21.5268 24.3148 21.5629Z" fill="#019A9A"/>
<path d="M27.5262 19.2709C27.5553 19.3627 26.5698 19.7519 25.3569 20.2257C24.1426 20.6974 23.1532 21.0768 23.1116 20.9903C23.0712 20.9071 24.0037 20.3849 25.2306 19.9085C26.4561 19.4302 27.4984 19.1831 27.5262 19.2709Z" fill="#B7B6B6"/>
<path d="M5.08516 53.9696C4.98265 53.9421 5.48264 52.1558 5.61359 49.8945C5.76041 47.6332 5.48264 45.8011 5.58779 45.7853C5.66914 45.7637 6.10631 47.6057 5.9575 49.9148C5.82258 52.2246 5.1632 54.0011 5.08516 53.9696Z" fill="#6F4439"/>
<path d="M8 13.5L9.5 11.5L16 18.5L8 13.5Z" fill="#00DBDC"/>
<path d="M15 8.5L18 7.5L19 17L15 8.5Z" fill="#00DBDC"/>
<path d="M27.5 7.5L30.5 8L27.5 16.5V7.5Z" fill="#00DBDC"/>
<path d="M37 12L39.5 14L31.5 19L37 12Z" fill="#00DBDC"/>
</g>
</svg>
