<svg width="48" height="48" viewBox="0 0 48 48" fill="none" xmlns="http://www.w3.org/2000/svg">
<circle cx="24" cy="24" r="24" fill="#0D0D0D"/>
<mask id="mask0_159_386" style="mask-type:alpha" maskUnits="userSpaceOnUse" x="0" y="0" width="48" height="48">
<circle cx="24" cy="24" r="24" fill="#0D0D0D"/>
</mask>
<g mask="url(#mask0_159_386)">
<path d="M40.9956 33.7979H48.3839C50.474 33.7979 52.4785 34.6205 53.9564 36.0848C55.4344 37.5491 56.2646 39.5351 56.2646 41.606V43.7446C56.2646 44.6658 55.8953 45.5493 55.2378 46.2007C54.5804 46.8521 53.6887 47.2181 52.7589 47.2181H36.6206C35.6908 47.2181 34.7992 46.8521 34.1417 46.2007C33.4842 45.5493 33.1149 44.6658 33.1149 43.7446V41.5916C33.1187 39.5233 33.9507 37.5409 35.4282 36.0797C36.9057 34.6185 38.908 33.7978 40.9956 33.7979Z" fill="white"/>
<path d="M44.7047 31.644C48.3771 31.644 51.3541 28.6944 51.3541 25.0559C51.3541 21.4174 48.3771 18.4678 44.7047 18.4678C41.0323 18.4678 38.0552 21.4174 38.0552 25.0559C38.0552 28.6944 41.0323 31.644 44.7047 31.644Z" fill="white"/>
<path d="M48.1954 34.1836H40.7925C39.5393 34.1843 38.3045 34.4816 37.1907 35.0509C36.0769 35.6201 35.1165 36.4448 34.3895 37.4562C35.8492 36.0879 37.7836 35.3275 39.793 35.3319H47.1811C48.2165 35.33 49.2424 35.5306 50.1994 35.9224C51.1564 36.3141 52.0257 36.8892 52.7579 37.6146C53.4901 38.3401 54.0704 39.2016 54.4658 40.1497C54.8612 41.0979 55.064 42.1141 55.0621 43.14V45.2786C55.056 45.8622 54.9014 46.4348 54.6129 46.9436C55.0705 46.6167 55.4411 46.1847 55.6934 45.6848C55.9457 45.1848 56.0722 44.6318 56.0616 44.0729V41.9343C56.0426 39.8771 55.2064 37.9101 53.7341 36.4594C52.2617 35.0087 50.2719 34.1911 48.1954 34.1836Z" fill="#E6E3E1"/>
<path d="M45.6462 18.4541C45.405 18.4398 45.1631 18.4398 44.9219 18.4541C46.5534 18.6308 48.0615 19.3979 49.1575 20.6083C50.2536 21.8187 50.8602 23.3873 50.8612 25.0135C50.8599 26.638 50.2528 28.2048 49.1565 29.4129C48.0602 30.621 46.5522 31.3851 44.9219 31.5585C45.1631 31.5728 45.405 31.5728 45.6462 31.5585C47.4086 31.5547 49.0976 30.8594 50.3438 29.6247C51.59 28.39 52.2916 26.7165 52.2954 24.9704C52.2726 23.2367 51.5625 21.5816 50.3183 20.3624C49.0742 19.1431 47.3961 18.4577 45.6462 18.4541Z" fill="#E6E3E1"/>
<path d="M2.88078 33.7979H10.269C12.3591 33.7979 14.3637 34.6205 15.8416 36.0848C17.3195 37.5491 18.1498 39.5351 18.1498 41.606V43.7446C18.1498 44.6658 17.7805 45.5493 17.123 46.2007C16.4655 46.8521 15.5738 47.2181 14.644 47.2181H-1.49419C-2.42398 47.2181 -3.31572 46.8521 -3.97318 46.2007C-4.63064 45.5493 -5 44.6658 -5 43.7446V41.5916C-4.99616 39.5233 -4.16414 37.5409 -2.68662 36.0797C-1.20911 34.6185 0.793179 33.7978 2.88078 33.7979Z" fill="white"/>
<path d="M6.575 31.644C10.2474 31.644 13.2244 28.6944 13.2244 25.0559C13.2244 21.4174 10.2474 18.4678 6.575 18.4678C2.90263 18.4678 -0.0744019 21.4174 -0.0744019 25.0559C-0.0744019 28.6944 2.90263 31.644 6.575 31.644Z" fill="white"/>
<path d="M10.4433 33.5537H3.05488C1.80143 33.5532 0.566267 33.8501 -0.547707 34.4194C-1.66168 34.9888 -2.62198 35.814 -3.34814 36.8263C-1.89368 35.4589 0.035876 34.6983 2.04088 34.702H9.44375C10.4787 34.702 11.5034 34.904 12.4596 35.2963C13.4157 35.6887 14.2845 36.2639 15.0163 36.989C15.7481 37.714 16.3286 38.5747 16.7246 39.522C17.1207 40.4694 17.3244 41.4848 17.3244 42.5102V44.6488C17.3183 45.2323 17.1638 45.8049 16.8753 46.3137C17.3338 45.9876 17.7055 45.5559 17.9579 45.0558C18.2103 44.5556 18.3358 44.0021 18.3239 43.4431V41.3045C18.3087 39.2436 17.4716 37.2723 15.9953 35.8204C14.519 34.3685 12.5234 33.5537 10.4433 33.5537Z" fill="#E6E3E1"/>
<path d="M7.51629 18.4534C7.27991 18.4387 7.04284 18.4387 6.80646 18.4534C8.43801 18.6302 9.94645 19.3972 11.0425 20.6076C12.1385 21.818 12.7448 23.3867 12.7458 25.0128C12.7445 26.6374 12.1374 28.2042 11.0411 29.4122C9.94477 30.6203 8.43677 31.3844 6.80646 31.5579C7.04284 31.5726 7.27991 31.5726 7.51629 31.5579C9.28116 31.5579 10.9738 30.8642 12.2231 29.6291C13.4724 28.394 14.1765 26.7183 14.1803 24.9697C14.1575 23.2336 13.4452 21.5763 12.198 20.3566C10.9507 19.137 9.26871 18.4533 7.51629 18.4534Z" fill="#E6E3E1"/>
<path d="M19.1434 29.855H29.398C32.2982 29.855 35.0797 30.9449 37.1304 32.8851C39.1812 34.8252 40.3333 37.4566 40.3333 40.2003V43.0316C40.3333 44.2522 39.8208 45.4228 38.9084 46.286C37.9961 47.1491 36.7587 47.634 35.4684 47.634H13.073C11.7876 47.6304 10.556 47.1458 9.6471 46.286C8.73823 45.4261 8.22597 44.261 8.22223 43.045V40.2003C8.22223 37.4566 9.37435 34.8252 11.4251 32.8851C13.4759 30.9449 16.2573 29.855 19.1576 29.855H19.1434Z" fill="#0D0D0D"/>
<path d="M19.6421 31.645H28.1748C30.5876 31.645 32.9016 32.5947 34.6078 34.2851C36.3139 35.9755 37.2724 38.2682 37.2724 40.6588V43.1275C37.2724 44.1896 36.8466 45.2082 36.0886 45.9592C35.3306 46.7102 34.3026 47.1321 33.2306 47.1321H14.6007C13.5288 47.1321 12.5007 46.7102 11.7427 45.9592C10.9847 45.2082 10.5589 44.1896 10.5589 43.1275V40.6588C10.5589 38.2707 11.5154 35.9802 13.2184 34.2902C14.9214 32.6002 17.2317 31.6488 19.6421 31.645Z" fill="#00DBDC"/>
<path d="M23.9007 29.1763C28.1412 29.1763 31.5787 25.7704 31.5787 21.5691C31.5787 17.3678 28.1412 13.9619 23.9007 13.9619C19.6603 13.9619 16.2228 17.3678 16.2228 21.5691C16.2228 25.7704 19.6603 29.1763 23.9007 29.1763Z" fill="#00DBDC"/>
<path d="M28.1324 31.5874H19.5996C18.1533 31.5862 16.7278 31.9283 15.4424 32.585C14.157 33.2418 13.0489 34.1942 12.2112 35.3623C13.8921 33.7905 16.1147 32.9128 18.426 32.9079H26.9589C29.3718 32.9079 31.6859 33.8575 33.392 35.5479C35.0982 37.2383 36.0566 39.531 36.0566 41.9216V44.3904C36.0509 45.065 35.8713 45.727 35.535 46.3137C36.0542 45.9433 36.4772 45.4562 36.7693 44.8923C37.0614 44.3284 37.2143 43.7038 37.2153 43.0699V40.6011C37.2153 38.213 36.259 35.9225 34.556 34.2325C32.853 32.5425 30.5428 31.5912 28.1324 31.5874Z" fill="#07C1C2"/>
<path d="M24.7703 13.9473H23.9448C25.8261 14.1521 27.565 15.0369 28.8291 16.4324C30.0933 17.828 30.7941 19.6362 30.797 21.5114C30.7941 23.3866 30.0933 25.1949 28.8291 26.5904C27.565 27.9859 25.8261 28.8706 23.9448 29.0755H24.7703C25.7786 29.0755 26.7772 28.8787 27.7087 28.4964C28.6402 28.1141 29.4867 27.5538 30.1997 26.8474C30.9126 26.141 31.4782 25.3024 31.8641 24.3795C32.2499 23.4566 32.4484 22.4673 32.4484 21.4683C32.4255 19.4657 31.6063 17.5529 30.1689 16.1448C28.7315 14.7368 26.7917 13.9471 24.7703 13.9473Z" fill="#07C1C2"/>
</g>
</svg>
