<svg width="48" height="48" viewBox="0 0 48 48" fill="none" xmlns="http://www.w3.org/2000/svg">
<circle cx="24" cy="24" r="24" fill="#0D0D0D"/>
<mask id="mask0_113_54156" style="mask-type:alpha" maskUnits="userSpaceOnUse" x="0" y="0" width="48" height="48">
<circle cx="24" cy="24" r="24" fill="#0D0D0D"/>
</mask>
<g mask="url(#mask0_113_54156)">
<g filter="url(#filter0_d_113_54156)">
<path d="M12.8553 37.8586C19.2872 31.7053 29.7153 31.7053 36.1472 37.8586M18.6783 43.4293C21.8942 40.3527 27.1083 40.3527 30.3242 43.4293M24.5012 49L24.5354 48.9674M7 32.9347C16.665 23.6884 32.335 23.6884 42 32.9347" stroke="white" stroke-width="2" stroke-linecap="round" stroke-linejoin="round"/>
</g>
<path d="M32.8734 23.3108L24.1141 36.6355C23.6728 37.2977 22.6347 37.0004 22.6347 36.2031L22.6217 28.5812C22.6217 27.7028 21.908 27.0001 21.0256 26.9866L15.796 26.919C15.1601 26.9055 14.7838 26.2163 15.1341 25.6892L23.8935 12.3644C24.3347 11.7023 25.3728 11.9996 25.3728 12.7969L25.3858 20.4188C25.3858 21.2972 26.0995 21.9999 26.9819 22.0134L32.2115 22.081C32.8344 22.081 33.2108 22.7837 32.8734 23.3108Z" fill="#00DBDC" stroke="#0D0D0D" stroke-width="2" stroke-linecap="round" stroke-linejoin="round"/>
</g>
<defs>
<filter id="filter0_d_113_54156" x="2" y="25" width="45" height="33" filterUnits="userSpaceOnUse" color-interpolation-filters="sRGB">
<feFlood flood-opacity="0" result="BackgroundImageFix"/>
<feColorMatrix in="SourceAlpha" type="matrix" values="0 0 0 0 0 0 0 0 0 0 0 0 0 0 0 0 0 0 127 0" result="hardAlpha"/>
<feOffset dy="4"/>
<feGaussianBlur stdDeviation="2"/>
<feComposite in2="hardAlpha" operator="out"/>
<feColorMatrix type="matrix" values="0 0 0 0 0 0 0 0 0 0.858824 0 0 0 0 0.862745 0 0 0 0.2 0"/>
<feBlend mode="normal" in2="BackgroundImageFix" result="effect1_dropShadow_113_54156"/>
<feBlend mode="normal" in="SourceGraphic" in2="effect1_dropShadow_113_54156" result="shape"/>
</filter>
</defs>
</svg>
