<svg width="24" height="24" viewBox="0 0 24 24" fill="none" xmlns="http://www.w3.org/2000/svg">
<path d="M12 2.20762C15.204 2.20762 15.5834 2.21957 16.8491 2.277C17.6102 2.28627 18.3639 2.42534 19.0777 2.68817C19.5953 2.88684 20.0654 3.19118 20.4577 3.5816C20.85 3.97202 21.1558 4.43986 21.3554 4.95501C21.6195 5.66538 21.7593 6.41556 21.7686 7.17294C21.8257 8.43261 21.8383 8.81022 21.8383 11.9989C21.8383 15.1876 21.8263 15.5652 21.7686 16.8249C21.7593 17.5823 21.6195 18.3325 21.3554 19.0428C21.1558 19.558 20.85 20.0258 20.4577 20.4162C20.0654 20.8067 19.5953 21.111 19.0777 21.3097C18.3639 21.5725 17.6102 21.7116 16.8491 21.7208C15.584 21.7777 15.2046 21.7902 12 21.7902C8.79543 21.7902 8.416 21.7783 7.15086 21.7208C6.38985 21.7116 5.63607 21.5725 4.92229 21.3097C4.40466 21.111 3.93458 20.8067 3.54229 20.4162C3.15 20.0258 2.8442 19.558 2.64457 19.0428C2.38048 18.3325 2.24074 17.5823 2.23143 16.8249C2.17429 15.5652 2.16171 15.1876 2.16171 11.9989C2.16171 8.81022 2.17371 8.43261 2.23143 7.17294C2.24074 6.41556 2.38048 5.66538 2.64457 4.95501C2.8442 4.43986 3.15 3.97202 3.54229 3.5816C3.93458 3.19118 4.40466 2.88684 4.92229 2.68817C5.63607 2.42534 6.38985 2.28627 7.15086 2.277C8.41657 2.22013 8.796 2.20762 12 2.20762ZM12 0.0556641C8.74286 0.0556641 8.33257 0.0693128 7.05257 0.12732C6.0566 0.147036 5.0712 0.334714 4.13829 0.682371C3.338 0.982454 2.61314 1.45271 2.01429 2.06033C1.4032 2.65654 0.930282 3.37835 0.628571 4.17532C0.279246 5.10378 0.0906674 6.08447 0.0708572 7.07569C0.0137143 8.34844 0 8.75676 0 11.9984C0 15.2399 0.0137142 15.6483 0.072 16.9221C0.0918102 17.9134 0.280389 18.8941 0.629714 19.8225C0.93109 20.6194 1.40361 21.3412 2.01429 21.9375C2.61347 22.5453 3.33873 23.0155 4.13943 23.3155C5.07234 23.6631 6.05774 23.8508 7.05371 23.8705C8.33371 23.9274 8.74229 23.9422 12.0011 23.9422C15.26 23.9422 15.6686 23.9285 16.9486 23.8705C17.9445 23.8508 18.9299 23.6631 19.8629 23.3155C20.6598 23.008 21.3834 22.5385 21.9876 21.9368C22.5917 21.3352 23.0631 20.6147 23.3714 19.8214C23.7208 18.8929 23.9093 17.9122 23.9291 16.921C23.9863 15.6483 24 15.2399 24 11.9984C24 8.75676 23.9863 8.34844 23.928 7.07455C23.9082 6.08334 23.7196 5.10264 23.3703 4.17418C23.0689 3.37731 22.5964 2.65551 21.9857 2.05919C21.3865 1.45144 20.6613 0.98117 19.8606 0.681233C18.9277 0.333576 17.9423 0.145898 16.9463 0.126183C15.6674 0.0693129 15.2571 0.0556641 12 0.0556641Z" fill="white"/>
<path d="M11.9979 5.86426C10.7791 5.86426 9.58766 6.22394 8.57428 6.89783C7.56089 7.57172 6.77106 8.52954 6.30465 9.65017C5.83824 10.7708 5.71621 12.0039 5.95398 13.1936C6.19175 14.3832 6.77866 15.476 7.64047 16.3337C8.50228 17.1914 9.60029 17.7755 10.7957 18.0121C11.991 18.2488 13.2301 18.1273 14.3561 17.6631C15.4821 17.1989 16.4445 16.4129 17.1216 15.4043C17.7987 14.3958 18.1601 13.2101 18.1601 11.9971C18.1601 10.3706 17.5109 8.81066 16.3553 7.66053C15.1996 6.5104 13.6322 5.86426 11.9979 5.86426ZM11.9979 15.978C11.2067 15.978 10.4334 15.7445 9.77558 15.3071C9.11778 14.8697 8.60509 14.2479 8.30234 13.5205C7.99959 12.7931 7.92038 11.9927 8.07472 11.2205C8.22906 10.4483 8.61002 9.73893 9.16943 9.18219C9.72884 8.62546 10.4416 8.24631 11.2175 8.09271C11.9934 7.9391 12.7977 8.01794 13.5286 8.31924C14.2595 8.62055 14.8842 9.13079 15.3237 9.78544C15.7633 10.4401 15.9979 11.2098 15.9979 11.9971C15.9979 13.0529 15.5764 14.0655 14.8263 14.812C14.0761 15.5586 13.0587 15.978 11.9979 15.978Z" fill="white"/>
<path d="M18.4045 7.0557C19.1998 7.0557 19.8445 6.41407 19.8445 5.62258C19.8445 4.83108 19.1998 4.18945 18.4045 4.18945C17.6092 4.18945 16.9645 4.83108 16.9645 5.62258C16.9645 6.41407 17.6092 7.0557 18.4045 7.0557Z" fill="white"/>
</svg>
