<svg width="338" height="36" viewBox="0 0 338 36" fill="none" xmlns="http://www.w3.org/2000/svg">
<path d="M23.2069 29.7426C24.1299 29.7426 25.0317 28.9943 25.236 28.0768C25.9548 24.7183 26.66 21.3578 27.3692 18.0012C28.0764 14.6388 28.8029 11.2841 29.5216 7.92172C29.7259 7.00418 29.1305 6.25591 28.2093 6.25591H18.8191C18.0001 10.1723 17.1484 14.0848 16.3178 18.0012C15.4892 21.9118 14.6568 25.8301 13.8166 29.7426H23.2069ZM9.6562 7.7813C7.91226 5.19026 6.17025 2.59538 4.44944 -0.00143433H37.6594C40.9815 -0.00143433 43.134 2.73195 42.4364 6.0674C41.575 10.0473 40.7348 14.0271 39.8947 18.0012C39.0545 21.9753 38.2124 25.9551 37.351 29.9311C36.6554 33.2666 33.3332 35.9961 29.9918 35.9961H0C1.04636 31.0198 2.12163 26.0397 3.17762 21.0635C4.23362 16.0911 5.28961 11.1071 6.35525 6.13088C7.42088 6.68102 8.5289 7.23116 9.6562 7.7813Z" fill="#00DBDC"/>
<path d="M70.5961 13.3693C70.9834 11.5554 71.3707 9.74146 71.758 7.9237C71.9507 7.01193 71.3707 6.26751 70.4669 6.25789H61.0882C60.4639 9.13169 59.8607 12.0036 59.2595 14.8735H68.6382C69.4996 14.8639 70.3378 14.2137 70.5961 13.3693ZM51.9022 7.78135C50.1602 5.19032 48.4163 2.59735 46.6955 0.00247192H79.89C83.2237 0.00247192 85.3742 2.73008 84.6651 6.06746C84.1486 8.57771 83.611 11.086 83.0734 13.5924C82.9655 14.106 82.794 14.6138 82.5569 15.1101C82.0405 16.2142 81.2235 17.2164 80.233 17.9993C80.9017 18.7841 81.2871 19.7863 81.3314 20.8943C81.3526 21.3867 81.3102 21.8964 81.2023 22.4081C80.707 24.676 80.2233 26.9419 79.7397 29.206C79.256 31.4662 78.7916 33.736 78.2983 36H65.7998C66.4434 32.9646 67.0889 29.9292 67.7345 26.8939C67.7557 26.8342 67.7557 26.7746 67.7788 26.7092C68.0582 25.3512 68.3588 23.9893 68.6382 22.6312C68.7249 21.7868 68.143 21.1366 67.3047 21.127H57.9241C57.3884 23.6084 56.8604 26.0879 56.3343 28.5674C55.8063 31.043 55.2783 33.5225 54.7619 36H42.2422C43.2963 31.0199 44.3715 26.0417 45.4256 21.0635C46.4797 16.0854 47.5549 11.1072 48.6109 6.12709C49.7074 6.68108 50.8038 7.23314 51.9022 7.78135Z" fill="#00DBDC"/>
<path d="M94.1199 7.78322C92.3779 5.19026 90.6358 2.59538 88.9382 0.000492096H104.637C103.36 6.00008 102.08 12.0035 100.801 18.0012C99.5232 23.9988 98.2436 29.9984 96.9872 35.9961H84.4849C85.5428 31.0218 86.6007 26.0397 87.6586 21.0635C88.7185 16.0892 89.7764 11.1091 90.8343 6.13088C91.9366 6.68102 93.0388 7.23116 94.1199 7.78322Z" fill="#00DBDC"/>
<path d="M114.766 11.4264C113.493 9.52211 112.201 7.61202 110.945 5.71346C109.679 3.80336 108.396 1.90481 107.145 0.00240707H123.735C124.421 3.51868 125.095 7.04072 125.768 10.5512C126.444 14.0675 127.116 17.5838 127.802 21.0981C129.959 17.5838 132.14 14.0636 134.32 10.5512C136.501 7.0388 138.657 3.51868 140.814 0.00240707H150.738C147.013 6.002 143.297 12.0112 139.613 18.0031C135.923 24.0046 132.213 29.9984 128.514 35.9961H117.167C116.335 31.6873 115.514 27.3766 114.693 23.0717C113.872 18.761 113.026 14.4484 112.219 10.1377C113.076 10.5705 113.909 10.9975 114.766 11.4264Z" fill="#00DBDC"/>
<path d="M158.862 7.7813C157.12 5.19026 155.397 2.59538 153.677 -0.00143433H189.264C188.937 1.53357 188.609 3.06665 188.282 4.59588C188.075 5.50957 187.174 6.25591 186.251 6.25591H168.025C167.431 9.12779 166.817 11.9997 166.202 14.8735H186.087C185.759 16.4065 185.432 17.9396 185.104 19.4689C184.919 20.3806 184.017 21.125 183.094 21.125H164.869C164.458 23.0832 164.028 25.0395 163.618 26.9919C163.29 28.5038 164.275 29.7426 165.792 29.7426H182.909C182.603 31.2776 182.273 32.8107 181.946 34.3399C181.741 35.2498 180.861 35.9961 179.938 35.9961H155.274C151.954 35.9961 149.801 33.2666 150.518 29.9311C151.358 25.9628 152.199 21.9964 153.041 18.03C153.881 14.0636 154.742 10.0953 155.582 6.13088C156.669 6.68102 157.735 7.23116 158.862 7.7813Z" fill="#00DBDC"/>
<path d="M198.037 7.78322C196.295 5.19026 194.576 2.59538 192.855 0.000492096H228.424C228.114 1.53357 227.784 3.06665 227.453 4.5978C227.254 5.50957 226.372 6.25591 225.447 6.25591H207.231C206.635 9.12779 206.019 11.9997 205.402 14.8735H225.269C224.938 16.4065 224.63 17.9396 224.298 19.4689C224.1 20.3806 223.196 21.127 222.292 21.127H204.078C203.55 23.6064 203.02 26.0859 202.492 28.5635C201.962 31.0391 201.432 33.5185 200.904 35.9961H188.379C189.437 31.0218 190.495 26.0397 191.555 21.0635C192.613 16.0892 193.67 11.1091 194.73 6.13088C195.831 6.68102 196.935 7.23116 198.037 7.78322Z" fill="white"/>
<path d="M237.133 7.78322C235.391 5.19026 233.649 2.59538 231.951 0.000492096H247.65C246.371 6.00008 245.091 12.0035 243.813 18.0012C242.534 23.9988 241.256 29.9984 239.998 35.9961H227.496C228.554 31.0218 229.613 26.0397 230.671 21.0635C231.729 16.0892 232.789 11.1091 233.845 6.13088C234.949 6.68102 236.051 7.23116 237.133 7.78322Z" fill="white"/>
<path d="M254.24 6.25594C253.336 6.25594 252.735 5.50768 252.928 4.59591C253.249 3.06475 253.573 1.5336 253.895 0.000518799H292.813C292.491 1.5336 292.167 3.06475 291.843 4.59591C291.651 5.50768 290.726 6.25594 289.822 6.25594H278.291C277.216 11.2149 276.161 16.1757 275.107 21.1308C274.053 26.0859 272.999 31.043 271.945 35.998H259.447C260.501 31.043 261.555 26.0859 262.609 21.1308C263.663 16.1757 264.717 11.2149 265.771 6.25594H254.24Z" fill="white"/>
<path d="M299.427 6.25594C298.524 6.25594 297.921 5.50768 298.115 4.59591C298.437 3.06475 298.761 1.5336 299.083 0.000518799H338C337.678 1.5336 337.355 3.06475 337.031 4.59591C336.838 5.50768 335.913 6.25594 335.01 6.25594H323.478C322.403 11.2149 321.349 16.1757 320.295 21.1308C319.241 26.0859 318.187 31.043 317.133 35.998H304.634C305.688 31.043 306.742 26.0859 307.796 21.1308C308.85 16.1757 309.905 11.2149 310.959 6.25594H299.427Z" fill="white"/>
</svg>
