<svg width="133" height="39" viewBox="0 0 133 39" fill="none" xmlns="http://www.w3.org/2000/svg">
<path d="M130.954 12C130.954 6.34315 130.954 3.51472 129.196 1.75736C127.439 0 124.611 0 118.954 0H12C6.34315 0 3.51472 0 1.75737 1.75736C0 3.51472 0 6.34315 0 12V24C0 29.6569 0 32.4853 1.75737 34.2426C3.51472 36 6.34315 36 12 36H125.838L133 39L130.954 31V12Z" fill="url(#paint0_linear_2325_1379)"/>
<path d="M15.9222 11.4545H18.5856L23.2163 22.7614H23.3867L28.0174 11.4545H30.6808V26H28.5927V15.4744H28.4577L24.168 25.9787H22.435L18.1452 15.4673H18.0103V26H15.9222V11.4545ZM36.4757 26.2415C35.7844 26.2415 35.1594 26.1136 34.6007 25.858C34.042 25.5975 33.5993 25.2211 33.2726 24.7287C32.9506 24.2363 32.7896 23.6326 32.7896 22.9176C32.7896 22.3021 32.908 21.7955 33.1447 21.3977C33.3815 21 33.7011 20.6851 34.1036 20.4531C34.506 20.2211 34.9558 20.0459 35.453 19.9276C35.9501 19.8092 36.4568 19.7192 36.9729 19.6577C37.6263 19.5819 38.1566 19.5204 38.5638 19.473C38.971 19.4209 39.2669 19.3381 39.4516 19.2244C39.6362 19.1108 39.7286 18.9261 39.7286 18.6705V18.6207C39.7286 18.0005 39.5534 17.5199 39.203 17.179C38.8573 16.8381 38.3412 16.6676 37.6547 16.6676C36.9397 16.6676 36.3763 16.8262 35.9643 17.1435C35.5572 17.456 35.2754 17.804 35.1192 18.1875L33.1234 17.733C33.3602 17.0701 33.7058 16.535 34.1604 16.1278C34.6197 15.7159 35.1476 15.4176 35.7442 15.233C36.3408 15.0436 36.9681 14.9489 37.6263 14.9489C38.0619 14.9489 38.5235 15.0009 39.0112 15.1051C39.5036 15.2045 39.9629 15.3892 40.3891 15.6591C40.8199 15.929 41.1727 16.3149 41.4473 16.8168C41.7219 17.3139 41.8592 17.9602 41.8592 18.7557V26H39.7854V24.5085H39.7001C39.5628 24.7831 39.3569 25.053 39.0822 25.3182C38.8076 25.5833 38.4549 25.8035 38.024 25.9787C37.5931 26.1539 37.077 26.2415 36.4757 26.2415ZM36.9374 24.5369C37.5245 24.5369 38.0264 24.4209 38.443 24.1889C38.8644 23.9569 39.184 23.6539 39.4018 23.2798C39.6244 22.901 39.7357 22.4962 39.7357 22.0653V20.6591C39.6599 20.7348 39.5131 20.8059 39.2953 20.8722C39.0822 20.9337 38.8384 20.9882 38.5638 21.0355C38.2892 21.0781 38.0216 21.1184 37.7612 21.1562C37.5008 21.1894 37.283 21.2178 37.1078 21.2415C36.6959 21.2936 36.3195 21.3812 35.9786 21.5043C35.6424 21.6274 35.3725 21.8049 35.1689 22.0369C34.97 22.2642 34.8706 22.5672 34.8706 22.946C34.8706 23.4716 35.0647 23.8693 35.453 24.1392C35.8412 24.4044 36.336 24.5369 36.9374 24.5369ZM44.2877 26V15.0909H46.3403V16.8239H46.4539C46.6528 16.2367 47.0031 15.7751 47.505 15.4389C48.0117 15.098 48.5846 14.9276 49.2238 14.9276C49.3564 14.9276 49.5126 14.9323 49.6925 14.9418C49.8772 14.9512 50.0216 14.9631 50.1258 14.9773V17.0085C50.0406 16.9848 49.889 16.9588 49.6712 16.9304C49.4534 16.8973 49.2356 16.8807 49.0178 16.8807C48.5159 16.8807 48.0685 16.9872 47.6755 17.2003C47.2872 17.4086 46.9795 17.6998 46.7522 18.0739C46.5249 18.4432 46.4113 18.8646 46.4113 19.3381V26H44.2877ZM53.5166 22.2997L53.5024 19.7074H53.8717L58.2183 15.0909H60.7609L55.8036 20.3466H55.4697L53.5166 22.2997ZM51.5635 26V11.4545H53.6871V26H51.5635ZM58.4527 26L54.5464 20.8153L56.0095 19.331L61.0592 26H58.4527ZM75.293 15.2756C75.2172 14.6032 74.9047 14.0824 74.3555 13.7131C73.8062 13.339 73.1149 13.152 72.2816 13.152C71.685 13.152 71.1689 13.2467 70.7333 13.4361C70.2977 13.6207 69.9592 13.8764 69.7177 14.2031C69.4809 14.5251 69.3626 14.892 69.3626 15.304C69.3626 15.6496 69.4431 15.9479 69.604 16.1989C69.7698 16.4498 69.9852 16.6605 70.2504 16.831C70.5202 16.9967 70.8091 17.1364 71.1168 17.25C71.4246 17.3589 71.7205 17.4489 72.0046 17.5199L73.4251 17.8892C73.8891 18.0028 74.3649 18.1567 74.8526 18.3509C75.3403 18.545 75.7925 18.8007 76.2092 19.1179C76.6258 19.4351 76.962 19.8281 77.2177 20.2969C77.4781 20.7656 77.6083 21.3267 77.6083 21.9801C77.6083 22.804 77.3952 23.5355 76.9691 24.1747C76.5477 24.8139 75.9345 25.3182 75.1296 25.6875C74.3294 26.0568 73.3612 26.2415 72.2248 26.2415C71.1358 26.2415 70.1935 26.0687 69.3981 25.723C68.6026 25.3774 67.98 24.8873 67.5302 24.2528C67.0804 23.6136 66.8318 22.8561 66.7844 21.9801H68.9862C69.0288 22.5057 69.1992 22.9437 69.4975 23.294C69.8005 23.6397 70.1864 23.8977 70.6552 24.0682C71.1287 24.2339 71.6471 24.3168 72.2106 24.3168C72.8308 24.3168 73.3825 24.2197 73.8654 24.0256C74.3531 23.8267 74.7366 23.5521 75.016 23.2017C75.2953 22.8466 75.435 22.4323 75.435 21.9588C75.435 21.5279 75.3119 21.1752 75.0657 20.9006C74.8242 20.6259 74.4951 20.3987 74.0785 20.2188C73.6665 20.0388 73.2002 19.8802 72.6793 19.7429L70.9606 19.2741C69.7958 18.9569 68.8725 18.4905 68.1907 17.875C67.5136 17.2595 67.1751 16.4451 67.1751 15.4318C67.1751 14.5937 67.4023 13.8622 67.8569 13.2372C68.3114 12.6122 68.927 12.1269 69.7035 11.7812C70.48 11.4309 71.3559 11.2557 72.3313 11.2557C73.3162 11.2557 74.185 11.4285 74.9379 11.7741C75.6954 12.1198 76.292 12.5956 76.7276 13.2017C77.1632 13.803 77.3905 14.4943 77.4094 15.2756H75.293ZM84.3621 26.2202C83.2873 26.2202 82.3616 25.9905 81.5851 25.5312C80.8133 25.0672 80.2167 24.4162 79.7953 23.5781C79.3786 22.7353 79.1703 21.7481 79.1703 20.6165C79.1703 19.4991 79.3786 18.5142 79.7953 17.6619C80.2167 16.8097 80.8038 16.1444 81.5567 15.6662C82.3143 15.188 83.1997 14.9489 84.2129 14.9489C84.8285 14.9489 85.425 15.0507 86.0027 15.2543C86.5803 15.4579 87.0988 15.7775 87.5581 16.2131C88.0174 16.6487 88.3796 17.2145 88.6447 17.9105C88.9099 18.6018 89.0425 19.4422 89.0425 20.4318V21.1847H80.3706V19.5938H86.9615C86.9615 19.035 86.8479 18.5402 86.6206 18.1094C86.3933 17.6738 86.0737 17.3305 85.6618 17.0795C85.2546 16.8286 84.7764 16.7031 84.2271 16.7031C83.6305 16.7031 83.1097 16.8499 82.6646 17.1435C82.2243 17.4323 81.8834 17.8111 81.6419 18.2798C81.4052 18.7438 81.2868 19.2481 81.2868 19.7926V21.0355C81.2868 21.7647 81.4146 22.3849 81.6703 22.8963C81.9307 23.4077 82.2929 23.7983 82.757 24.0682C83.221 24.3333 83.7631 24.4659 84.3834 24.4659C84.7858 24.4659 85.1528 24.4091 85.4842 24.2955C85.8157 24.1771 86.1021 24.0019 86.3436 23.7699C86.5851 23.5379 86.7697 23.2514 86.8976 22.9105L88.9075 23.2727C88.7465 23.8646 88.4577 24.383 88.041 24.8281C87.6291 25.2685 87.1107 25.6117 86.4857 25.858C85.8654 26.0994 85.1575 26.2202 84.3621 26.2202ZM93.1222 11.4545V26H90.9986V11.4545H93.1222ZM97.7027 11.4545V26H95.5791V11.4545H97.7027ZM103.334 26.2415C102.643 26.2415 102.018 26.1136 101.459 25.858C100.901 25.5975 100.458 25.2211 100.131 24.7287C99.8092 24.2363 99.6482 23.6326 99.6482 22.9176C99.6482 22.3021 99.7666 21.7955 100.003 21.3977C100.24 21 100.56 20.6851 100.962 20.4531C101.365 20.2211 101.814 20.0459 102.312 19.9276C102.809 19.8092 103.315 19.7192 103.831 19.6577C104.485 19.5819 105.015 19.5204 105.422 19.473C105.83 19.4209 106.125 19.3381 106.31 19.2244C106.495 19.1108 106.587 18.9261 106.587 18.6705V18.6207C106.587 18.0005 106.412 17.5199 106.062 17.179C105.716 16.8381 105.2 16.6676 104.513 16.6676C103.798 16.6676 103.235 16.8262 102.823 17.1435C102.416 17.456 102.134 17.804 101.978 18.1875L99.982 17.733C100.219 17.0701 100.564 16.535 101.019 16.1278C101.478 15.7159 102.006 15.4176 102.603 15.233C103.199 15.0436 103.827 14.9489 104.485 14.9489C104.92 14.9489 105.382 15.0009 105.87 15.1051C106.362 15.2045 106.822 15.3892 107.248 15.6591C107.679 15.929 108.031 16.3149 108.306 16.8168C108.581 17.3139 108.718 17.9602 108.718 18.7557V26H106.644V24.5085H106.559C106.421 24.7831 106.215 25.053 105.941 25.3182C105.666 25.5833 105.313 25.8035 104.883 25.9787C104.452 26.1539 103.936 26.2415 103.334 26.2415ZM103.796 24.5369C104.383 24.5369 104.885 24.4209 105.302 24.1889C105.723 23.9569 106.043 23.6539 106.26 23.2798C106.483 22.901 106.594 22.4962 106.594 22.0653V20.6591C106.518 20.7348 106.372 20.8059 106.154 20.8722C105.941 20.9337 105.697 20.9882 105.422 21.0355C105.148 21.0781 104.88 21.1184 104.62 21.1562C104.359 21.1894 104.142 21.2178 103.966 21.2415C103.554 21.2936 103.178 21.3812 102.837 21.5043C102.501 21.6274 102.231 21.8049 102.027 22.0369C101.829 22.2642 101.729 22.5672 101.729 22.946C101.729 23.4716 101.923 23.8693 102.312 24.1392C102.7 24.4044 103.195 24.5369 103.796 24.5369ZM111.146 26V15.0909H113.199V16.8239H113.312C113.511 16.2367 113.862 15.7751 114.364 15.4389C114.87 15.098 115.443 14.9276 116.082 14.9276C116.215 14.9276 116.371 14.9323 116.551 14.9418C116.736 14.9512 116.88 14.9631 116.984 14.9773V17.0085C116.899 16.9848 116.748 16.9588 116.53 16.9304C116.312 16.8973 116.094 16.8807 115.876 16.8807C115.375 16.8807 114.927 16.9872 114.534 17.2003C114.146 17.4086 113.838 17.6998 113.611 18.0739C113.384 18.4432 113.27 18.8646 113.27 19.3381V26H111.146Z" fill="#121313"/>
<defs>
<linearGradient id="paint0_linear_2325_1379" x1="122.207" y1="2.42404e-07" x2="108.132" y2="64.8057" gradientUnits="userSpaceOnUse">
<stop stop-color="#0BFFB6"/>
<stop offset="0.581731" stop-color="#00DBDC"/>
</linearGradient>
</defs>
</svg>
