<svg width="83" height="26" viewBox="0 0 83 26" fill="none" xmlns="http://www.w3.org/2000/svg">
<path d="M2 8C2 4.22876 2 2.34315 3.17157 1.17157C4.34315 0 6.22876 0 10 0H75C78.7712 0 80.6569 0 81.8284 1.17157C83 2.34315 83 4.22876 83 8V16C83 19.7712 83 21.6569 81.8284 22.8284C80.6569 24 78.7712 24 75 24H6.23598L0 26L2 20.6667V8Z" fill="url(#paint0_linear_2325_1930)"/>
<path d="M10.9588 7.27273H12.5568L15.3352 14.0568H15.4375L18.2159 7.27273H19.8139V16H18.5611V9.68466H18.4801L15.9062 15.9872H14.8665L12.2926 9.6804H12.2116V16H10.9588V7.27273ZM23.5309 16.1449C23.1161 16.1449 22.7411 16.0682 22.4059 15.9148C22.0707 15.7585 21.805 15.5327 21.609 15.2372C21.4158 14.9418 21.3192 14.5795 21.3192 14.1506C21.3192 13.7812 21.3903 13.4773 21.5323 13.2386C21.6744 13 21.8661 12.8111 22.1076 12.6719C22.3491 12.5327 22.619 12.4276 22.9173 12.3565C23.2156 12.2855 23.5195 12.2315 23.8292 12.1946C24.2212 12.1491 24.5394 12.1122 24.7837 12.0838C25.0281 12.0526 25.2056 12.0028 25.3164 11.9347C25.4272 11.8665 25.4826 11.7557 25.4826 11.6023V11.5724C25.4826 11.2003 25.3775 10.9119 25.1673 10.7074C24.9599 10.5028 24.6502 10.4006 24.2383 10.4006C23.8093 10.4006 23.4712 10.4957 23.2241 10.6861C22.9798 10.8736 22.8107 11.0824 22.717 11.3125L21.5195 11.0398C21.6616 10.642 21.869 10.321 22.1417 10.0767C22.4173 9.82955 22.734 9.65057 23.092 9.53977C23.4499 9.42614 23.8263 9.36932 24.2212 9.36932C24.4826 9.36932 24.7596 9.40057 25.0522 9.46307C25.3477 9.52273 25.6232 9.63352 25.8789 9.79545C26.1374 9.95739 26.3491 10.1889 26.5138 10.4901C26.6786 10.7884 26.761 11.1761 26.761 11.6534V16H25.5167V15.1051H25.4656C25.3832 15.2699 25.2596 15.4318 25.0948 15.5909C24.93 15.75 24.7184 15.8821 24.4599 15.9872C24.2013 16.0923 23.8917 16.1449 23.5309 16.1449ZM23.8079 15.1222C24.1602 15.1222 24.4613 15.0526 24.7113 14.9134C24.9641 14.7741 25.1559 14.5923 25.2866 14.3679C25.4201 14.1406 25.4869 13.8977 25.4869 13.6392V12.7955C25.4414 12.8409 25.3533 12.8835 25.2227 12.9233C25.0948 12.9602 24.9485 12.9929 24.7837 13.0213C24.619 13.0469 24.4585 13.071 24.3022 13.0938C24.146 13.1136 24.0153 13.1307 23.9102 13.1449C23.663 13.1761 23.4371 13.2287 23.2326 13.3026C23.0309 13.3764 22.869 13.483 22.7468 13.6222C22.6275 13.7585 22.5678 13.9403 22.5678 14.1676C22.5678 14.483 22.6843 14.7216 22.9173 14.8835C23.1502 15.0426 23.4471 15.1222 23.8079 15.1222ZM28.4581 16V9.45455H29.6896V10.4943H29.7578C29.8771 10.142 30.0874 9.86506 30.3885 9.66335C30.6925 9.45881 31.0362 9.35653 31.4197 9.35653C31.4993 9.35653 31.593 9.35937 31.701 9.36506C31.8118 9.37074 31.8984 9.37784 31.9609 9.38636V10.6051C31.9098 10.5909 31.8189 10.5753 31.6882 10.5582C31.5575 10.5384 31.4268 10.5284 31.2962 10.5284C30.995 10.5284 30.7266 10.5923 30.4908 10.7202C30.2578 10.8452 30.0732 11.0199 29.9368 11.2443C29.8004 11.4659 29.7322 11.7187 29.7322 12.0028V16H28.4581ZM34.2354 13.7798L34.2269 12.2244H34.4485L37.0565 9.45455H38.582L35.6076 12.608H35.4073L34.2354 13.7798ZM33.0636 16V7.27273H34.3377V16H33.0636ZM37.1971 16L34.8533 12.8892L35.7312 11.9986L38.761 16H37.1971ZM47.7812 9.56534C47.7358 9.16193 47.5483 8.84943 47.2188 8.62784C46.8892 8.40341 46.4744 8.29119 45.9744 8.29119C45.6165 8.29119 45.3068 8.34801 45.0455 8.46165C44.7841 8.57244 44.581 8.72585 44.4361 8.92188C44.294 9.11506 44.223 9.33523 44.223 9.58239C44.223 9.78977 44.2713 9.96875 44.3679 10.1193C44.4673 10.2699 44.5966 10.3963 44.7557 10.4986C44.9176 10.598 45.0909 10.6818 45.2756 10.75C45.4602 10.8153 45.6378 10.8693 45.8082 10.9119L46.6605 11.1335C46.9389 11.2017 47.2244 11.294 47.517 11.4105C47.8097 11.527 48.081 11.6804 48.331 11.8707C48.581 12.0611 48.7827 12.2969 48.9361 12.5781C49.0923 12.8594 49.1705 13.196 49.1705 13.5881C49.1705 14.0824 49.0426 14.5213 48.7869 14.9048C48.5341 15.2884 48.1662 15.5909 47.6832 15.8125C47.2031 16.0341 46.6222 16.1449 45.9403 16.1449C45.2869 16.1449 44.7216 16.0412 44.2443 15.8338C43.767 15.6264 43.3935 15.3324 43.1236 14.9517C42.8537 14.5682 42.7045 14.1136 42.6761 13.5881H43.9972C44.0227 13.9034 44.125 14.1662 44.304 14.3764C44.4858 14.5838 44.7173 14.7386 44.9986 14.8409C45.2827 14.9403 45.5938 14.9901 45.9318 14.9901C46.304 14.9901 46.6349 14.9318 46.9247 14.8153C47.2173 14.696 47.4474 14.5312 47.6151 14.321C47.7827 14.108 47.8665 13.8594 47.8665 13.5753C47.8665 13.3168 47.7926 13.1051 47.6449 12.9403C47.5 12.7756 47.3026 12.6392 47.0526 12.5312C46.8054 12.4233 46.5256 12.3281 46.2131 12.2457L45.1818 11.9645C44.483 11.7741 43.929 11.4943 43.5199 11.125C43.1136 10.7557 42.9105 10.267 42.9105 9.65909C42.9105 9.15625 43.0469 8.71733 43.3196 8.34233C43.5923 7.96733 43.9616 7.67614 44.4276 7.46875C44.8935 7.25852 45.419 7.15341 46.0043 7.15341C46.5952 7.15341 47.1165 7.2571 47.5682 7.46449C48.0227 7.67188 48.3807 7.95739 48.642 8.32102C48.9034 8.68182 49.0398 9.09659 49.0511 9.56534H47.7812ZM53.4627 16.1321C52.8178 16.1321 52.2624 15.9943 51.7965 15.7188C51.3335 15.4403 50.9755 15.0497 50.7227 14.5469C50.4727 14.0412 50.3477 13.4489 50.3477 12.7699C50.3477 12.0994 50.4727 11.5085 50.7227 10.9972C50.9755 10.4858 51.3278 10.0866 51.7795 9.79972C52.234 9.51278 52.7653 9.36932 53.3732 9.36932C53.7425 9.36932 54.1005 9.4304 54.4471 9.55256C54.7937 9.67472 55.1048 9.86648 55.3803 10.1278C55.6559 10.3892 55.8732 10.7287 56.0323 11.1463C56.1914 11.5611 56.271 12.0653 56.271 12.6591V13.1108H51.0678V12.1562H55.0224C55.0224 11.821 54.9542 11.5241 54.8178 11.2656C54.6815 11.0043 54.4897 10.7983 54.2425 10.6477C53.9982 10.4972 53.7113 10.4219 53.3817 10.4219C53.0238 10.4219 52.7113 10.5099 52.4442 10.6861C52.18 10.8594 51.9755 11.0866 51.8306 11.3679C51.6886 11.6463 51.6175 11.9489 51.6175 12.2756V13.0213C51.6175 13.4588 51.6942 13.831 51.8477 14.1378C52.0039 14.4446 52.2212 14.679 52.4996 14.8409C52.7781 15 53.1033 15.0795 53.4755 15.0795C53.717 15.0795 53.9371 15.0455 54.136 14.9773C54.3349 14.9062 54.5067 14.8011 54.6516 14.6619C54.7965 14.5227 54.9073 14.3509 54.984 14.1463L56.19 14.3636C56.0934 14.7187 55.9201 15.0298 55.6701 15.2969C55.4229 15.5611 55.1119 15.767 54.7369 15.9148C54.3647 16.0597 53.94 16.1321 53.4627 16.1321ZM58.9588 7.27273V16H57.6847V7.27273H58.9588ZM61.9471 7.27273V16H60.6729V7.27273H61.9471ZM65.5661 16.1449C65.1513 16.1449 64.7763 16.0682 64.4411 15.9148C64.1058 15.7585 63.8402 15.5327 63.6442 15.2372C63.451 14.9418 63.3544 14.5795 63.3544 14.1506C63.3544 13.7812 63.4254 13.4773 63.5675 13.2386C63.7095 13 63.9013 12.8111 64.1428 12.6719C64.3842 12.5327 64.6541 12.4276 64.9524 12.3565C65.2507 12.2855 65.5547 12.2315 65.8643 12.1946C66.2564 12.1491 66.5746 12.1122 66.8189 12.0838C67.0632 12.0526 67.2408 12.0028 67.3516 11.9347C67.4624 11.8665 67.5178 11.7557 67.5178 11.6023V11.5724C67.5178 11.2003 67.4126 10.9119 67.2024 10.7074C66.995 10.5028 66.6854 10.4006 66.2734 10.4006C65.8445 10.4006 65.5064 10.4957 65.2592 10.6861C65.0149 10.8736 64.8459 11.0824 64.7521 11.3125L63.5547 11.0398C63.6967 10.642 63.9041 10.321 64.1768 10.0767C64.4524 9.82955 64.7692 9.65057 65.1271 9.53977C65.4851 9.42614 65.8615 9.36932 66.2564 9.36932C66.5178 9.36932 66.7947 9.40057 67.0874 9.46307C67.3828 9.52273 67.6584 9.63352 67.9141 9.79545C68.1726 9.95739 68.3842 10.1889 68.549 10.4901C68.7138 10.7884 68.7962 11.1761 68.7962 11.6534V16H67.5518V15.1051H67.5007C67.4183 15.2699 67.2947 15.4318 67.13 15.5909C66.9652 15.75 66.7536 15.8821 66.495 15.9872C66.2365 16.0923 65.9268 16.1449 65.5661 16.1449ZM65.843 15.1222C66.1953 15.1222 66.4964 15.0526 66.7464 14.9134C66.9993 14.7741 67.1911 14.5923 67.3217 14.3679C67.4553 14.1406 67.522 13.8977 67.522 13.6392V12.7955C67.4766 12.8409 67.3885 12.8835 67.2578 12.9233C67.13 12.9602 66.9837 12.9929 66.8189 13.0213C66.6541 13.0469 66.4936 13.071 66.3374 13.0938C66.1811 13.1136 66.0504 13.1307 65.9453 13.1449C65.6982 13.1761 65.4723 13.2287 65.2678 13.3026C65.0661 13.3764 64.9041 13.483 64.782 13.6222C64.6626 13.7585 64.603 13.9403 64.603 14.1676C64.603 14.483 64.7195 14.7216 64.9524 14.8835C65.1854 15.0426 65.4822 15.1222 65.843 15.1222ZM70.4933 16V9.45455H71.7248V10.4943H71.793C71.9123 10.142 72.1225 9.86506 72.4237 9.66335C72.7276 9.45881 73.0714 9.35653 73.4549 9.35653C73.5344 9.35653 73.6282 9.35937 73.7362 9.36506C73.8469 9.37074 73.9336 9.37784 73.9961 9.38636V10.6051C73.945 10.5909 73.854 10.5753 73.7234 10.5582C73.5927 10.5384 73.462 10.5284 73.3313 10.5284C73.0302 10.5284 72.7617 10.5923 72.5259 10.7202C72.293 10.8452 72.1083 11.0199 71.9719 11.2443C71.8356 11.4659 71.7674 11.7187 71.7674 12.0028V16H70.4933Z" fill="#121313"/>
<defs>
<linearGradient id="paint0_linear_2325_1930" x1="9.17294" y1="1.24343e-06" x2="17.0219" y2="43.8361" gradientUnits="userSpaceOnUse">
<stop stop-color="#0BFFB6"/>
<stop offset="0.581731" stop-color="#00DBDC"/>
</linearGradient>
</defs>
</svg>
