<svg width="85" height="84" viewBox="0 0 85 84" fill="none" xmlns="http://www.w3.org/2000/svg">
<path fill-rule="evenodd" clip-rule="evenodd" d="M42.5 7C23.17 7 7.5 22.67 7.5 42C7.5 61.33 23.17 77 42.5 77C61.83 77 77.5 61.33 77.5 42C77.5 22.67 61.83 7 42.5 7ZM58.7407 28.8113C60.2256 30.0488 60.4263 32.2558 59.1888 33.7407L41.6888 54.7407C41.0778 55.4739 40.1939 55.9258 39.2418 55.9917C38.2896 56.0576 37.3519 55.7319 36.6457 55.0899L26.1457 45.5444C24.7154 44.2441 24.61 42.0306 25.9102 40.6003C27.2105 39.17 29.4241 39.0646 30.8544 40.3648L38.6506 47.4523L53.8113 29.2594C55.0487 27.7745 57.2557 27.5738 58.7407 28.8113Z" fill="#0BFFB6"/>
</svg>
