<svg width="152" height="39" viewBox="0 0 152 39" fill="none" xmlns="http://www.w3.org/2000/svg">
<path d="M149.53 27C149.53 32.6569 149.53 35.4853 147.772 37.2426C146.015 39 143.187 39 137.53 39H12.1314C6.47455 39 3.64612 39 1.88876 37.2426C0.131409 35.4853 0.131409 32.6569 0.131409 27V15C0.131409 9.34315 0.131409 6.51472 1.88876 4.75736C3.64612 3 6.47455 3 12.1314 3H144.516L151.535 0L149.53 8V27Z" fill="url(#paint0_linear_2325_1408)"/>
<path d="M15.766 29V14.4545H20.9506C22.0823 14.4545 23.0198 14.6605 23.7631 15.0724C24.5065 15.4844 25.0629 16.0478 25.4322 16.7628C25.8015 17.473 25.9862 18.2732 25.9862 19.1634C25.9862 20.0582 25.7991 20.8632 25.4251 21.5781C25.0558 22.2884 24.497 22.8518 23.7489 23.2685C23.0056 23.6804 22.0704 23.8864 20.9435 23.8864H17.3782V22.0256H20.7447C21.4596 22.0256 22.0397 21.9025 22.4847 21.6562C22.9298 21.4053 23.2565 21.0644 23.4648 20.6335C23.6732 20.2027 23.7773 19.7126 23.7773 19.1634C23.7773 18.6141 23.6732 18.1264 23.4648 17.7003C23.2565 17.2741 22.9274 16.9403 22.4776 16.6989C22.0326 16.4574 21.4454 16.3366 20.7163 16.3366H17.9606V29H15.766ZM27.9885 29V18.0909H30.0411V19.8239H30.1547C30.3536 19.2367 30.7039 18.7751 31.2058 18.4389C31.7125 18.098 32.2854 17.9276 32.9246 17.9276C33.0571 17.9276 33.2134 17.9323 33.3933 17.9418C33.578 17.9512 33.7224 17.9631 33.8266 17.9773V20.0085C33.7413 19.9848 33.5898 19.9588 33.372 19.9304C33.1542 19.8973 32.9364 19.8807 32.7186 19.8807C32.2167 19.8807 31.7693 19.9872 31.3763 20.2003C30.988 20.4086 30.6803 20.6998 30.453 21.0739C30.2257 21.4432 30.1121 21.8646 30.1121 22.3381V29H27.9885ZM39.5754 29.2202C38.5005 29.2202 37.5749 28.9905 36.7984 28.5312C36.0266 28.0672 35.43 27.4162 35.0086 26.5781C34.5919 25.7353 34.3836 24.7481 34.3836 23.6165C34.3836 22.4991 34.5919 21.5142 35.0086 20.6619C35.43 19.8097 36.0171 19.1444 36.77 18.6662C37.5275 18.188 38.413 17.9489 39.4262 17.9489C40.0417 17.9489 40.6383 18.0507 41.216 18.2543C41.7936 18.4579 42.3121 18.7775 42.7714 19.2131C43.2307 19.6487 43.5929 20.2145 43.858 20.9105C44.1232 21.6018 44.2558 22.4422 44.2558 23.4318V24.1847H35.5839V22.5938H42.1748C42.1748 22.035 42.0612 21.5402 41.8339 21.1094C41.6066 20.6738 41.287 20.3305 40.8751 20.0795C40.4679 19.8286 39.9897 19.7031 39.4404 19.7031C38.8438 19.7031 38.323 19.8499 37.8779 20.1435C37.4376 20.4323 37.0967 20.8111 36.8552 21.2798C36.6184 21.7438 36.5001 22.2481 36.5001 22.7926V24.0355C36.5001 24.7647 36.6279 25.3849 36.8836 25.8963C37.144 26.4077 37.5062 26.7983 37.9702 27.0682C38.4343 27.3333 38.9764 27.4659 39.5967 27.4659C39.9991 27.4659 40.3661 27.4091 40.6975 27.2955C41.029 27.1771 41.3154 27.0019 41.5569 26.7699C41.7984 26.5379 41.983 26.2514 42.1109 25.9105L44.1208 26.2727C43.9598 26.8646 43.671 27.383 43.2543 27.8281C42.8424 28.2685 42.3239 28.6117 41.6989 28.858C41.0787 29.0994 40.3708 29.2202 39.5754 29.2202ZM46.2119 29V18.0909H48.3355V29H46.2119ZM47.2844 16.4077C46.9151 16.4077 46.5978 16.2846 46.3327 16.0384C46.0723 15.7874 45.942 15.4891 45.942 15.1435C45.942 14.7931 46.0723 14.4948 46.3327 14.2486C46.5978 13.9976 46.9151 13.8722 47.2844 13.8722C47.6537 13.8722 47.9686 13.9976 48.229 14.2486C48.4941 14.4948 48.6267 14.7931 48.6267 15.1435C48.6267 15.4891 48.4941 15.7874 48.229 16.0384C47.9686 16.2846 47.6537 16.4077 47.2844 16.4077ZM55.8847 18.0909V19.7955H49.9259V18.0909H55.8847ZM51.5239 15.4773H53.6475V25.7969C53.6475 26.2088 53.7091 26.5189 53.8322 26.7273C53.9553 26.9309 54.1139 27.0705 54.308 27.1463C54.5069 27.2173 54.7223 27.2528 54.9543 27.2528C55.1248 27.2528 55.2739 27.241 55.4018 27.2173C55.5296 27.1937 55.629 27.1747 55.7001 27.1605L56.0836 28.9148C55.9605 28.9621 55.7853 29.0095 55.558 29.0568C55.3308 29.1089 55.0467 29.1373 54.7058 29.142C54.147 29.1515 53.6262 29.0521 53.1433 28.8438C52.6603 28.6354 52.2697 28.3134 51.9714 27.8778C51.6731 27.4422 51.5239 26.8954 51.5239 26.2372V15.4773ZM59.1761 33.0909C58.8589 33.0909 58.5701 33.0649 58.3097 33.0128C58.0492 32.9654 57.8551 32.9134 57.7273 32.8565L58.2386 31.1165C58.6269 31.2206 58.9725 31.2656 59.2756 31.2514C59.5786 31.2372 59.8461 31.1236 60.0781 30.9105C60.3149 30.6974 60.5232 30.3494 60.7031 29.8665L60.9659 29.142L56.9744 18.0909H59.2472L62.0099 26.5568H62.1236L64.8864 18.0909H67.1662L62.6705 30.456C62.4621 31.0241 62.197 31.5047 61.875 31.8977C61.553 32.2955 61.1695 32.5938 60.7244 32.7926C60.2794 32.9915 59.7633 33.0909 59.1761 33.0909ZM83.6691 19.0497C83.5318 18.6188 83.3471 18.233 83.1151 17.892C82.8879 17.5464 82.6156 17.2528 82.2984 17.0114C81.9811 16.7652 81.6189 16.5781 81.2117 16.4503C80.8093 16.3224 80.3665 16.2585 79.8836 16.2585C79.0645 16.2585 78.3258 16.4692 77.6677 16.8906C77.0095 17.312 76.4887 17.9299 76.1052 18.7443C75.7264 19.554 75.537 20.5459 75.537 21.7202C75.537 22.8991 75.7288 23.8958 76.1123 24.7102C76.4958 25.5246 77.0214 26.1425 77.689 26.5639C78.3566 26.9853 79.1165 27.196 79.9688 27.196C80.7595 27.196 81.4485 27.035 82.0356 26.7131C82.6274 26.3911 83.0844 25.9366 83.4063 25.3494C83.733 24.7576 83.8964 24.0616 83.8964 23.2614L84.4646 23.3679H80.3026V21.5568H86.02V23.2116C86.02 24.4332 85.7595 25.4938 85.2387 26.3935C84.7226 27.2884 84.0076 27.9796 83.0938 28.4673C82.1847 28.955 81.1431 29.1989 79.9688 29.1989C78.6525 29.1989 77.4972 28.8958 76.5029 28.2898C75.5133 27.6837 74.7415 26.8243 74.1876 25.7116C73.6336 24.5942 73.3566 23.2685 73.3566 21.7344C73.3566 20.5743 73.5176 19.5327 73.8396 18.6094C74.1615 17.6861 74.6137 16.9025 75.1961 16.2585C75.7832 15.6098 76.4721 15.1151 77.2629 14.7741C78.0583 14.4285 78.9272 14.2557 79.8694 14.2557C80.6554 14.2557 81.3869 14.3717 82.064 14.6037C82.7458 14.8357 83.3519 15.1648 83.8822 15.5909C84.4172 16.017 84.8599 16.5237 85.2103 17.1108C85.5607 17.6932 85.7974 18.3395 85.9205 19.0497H83.6691ZM92.9224 29V27.5369L100.572 16.3438H92.8585V14.4545H103.256V15.9176L95.607 27.1108H103.32V29H92.9224ZM105.502 29V18.0909H107.625V29H105.502ZM106.574 16.4077C106.205 16.4077 105.888 16.2846 105.623 16.0384C105.362 15.7874 105.232 15.4891 105.232 15.1435C105.232 14.7931 105.362 14.4948 105.623 14.2486C105.888 13.9976 106.205 13.8722 106.574 13.8722C106.944 13.8722 107.258 13.9976 107.519 14.2486C107.784 14.4948 107.917 14.7931 107.917 15.1435C107.917 15.4891 107.784 15.7874 107.519 16.0384C107.258 16.2846 106.944 16.4077 106.574 16.4077ZM112.206 22.5227V29H110.082V18.0909H112.121V19.8665H112.256C112.506 19.2888 112.899 18.8248 113.435 18.4744C113.974 18.1241 114.654 17.9489 115.473 17.9489C116.216 17.9489 116.867 18.1051 117.426 18.4176C117.985 18.7254 118.418 19.1847 118.726 19.7955C119.033 20.4062 119.187 21.1615 119.187 22.0611V29H117.064V22.3168C117.064 21.526 116.858 20.9081 116.446 20.4631C116.034 20.0133 115.468 19.7884 114.748 19.7884C114.256 19.7884 113.818 19.8949 113.435 20.108C113.056 20.321 112.755 20.6335 112.533 21.0455C112.315 21.4527 112.206 21.9451 112.206 22.5227ZM126.728 18.0909V19.7955H120.769V18.0909H126.728ZM122.367 15.4773H124.49V25.7969C124.49 26.2088 124.552 26.5189 124.675 26.7273C124.798 26.9309 124.957 27.0705 125.151 27.1463C125.35 27.2173 125.565 27.2528 125.797 27.2528C125.968 27.2528 126.117 27.241 126.245 27.2173C126.373 27.1937 126.472 27.1747 126.543 27.1605L126.927 28.9148C126.803 28.9621 126.628 29.0095 126.401 29.0568C126.174 29.1089 125.89 29.1373 125.549 29.142C124.99 29.1515 124.469 29.0521 123.986 28.8438C123.503 28.6354 123.113 28.3134 122.814 27.8778C122.516 27.4422 122.367 26.8954 122.367 26.2372V15.4773ZM131.851 29.2415C131.16 29.2415 130.535 29.1136 129.976 28.858C129.418 28.5975 128.975 28.2211 128.648 27.7287C128.326 27.2363 128.165 26.6326 128.165 25.9176C128.165 25.3021 128.284 24.7955 128.521 24.3977C128.757 24 129.077 23.6851 129.479 23.4531C129.882 23.2211 130.332 23.0459 130.829 22.9276C131.326 22.8092 131.833 22.7192 132.349 22.6577C133.002 22.5819 133.532 22.5204 133.94 22.473C134.347 22.4209 134.643 22.3381 134.827 22.2244C135.012 22.1108 135.104 21.9261 135.104 21.6705V21.6207C135.104 21.0005 134.929 20.5199 134.579 20.179C134.233 19.8381 133.717 19.6676 133.03 19.6676C132.316 19.6676 131.752 19.8262 131.34 20.1435C130.933 20.456 130.651 20.804 130.495 21.1875L128.499 20.733C128.736 20.0701 129.082 19.535 129.536 19.1278C129.995 18.7159 130.523 18.4176 131.12 18.233C131.717 18.0436 132.344 17.9489 133.002 17.9489C133.438 17.9489 133.899 18.0009 134.387 18.1051C134.879 18.2045 135.339 18.3892 135.765 18.6591C136.196 18.929 136.548 19.3149 136.823 19.8168C137.098 20.3139 137.235 20.9602 137.235 21.7557V29H135.161V27.5085H135.076C134.939 27.7831 134.733 28.053 134.458 28.3182C134.183 28.5833 133.831 28.8035 133.4 28.9787C132.969 29.1539 132.453 29.2415 131.851 29.2415ZM132.313 27.5369C132.9 27.5369 133.402 27.4209 133.819 27.1889C134.24 26.9569 134.56 26.6539 134.778 26.2798C135 25.901 135.111 25.4962 135.111 25.0653V23.6591C135.036 23.7348 134.889 23.8059 134.671 23.8722C134.458 23.9337 134.214 23.9882 133.94 24.0355C133.665 24.0781 133.397 24.1184 133.137 24.1562C132.877 24.1894 132.659 24.2178 132.484 24.2415C132.072 24.2936 131.695 24.3812 131.354 24.5043C131.018 24.6274 130.748 24.8049 130.545 25.0369C130.346 25.2642 130.246 25.5672 130.246 25.946C130.246 26.4716 130.441 26.8693 130.829 27.1392C131.217 27.4044 131.712 27.5369 132.313 27.5369Z" fill="#121313"/>
<defs>
<linearGradient id="paint0_linear_2325_1408" x1="140.957" y1="39" x2="126.623" y2="-25.6859" gradientUnits="userSpaceOnUse">
<stop stop-color="#0BFFB6"/>
<stop offset="0.581731" stop-color="#00DBDC"/>
</linearGradient>
</defs>
</svg>
