<svg width="96" height="26" viewBox="0 0 96 26" fill="none" xmlns="http://www.w3.org/2000/svg">
<path d="M2 8C2 4.22876 2 2.34315 3.17157 1.17157C4.34315 0 6.22876 0 10 0H88C91.7712 0 93.6569 0 94.8284 1.17157C96 2.34315 96 4.22876 96 8V16C96 19.7712 96 21.6569 94.8284 22.8284C93.6569 24 91.7712 24 88 24H6.23598L0 26L2 20.6667V8Z" fill="url(#paint0_linear_2493_1640)"/>
<path d="M10.959 16V7.27277H14.0698C14.7488 7.27277 15.3113 7.39635 15.7573 7.64351C16.2033 7.89067 16.5371 8.22874 16.7587 8.65771C16.9803 9.08385 17.0911 9.56397 17.0911 10.0981C17.0911 10.635 16.9789 11.1179 16.7544 11.5469C16.5328 11.9731 16.1976 12.3111 15.7488 12.5611C15.3027 12.8083 14.7417 12.9319 14.0655 12.9319H11.9263V11.8154H13.9462C14.3752 11.8154 14.7232 11.7415 14.9902 11.5938C15.2573 11.4432 15.4533 11.2387 15.5783 10.9802C15.7033 10.7216 15.7658 10.4276 15.7658 10.0981C15.7658 9.76851 15.7033 9.4759 15.5783 9.22021C15.4533 8.96453 15.2559 8.76425 14.986 8.61936C14.7189 8.47448 14.3667 8.40203 13.9292 8.40203H12.2757V16H10.959Z" fill="#121313"/>
<path d="M18.5325 16V9.45459H19.764V10.4944H19.8322C19.9515 10.1421 20.1618 9.8651 20.4629 9.6634C20.7669 9.45885 21.1106 9.35658 21.4941 9.35658C21.5737 9.35658 21.6674 9.35942 21.7754 9.3651C21.8862 9.37078 21.9728 9.37789 22.0353 9.38641V10.6052C21.9842 10.591 21.8933 10.5753 21.7626 10.5583C21.6319 10.5384 21.5012 10.5285 21.3706 10.5285C21.0694 10.5285 20.801 10.5924 20.5652 10.7202C20.3322 10.8452 20.1476 11.0199 20.0112 11.2444C19.8748 11.466 19.8066 11.7188 19.8066 12.0029V16H18.5325Z" fill="#121313"/>
<path d="M25.7246 16.1321C25.0797 16.1321 24.5243 15.9944 24.0584 15.7188C23.5953 15.4404 23.2374 15.0498 22.9846 14.5469C22.7346 14.0412 22.6096 13.4489 22.6096 12.7699C22.6096 12.0995 22.7346 11.5086 22.9846 10.9972C23.2374 10.4858 23.5897 10.0867 24.0414 9.79976C24.4959 9.51283 25.0272 9.36936 25.6351 9.36936C26.0044 9.36936 26.3624 9.43044 26.709 9.5526C27.0556 9.67476 27.3667 9.86652 27.6422 10.1279C27.9178 10.3892 28.1351 10.7287 28.2942 11.1464C28.4533 11.5611 28.5328 12.0654 28.5328 12.6591V13.1108H23.3297V12.1563H27.2843C27.2843 11.8211 27.2161 11.5242 27.0797 11.2657C26.9434 11.0043 26.7516 10.7983 26.5044 10.6478C26.2601 10.4972 25.9732 10.4219 25.6436 10.4219C25.2857 10.4219 24.9732 10.51 24.7061 10.6861C24.4419 10.8594 24.2374 11.0867 24.0925 11.3679C23.9505 11.6464 23.8794 11.9489 23.8794 12.2756V13.0214C23.8794 13.4589 23.9561 13.831 24.1096 14.1378C24.2658 14.4446 24.4831 14.679 24.7615 14.841C25.04 15 25.3652 15.0796 25.7374 15.0796C25.9789 15.0796 26.199 15.0455 26.3979 14.9773C26.5968 14.9063 26.7686 14.8012 26.9135 14.662C27.0584 14.5228 27.1692 14.3509 27.2459 14.1464L28.4519 14.3637C28.3553 14.7188 28.182 15.0299 27.932 15.2969C27.6848 15.5611 27.3738 15.7671 26.9988 15.9148C26.6266 16.0597 26.2019 16.1321 25.7246 16.1321Z" fill="#121313"/>
<path d="M29.9466 16V9.45459H31.2207V16H29.9466ZM30.59 8.44465C30.3684 8.44465 30.1781 8.37078 30.019 8.22306C29.8627 8.07249 29.7846 7.89351 29.7846 7.68612C29.7846 7.4759 29.8627 7.29692 30.019 7.14919C30.1781 6.99862 30.3684 6.92334 30.59 6.92334C30.8116 6.92334 31.0005 6.99862 31.1568 7.14919C31.3159 7.29692 31.3954 7.4759 31.3954 7.68612C31.3954 7.89351 31.3159 8.07249 31.1568 8.22306C31.0005 8.37078 30.8116 8.44465 30.59 8.44465Z" fill="#121313"/>
<path d="M35.9902 9.45459V10.4773H32.4149V9.45459H35.9902ZM33.3738 7.88641H34.6479V14.0782C34.6479 14.3253 34.6848 14.5114 34.7587 14.6364C34.8326 14.7586 34.9277 14.8424 35.0442 14.8878C35.1635 14.9304 35.2928 14.9517 35.432 14.9517C35.5343 14.9517 35.6238 14.9446 35.7005 14.9304C35.7772 14.9162 35.8368 14.9049 35.8794 14.8964L36.1096 15.9489C36.0357 15.9773 35.9306 16.0057 35.7942 16.0341C35.6578 16.0654 35.4874 16.0824 35.2828 16.0853C34.9476 16.091 34.6351 16.0313 34.3453 15.9063C34.0556 15.7813 33.8212 15.5881 33.6422 15.3267C33.4632 15.0654 33.3738 14.7373 33.3738 14.3424V7.88641Z" fill="#121313"/>
<path d="M38.2051 18.4546C38.0147 18.4546 37.8414 18.439 37.6852 18.4077C37.5289 18.3793 37.4125 18.3481 37.3358 18.314L37.6426 17.2699C37.8755 17.3324 38.0829 17.3594 38.2647 17.3509C38.4466 17.3424 38.6071 17.2742 38.7463 17.1464C38.8883 17.0185 39.0133 16.8097 39.1213 16.5199L39.2789 16.0853L36.8841 9.45459H38.2477L39.9054 14.5341H39.9735L41.6312 9.45459H42.9991L40.3017 16.8736C40.1767 17.2145 40.0176 17.5029 39.8244 17.7387C39.6312 17.9773 39.4011 18.1563 39.1341 18.2756C38.867 18.3949 38.5574 18.4546 38.2051 18.4546Z" fill="#121313"/>
<path d="M53.3809 10.0299C53.2985 9.77135 53.1877 9.53982 53.0485 9.33527C52.9121 9.12789 52.7488 8.95175 52.5584 8.80686C52.3681 8.65914 52.1507 8.54692 51.9064 8.47021C51.665 8.39351 51.3993 8.35516 51.1096 8.35516C50.6181 8.35516 50.1749 8.48158 49.78 8.73442C49.3851 8.98726 49.0726 9.358 48.8425 9.84664C48.6152 10.3324 48.5016 10.9276 48.5016 11.6321C48.5016 12.3395 48.6167 12.9375 48.8468 13.4262C49.0769 13.9148 49.3922 14.2856 49.7928 14.5384C50.1934 14.7912 50.6493 14.9177 51.1607 14.9177C51.6351 14.9177 52.0485 14.8211 52.4007 14.6279C52.7559 14.4347 53.03 14.162 53.2232 13.8097C53.4192 13.4546 53.5172 13.037 53.5172 12.5569L53.8581 12.6208H51.361V11.5341H54.7914V12.527C54.7914 13.26 54.6351 13.8964 54.3226 14.4361C54.013 14.9731 53.584 15.3878 53.0357 15.6804C52.4902 15.9731 51.8652 16.1194 51.1607 16.1194C50.3709 16.1194 49.6777 15.9375 49.0811 15.5739C48.4874 15.2103 48.0243 14.6946 47.6919 14.027C47.3596 13.3566 47.1934 12.5611 47.1934 11.6407C47.1934 10.9446 47.29 10.3196 47.4831 9.76567C47.6763 9.21169 47.9476 8.74152 48.2971 8.35516C48.6493 7.96595 49.0627 7.66908 49.5371 7.46453C50.0144 7.25715 50.5357 7.15345 51.101 7.15345C51.5726 7.15345 52.0115 7.22306 52.4178 7.36226C52.8269 7.50146 53.1905 7.69891 53.5087 7.95459C53.8297 8.21027 54.0953 8.51425 54.3056 8.86652C54.5158 9.21595 54.6578 9.60374 54.7317 10.0299H53.3809Z" fill="#121313"/>
<path d="M59.4128 16V15.1222L64.0023 8.40629H59.3745V7.27277H65.6131V8.15061L61.0236 14.8665H65.6515V16H59.4128Z" fill="#121313"/>
<path d="M67.2005 16V9.45459H68.4746V16H67.2005ZM67.8439 8.44465C67.6223 8.44465 67.432 8.37078 67.2729 8.22306C67.1167 8.07249 67.0385 7.89351 67.0385 7.68612C67.0385 7.4759 67.1167 7.29692 67.2729 7.14919C67.432 6.99862 67.6223 6.92334 67.8439 6.92334C68.0655 6.92334 68.2544 6.99862 68.4107 7.14919C68.5698 7.29692 68.6493 7.4759 68.6493 7.68612C68.6493 7.89351 68.5698 8.07249 68.4107 8.22306C68.2544 8.37078 68.0655 8.44465 67.8439 8.44465Z" fill="#121313"/>
<path d="M71.4629 12.1137V16H70.1887V9.45459H71.4118V10.5199H71.4927C71.6433 10.1733 71.8791 9.89493 72.2001 9.6847C72.524 9.47448 72.9316 9.36936 73.4231 9.36936C73.8691 9.36936 74.2598 9.46311 74.595 9.65061C74.9302 9.83527 75.1902 10.1108 75.3748 10.4773C75.5595 10.8438 75.6518 11.2969 75.6518 11.8367V16H74.3777V11.9901C74.3777 11.5157 74.2541 11.1449 74.0069 10.8779C73.7598 10.608 73.4203 10.4731 72.9885 10.4731C72.693 10.4731 72.4302 10.537 72.2001 10.6648C71.9728 10.7927 71.7924 10.9802 71.6589 11.2273C71.5282 11.4716 71.4629 11.7671 71.4629 12.1137Z" fill="#121313"/>
<path d="M80.416 9.45459V10.4773H76.8407V9.45459H80.416ZM77.7995 7.88641H79.0737V14.0782C79.0737 14.3253 79.1106 14.5114 79.1845 14.6364C79.2583 14.7586 79.3535 14.8424 79.47 14.8878C79.5893 14.9304 79.7186 14.9517 79.8578 14.9517C79.9601 14.9517 80.0495 14.9446 80.1262 14.9304C80.2029 14.9162 80.2626 14.9049 80.3052 14.8964L80.5353 15.9489C80.4615 15.9773 80.3564 16.0057 80.22 16.0341C80.0836 16.0654 79.9132 16.0824 79.7086 16.0853C79.3734 16.091 79.0609 16.0313 78.7711 15.9063C78.4814 15.7813 78.247 15.5881 78.068 15.3267C77.889 15.0654 77.7995 14.7373 77.7995 14.3424V7.88641Z" fill="#121313"/>
<path d="M83.7303 16.1449C83.3155 16.1449 82.9405 16.0682 82.6053 15.9148C82.2701 15.7586 82.0044 15.5327 81.8084 15.2373C81.6152 14.9418 81.5186 14.5796 81.5186 14.1506C81.5186 13.7813 81.5897 13.4773 81.7317 13.2387C81.8738 13 82.0655 12.8111 82.307 12.6719C82.5485 12.5327 82.8184 12.4276 83.1167 12.3566C83.4149 12.2856 83.7189 12.2316 84.0286 12.1946C84.4206 12.1492 84.7388 12.1123 84.9831 12.0839C85.2274 12.0526 85.405 12.0029 85.5158 11.9347C85.6266 11.8665 85.682 11.7557 85.682 11.6023V11.5725C85.682 11.2003 85.5769 10.912 85.3667 10.7074C85.1593 10.5029 84.8496 10.4006 84.4377 10.4006C84.0087 10.4006 83.6706 10.4958 83.4235 10.6861C83.1792 10.8736 83.0101 11.0824 82.9164 11.3125L81.7189 11.0398C81.861 10.6421 82.0684 10.3211 82.3411 10.0767C82.6167 9.82959 82.9334 9.65061 83.2914 9.53982C83.6493 9.42618 84.0257 9.36936 84.4206 9.36936C84.682 9.36936 84.959 9.40061 85.2516 9.46311C85.5471 9.52277 85.8226 9.63357 86.0783 9.7955C86.3368 9.95743 86.5485 10.189 86.7132 10.4901C86.878 10.7884 86.9604 11.1762 86.9604 11.6535V16H85.7161V15.1052H85.6649C85.5826 15.2699 85.459 15.4319 85.2942 15.591C85.1294 15.75 84.9178 15.8821 84.6593 15.9873C84.4007 16.0924 84.0911 16.1449 83.7303 16.1449ZM84.0073 15.1222C84.3596 15.1222 84.6607 15.0526 84.9107 14.9134C85.1635 14.7742 85.3553 14.5924 85.486 14.3679C85.6195 14.1407 85.6863 13.8978 85.6863 13.6392V12.7955C85.6408 12.841 85.5527 12.8836 85.4221 12.9233C85.2942 12.9603 85.1479 12.9929 84.9831 13.0214C84.8184 13.0469 84.6578 13.0711 84.5016 13.0938C84.3453 13.1137 84.2147 13.1307 84.1096 13.1449C83.8624 13.1762 83.6365 13.2287 83.432 13.3026C83.2303 13.3765 83.0684 13.483 82.9462 13.6222C82.8269 13.7586 82.7672 13.9404 82.7672 14.1677C82.7672 14.483 82.8837 14.7216 83.1167 14.8836C83.3496 15.0427 83.6465 15.1222 84.0073 15.1222Z" fill="#121313"/>
<defs>
<linearGradient id="paint0_linear_2493_1640" x1="9.17294" y1="1.39334e-06" x2="17.0219" y2="43.8361" gradientUnits="userSpaceOnUse">
<stop stop-color="#0BFFB6"/>
<stop offset="0.581731" stop-color="#00DBDC"/>
</linearGradient>
</defs>
</svg>
