<svg width="146" height="40" viewBox="0 0 146 40" fill="none" xmlns="http://www.w3.org/2000/svg">
<path d="M2 12C2 6.34315 2 3.51472 3.75736 1.75736C5.51472 0 8.34315 0 14 0H134C139.657 0 142.485 0 144.243 1.75736C146 3.51472 146 6.34315 146 12V24C146 29.6569 146 32.4853 144.243 34.2426C142.485 36 139.657 36 134 36H14.8262C14.0865 36 13.7166 36 13.3513 36.0089C9.18832 36.1103 5.09205 37.0773 1.32321 38.8483C0.992479 39.0038 0.661653 39.1692 0 39.5L0.405031 37.7786C1.20163 34.3931 1.59992 32.7003 1.79996 30.9768C2 29.2532 2 27.5142 2 24.0363V12Z" fill="url(#paint0_linear_2325_1363)"/>
<path d="M21.5312 14.2756C21.4555 13.6032 21.143 13.0824 20.5938 12.7131C20.0445 12.339 19.3532 12.152 18.5199 12.152C17.9233 12.152 17.4072 12.2467 16.9716 12.4361C16.536 12.6207 16.1974 12.8764 15.956 13.2031C15.7192 13.5251 15.6009 13.892 15.6009 14.304C15.6009 14.6496 15.6813 14.9479 15.8423 15.1989C16.008 15.4498 16.2235 15.6605 16.4886 15.831C16.7585 15.9967 17.0473 16.1364 17.3551 16.25C17.6629 16.3589 17.9588 16.4489 18.2429 16.5199L19.6634 16.8892C20.1274 17.0028 20.6032 17.1567 21.0909 17.3509C21.5786 17.545 22.0308 17.8007 22.4474 18.1179C22.8641 18.4351 23.2003 18.8281 23.456 19.2969C23.7164 19.7656 23.8466 20.3267 23.8466 20.9801C23.8466 21.804 23.6335 22.5355 23.2074 23.1747C22.786 23.8139 22.1728 24.3182 21.3679 24.6875C20.5677 25.0568 19.5994 25.2415 18.4631 25.2415C17.3741 25.2415 16.4318 25.0687 15.6364 24.723C14.8409 24.3774 14.2183 23.8873 13.7685 23.2528C13.3187 22.6136 13.0701 21.8561 13.0227 20.9801H15.2244C15.267 21.5057 15.4375 21.9437 15.7358 22.294C16.0388 22.6397 16.4247 22.8977 16.8935 23.0682C17.367 23.2339 17.8854 23.3168 18.4489 23.3168C19.0691 23.3168 19.6207 23.2197 20.1037 23.0256C20.5914 22.8267 20.9749 22.5521 21.2543 22.2017C21.5336 21.8466 21.6733 21.4323 21.6733 20.9588C21.6733 20.5279 21.5502 20.1752 21.304 19.9006C21.0625 19.6259 20.7334 19.3987 20.3168 19.2188C19.9048 19.0388 19.4384 18.8802 18.9176 18.7429L17.1989 18.2741C16.0341 17.9569 15.1108 17.4905 14.429 16.875C13.7519 16.2595 13.4134 15.4451 13.4134 14.4318C13.4134 13.5937 13.6406 12.8622 14.0952 12.2372C14.5497 11.6122 15.1652 11.1269 15.9418 10.7812C16.7183 10.4309 17.5942 10.2557 18.5696 10.2557C19.5545 10.2557 20.4233 10.4285 21.1761 10.7741C21.9337 11.1198 22.5303 11.5956 22.9659 12.2017C23.4015 12.803 23.6288 13.4943 23.6477 14.2756H21.5312ZM28.0222 18.5227V25H25.8987V10.4545H27.9938V15.8665H28.1288C28.3844 15.2794 28.7751 14.813 29.3006 14.4673C29.8262 14.1217 30.5128 13.9489 31.3603 13.9489C32.1084 13.9489 32.7618 14.1027 33.3205 14.4105C33.884 14.7183 34.3196 15.1776 34.6273 15.7884C34.9398 16.3944 35.0961 17.152 35.0961 18.0611V25H32.9725V18.3168C32.9725 17.5166 32.7665 16.8963 32.3546 16.456C31.9427 16.0109 31.3698 15.7884 30.6359 15.7884C30.134 15.7884 29.6842 15.8949 29.2864 16.108C28.8934 16.321 28.5833 16.6335 28.356 17.0455C28.1335 17.4527 28.0222 17.9451 28.0222 18.5227ZM44.4404 20.4759V14.0909H46.5711V25H44.483V23.1108H44.3694C44.1184 23.6932 43.716 24.1785 43.162 24.5668C42.6128 24.9503 41.9286 25.142 41.1094 25.142C40.4087 25.142 39.7884 24.9882 39.2487 24.6804C38.7136 24.3679 38.2922 23.9062 37.9844 23.2955C37.6814 22.6847 37.5299 21.9295 37.5299 21.0298V14.0909H39.6535V20.7741C39.6535 21.5175 39.8594 22.1094 40.2714 22.5497C40.6833 22.9901 41.2183 23.2102 41.8765 23.2102C42.2742 23.2102 42.6696 23.1108 43.0626 22.9119C43.4603 22.7131 43.7894 22.4124 44.0498 22.0099C44.3149 21.6075 44.4451 21.0961 44.4404 20.4759ZM49.1949 25V10.4545H51.3185V15.8594H51.4463C51.5694 15.6321 51.747 15.3693 51.979 15.071C52.211 14.7727 52.533 14.5123 52.9449 14.2898C53.3568 14.0625 53.9013 13.9489 54.5784 13.9489C55.4591 13.9489 56.2451 14.1714 56.9364 14.6165C57.6277 15.0616 58.1698 15.7031 58.5628 16.5412C58.9605 17.3793 59.1594 18.3878 59.1594 19.5668C59.1594 20.7457 58.9629 21.7566 58.5699 22.5994C58.1769 23.4375 57.6371 24.0838 56.9506 24.5384C56.264 24.9882 55.4804 25.2131 54.5997 25.2131C53.9368 25.2131 53.3947 25.1018 52.9733 24.8793C52.5566 24.6567 52.2299 24.3963 51.9932 24.098C51.7564 23.7997 51.5741 23.5346 51.4463 23.3026H51.2687V25H49.1949ZM51.2759 19.5455C51.2759 20.3125 51.3871 20.9848 51.6097 21.5625C51.8322 22.1402 52.1542 22.5923 52.5756 22.919C52.997 23.241 53.5131 23.402 54.1239 23.402C54.7583 23.402 55.2886 23.2339 55.7148 22.8977C56.1409 22.5568 56.4629 22.0952 56.6807 21.5128C56.9032 20.9304 57.0145 20.2746 57.0145 19.5455C57.0145 18.8258 56.9056 18.1795 56.6878 17.6065C56.4747 17.0336 56.1527 16.5814 55.7219 16.25C55.2957 15.9186 54.7631 15.7528 54.1239 15.7528C53.5083 15.7528 52.9875 15.9115 52.5614 16.2287C52.14 16.5459 51.8204 16.9886 51.6026 17.5568C51.3848 18.125 51.2759 18.7879 51.2759 19.5455ZM61.144 25V14.0909H63.1823V15.8665H63.3173C63.5445 15.2652 63.9162 14.7964 64.4323 14.4602C64.9484 14.1193 65.5663 13.9489 66.286 13.9489C67.0152 13.9489 67.626 14.1193 68.1184 14.4602C68.6156 14.8011 68.9825 15.2699 69.2192 15.8665H69.3329C69.5933 15.2841 70.0076 14.8201 70.5758 14.4744C71.144 14.1241 71.821 13.9489 72.607 13.9489C73.5966 13.9489 74.4039 14.259 75.0289 14.8793C75.6586 15.4995 75.9735 16.4347 75.9735 17.6847V25H73.8499V17.8835C73.8499 17.1449 73.6487 16.6098 73.2462 16.2784C72.8438 15.947 72.3632 15.7812 71.8045 15.7812C71.1132 15.7812 70.5758 15.9943 70.1923 16.4205C69.8087 16.8419 69.617 17.384 69.617 18.0469V25H67.5005V17.7486C67.5005 17.1567 67.3158 16.6809 66.9465 16.321C66.5772 15.9612 66.0966 15.7812 65.5048 15.7812C65.1023 15.7812 64.7306 15.8878 64.3897 16.1009C64.0535 16.3092 63.7813 16.6004 63.5729 16.9744C63.3693 17.3485 63.2675 17.7817 63.2675 18.2741V25H61.144ZM81.5945 25.2415C80.9032 25.2415 80.2782 25.1136 79.7195 24.858C79.1607 24.5975 78.718 24.2211 78.3913 23.7287C78.0694 23.2363 77.9084 22.6326 77.9084 21.9176C77.9084 21.3021 78.0268 20.7955 78.2635 20.3977C78.5002 20 78.8198 19.6851 79.2223 19.4531C79.6248 19.2211 80.0746 19.0459 80.5717 18.9276C81.0689 18.8092 81.5755 18.7192 82.0916 18.6577C82.745 18.5819 83.2753 18.5204 83.6825 18.473C84.0897 18.4209 84.3857 18.3381 84.5703 18.2244C84.755 18.1108 84.8473 17.9261 84.8473 17.6705V17.6207C84.8473 17.0005 84.6721 16.5199 84.3217 16.179C83.9761 15.8381 83.46 15.6676 82.7734 15.6676C82.0585 15.6676 81.495 15.8262 81.0831 16.1435C80.6759 16.456 80.3942 16.804 80.2379 17.1875L78.2422 16.733C78.4789 16.0701 78.8246 15.535 79.2791 15.1278C79.7384 14.7159 80.2663 14.4176 80.8629 14.233C81.4595 14.0436 82.0869 13.9489 82.745 13.9489C83.1806 13.9489 83.6423 14.0009 84.13 14.1051C84.6224 14.2045 85.0817 14.3892 85.5078 14.6591C85.9387 14.929 86.2914 15.3149 86.5661 15.8168C86.8407 16.3139 86.978 16.9602 86.978 17.7557V25H84.9041V23.5085H84.8189C84.6816 23.7831 84.4756 24.053 84.201 24.3182C83.9264 24.5833 83.5736 24.8035 83.1428 24.9787C82.7119 25.1539 82.1958 25.2415 81.5945 25.2415ZM82.0561 23.5369C82.6432 23.5369 83.1451 23.4209 83.5618 23.1889C83.9832 22.9569 84.3028 22.6539 84.5206 22.2798C84.7431 21.901 84.8544 21.4962 84.8544 21.0653V19.6591C84.7786 19.7348 84.6319 19.8059 84.4141 19.8722C84.201 19.9337 83.9571 19.9882 83.6825 20.0355C83.4079 20.0781 83.1404 20.1184 82.88 20.1562C82.6196 20.1894 82.4018 20.2178 82.2266 20.2415C81.8146 20.2936 81.4382 20.3812 81.0973 20.5043C80.7611 20.6274 80.4912 20.8049 80.2876 21.0369C80.0888 21.2642 79.9893 21.5672 79.9893 21.946C79.9893 22.4716 80.1835 22.8693 80.5717 23.1392C80.96 23.4044 81.4548 23.5369 82.0561 23.5369ZM91.53 18.5227V25H89.4065V14.0909H91.4448V15.8665H91.5798C91.8307 15.2888 92.2237 14.8248 92.7587 14.4744C93.2985 14.1241 93.978 13.9489 94.7971 13.9489C95.5405 13.9489 96.1915 14.1051 96.7502 14.4176C97.3089 14.7254 97.7422 15.1847 98.0499 15.7955C98.3577 16.4062 98.5116 17.1615 98.5116 18.0611V25H96.388V18.3168C96.388 17.526 96.182 16.9081 95.7701 16.4631C95.3582 16.0133 94.7924 15.7884 94.0727 15.7884C93.5802 15.7884 93.1423 15.8949 92.7587 16.108C92.3799 16.321 92.0793 16.6335 91.8567 17.0455C91.6389 17.4527 91.53 17.9451 91.53 18.5227ZM115.867 15.0497C115.729 14.6188 115.545 14.233 115.313 13.892C115.086 13.5464 114.813 13.2528 114.496 13.0114C114.179 12.7652 113.817 12.5781 113.409 12.4503C113.007 12.3224 112.564 12.2585 112.081 12.2585C111.262 12.2585 110.523 12.4692 109.865 12.8906C109.207 13.312 108.686 13.9299 108.303 14.7443C107.924 15.554 107.735 16.5459 107.735 17.7202C107.735 18.8991 107.926 19.8958 108.31 20.7102C108.693 21.5246 109.219 22.1425 109.887 22.5639C110.554 22.9853 111.314 23.196 112.166 23.196C112.957 23.196 113.646 23.035 114.233 22.7131C114.825 22.3911 115.282 21.9366 115.604 21.3494C115.931 20.7576 116.094 20.0616 116.094 19.2614L116.662 19.3679H112.5V17.5568H118.218V19.2116C118.218 20.4332 117.957 21.4938 117.436 22.3935C116.92 23.2884 116.205 23.9796 115.291 24.4673C114.382 24.955 113.341 25.1989 112.166 25.1989C110.85 25.1989 109.695 24.8958 108.701 24.2898C107.711 23.6837 106.939 22.8243 106.385 21.7116C105.831 20.5942 105.554 19.2685 105.554 17.7344C105.554 16.5743 105.715 15.5327 106.037 14.6094C106.359 13.6861 106.811 12.9025 107.394 12.2585C107.981 11.6098 108.67 11.1151 109.461 10.7741C110.256 10.4285 111.125 10.2557 112.067 10.2557C112.853 10.2557 113.585 10.3717 114.262 10.6037C114.943 10.8357 115.55 11.1648 116.08 11.5909C116.615 12.017 117.058 12.5237 117.408 13.1108C117.758 13.6932 117.995 14.3395 118.118 15.0497H115.867ZM121.117 25V14.0909H123.24V25H121.117ZM122.189 12.4077C121.82 12.4077 121.503 12.2846 121.237 12.0384C120.977 11.7874 120.847 11.4891 120.847 11.1435C120.847 10.7931 120.977 10.4948 121.237 10.2486C121.503 9.99763 121.82 9.87216 122.189 9.87216C122.558 9.87216 122.873 9.99763 123.134 10.2486C123.399 10.4948 123.531 10.7931 123.531 11.1435C123.531 11.4891 123.399 11.7874 123.134 12.0384C122.873 12.2846 122.558 12.4077 122.189 12.4077ZM127.821 10.4545V25H125.697V10.4545H127.821ZM132.401 10.4545V25H130.278V10.4545H132.401Z" fill="#121313"/>
<defs>
<linearGradient id="paint0_linear_2325_1363" x1="32.6176" y1="4.90958e-06" x2="48.2032" y2="62.2181" gradientUnits="userSpaceOnUse">
<stop stop-color="#0BFFB6"/>
<stop offset="0.581731" stop-color="#00DBDC"/>
</linearGradient>
</defs>
</svg>
