<svg width="94" height="26" viewBox="0 0 94 26" fill="none" xmlns="http://www.w3.org/2000/svg">
<path d="M2 8C2 4.22876 2 2.34315 3.17157 1.17157C4.34315 0 6.22876 0 10 0H86C89.7712 0 91.6569 0 92.8284 1.17157C94 2.34315 94 4.22876 94 8V16C94 19.7712 94 21.6569 92.8284 22.8284C91.6569 24 89.7712 24 86 24H6.23598L0 26L2 20.6667V8Z" fill="url(#paint0_linear_2325_1896)"/>
<path d="M15.7184 9.56539C15.6729 9.16198 15.4854 8.84948 15.1559 8.62789C14.8263 8.40345 14.4116 8.29124 13.9116 8.29124C13.5536 8.29124 13.244 8.34806 12.9826 8.46169C12.7212 8.57249 12.5181 8.7259 12.3732 8.92192C12.2312 9.1151 12.1602 9.33527 12.1602 9.58243C12.1602 9.78982 12.2085 9.96879 12.305 10.1194C12.4045 10.2699 12.5337 10.3964 12.6928 10.4986C12.8548 10.5981 13.0281 10.6819 13.2127 10.75C13.3974 10.8154 13.5749 10.8694 13.7454 10.912L14.5977 11.1336C14.8761 11.2017 15.1616 11.2941 15.4542 11.4106C15.7468 11.527 16.0181 11.6804 16.2681 11.8708C16.5181 12.0611 16.7198 12.2969 16.8732 12.5782C17.0295 12.8594 17.1076 13.1961 17.1076 13.5881C17.1076 14.0824 16.9798 14.5214 16.7241 14.9049C16.4712 15.2884 16.1033 15.591 15.6204 15.8125C15.1403 16.0341 14.5593 16.1449 13.8775 16.1449C13.2241 16.1449 12.6587 16.0412 12.1815 15.8339C11.7042 15.6265 11.3306 15.3324 11.0607 14.9517C10.7908 14.5682 10.6417 14.1137 10.6133 13.5881H11.9343C11.9599 13.9035 12.0621 14.1662 12.2411 14.3765C12.4229 14.5839 12.6545 14.7387 12.9357 14.841C13.2198 14.9404 13.5309 14.9901 13.869 14.9901C14.2411 14.9901 14.5721 14.9319 14.8619 14.8154C15.1545 14.6961 15.3846 14.5313 15.5522 14.3211C15.7198 14.108 15.8036 13.8594 15.8036 13.5753C15.8036 13.3168 15.7298 13.1052 15.582 12.9404C15.4371 12.7756 15.2397 12.6392 14.9897 12.5313C14.7425 12.4233 14.4627 12.3282 14.1502 12.2458L13.119 11.9645C12.4201 11.7742 11.8661 11.4944 11.457 11.125C11.0508 10.7557 10.8477 10.2671 10.8477 9.65914C10.8477 9.15629 10.984 8.71737 11.2567 8.34237C11.5295 7.96737 11.8988 7.67618 12.3647 7.46879C12.8306 7.25857 13.3562 7.15345 13.9414 7.15345C14.5323 7.15345 15.0536 7.25715 15.5053 7.46453C15.9599 7.67192 16.3178 7.95743 16.5792 8.32107C16.8406 8.68186 16.9769 9.09664 16.9883 9.56539H15.7184Z" fill="#121313"/>
<path d="M19.853 12.1137V16H18.5788V7.27277H19.8359V10.5199H19.9169C20.0703 10.1677 20.3047 9.88783 20.62 9.68044C20.9354 9.47306 21.3473 9.36936 21.8558 9.36936C22.3047 9.36936 22.6967 9.46169 23.032 9.64635C23.37 9.83101 23.6314 10.1066 23.8161 10.4731C24.0036 10.8367 24.0973 11.2912 24.0973 11.8367V16H22.8232V11.9901C22.8232 11.51 22.6996 11.1378 22.4524 10.8736C22.2053 10.6066 21.8615 10.4731 21.4212 10.4731C21.12 10.4731 20.8501 10.537 20.6115 10.6648C20.3757 10.7927 20.1896 10.9802 20.0533 11.2273C19.9197 11.4716 19.853 11.7671 19.853 12.1137Z" fill="#121313"/>
<path d="M29.9439 13.2856V9.45459H31.2223V16H29.9695V14.8665H29.9013C29.7507 15.216 29.5092 15.5071 29.1768 15.7401C28.8473 15.9702 28.4368 16.0853 27.9453 16.0853C27.5249 16.0853 27.1527 15.9929 26.8288 15.8083C26.5078 15.6208 26.255 15.3438 26.0703 14.9773C25.8885 14.6108 25.7976 14.1577 25.7976 13.6179V9.45459H27.0717V13.4645C27.0717 13.9106 27.1953 14.2657 27.4425 14.5299C27.6896 14.7941 28.0107 14.9262 28.4055 14.9262C28.6442 14.9262 28.8814 14.8665 29.1172 14.7472C29.3558 14.6279 29.5533 14.4475 29.7095 14.206C29.8686 13.9645 29.9467 13.6577 29.9439 13.2856Z" fill="#121313"/>
<path d="M33.0366 16V7.27277H34.3107V10.5157H34.3874C34.4613 10.3793 34.5678 10.2216 34.707 10.0427C34.8462 9.86368 35.0394 9.70743 35.2866 9.57391C35.5337 9.43754 35.8604 9.36936 36.2667 9.36936C36.7951 9.36936 37.2667 9.50289 37.6815 9.76993C38.0962 10.037 38.4215 10.4219 38.6573 10.9248C38.896 11.4276 39.0153 12.0327 39.0153 12.7401C39.0153 13.4475 38.8974 14.054 38.6616 14.5597C38.4258 15.0625 38.1019 15.4503 37.69 15.7231C37.2781 15.9929 36.8079 16.1279 36.2795 16.1279C35.8817 16.1279 35.5565 16.0611 35.3036 15.9276C35.0536 15.7941 34.8576 15.6378 34.7156 15.4589C34.5735 15.2799 34.4641 15.1208 34.3874 14.9816H34.2809V16H33.0366ZM34.2852 12.7273C34.2852 13.1875 34.3519 13.591 34.4854 13.9375C34.619 14.2841 34.8121 14.5554 35.065 14.7515C35.3178 14.9446 35.6275 15.0412 35.994 15.0412C36.3746 15.0412 36.6928 14.9404 36.9485 14.7387C37.2042 14.5341 37.3974 14.2571 37.5281 13.9077C37.6616 13.5583 37.7283 13.1648 37.7283 12.7273C37.7283 12.2955 37.663 11.9077 37.5323 11.564C37.4045 11.2202 37.2113 10.9489 36.9528 10.75C36.6971 10.5512 36.3775 10.4517 35.994 10.4517C35.6246 10.4517 35.3121 10.5469 35.0565 10.7373C34.8036 10.9276 34.6119 11.1932 34.4812 11.5341C34.3505 11.875 34.2852 12.2728 34.2852 12.7273Z" fill="#121313"/>
<path d="M40.446 16V9.45459H41.669V10.5199H41.75C41.8864 10.1591 42.1094 9.87789 42.419 9.67618C42.7287 9.47164 43.0994 9.36936 43.5312 9.36936C43.9688 9.36936 44.3352 9.47164 44.6307 9.67618C44.929 9.88073 45.1492 10.162 45.2912 10.5199H45.3594C45.5156 10.1705 45.7642 9.89209 46.1051 9.6847C46.446 9.47448 46.8523 9.36936 47.3239 9.36936C47.9176 9.36936 48.402 9.55544 48.777 9.9276C49.1548 10.2998 49.3438 10.8608 49.3438 11.6108V16H48.0696V11.7302C48.0696 11.287 47.9489 10.966 47.7074 10.7671C47.4659 10.5682 47.1776 10.4688 46.8423 10.4688C46.4276 10.4688 46.1051 10.5966 45.875 10.8523C45.6449 11.1052 45.5298 11.4304 45.5298 11.8282V16H44.2599V11.6492C44.2599 11.2941 44.1491 11.0086 43.9276 10.7927C43.706 10.5767 43.4176 10.4688 43.0625 10.4688C42.821 10.4688 42.598 10.5327 42.3935 10.6606C42.1918 10.7856 42.0284 10.9603 41.9034 11.1847C41.7812 11.4091 41.7202 11.6691 41.7202 11.9645V16H40.446Z" fill="#121313"/>
<path d="M52.9563 16.1449C52.5415 16.1449 52.1665 16.0682 51.8313 15.9148C51.4961 15.7586 51.2305 15.5327 51.0344 15.2373C50.8413 14.9418 50.7447 14.5796 50.7447 14.1506C50.7447 13.7813 50.8157 13.4773 50.9577 13.2387C51.0998 13 51.2915 12.8111 51.533 12.6719C51.7745 12.5327 52.0444 12.4276 52.3427 12.3566C52.641 12.2856 52.945 12.2316 53.2546 12.1946C53.6467 12.1492 53.9648 12.1123 54.2092 12.0839C54.4535 12.0526 54.631 12.0029 54.7418 11.9347C54.8526 11.8665 54.908 11.7557 54.908 11.6023V11.5725C54.908 11.2003 54.8029 10.912 54.5927 10.7074C54.3853 10.5029 54.0756 10.4006 53.6637 10.4006C53.2347 10.4006 52.8967 10.4958 52.6495 10.6861C52.4052 10.8736 52.2361 11.0824 52.1424 11.3125L50.945 11.0398C51.087 10.6421 51.2944 10.3211 51.5671 10.0767C51.8427 9.82959 52.1594 9.65061 52.5174 9.53982C52.8754 9.42618 53.2518 9.36936 53.6467 9.36936C53.908 9.36936 54.185 9.40061 54.4776 9.46311C54.7731 9.52277 55.0487 9.63357 55.3043 9.7955C55.5629 9.95743 55.7745 10.189 55.9393 10.4901C56.104 10.7884 56.1864 11.1762 56.1864 11.6535V16H54.9421V15.1052H54.891C54.8086 15.2699 54.685 15.4319 54.5202 15.591C54.3555 15.75 54.1438 15.8821 53.8853 15.9873C53.6268 16.0924 53.3171 16.1449 52.9563 16.1449ZM53.2333 15.1222C53.5856 15.1222 53.8867 15.0526 54.1367 14.9134C54.3896 14.7742 54.5813 14.5924 54.712 14.3679C54.8455 14.1407 54.9123 13.8978 54.9123 13.6392V12.7955C54.8668 12.841 54.7788 12.8836 54.6481 12.9233C54.5202 12.9603 54.3739 12.9929 54.2092 13.0214C54.0444 13.0469 53.8839 13.0711 53.7276 13.0938C53.5714 13.1137 53.4407 13.1307 53.3356 13.1449C53.0884 13.1762 52.8626 13.2287 52.658 13.3026C52.4563 13.3765 52.2944 13.483 52.1722 13.6222C52.0529 13.7586 51.9933 13.9404 51.9933 14.1677C51.9933 14.483 52.1097 14.7216 52.3427 14.8836C52.5756 15.0427 52.8725 15.1222 53.2333 15.1222Z" fill="#121313"/>
<path d="M59.1577 12.1137V16H57.8835V9.45459H59.1065V10.5199H59.1875C59.3381 10.1733 59.5739 9.89493 59.8949 9.6847C60.2188 9.47448 60.6264 9.36936 61.1179 9.36936C61.5639 9.36936 61.9545 9.46311 62.2898 9.65061C62.625 9.83527 62.8849 10.1108 63.0696 10.4773C63.2543 10.8438 63.3466 11.2969 63.3466 11.8367V16H62.0724V11.9901C62.0724 11.5157 61.9489 11.1449 61.7017 10.8779C61.4545 10.608 61.1151 10.4731 60.6832 10.4731C60.3878 10.4731 60.125 10.537 59.8949 10.6648C59.6676 10.7927 59.4872 10.9802 59.3537 11.2273C59.223 11.4716 59.1577 11.7671 59.1577 12.1137Z" fill="#121313"/>
<path d="M74.2397 10.0299C74.1573 9.77135 74.0465 9.53982 73.9073 9.33527C73.771 9.12789 73.6076 8.95175 73.4173 8.80686C73.2269 8.65914 73.0096 8.54692 72.7653 8.47021C72.5238 8.39351 72.2582 8.35516 71.9684 8.35516C71.4769 8.35516 71.0337 8.48158 70.6389 8.73442C70.244 8.98726 69.9315 9.358 69.7014 9.84664C69.4741 10.3324 69.3604 10.9276 69.3604 11.6321C69.3604 12.3395 69.4755 12.9375 69.7056 13.4262C69.9357 13.9148 70.2511 14.2856 70.6516 14.5384C71.0522 14.7912 71.5082 14.9177 72.0195 14.9177C72.494 14.9177 72.9073 14.8211 73.2596 14.6279C73.6147 14.4347 73.8888 14.162 74.082 13.8097C74.2781 13.4546 74.3761 13.037 74.3761 12.5569L74.717 12.6208H72.2198V11.5341H75.6502V12.527C75.6502 13.26 75.494 13.8964 75.1815 14.4361C74.8718 14.9731 74.4428 15.3878 73.8945 15.6804C73.3491 15.9731 72.7241 16.1194 72.0195 16.1194C71.2298 16.1194 70.5366 15.9375 69.94 15.5739C69.3462 15.2103 68.8832 14.6946 68.5508 14.027C68.2184 13.3566 68.0522 12.5611 68.0522 11.6407C68.0522 10.9446 68.1488 10.3196 68.342 9.76567C68.5352 9.21169 68.8065 8.74152 69.1559 8.35516C69.5082 7.96595 69.9215 7.66908 70.396 7.46453C70.8732 7.25715 71.3945 7.15345 71.9599 7.15345C72.4315 7.15345 72.8704 7.22306 73.2766 7.36226C73.6857 7.50146 74.0494 7.69891 74.3675 7.95459C74.6886 8.21027 74.9542 8.51425 75.1644 8.86652C75.3746 9.21595 75.5167 9.60374 75.5906 10.0299H74.2397Z" fill="#121313"/>
<path d="M77.6296 16V9.45459H78.9038V16H77.6296ZM78.2731 8.44465C78.0515 8.44465 77.8611 8.37078 77.7021 8.22306C77.5458 8.07249 77.4677 7.89351 77.4677 7.68612C77.4677 7.4759 77.5458 7.29692 77.7021 7.14919C77.8611 6.99862 78.0515 6.92334 78.2731 6.92334C78.4947 6.92334 78.6836 6.99862 78.8398 7.14919C78.9989 7.29692 79.0785 7.4759 79.0785 7.68612C79.0785 7.89351 78.9989 8.07249 78.8398 8.22306C78.6836 8.37078 78.4947 8.44465 78.2731 8.44465Z" fill="#121313"/>
<path d="M81.892 7.27277V16H80.6179V7.27277H81.892Z" fill="#121313"/>
<path d="M84.8803 7.27277V16H83.6062V7.27277H84.8803Z" fill="#121313"/>
<defs>
<linearGradient id="paint0_linear_2325_1896" x1="9.17294" y1="1.31806e-06" x2="17.0219" y2="43.8361" gradientUnits="userSpaceOnUse">
<stop stop-color="#0BFFB6"/>
<stop offset="0.581731" stop-color="#00DBDC"/>
</linearGradient>
</defs>
</svg>
