<svg width="149" height="39" viewBox="0 0 149 39" fill="none" xmlns="http://www.w3.org/2000/svg">
<path d="M147.065 12C147.065 6.34314 147.065 3.51472 145.308 1.75736C143.55 0 140.722 0 135.065 0H12C6.34315 0 3.51472 0 1.75735 1.75736C0 3.51472 0 6.34315 0 12V23.5443C0 29.2012 0 32.0296 1.75735 33.7869C3.51472 35.5443 6.34315 35.5443 12 35.5443H134.624C135.014 35.5443 135.208 35.5443 135.401 35.5468C139.88 35.6042 144.29 36.6643 148.307 38.6491C148.479 38.7344 148.653 38.8229 149 39L148.599 37.2607C147.833 33.9377 147.45 32.2762 147.257 30.5857C147.065 28.8952 147.065 27.1901 147.065 23.78V12Z" fill="url(#paint0_linear_2325_1347)"/>
<path d="M12.8693 10.4545L16.9176 22.3011H17.081L21.1293 10.4545H23.5014L18.267 25H15.7315L10.4972 10.4545H12.8693ZM25.0315 25V14.0909H27.155V25H25.0315ZM26.1039 12.4077C25.7346 12.4077 25.4174 12.2846 25.1522 12.0384C24.8918 11.7874 24.7616 11.4891 24.7616 11.1435C24.7616 10.7931 24.8918 10.4948 25.1522 10.2486C25.4174 9.99763 25.7346 9.87216 26.1039 9.87216C26.4732 9.87216 26.7881 9.99763 27.0485 10.2486C27.3137 10.4948 27.4462 10.7931 27.4462 11.1435C27.4462 11.4891 27.3137 11.7874 27.0485 12.0384C26.7881 12.2846 26.4732 12.4077 26.1039 12.4077ZM31.5651 21.2997L31.5509 18.7074H31.9202L36.2668 14.0909H38.8094L33.852 19.3466H33.5182L31.5651 21.2997ZM29.6119 25V10.4545H31.7355V25H29.6119ZM36.5011 25L32.5949 19.8153L34.058 18.331L39.1077 25H36.5011ZM40.3447 25V14.0909H42.3973V15.8239H42.5109C42.7098 15.2367 43.0602 14.7751 43.5621 14.4389C44.0687 14.098 44.6416 13.9276 45.2808 13.9276C45.4134 13.9276 45.5696 13.9323 45.7496 13.9418C45.9342 13.9512 46.0786 13.9631 46.1828 13.9773V16.0085C46.0976 15.9848 45.9461 15.9588 45.7283 15.9304C45.5105 15.8973 45.2927 15.8807 45.0749 15.8807C44.573 15.8807 44.1255 15.9872 43.7325 16.2003C43.3443 16.4086 43.0365 16.6998 42.8092 17.0739C42.582 17.4432 42.4683 17.8646 42.4683 18.3381V25H40.3447ZM50.6976 25.2415C50.0063 25.2415 49.3813 25.1136 48.8226 24.858C48.2639 24.5975 47.8212 24.2211 47.4945 23.7287C47.1725 23.2363 47.0115 22.6326 47.0115 21.9176C47.0115 21.3021 47.1299 20.7955 47.3666 20.3977C47.6034 20 47.923 19.6851 48.3254 19.4531C48.7279 19.2211 49.1777 19.0459 49.6749 18.9276C50.172 18.8092 50.6786 18.7192 51.1947 18.6577C51.8482 18.5819 52.3785 18.5204 52.7857 18.473C53.1929 18.4209 53.4888 18.3381 53.6734 18.2244C53.8581 18.1108 53.9504 17.9261 53.9504 17.6705V17.6207C53.9504 17.0005 53.7752 16.5199 53.4249 16.179C53.0792 15.8381 52.5631 15.6676 51.8766 15.6676C51.1616 15.6676 50.5982 15.8262 50.1862 16.1435C49.779 16.456 49.4973 16.804 49.3411 17.1875L47.3453 16.733C47.5821 16.0701 47.9277 15.535 48.3822 15.1278C48.8415 14.7159 49.3695 14.4176 49.9661 14.233C50.5626 14.0436 51.19 13.9489 51.8482 13.9489C52.2838 13.9489 52.7454 14.0009 53.2331 14.1051C53.7255 14.2045 54.1848 14.3892 54.6109 14.6591C55.0418 14.929 55.3946 15.3149 55.6692 15.8168C55.9438 16.3139 56.0811 16.9602 56.0811 17.7557V25H54.0072V23.5085H53.922C53.7847 23.7831 53.5787 24.053 53.3041 24.3182C53.0295 24.5833 52.6768 24.8035 52.2459 24.9787C51.815 25.1539 51.2989 25.2415 50.6976 25.2415ZM51.1592 23.5369C51.7464 23.5369 52.2482 23.4209 52.6649 23.1889C53.0863 22.9569 53.4059 22.6539 53.6237 22.2798C53.8463 21.901 53.9575 21.4962 53.9575 21.0653V19.6591C53.8818 19.7348 53.735 19.8059 53.5172 19.8722C53.3041 19.9337 53.0603 19.9882 52.7857 20.0355C52.511 20.0781 52.2435 20.1184 51.9831 20.1562C51.7227 20.1894 51.5049 20.2178 51.3297 20.2415C50.9178 20.2936 50.5413 20.3812 50.2004 20.5043C49.8643 20.6274 49.5944 20.8049 49.3908 21.0369C49.1919 21.2642 49.0925 21.5672 49.0925 21.946C49.0925 22.4716 49.2866 22.8693 49.6749 23.1392C50.0631 23.4044 50.5579 23.5369 51.1592 23.5369ZM58.5096 25V14.0909H60.5479V15.8665H60.6829C60.9102 15.2652 61.2818 14.7964 61.7979 14.4602C62.314 14.1193 62.9319 13.9489 63.6516 13.9489C64.3808 13.9489 64.9916 14.1193 65.484 14.4602C65.9812 14.8011 66.3481 15.2699 66.5849 15.8665H66.6985C66.9589 15.2841 67.3732 14.8201 67.9414 14.4744C68.5096 14.1241 69.1867 13.9489 69.9727 13.9489C70.9622 13.9489 71.7695 14.259 72.3945 14.8793C73.0243 15.4995 73.3391 16.4347 73.3391 17.6847V25H71.2156V17.8835C71.2156 17.1449 71.0143 16.6098 70.6119 16.2784C70.2094 15.947 69.7288 15.7812 69.1701 15.7812C68.4788 15.7812 67.9414 15.9943 67.5579 16.4205C67.1744 16.8419 66.9826 17.384 66.9826 18.0469V25H64.8661V17.7486C64.8661 17.1567 64.6815 16.6809 64.3121 16.321C63.9428 15.9612 63.4622 15.7812 62.8704 15.7812C62.4679 15.7812 62.0962 15.8878 61.7553 16.1009C61.4192 16.3092 61.1469 16.6004 60.9386 16.9744C60.735 17.3485 60.6332 17.7817 60.6332 18.2741V25H58.5096ZM80.8488 25V10.4545H86.1755C87.2077 10.4545 88.0623 10.625 88.7394 10.9659C89.4165 11.3021 89.9231 11.759 90.2593 12.3366C90.5955 12.9096 90.7636 13.5559 90.7636 14.2756C90.7636 14.8816 90.6523 15.393 90.4298 15.8097C90.2072 16.2216 89.9089 16.553 89.5349 16.804C89.1656 17.0502 88.7584 17.2301 88.3133 17.3438V17.4858C88.7962 17.5095 89.2674 17.6657 89.7266 17.9545C90.1906 18.2386 90.5742 18.6435 90.8772 19.169C91.1802 19.6946 91.3317 20.3338 91.3317 21.0866C91.3317 21.83 91.1566 22.4976 90.8062 23.0895C90.4605 23.6766 89.9255 24.143 89.2011 24.4886C88.4766 24.8295 87.551 25 86.4241 25H80.8488ZM83.0434 23.1179H86.211C87.2621 23.1179 88.015 22.9143 88.4695 22.5071C88.9241 22.0999 89.1513 21.5909 89.1513 20.9801C89.1513 20.5208 89.0353 20.0994 88.8033 19.7159C88.5713 19.3324 88.2399 19.027 87.809 18.7997C87.3829 18.5724 86.8763 18.4588 86.2891 18.4588H83.0434V23.1179ZM83.0434 16.7472H85.9837C86.4762 16.7472 86.9189 16.6525 87.3119 16.4631C87.7096 16.2737 88.0245 16.0085 88.2565 15.6676C88.4932 15.322 88.6116 14.9148 88.6116 14.446C88.6116 13.8447 88.4009 13.3404 87.9795 12.9332C87.5581 12.526 86.9118 12.3224 86.0406 12.3224H83.0434V16.7472ZM95.4879 18.5227V25H93.3643V10.4545H95.4594V15.8665H95.5944C95.8501 15.2794 96.2407 14.813 96.7663 14.4673C97.2918 14.1217 97.9784 13.9489 98.8259 13.9489C99.574 13.9489 100.227 14.1027 100.786 14.4105C101.35 14.7183 101.785 15.1776 102.093 15.7884C102.405 16.3944 102.562 17.152 102.562 18.0611V25H100.438V18.3168C100.438 17.5166 100.232 16.8963 99.8202 16.456C99.4083 16.0109 98.8354 15.7884 98.1015 15.7884C97.5996 15.7884 97.1498 15.8949 96.7521 16.108C96.3591 16.321 96.0489 16.6335 95.8217 17.0455C95.5991 17.4527 95.4879 17.9451 95.4879 18.5227ZM108.17 25.2415C107.479 25.2415 106.854 25.1136 106.295 24.858C105.737 24.5975 105.294 24.2211 104.967 23.7287C104.645 23.2363 104.484 22.6326 104.484 21.9176C104.484 21.3021 104.603 20.7955 104.839 20.3977C105.076 20 105.396 19.6851 105.798 19.4531C106.201 19.2211 106.65 19.0459 107.148 18.9276C107.645 18.8092 108.151 18.7192 108.667 18.6577C109.321 18.5819 109.851 18.5204 110.258 18.473C110.666 18.4209 110.961 18.3381 111.146 18.2244C111.331 18.1108 111.423 17.9261 111.423 17.6705V17.6207C111.423 17.0005 111.248 16.5199 110.898 16.179C110.552 15.8381 110.036 15.6676 109.349 15.6676C108.634 15.6676 108.071 15.8262 107.659 16.1435C107.252 16.456 106.97 16.804 106.814 17.1875L104.818 16.733C105.055 16.0701 105.4 15.535 105.855 15.1278C106.314 14.7159 106.842 14.4176 107.439 14.233C108.035 14.0436 108.663 13.9489 109.321 13.9489C109.756 13.9489 110.218 14.0009 110.706 14.1051C111.198 14.2045 111.657 14.3892 112.084 14.6591C112.514 14.929 112.867 15.3149 113.142 15.8168C113.416 16.3139 113.554 16.9602 113.554 17.7557V25H111.48V23.5085H111.395C111.257 23.7831 111.051 24.053 110.777 24.3182C110.502 24.5833 110.149 24.8035 109.719 24.9787C109.288 25.1539 108.772 25.2415 108.17 25.2415ZM108.632 23.5369C109.219 23.5369 109.721 23.4209 110.138 23.1889C110.559 22.9569 110.879 22.6539 111.096 22.2798C111.319 21.901 111.43 21.4962 111.43 21.0653V19.6591C111.354 19.7348 111.208 19.8059 110.99 19.8722C110.777 19.9337 110.533 19.9882 110.258 20.0355C109.984 20.0781 109.716 20.1184 109.456 20.1562C109.195 20.1894 108.978 20.2178 108.802 20.2415C108.39 20.2936 108.014 20.3812 107.673 20.5043C107.337 20.6274 107.067 20.8049 106.863 21.0369C106.665 21.2642 106.565 21.5672 106.565 21.946C106.565 22.4716 106.759 22.8693 107.148 23.1392C107.536 23.4044 108.031 23.5369 108.632 23.5369ZM121.075 14.0909V15.7955H115.116V14.0909H121.075ZM116.714 11.4773H118.837V21.7969C118.837 22.2088 118.899 22.5189 119.022 22.7273C119.145 22.9309 119.304 23.0705 119.498 23.1463C119.697 23.2173 119.912 23.2528 120.144 23.2528C120.315 23.2528 120.464 23.241 120.592 23.2173C120.719 23.1937 120.819 23.1747 120.89 23.1605L121.273 24.9148C121.15 24.9621 120.975 25.0095 120.748 25.0568C120.521 25.1089 120.237 25.1373 119.896 25.142C119.337 25.1515 118.816 25.0521 118.333 24.8438C117.85 24.6354 117.46 24.3134 117.161 23.8778C116.863 23.4422 116.714 22.8954 116.714 22.2372V11.4773ZM123.024 25V14.0909H125.147V25H123.024ZM124.096 12.4077C123.727 12.4077 123.41 12.2846 123.144 12.0384C122.884 11.7874 122.754 11.4891 122.754 11.1435C122.754 10.7931 122.884 10.4948 123.144 10.2486C123.41 9.99763 123.727 9.87216 124.096 9.87216C124.465 9.87216 124.78 9.99763 125.041 10.2486C125.306 10.4948 125.438 10.7931 125.438 11.1435C125.438 11.4891 125.306 11.7874 125.041 12.0384C124.78 12.2846 124.465 12.4077 124.096 12.4077ZM130.779 25.2415C130.088 25.2415 129.463 25.1136 128.904 24.858C128.345 24.5975 127.902 24.2211 127.576 23.7287C127.254 23.2363 127.093 22.6326 127.093 21.9176C127.093 21.3021 127.211 20.7955 127.448 20.3977C127.685 20 128.004 19.6851 128.407 19.4531C128.809 19.2211 129.259 19.0459 129.756 18.9276C130.253 18.8092 130.76 18.7192 131.276 18.6577C131.929 18.5819 132.46 18.5204 132.867 18.473C133.274 18.4209 133.57 18.3381 133.755 18.2244C133.939 18.1108 134.032 17.9261 134.032 17.6705V17.6207C134.032 17.0005 133.856 16.5199 133.506 16.179C133.16 15.8381 132.644 15.6676 131.958 15.6676C131.243 15.6676 130.679 15.8262 130.267 16.1435C129.86 16.456 129.579 16.804 129.422 17.1875L127.427 16.733C127.663 16.0701 128.009 15.535 128.463 15.1278C128.923 14.7159 129.451 14.4176 130.047 14.233C130.644 14.0436 131.271 13.9489 131.929 13.9489C132.365 13.9489 132.827 14.0009 133.314 14.1051C133.807 14.2045 134.266 14.3892 134.692 14.6591C135.123 14.929 135.476 15.3149 135.75 15.8168C136.025 16.3139 136.162 16.9602 136.162 17.7557V25H134.088V23.5085H134.003C133.866 23.7831 133.66 24.053 133.385 24.3182C133.111 24.5833 132.758 24.8035 132.327 24.9787C131.896 25.1539 131.38 25.2415 130.779 25.2415ZM131.24 23.5369C131.828 23.5369 132.329 23.4209 132.746 23.1889C133.168 22.9569 133.487 22.6539 133.705 22.2798C133.928 21.901 134.039 21.4962 134.039 21.0653V19.6591C133.963 19.7348 133.816 19.8059 133.598 19.8722C133.385 19.9337 133.142 19.9882 132.867 20.0355C132.592 20.0781 132.325 20.1184 132.064 20.1562C131.804 20.1894 131.586 20.2178 131.411 20.2415C130.999 20.2936 130.623 20.3812 130.282 20.5043C129.945 20.6274 129.676 20.8049 129.472 21.0369C129.273 21.2642 129.174 21.5672 129.174 21.946C129.174 22.4716 129.368 22.8693 129.756 23.1392C130.144 23.4044 130.639 23.5369 131.24 23.5369Z" fill="#121313"/>
<defs>
<linearGradient id="paint0_linear_2325_1347" x1="117.441" y1="5.00248e-06" x2="101.776" y2="61.2808" gradientUnits="userSpaceOnUse">
<stop stop-color="#0BFFB6"/>
<stop offset="0.581731" stop-color="#00DBDC"/>
</linearGradient>
</defs>
</svg>
