<svg width="98" height="26" viewBox="0 0 98 26" fill="none" xmlns="http://www.w3.org/2000/svg">
<path d="M96 8C96 4.22876 96 2.34315 94.8284 1.17157C93.6569 0 91.7712 0 88 0H8C4.22876 0 2.34315 0 1.17157 1.17157C0 2.34315 0 4.22876 0 8V16C0 19.7712 0 21.6569 1.17157 22.8284C2.34315 24 4.22877 24 8 24H91.764L98 26L96 20.6667V8Z" fill="url(#paint0_linear_2325_1914)"/>
<path d="M11.7216 7.27273L14.1506 14.3807H14.2486L16.6776 7.27273H18.1009L14.9602 16H13.4389L10.2983 7.27273H11.7216ZM19.2589 16V9.45455H20.533V16H19.2589ZM19.9023 8.4446C19.6808 8.4446 19.4904 8.37074 19.3313 8.22301C19.1751 8.07244 19.0969 7.89347 19.0969 7.68608C19.0969 7.47585 19.1751 7.29687 19.3313 7.14915C19.4904 6.99858 19.6808 6.9233 19.9023 6.9233C20.1239 6.9233 20.3129 6.99858 20.4691 7.14915C20.6282 7.29687 20.7077 7.47585 20.7077 7.68608C20.7077 7.89347 20.6282 8.07244 20.4691 8.22301C20.3129 8.37074 20.1239 8.4446 19.9023 8.4446ZM23.419 13.7798L23.4105 12.2244H23.6321L26.2401 9.45455H27.7656L24.7912 12.608H24.5909L23.419 13.7798ZM22.2472 16V7.27273H23.5213V16H22.2472ZM26.3807 16L24.0369 12.8892L24.9148 11.9986L27.9446 16H26.3807ZM28.9268 16V9.45455H30.1584V10.4943H30.2266C30.3459 10.142 30.5561 9.86506 30.8572 9.66335C31.1612 9.45881 31.505 9.35653 31.8885 9.35653C31.968 9.35653 32.0618 9.35937 32.1697 9.36506C32.2805 9.37074 32.3672 9.37784 32.4297 9.38636V10.6051C32.3786 10.5909 32.2876 10.5753 32.157 10.5582C32.0263 10.5384 31.8956 10.5284 31.7649 10.5284C31.4638 10.5284 31.1953 10.5923 30.9595 10.7202C30.7266 10.8452 30.5419 11.0199 30.4055 11.2443C30.2692 11.4659 30.201 11.7187 30.201 12.0028V16H28.9268ZM35.3786 16.1449C34.9638 16.1449 34.5888 16.0682 34.2536 15.9148C33.9183 15.7585 33.6527 15.5327 33.4567 15.2372C33.2635 14.9418 33.1669 14.5795 33.1669 14.1506C33.1669 13.7812 33.2379 13.4773 33.38 13.2386C33.522 13 33.7138 12.8111 33.9553 12.6719C34.1967 12.5327 34.4666 12.4276 34.7649 12.3565C35.0632 12.2855 35.3672 12.2315 35.6768 12.1946C36.0689 12.1491 36.3871 12.1122 36.6314 12.0838C36.8757 12.0526 37.0533 12.0028 37.1641 11.9347C37.2749 11.8665 37.3303 11.7557 37.3303 11.6023V11.5724C37.3303 11.2003 37.2251 10.9119 37.0149 10.7074C36.8075 10.5028 36.4979 10.4006 36.0859 10.4006C35.657 10.4006 35.3189 10.4957 35.0717 10.6861C34.8274 10.8736 34.6584 11.0824 34.5646 11.3125L33.3672 11.0398C33.5092 10.642 33.7166 10.321 33.9893 10.0767C34.2649 9.82955 34.5817 9.65057 34.9396 9.53977C35.2976 9.42614 35.674 9.36932 36.0689 9.36932C36.3303 9.36932 36.6072 9.40057 36.8999 9.46307C37.1953 9.52273 37.4709 9.63352 37.7266 9.79545C37.9851 9.95739 38.1967 10.1889 38.3615 10.4901C38.5263 10.7884 38.6087 11.1761 38.6087 11.6534V16H37.3643V15.1051H37.3132C37.2308 15.2699 37.1072 15.4318 36.9425 15.5909C36.7777 15.75 36.5661 15.8821 36.3075 15.9872C36.049 16.0923 35.7393 16.1449 35.3786 16.1449ZM35.6555 15.1222C36.0078 15.1222 36.3089 15.0526 36.5589 14.9134C36.8118 14.7741 37.0036 14.5923 37.1342 14.3679C37.2678 14.1406 37.3345 13.8977 37.3345 13.6392V12.7955C37.2891 12.8409 37.201 12.8835 37.0703 12.9233C36.9425 12.9602 36.7962 12.9929 36.6314 13.0213C36.4666 13.0469 36.3061 13.071 36.1499 13.0938C35.9936 13.1136 35.8629 13.1307 35.7578 13.1449C35.5107 13.1761 35.2848 13.2287 35.0803 13.3026C34.8786 13.3764 34.7166 13.483 34.5945 13.6222C34.4751 13.7585 34.4155 13.9403 34.4155 14.1676C34.4155 14.483 34.532 14.7216 34.7649 14.8835C34.9979 15.0426 35.2947 15.1222 35.6555 15.1222ZM40.3058 16V9.45455H41.5288V10.5199H41.6097C41.7461 10.1591 41.9691 9.87784 42.2788 9.67614C42.5884 9.47159 42.9592 9.36932 43.391 9.36932C43.8285 9.36932 44.195 9.47159 44.4904 9.67614C44.7887 9.88068 45.0089 10.1619 45.1509 10.5199H45.2191C45.3754 10.1705 45.6239 9.89205 45.9648 9.68466C46.3058 9.47443 46.712 9.36932 47.1836 9.36932C47.7773 9.36932 48.2617 9.5554 48.6367 9.92756C49.0146 10.2997 49.2035 10.8608 49.2035 11.6108V16H47.9293V11.7301C47.9293 11.2869 47.8086 10.9659 47.5671 10.767C47.3256 10.5682 47.0373 10.4688 46.7021 10.4688C46.2873 10.4688 45.9648 10.5966 45.7347 10.8523C45.5046 11.1051 45.3896 11.4304 45.3896 11.8281V16H44.1197V11.6491C44.1197 11.294 44.0089 11.0085 43.7873 10.7926C43.5657 10.5767 43.2773 10.4688 42.9222 10.4688C42.6808 10.4688 42.4577 10.5327 42.2532 10.6605C42.0515 10.7855 41.8881 10.9602 41.7631 11.1847C41.641 11.4091 41.5799 11.669 41.5799 11.9645V16H40.3058ZM54.1893 16V7.27273H57.3853C58.0046 7.27273 58.5174 7.375 58.9237 7.57955C59.3299 7.78125 59.6339 8.0554 59.8356 8.40199C60.0373 8.74574 60.1381 9.13352 60.1381 9.56534C60.1381 9.92898 60.0714 10.2358 59.9379 10.4858C59.8043 10.733 59.6254 10.9318 59.4009 11.0824C59.1793 11.2301 58.935 11.3381 58.668 11.4062V11.4915C58.9577 11.5057 59.2404 11.5994 59.516 11.7727C59.7944 11.9432 60.0245 12.1861 60.2063 12.5014C60.3881 12.8168 60.479 13.2003 60.479 13.652C60.479 14.098 60.3739 14.4986 60.1637 14.8537C59.9563 15.206 59.6353 15.4858 59.2006 15.6932C58.766 15.8977 58.2106 16 57.5344 16H54.1893ZM55.506 14.8707H57.4066C58.0373 14.8707 58.489 14.7486 58.7617 14.5043C59.0344 14.2599 59.1708 13.9545 59.1708 13.5881C59.1708 13.3125 59.1012 13.0597 58.962 12.8295C58.8228 12.5994 58.6239 12.4162 58.3654 12.2798C58.1097 12.1435 57.8058 12.0753 57.4535 12.0753H55.506V14.8707ZM55.506 11.0483H57.2702C57.5657 11.0483 57.8313 10.9915 58.0671 10.8778C58.3058 10.7642 58.4947 10.6051 58.6339 10.4006C58.7759 10.1932 58.8469 9.94886 58.8469 9.66761C58.8469 9.30682 58.7205 9.00426 58.4677 8.75994C58.2148 8.51562 57.8271 8.39347 57.3043 8.39347H55.506V11.0483ZM63.2127 12.1136V16H61.9386V7.27273H63.1957V10.5199H63.2766C63.43 10.1676 63.6644 9.88778 63.9798 9.6804C64.2951 9.47301 64.707 9.36932 65.2156 9.36932C65.6644 9.36932 66.0565 9.46165 66.3917 9.64631C66.7298 9.83097 66.9911 10.1065 67.1758 10.473C67.3633 10.8366 67.457 11.2912 67.457 11.8366V16H66.1829V11.9901C66.1829 11.5099 66.0593 11.1378 65.8121 10.8736C65.565 10.6065 65.2212 10.473 64.7809 10.473C64.4798 10.473 64.2099 10.5369 63.9712 10.6648C63.7354 10.7926 63.5494 10.9801 63.413 11.2273C63.2795 11.4716 63.2127 11.767 63.2127 12.1136ZM71.0621 16.1449C70.6474 16.1449 70.2724 16.0682 69.9371 15.9148C69.6019 15.7585 69.3363 15.5327 69.1403 15.2372C68.9471 14.9418 68.8505 14.5795 68.8505 14.1506C68.8505 13.7812 68.9215 13.4773 69.0636 13.2386C69.2056 13 69.3974 12.8111 69.6388 12.6719C69.8803 12.5327 70.1502 12.4276 70.4485 12.3565C70.7468 12.2855 71.0508 12.2315 71.3604 12.1946C71.7525 12.1491 72.0707 12.1122 72.315 12.0838C72.5593 12.0526 72.7369 12.0028 72.8477 11.9347C72.9585 11.8665 73.0138 11.7557 73.0138 11.6023V11.5724C73.0138 11.2003 72.9087 10.9119 72.6985 10.7074C72.4911 10.5028 72.1815 10.4006 71.7695 10.4006C71.3406 10.4006 71.0025 10.4957 70.7553 10.6861C70.511 10.8736 70.342 11.0824 70.2482 11.3125L69.0508 11.0398C69.1928 10.642 69.4002 10.321 69.6729 10.0767C69.9485 9.82955 70.2653 9.65057 70.6232 9.53977C70.9812 9.42614 71.3576 9.36932 71.7525 9.36932C72.0138 9.36932 72.2908 9.40057 72.5835 9.46307C72.8789 9.52273 73.1545 9.63352 73.4102 9.79545C73.6687 9.95739 73.8803 10.1889 74.0451 10.4901C74.2099 10.7884 74.2923 11.1761 74.2923 11.6534V16H73.0479V15.1051H72.9968C72.9144 15.2699 72.7908 15.4318 72.6261 15.5909C72.4613 15.75 72.2496 15.8821 71.9911 15.9872C71.7326 16.0923 71.4229 16.1449 71.0621 16.1449ZM71.3391 15.1222C71.6914 15.1222 71.9925 15.0526 72.2425 14.9134C72.4954 14.7741 72.6871 14.5923 72.8178 14.3679C72.9513 14.1406 73.0181 13.8977 73.0181 13.6392V12.7955C72.9727 12.8409 72.8846 12.8835 72.7539 12.9233C72.6261 12.9602 72.4798 12.9929 72.315 13.0213C72.1502 13.0469 71.9897 13.071 71.8335 13.0938C71.6772 13.1136 71.5465 13.1307 71.4414 13.1449C71.1942 13.1761 70.9684 13.2287 70.7638 13.3026C70.5621 13.3764 70.4002 13.483 70.2781 13.6222C70.1587 13.7585 70.0991 13.9403 70.0991 14.1676C70.0991 14.483 70.2156 14.7216 70.4485 14.8835C70.6815 15.0426 70.9783 15.1222 71.3391 15.1222ZM79.0447 9.45455V10.4773H75.4695V9.45455H79.0447ZM76.4283 7.88636H77.7024V14.0781C77.7024 14.3253 77.7393 14.5114 77.8132 14.6364C77.8871 14.7585 77.9822 14.8423 78.0987 14.8878C78.218 14.9304 78.3473 14.9517 78.4865 14.9517C78.5888 14.9517 78.6783 14.9446 78.755 14.9304C78.8317 14.9162 78.8913 14.9048 78.9339 14.8963L79.1641 15.9489C79.0902 15.9773 78.9851 16.0057 78.8487 16.0341C78.7124 16.0653 78.5419 16.0824 78.3374 16.0852C78.0021 16.0909 77.6896 16.0312 77.3999 15.9062C77.1101 15.7812 76.8757 15.5881 76.6967 15.3267C76.5178 15.0653 76.4283 14.7372 76.4283 14.3423V7.88636ZM80.4542 16V9.45455H81.7283V16H80.4542ZM81.0977 8.4446C80.8761 8.4446 80.6857 8.37074 80.5266 8.22301C80.3704 8.07244 80.2923 7.89347 80.2923 7.68608C80.2923 7.47585 80.3704 7.29687 80.5266 7.14915C80.6857 6.99858 80.8761 6.9233 81.0977 6.9233C81.3192 6.9233 81.5082 6.99858 81.6644 7.14915C81.8235 7.29687 81.9031 7.47585 81.9031 7.68608C81.9031 7.89347 81.8235 8.07244 81.6644 8.22301C81.5082 8.37074 81.3192 8.4446 81.0977 8.4446ZM85.3473 16.1449C84.9325 16.1449 84.5575 16.0682 84.2223 15.9148C83.8871 15.7585 83.6214 15.5327 83.4254 15.2372C83.2322 14.9418 83.1357 14.5795 83.1357 14.1506C83.1357 13.7812 83.2067 13.4773 83.3487 13.2386C83.4908 13 83.6825 12.8111 83.924 12.6719C84.1655 12.5327 84.4354 12.4276 84.7337 12.3565C85.032 12.2855 85.3359 12.2315 85.6456 12.1946C86.0376 12.1491 86.3558 12.1122 86.6001 12.0838C86.8445 12.0526 87.022 12.0028 87.1328 11.9347C87.2436 11.8665 87.299 11.7557 87.299 11.6023V11.5724C87.299 11.2003 87.1939 10.9119 86.9837 10.7074C86.7763 10.5028 86.4666 10.4006 86.0547 10.4006C85.6257 10.4006 85.2876 10.4957 85.0405 10.6861C84.7962 10.8736 84.6271 11.0824 84.5334 11.3125L83.3359 11.0398C83.478 10.642 83.6854 10.321 83.9581 10.0767C84.2337 9.82955 84.5504 9.65057 84.9084 9.53977C85.2663 9.42614 85.6428 9.36932 86.0376 9.36932C86.299 9.36932 86.576 9.40057 86.8686 9.46307C87.1641 9.52273 87.4396 9.63352 87.6953 9.79545C87.9538 9.95739 88.1655 10.1889 88.3303 10.4901C88.495 10.7884 88.5774 11.1761 88.5774 11.6534V16H87.3331V15.1051H87.282C87.1996 15.2699 87.076 15.4318 86.9112 15.5909C86.7464 15.75 86.5348 15.8821 86.2763 15.9872C86.0178 16.0923 85.7081 16.1449 85.3473 16.1449ZM85.6243 15.1222C85.9766 15.1222 86.2777 15.0526 86.5277 14.9134C86.7805 14.7741 86.9723 14.5923 87.103 14.3679C87.2365 14.1406 87.3033 13.8977 87.3033 13.6392V12.7955C87.2578 12.8409 87.1697 12.8835 87.0391 12.9233C86.9112 12.9602 86.7649 12.9929 86.6001 13.0213C86.4354 13.0469 86.2749 13.071 86.1186 13.0938C85.9624 13.1136 85.8317 13.1307 85.7266 13.1449C85.4794 13.1761 85.2536 13.2287 85.049 13.3026C84.8473 13.3764 84.6854 13.483 84.5632 13.6222C84.4439 13.7585 84.3842 13.9403 84.3842 14.1676C84.3842 14.483 84.5007 14.7216 84.7337 14.8835C84.9666 15.0426 85.2635 15.1222 85.6243 15.1222Z" fill="#121313"/>
<defs>
<linearGradient id="paint0_linear_2325_1914" x1="88.8271" y1="1.46554e-06" x2="80.9781" y2="43.8361" gradientUnits="userSpaceOnUse">
<stop stop-color="#0BFFB6"/>
<stop offset="0.581731" stop-color="#00DBDC"/>
</linearGradient>
</defs>
</svg>
