<svg width="14" height="18" viewBox="0 0 14 18" fill="none" xmlns="http://www.w3.org/2000/svg">
<path fill-rule="evenodd" clip-rule="evenodd" d="M7 6.50016C6.53976 6.50016 6.16667 6.87326 6.16667 7.3335C6.16667 7.79373 6.53976 8.16683 7 8.16683C7.46024 8.16683 7.83333 7.79373 7.83333 7.3335C7.83333 6.87326 7.46024 6.50016 7 6.50016ZM4.5 7.3335C4.5 5.95278 5.61929 4.8335 7 4.8335C8.38071 4.8335 9.5 5.95278 9.5 7.3335C9.5 8.71421 8.38071 9.8335 7 9.8335C5.61929 9.8335 4.5 8.71421 4.5 7.3335Z" fill="#131313"/>
<path fill-rule="evenodd" clip-rule="evenodd" d="M10.6065 3.91063C8.61525 1.80735 5.38483 1.80735 3.39354 3.91063C1.40482 6.01121 1.40482 9.41487 3.39354 11.5154L7.00004 15.3248L10.6065 11.5154C12.5953 9.41487 12.5953 6.01121 10.6065 3.91063ZM2.28763 2.72865C4.89075 -0.0208778 9.10933 -0.0208778 11.7124 2.72865C14.3181 5.48089 14.3181 9.94519 11.7124 12.6974L7.55299 17.0908C7.24708 17.414 6.753 17.414 6.44709 17.0908L2.28764 12.6974C-0.318045 9.9452 -0.318047 5.48089 2.28763 2.72865Z" fill="#131313"/>
</svg>
