<svg width="24" height="24" viewBox="0 0 24 24" fill="none" xmlns="http://www.w3.org/2000/svg">
<path d="M22.7895 23.4813C22.7038 23.6381 22.5777 23.7689 22.4244 23.8602C22.2711 23.9514 22.0962 23.9997 21.918 24H15.9415C15.7739 23.9999 15.609 23.9574 15.4621 23.8764C15.3152 23.7953 15.191 23.6783 15.1011 23.5362L10.0597 15.5825L2.73365 23.6725C2.55505 23.8651 2.30804 23.9793 2.04617 23.9903C1.78429 24.0012 1.52865 23.9082 1.33468 23.7312C1.14071 23.5542 1.02404 23.3076 1.00995 23.0448C0.995874 22.7821 1.08552 22.5243 1.25946 22.3275L8.95037 13.8275L1.15612 1.5375C1.06013 1.3863 1.00639 1.21198 1.00054 1.03278C0.994682 0.853574 1.03693 0.676088 1.12285 0.518902C1.20877 0.361717 1.33521 0.230615 1.48892 0.139325C1.64263 0.0480342 1.81796 -8.70794e-05 1.99655 1.18294e-07H7.97298C8.14062 5.21628e-05 8.30553 0.0425814 8.45245 0.123647C8.59936 0.204713 8.72351 0.321693 8.81341 0.46375L13.8548 8.4175L21.1809 0.3275C21.3595 0.134898 21.6065 0.0207293 21.8683 0.00974476C22.1302 -0.0012398 22.3859 0.0918457 22.5798 0.26882C22.7738 0.445794 22.8905 0.692393 22.9046 0.955153C22.9186 1.21791 22.829 1.47565 22.6551 1.6725L14.9641 10.1663L22.7584 22.4638C22.8539 22.615 22.9071 22.7892 22.9126 22.9682C22.9181 23.1472 22.8756 23.3244 22.7895 23.4813Z" fill="white"/>
</svg>
