<svg width="100" height="100" viewBox="0 0 100 100" fill="none" xmlns="http://www.w3.org/2000/svg">
<circle cx="50" cy="50" r="49.5" fill="#00DBDC" fill-opacity="0.05" stroke="#00DBDC"/>
<g clip-path="url(#clip0_343_624)">
<path d="M61.847 56.6062V41.1777C61.847 40.723 61.6664 40.287 61.3449 39.9655C61.0234 39.644 60.5874 39.4634 60.1327 39.4634H32.7042C32.2495 39.4634 31.8135 39.644 31.492 39.9655C31.1705 40.287 30.9899 40.723 30.9899 41.1777V56.6062C30.9899 58.4249 31.7123 60.169 32.9983 61.455C34.2843 62.7409 36.0284 63.4634 37.847 63.4634H54.9899C56.8085 63.4634 58.5527 62.7409 59.8386 61.455C61.1246 60.169 61.847 58.4249 61.847 56.6062ZM61.847 56.6062L65.276 56.6064C67.0946 56.6064 68.8388 55.884 70.1247 54.598C71.4107 53.3121 72.1331 51.5679 72.1331 49.7493C72.1331 47.9307 71.4107 46.1865 70.1247 44.9006C68.8388 43.6146 67.0946 42.8921 65.276 42.8921H61.8474M27.5625 72.0346H72.1339M36.1324 27.4634V30.892M53.2748 27.4634V30.892M44.705 27.4634V30.892" stroke="#00DBDC" stroke-width="3.2" stroke-linecap="round" stroke-linejoin="round"/>
</g>
<defs>
<clipPath id="clip0_343_624">
<rect width="48" height="48" fill="white" transform="translate(25.8477 25.75)"/>
</clipPath>
</defs>
</svg>
