<svg width="96" height="96" viewBox="0 0 96 96" fill="none" xmlns="http://www.w3.org/2000/svg">
<rect width="96" height="96" rx="24" fill="#00DBDC" fill-opacity="0.05"/>
<path d="M30.4996 45.5C30.4996 34.4543 39.4531 25.5 50.4979 25.5C61.5427 25.5 70.4962 34.4543 70.4962 45.5C70.4962 48.3751 69.8896 51.1084 68.7974 53.5791L70.5 65.4981L60.2864 62.9445C57.393 64.5718 54.0539 65.5 50.4979 65.5M25.5024 58C25.5024 59.7969 25.8815 61.5053 26.564 63.0494L25.5 70.4988L31.8829 68.9028C33.6911 69.9199 35.7779 70.5 38.0001 70.5C44.9025 70.5 50.4979 64.9036 50.4979 58C50.4979 51.0964 44.9025 45.5 38.0001 45.5C31.0978 45.5 25.5024 51.0964 25.5024 58Z" stroke="#00DBDC" stroke-width="4" stroke-linecap="round" stroke-linejoin="round"/>
</svg>
