<svg width="100" height="100" viewBox="0 0 100 100" fill="none" xmlns="http://www.w3.org/2000/svg">
<circle cx="50" cy="50" r="49.5" fill="#00DBDC" fill-opacity="0.05" stroke="#00DBDC"/>
<path d="M38 44H35C33.6739 44 32.4021 43.4732 31.4645 42.5355C30.5268 41.5979 30 40.3261 30 39C30 37.6739 30.5268 36.4021 31.4645 35.4645C32.4021 34.5268 33.6739 34 35 34H38M38 44V30H62V44M38 44C38 47.1826 39.2643 50.2348 41.5147 52.4853C43.7652 54.7357 46.8174 56 50 56C53.1826 56 56.2348 54.7357 58.4853 52.4853C60.7357 50.2348 62 47.1826 62 44M62 44H65C66.3261 44 67.5979 43.4732 68.5355 42.5355C69.4732 41.5979 70 40.3261 70 39C70 37.6739 69.4732 36.4021 68.5355 35.4645C67.5979 34.5268 66.3261 34 65 34H62M34 70H66M46 55.3203V60.0003C46 61.1003 45.06 61.9603 44.06 62.4203C41.7 63.5003 40 66.4803 40 70.0003M54 55.3203V60.0003C54 61.1003 54.94 61.9603 55.94 62.4203C58.3 63.5003 60 66.4803 60 70.0003" stroke="#00DBDC" stroke-width="3.2" stroke-linecap="round" stroke-linejoin="round"/>
</svg>
