<svg width="76" height="76" viewBox="0 0 76 76" fill="none" xmlns="http://www.w3.org/2000/svg">
<path d="M40.7541 20.0332C44.5537 20.67 48.0053 22.4646 50.7607 25.2144C53.5162 27.9643 55.3 31.4088 55.9526 35.2006M41.3343 7.60107C48.0924 8.74442 54.2559 11.9429 59.1577 16.8202C64.0595 21.712 67.25 27.8629 68.3957 34.6072M63.1167 61.4397C63.1167 61.4397 59.4476 65.0434 58.5485 66.0999C57.0837 67.6629 55.358 68.4011 53.0956 68.4011C52.878 68.4011 52.646 68.4011 52.4285 68.3866C48.1213 68.1116 44.1186 66.4328 41.1166 65C32.9083 61.0344 25.7006 55.4045 19.7111 48.2695C14.7658 42.3212 11.4593 36.8215 9.26941 30.9167C7.92068 27.3129 7.4276 24.5052 7.64514 21.8567C7.79016 20.1634 8.44277 18.7596 9.64647 17.5583L14.5918 12.6231C15.3024 11.9574 16.0565 11.5955 16.7961 11.5955C17.7098 11.5955 18.4494 12.1455 18.9135 12.6086C18.928 12.6231 18.9425 12.6376 18.957 12.6521C19.8416 13.477 20.6828 14.3309 21.5674 15.2427C22.017 15.7058 22.4811 16.1689 22.9451 16.6465L26.9043 20.5976C28.4415 22.1317 28.4415 23.55 26.9043 25.0841C26.4837 25.5039 26.0777 25.9236 25.6571 26.3288C24.4389 27.5734 25.3959 26.6184 24.1341 27.7473C24.1051 27.7763 24.0761 27.7907 24.0616 27.8197C22.8144 29.0643 23.0465 30.28 23.3075 31.105C23.322 31.1484 23.3365 31.1918 23.351 31.2352C24.3807 33.7246 25.8309 36.0691 28.0353 38.8624L28.0498 38.8768C32.0524 43.7976 36.2726 47.6329 40.9279 50.5708C41.5225 50.9471 42.1316 51.251 42.7117 51.5405C43.2338 51.801 43.7269 52.047 44.1474 52.3076C44.2054 52.3365 44.2634 52.3799 44.3215 52.4089C44.8145 52.6549 45.2786 52.7707 45.7572 52.7707C46.9609 52.7707 47.715 52.0181 47.9615 51.7721L50.8042 48.9352C51.2973 48.4431 52.0804 47.8498 52.9941 47.8498C53.8932 47.8498 54.6328 48.4142 55.0824 48.9063C55.0969 48.9207 55.0969 48.9207 55.1114 48.9352L63.1022 56.9097C64.596 58.3859 63.1167 61.4397 63.1167 61.4397Z" stroke="#00DBDC" stroke-width="4" stroke-linecap="round" stroke-linejoin="round"/>
</svg>
