<svg width="96" height="96" viewBox="0 0 96 96" fill="none" xmlns="http://www.w3.org/2000/svg">
<path d="M0 48C0 25.3726 0 14.0589 7.02944 7.02944C14.0589 0 25.3726 0 48 0C70.6274 0 81.9411 0 88.9706 7.02944C96 14.0589 96 25.3726 96 48C96 70.6274 96 81.9411 88.9706 88.9706C81.9411 96 70.6274 96 48 96C25.3726 96 14.0589 96 7.02944 88.9706C0 81.9411 0 70.6274 0 48Z" fill="#00DBDC" fill-opacity="0.05"/>
<path d="M68 43C68 55.4825 54.1525 68.4825 49.5025 72.4975C49.0693 72.8232 48.542 72.9994 48 72.9994C47.458 72.9994 46.9307 72.8232 46.4975 72.4975C41.8475 68.4825 28 55.4825 28 43C28 37.6957 30.1071 32.6086 33.8579 28.8579C37.6086 25.1071 42.6957 23 48 23C53.3043 23 58.3914 25.1071 62.1421 28.8579C65.8929 32.6086 68 37.6957 68 43Z" stroke="#00DBDC" stroke-width="4" stroke-linecap="round" stroke-linejoin="round"/>
<path d="M48 50.5C52.1421 50.5 55.5 47.1421 55.5 43C55.5 38.8579 52.1421 35.5 48 35.5C43.8579 35.5 40.5 38.8579 40.5 43C40.5 47.1421 43.8579 50.5 48 50.5Z" stroke="#00DBDC" stroke-width="4" stroke-linecap="round" stroke-linejoin="round"/>
</svg>
