<svg width="76" height="76" viewBox="0 0 76 76" fill="none" xmlns="http://www.w3.org/2000/svg">
<path d="M14.2493 52.2512L15.5357 53.7826L15.5382 53.7805L14.2493 52.2512ZM7.91602 68.0845L5.93365 67.8195C5.85107 68.4372 6.06114 69.0581 6.5018 69.4987C6.94246 69.9394 7.56335 70.1495 8.18104 70.0669L7.91602 68.0845ZM23.7493 61.7512L22.2219 60.4601L22.2179 60.4648L23.7493 61.7512ZM23.4643 52.5362L24.8695 51.113C24.8615 51.1051 24.8534 51.0972 24.8452 51.0894L23.4643 52.5362ZM28.4993 38.0009L26.6332 37.2816C26.3487 38.0196 26.5259 38.8559 27.0851 39.4152L28.4993 38.0009ZM34.8327 25.4926L36.517 26.571C36.5208 26.5651 36.5246 26.5591 36.5284 26.5531L34.8327 25.4926ZM69.666 6.33428H71.666C71.666 5.23455 70.7781 4.34114 69.6784 4.33432L69.666 6.33428ZM28.4993 39.9987C29.6039 39.9987 30.4993 39.1032 30.4993 37.9987C30.4993 36.8941 29.6039 35.9987 28.4993 35.9987V39.9987ZM12.666 37.9987L10.6982 37.6415C10.5923 38.2249 10.7507 38.8252 11.1307 39.2804C11.5107 39.7356 12.0731 39.9987 12.666 39.9987V37.9987ZM18.9993 25.332L17.8899 23.6679L17.8873 23.6697L18.9993 25.332ZM34.2239 27.2371C35.2761 27.5733 36.4016 26.9929 36.7378 25.9407C37.074 24.8886 36.4936 23.7631 35.4414 23.4269L34.2239 27.2371ZM37.9993 63.3335H35.9993C35.9993 63.9264 36.2625 64.4888 36.7176 64.8688C37.1728 65.2488 37.7731 65.4072 38.3565 65.3013L37.9993 63.3335ZM50.666 57.0002L52.3284 58.1122L52.3301 58.1096L50.666 57.0002ZM14.2493 52.2512L12.963 50.7198C11.4713 51.9728 10.3327 53.7414 9.45878 55.5306C8.57363 57.3428 7.89256 59.3171 7.37855 61.1141C6.86272 62.9174 6.5033 64.5843 6.27274 65.7986C6.15719 66.4071 6.07335 66.9055 6.01799 67.2547C5.9903 67.4294 5.96969 67.567 5.95578 67.6627C5.94882 67.7106 5.94353 67.748 5.93986 67.7743C5.93802 67.7874 5.93659 67.7978 5.93556 67.8054C5.93504 67.8092 5.93463 67.8123 5.93431 67.8146C5.93415 67.8158 5.93402 67.8168 5.93391 67.8176C5.93385 67.818 5.93379 67.8185 5.93376 67.8187C5.9337 67.8191 5.93365 67.8195 7.91602 68.0845C9.89838 68.3495 9.89834 68.3498 9.89831 68.3501C9.8983 68.3501 9.89828 68.3503 9.89827 68.3503C9.89826 68.3504 9.89827 68.3504 9.8983 68.3501C9.89837 68.3496 9.89854 68.3483 9.8988 68.3464C9.89933 68.3426 9.90024 68.3359 9.90155 68.3265C9.90416 68.3078 9.90834 68.2782 9.91414 68.2384C9.92573 68.1586 9.94378 68.0379 9.96866 67.881C10.0184 67.5669 10.0954 67.1088 10.2025 66.5447C10.4173 65.4137 10.7506 63.8703 11.2243 62.2141C11.6999 60.5515 12.3053 58.8169 13.0529 57.2862C13.8118 55.7326 14.6524 54.5246 15.5357 53.7826L14.2493 52.2512ZM7.91602 68.0845C8.18104 70.0669 8.18142 70.0668 8.18185 70.0668C8.18205 70.0667 8.18253 70.0667 8.18294 70.0666C8.18375 70.0665 8.18475 70.0664 8.18592 70.0662C8.18827 70.0659 8.19134 70.0655 8.19512 70.065C8.20268 70.0639 8.21308 70.0625 8.22624 70.0607C8.25257 70.057 8.28996 70.0517 8.33782 70.0448C8.43352 70.0308 8.57114 70.0102 8.74584 69.9825C9.09507 69.9272 9.59343 69.8433 10.202 69.7278C11.4163 69.4972 13.0831 69.1378 14.8865 68.622C16.6834 68.108 18.6577 67.4269 20.4699 66.5417C22.2591 65.6678 24.0277 64.5292 25.2808 63.0376L23.7493 61.7512L22.2179 60.4648C21.476 61.3481 20.2679 62.1887 18.7143 62.9476C17.1837 63.6952 15.449 64.3006 13.7864 64.7762C12.1302 65.25 10.5868 65.5833 9.4558 65.798C8.89168 65.9051 8.4336 65.9821 8.11957 66.0319C7.96263 66.0567 7.84191 66.0748 7.76217 66.0864C7.72231 66.0922 7.69271 66.0964 7.67398 66.099C7.66461 66.1003 7.65796 66.1012 7.65411 66.1017C7.65218 66.102 7.65095 66.1022 7.65043 66.1022C7.65017 66.1023 7.65008 66.1023 7.65018 66.1023C7.65022 66.1022 7.65043 66.1022 7.65045 66.1022C7.6507 66.1022 7.65099 66.1021 7.91602 68.0845ZM23.7493 61.7512L25.2768 63.0422C28.1492 59.644 28.1688 54.3705 24.8695 51.113L23.4643 52.5362L22.0592 53.9594C23.7632 55.6419 23.8462 58.5384 22.2219 60.4601L23.7493 61.7512ZM23.4643 52.5362L24.8452 51.0894C23.2578 49.5742 21.1667 48.6987 18.9732 48.6309L18.9114 50.6299L18.8496 52.629C20.0576 52.6663 21.2092 53.1485 22.0835 53.983L23.4643 52.5362ZM18.9114 50.6299L18.9732 48.6309C16.7798 48.563 14.6386 49.3077 12.9605 50.7218L14.2493 52.2512L15.5382 53.7805C16.4623 53.0017 17.6416 52.5916 18.8496 52.629L18.9114 50.6299ZM37.9993 47.5009L39.4136 46.0867L29.9136 36.5867L28.4993 38.0009L27.0851 39.4152L36.5851 48.9152L37.9993 47.5009ZM28.4993 38.0009L30.3655 38.7203C32.0023 34.474 34.0632 30.4036 36.517 26.571L34.8327 25.4926L33.1483 24.4142C30.5495 28.4733 28.3667 32.7843 26.6332 37.2816L28.4993 38.0009ZM34.8327 25.4926L36.5284 26.5531C40.0372 20.9429 44.923 16.3236 50.721 13.1347L49.7572 11.3822L48.7933 9.62981C42.3973 13.1476 37.0077 18.2433 33.137 24.4321L34.8327 25.4926ZM49.7572 11.3822L50.721 13.1347C56.5191 9.94574 63.0366 8.2932 69.6536 8.33424L69.666 6.33428L69.6784 4.33432C62.379 4.28904 55.1893 6.11201 48.7933 9.62981L49.7572 11.3822ZM69.666 6.33428H67.666C67.666 14.5553 65.3338 28.925 49.5522 39.5065L50.666 41.1676L51.7798 42.8288C69.0583 31.2436 71.666 15.34 71.666 6.33428H69.666ZM50.666 41.1676L49.5971 39.4772C45.7103 41.935 41.5867 43.9968 37.2884 45.6316L37.9993 47.5009L38.7103 49.3703C43.2587 47.6405 47.622 45.4588 51.7349 42.858L50.666 41.1676ZM28.4993 37.9987V35.9987H12.666V37.9987V39.9987H28.4993V37.9987ZM12.666 37.9987C14.6339 38.3559 14.6338 38.3562 14.6337 38.3566C14.6337 38.3566 14.6337 38.3569 14.6337 38.357C14.6336 38.3572 14.6336 38.3573 14.6336 38.3573C14.6336 38.3572 14.6337 38.3565 14.634 38.3552C14.6344 38.3528 14.6353 38.348 14.6366 38.3411C14.6392 38.3272 14.6435 38.3046 14.6496 38.2737C14.6617 38.2119 14.6806 38.117 14.7068 37.9931C14.7591 37.745 14.8399 37.3813 14.9511 36.933C15.1742 36.0333 15.5162 34.808 15.9909 33.4992C16.9889 30.748 18.3954 28.1423 20.1114 26.9943L18.9993 25.332L17.8873 23.6697C15.0116 25.5934 13.2515 29.3211 12.2307 32.1352C11.696 33.6092 11.3156 34.9746 11.0687 35.97C10.9449 36.4692 10.8537 36.8791 10.7929 37.1677C10.7624 37.3121 10.7395 37.4264 10.7238 37.5067C10.716 37.5468 10.7099 37.5784 10.7057 37.601C10.7036 37.6123 10.7019 37.6214 10.7006 37.6282C10.7 37.6316 10.6995 37.6344 10.6991 37.6366C10.6989 37.6377 10.6987 37.6387 10.6985 37.6395C10.6985 37.6399 10.6984 37.6404 10.6983 37.6406C10.6983 37.6411 10.6982 37.6415 12.666 37.9987ZM18.9993 25.332L20.1088 26.9961C21.0113 26.3944 22.2765 26.0243 23.8226 25.8806C25.3515 25.7385 27.0128 25.8306 28.5841 26.0331C30.1475 26.2346 31.5686 26.5383 32.6013 26.7929C33.1159 26.9198 33.5297 27.0334 33.8112 27.1142C33.9519 27.1546 34.0593 27.1866 34.1295 27.208C34.1646 27.2186 34.1903 27.2266 34.2062 27.2316C34.2142 27.234 34.2197 27.2358 34.2226 27.2367C34.2241 27.2372 34.225 27.2375 34.2252 27.2375C34.2253 27.2376 34.2253 27.2375 34.2251 27.2375C34.225 27.2374 34.2247 27.2374 34.2246 27.2373C34.2243 27.2372 34.2239 27.2371 34.8327 25.332C35.4414 23.4269 35.441 23.4268 35.4405 23.4266C35.4403 23.4265 35.4398 23.4264 35.4393 23.4262C35.4385 23.426 35.4374 23.4256 35.4362 23.4253C35.4339 23.4245 35.4308 23.4235 35.4272 23.4224C35.4198 23.4201 35.4099 23.4169 35.3974 23.4131C35.3725 23.4053 35.3375 23.3945 35.293 23.3809C35.2038 23.3538 35.0763 23.3158 34.9143 23.2693C34.5905 23.1764 34.1279 23.0495 33.5589 22.9092C32.4245 22.6295 30.8491 22.2919 29.0954 22.0659C27.3496 21.8409 25.3733 21.7193 23.4524 21.8978C21.5488 22.0747 19.5524 22.5596 17.8899 23.6679L18.9993 25.332ZM37.9993 47.5009H35.9993V63.3335H37.9993H39.9994V47.5009H37.9993ZM37.9993 63.3335C38.3565 65.3013 38.357 65.3013 38.3574 65.3012C38.3576 65.3011 38.3581 65.301 38.3586 65.301C38.3594 65.3008 38.3603 65.3006 38.3614 65.3004C38.3637 65.3 38.3665 65.2995 38.3699 65.2989C38.3766 65.2976 38.3857 65.296 38.397 65.2938C38.4196 65.2896 38.4513 65.2835 38.4914 65.2757C38.5716 65.26 38.6859 65.2371 38.8303 65.2066C39.1189 65.1458 39.5289 65.0546 40.0281 64.9308C41.0234 64.6839 42.3888 64.3035 43.8628 63.7688C46.677 62.748 50.4046 60.9879 52.3284 58.1122L50.666 57.0002L49.0037 55.8881C47.8557 57.6041 45.2501 59.0106 42.4988 60.0086C41.1901 60.4833 39.9647 60.8253 39.0651 61.0484C38.6167 61.1596 38.2531 61.2404 38.005 61.2927C37.881 61.3189 37.7862 61.3379 37.7243 61.3499C37.6934 61.356 37.6708 61.3603 37.6569 61.3629C37.65 61.3642 37.6453 61.3651 37.6428 61.3655C37.6415 61.3658 37.6409 61.3659 37.6408 61.3659C37.6407 61.3659 37.6408 61.3659 37.641 61.3659C37.6411 61.3658 37.6414 61.3658 37.6415 61.3658C37.6418 61.3657 37.6422 61.3657 37.9993 63.3335ZM50.666 57.0002L52.3301 58.1096C53.4384 56.4471 53.9233 54.4507 54.1002 52.5472C54.2788 50.6264 54.1571 48.6502 53.9321 46.9045C53.7061 45.1509 53.3685 43.5756 53.0888 42.4412C52.9485 41.8722 52.8216 41.4097 52.7287 41.086C52.6823 40.924 52.6442 40.7964 52.6171 40.7073C52.6035 40.6627 52.5927 40.6277 52.585 40.6028C52.5811 40.5904 52.578 40.5804 52.5756 40.5731C52.5745 40.5694 52.5735 40.5664 52.5728 40.564C52.5724 40.5628 52.5721 40.5618 52.5718 40.5609C52.5716 40.5605 52.5715 40.56 52.5714 40.5598C52.5713 40.5593 52.5711 40.5588 50.666 41.1676C48.7609 41.7764 48.7608 41.776 48.7607 41.7757C48.7607 41.7757 48.7606 41.7754 48.7606 41.7753C48.7605 41.7751 48.7605 41.775 48.7605 41.7751C48.7606 41.7753 48.7609 41.7762 48.7613 41.7777C48.7623 41.7807 48.764 41.7862 48.7665 41.7941C48.7714 41.81 48.7794 41.8358 48.7901 41.8708C48.8114 41.941 48.8435 42.0484 48.8838 42.1891C48.9646 42.4706 49.0782 42.8843 49.2051 43.3989C49.4598 44.4315 49.7634 45.8525 49.9649 47.4158C50.1674 48.987 50.2595 50.6482 50.1174 52.177C49.9737 53.723 49.6036 54.9882 49.0019 55.8908L50.666 57.0002ZM49.4993 11.0002L47.5035 11.1289C47.6875 13.9805 48.6938 18.1992 51.2054 21.6619C53.7937 25.2305 57.9719 27.9521 64.1471 27.4947L63.9993 25.5002L63.8516 23.5056C59.2268 23.8482 56.3217 21.9032 54.4433 19.3134C52.4882 16.6178 51.6446 13.1865 51.4952 10.8714L49.4993 11.0002Z" fill="#00DBDC"/>
</svg>
