<svg width="60" height="60" viewBox="0 0 60 60" fill="none" xmlns="http://www.w3.org/2000/svg">
<circle cx="30" cy="30" r="29" fill="#00DBDC" fill-opacity="0.05" stroke="#00DBDC" stroke-width="2"/>
<g clip-path="url(#clip0_717_1505)">
<path d="M37.1078 33.9637V24.7066C37.1078 24.4338 36.9995 24.1722 36.8066 23.9793C36.6137 23.7864 36.3521 23.678 36.0793 23.678H19.6221C19.3493 23.678 19.0877 23.7864 18.8948 23.9793C18.7019 24.1722 18.5935 24.4338 18.5935 24.7066V33.9637C18.5935 35.0549 19.027 36.1014 19.7986 36.873C20.5702 37.6446 21.6167 38.078 22.7078 38.078H32.9935C34.0847 38.078 35.1312 37.6446 35.9028 36.873C36.6744 36.1014 37.1078 35.0549 37.1078 33.9637ZM37.1078 33.9637L39.1652 33.9639C40.2564 33.9639 41.3029 33.5304 42.0744 32.7588C42.846 31.9872 43.2795 30.9408 43.2795 29.8496C43.2795 28.7584 42.846 27.7119 42.0744 26.9403C41.3029 26.1688 40.2564 25.7353 39.1652 25.7353H37.1081M16.5371 43.2208H43.28M21.679 16.478V18.5352M31.9645 16.478V18.5352M26.8226 16.478V18.5352" stroke="#00DBDC" stroke-width="1.92" stroke-linecap="round" stroke-linejoin="round"/>
</g>
<defs>
<clipPath id="clip0_717_1505">
<rect width="28.8" height="28.8" fill="white" transform="translate(15.5078 15.45)"/>
</clipPath>
</defs>
</svg>
