<svg width="60" height="60" viewBox="0 0 60 60" fill="none" xmlns="http://www.w3.org/2000/svg">
<circle cx="30" cy="30" r="29" fill="#00DBDC" fill-opacity="0.05" stroke="#00DBDC" stroke-width="2"/>
<path d="M22.8 26.4H21C20.2044 26.4 19.4413 26.0839 18.8787 25.5213C18.3161 24.9587 18 24.1956 18 23.4C18 22.6044 18.3161 21.8413 18.8787 21.2787C19.4413 20.7161 20.2044 20.4 21 20.4H22.8M22.8 26.4V18H37.2V26.4M22.8 26.4C22.8 28.3096 23.5586 30.1409 24.9088 31.4912C26.2591 32.8414 28.0904 33.6 30 33.6C31.9096 33.6 33.7409 32.8414 35.0912 31.4912C36.4414 30.1409 37.2 28.3096 37.2 26.4M37.2 26.4H39C39.7957 26.4 40.5587 26.0839 41.1213 25.5213C41.6839 24.9587 42 24.1956 42 23.4C42 22.6044 41.6839 21.8413 41.1213 21.2787C40.5587 20.7161 39.7957 20.4 39 20.4H37.2M20.4 42H39.6M27.6 33.1922V36.0002C27.6 36.6602 27.036 37.1762 26.436 37.4522C25.02 38.1002 24 39.8882 24 42.0002M32.4 33.1922V36.0002C32.4 36.6602 32.964 37.1762 33.564 37.4522C34.98 38.1002 36 39.8882 36 42.0002" stroke="#00DBDC" stroke-width="1.92" stroke-linecap="round" stroke-linejoin="round"/>
</svg>
