<svg width="60" height="60" viewBox="0 0 60 60" fill="none" xmlns="http://www.w3.org/2000/svg">
<circle cx="30" cy="30" r="29" fill="#00DBDC" fill-opacity="0.05" stroke="#00DBDC" stroke-width="2"/>
<path d="M34.8 40.8V38.4C34.8 37.1269 34.2943 35.906 33.3941 35.0059C32.4939 34.1057 31.273 33.6 30 33.6H22.8C21.527 33.6 20.3061 34.1057 19.4059 35.0059C18.5057 35.906 18 37.1269 18 38.4V40.8" stroke="#00DBDC" stroke-width="1.92" stroke-linecap="round" stroke-linejoin="round"/>
<path d="M26.3996 28.8C29.0506 28.8 31.1996 26.6509 31.1996 24C31.1996 21.349 29.0506 19.2 26.3996 19.2C23.7486 19.2 21.5996 21.349 21.5996 24C21.5996 26.6509 23.7486 28.8 26.3996 28.8Z" stroke="#00DBDC" stroke-width="1.92" stroke-linecap="round" stroke-linejoin="round"/>
<path d="M42.0004 40.7999V38.3999C41.9996 37.3363 41.6456 36.3032 40.994 35.4626C40.3424 34.6221 39.4301 34.0217 38.4004 33.7559" stroke="#00DBDC" stroke-width="1.92" stroke-linecap="round" stroke-linejoin="round"/>
<path d="M34.7988 19.3558C35.8313 19.6202 36.7465 20.2207 37.4 21.0626C38.0535 21.9045 38.4082 22.94 38.4082 24.0058C38.4082 25.0716 38.0535 26.1071 37.4 26.9491C36.7465 27.791 35.8313 28.3915 34.7988 28.6558" stroke="#00DBDC" stroke-width="1.92" stroke-linecap="round" stroke-linejoin="round"/>
</svg>
