<svg width="60" height="60" viewBox="0 0 60 60" fill="none" xmlns="http://www.w3.org/2000/svg">
<circle cx="30" cy="30" r="29" fill="#00DBDC" fill-opacity="0.05" stroke="#00DBDC" stroke-width="2"/>
<path d="M32.8823 32.8795L27.1223 27.1195M41.4023 41.3995L39.7223 39.7195M20.2804 20.28L18.6004 18.6M37.9869 41.3824C37.5369 41.8326 36.9265 42.0856 36.2899 42.0857C35.6534 42.0858 35.0429 41.8331 34.5927 41.383C34.1425 40.933 33.8896 40.3226 33.8895 39.6861C33.8893 39.0495 34.1421 38.439 34.5921 37.9888L32.4717 40.1104C32.0215 40.5606 31.411 40.8135 30.7743 40.8135C30.1377 40.8135 29.5271 40.5606 29.0769 40.1104C28.6267 39.6603 28.3738 39.0497 28.3738 38.413C28.3738 37.7764 28.6267 37.1658 29.0769 36.7156L36.7137 29.0788C37.1639 28.6287 37.7745 28.3758 38.4111 28.3758C39.0478 28.3758 39.6583 28.6287 40.1085 29.0788C40.5587 29.529 40.8116 30.1396 40.8116 30.7762C40.8116 31.4129 40.5587 32.0235 40.1085 32.4736L37.9869 34.594C38.4371 34.144 39.0476 33.8913 39.6841 33.8914C40.3207 33.8915 40.9311 34.1445 41.3811 34.5946C41.8311 35.0448 42.0839 35.6553 42.0838 36.2919C42.0837 36.9284 41.8307 37.5388 41.3805 37.9888L37.9869 41.3824ZM23.2861 30.9213C22.8359 31.3715 22.2253 31.6244 21.5887 31.6244C20.952 31.6244 20.3415 31.3715 19.8913 30.9213C19.4411 30.4711 19.1882 29.8605 19.1882 29.2239C19.1882 28.5872 19.4411 27.9767 19.8913 27.5265L22.0129 25.4061C21.79 25.6289 21.5254 25.8057 21.2341 25.9262C20.9429 26.0468 20.6308 26.1088 20.3157 26.1088C19.6791 26.1086 19.0687 25.8557 18.6187 25.4055C18.3959 25.1826 18.2191 24.918 18.0985 24.6268C17.978 24.3356 17.916 24.0234 17.916 23.7083C17.9161 23.0717 18.1691 22.4613 18.6193 22.0113L22.0129 18.6177C22.4629 18.1675 23.0733 17.9145 23.7099 17.9144C24.025 17.9144 24.3371 17.9764 24.6283 18.097C24.9196 18.2175 25.1842 18.3943 25.4071 18.6171C25.63 18.8399 25.8068 19.1045 25.9275 19.3956C26.0481 19.6868 26.1103 19.9989 26.1103 20.3141C26.1104 20.6292 26.0484 20.9414 25.9278 21.2326C25.8072 21.5238 25.6305 21.7884 25.4077 22.0113L27.5281 19.8897C27.9783 19.4395 28.5888 19.1866 29.2255 19.1866C29.8621 19.1866 30.4727 19.4395 30.9229 19.8897C31.3731 20.3399 31.626 20.9504 31.626 21.5871C31.626 22.2237 31.3731 22.8343 30.9229 23.2845L23.2861 30.9213Z" stroke="#00DBDC" stroke-width="1.92" stroke-linecap="round" stroke-linejoin="round"/>
</svg>
