<svg width="60" height="60" viewBox="0 0 60 60" fill="none" xmlns="http://www.w3.org/2000/svg">
<circle cx="30" cy="30" r="29" fill="#00DBDC" fill-opacity="0.05" stroke="#00DBDC" stroke-width="2"/>
<path d="M39.6 19.2V24M42 21.6H37.2M20.4 36V38.4M21.6 37.2H19.2M27.5226 34.2003C27.4154 33.785 27.199 33.406 26.8957 33.1028C26.5924 32.7995 26.2135 32.583 25.7982 32.4759L18.4362 30.5775C18.3106 30.5418 18.2 30.4662 18.1213 30.362C18.0426 30.2579 18 30.1309 18 30.0003C18 29.8697 18.0426 29.7427 18.1213 29.6386C18.2 29.5344 18.3106 29.4587 18.4362 29.4231L25.7982 27.5235C26.2133 27.4165 26.5922 27.2002 26.8955 26.8971C27.1987 26.5941 27.4152 26.2154 27.5226 25.8003L29.421 18.4383C29.4563 18.3122 29.5318 18.2011 29.6362 18.122C29.7405 18.0428 29.8678 18 29.9988 18C30.1297 18 30.2571 18.0428 30.3614 18.122C30.4657 18.2011 30.5413 18.3122 30.5766 18.4383L32.4738 25.8003C32.5809 26.2156 32.7974 26.5946 33.1006 26.8978C33.4039 27.2011 33.7829 27.4176 34.1982 27.5247L41.5602 29.4219C41.6868 29.4568 41.7984 29.5323 41.878 29.6368C41.9575 29.7413 42.0006 29.869 42.0006 30.0003C42.0006 30.1316 41.9575 30.2593 41.878 30.3638C41.7984 30.4683 41.6868 30.5438 41.5602 30.5787L34.1982 32.4759C33.7829 32.583 33.4039 32.7995 33.1006 33.1028C32.7974 33.406 32.5809 33.785 32.4738 34.2003L30.5754 41.5623C30.5401 41.6884 30.4645 41.7995 30.3602 41.8786C30.2559 41.9578 30.1285 42.0006 29.9976 42.0006C29.8666 42.0006 29.7393 41.9578 29.635 41.8786C29.5306 41.7995 29.4551 41.6884 29.4198 41.5623L27.5226 34.2003Z" stroke="#00DBDC" stroke-width="1.92" stroke-linecap="round" stroke-linejoin="round"/>
</svg>
