<svg width="24" height="24" viewBox="0 0 24 24" fill="none" xmlns="http://www.w3.org/2000/svg">
<path fill-rule="evenodd" clip-rule="evenodd" d="M5.78314 3L6.22073 3C7.20599 2.99999 8.00068 2.99999 8.6442 3.05204C9.30679 3.10563 9.88878 3.21886 10.4272 3.49047C11.0486 3.80393 11.5856 4.25306 12 4.79999C12.4144 4.25306 12.9514 3.80393 13.5728 3.49047C14.1112 3.21886 14.6932 3.10563 15.3558 3.05204C15.9993 2.99999 16.794 2.99999 17.7793 3L18.2169 3C18.6961 2.99998 19.1095 2.99997 19.45 3.02751C19.8094 3.05658 20.1669 3.12077 20.5109 3.29428C21.0241 3.55314 21.4413 3.96619 21.7027 4.47423C21.878 4.81477 21.9428 5.16867 21.9722 5.52448C22 5.86159 22 6.27087 22 6.74529V14.5547C22 15.0291 22 15.4384 21.9722 15.7755C21.9428 16.1313 21.878 16.4852 21.7027 16.8258C21.4413 17.3338 21.0241 17.7469 20.5109 18.0057C20.1669 18.1792 19.8094 18.2434 19.45 18.2725C19.1095 18.3 18.6961 18.3 18.2169 18.3H16.932C15.7369 18.3 15.3288 18.3092 14.9718 18.4165C14.6287 18.5197 14.3096 18.6887 14.0326 18.9141C13.7443 19.1487 13.5103 19.4798 12.8474 20.4642L12.7564 20.5992C12.5878 20.8496 12.304 21 12 21C11.696 21 11.4122 20.8496 11.2436 20.5992L11.1526 20.4642C10.4897 19.4798 10.2557 19.1487 9.9674 18.9141C9.69042 18.6887 9.37126 18.5197 9.0282 18.4165C8.67118 18.3092 8.26307 18.3 7.06802 18.3H5.78312C5.30391 18.3 4.89049 18.3 4.54998 18.2725C4.19057 18.2434 3.8331 18.1792 3.48912 18.0057C2.97595 17.7469 2.55873 17.3338 2.29726 16.8258C2.12199 16.4852 2.05716 16.1313 2.02779 15.7755C1.99997 15.4384 1.99998 15.0291 2 14.5547V6.74531C1.99998 6.27088 1.99997 5.86159 2.02779 5.52448C2.05716 5.16867 2.12199 4.81477 2.29726 4.47423C2.55873 3.96619 2.97595 3.55314 3.48912 3.29428C3.8331 3.12077 4.19057 3.05659 4.54998 3.02751C4.8905 2.99997 5.30392 2.99998 5.78314 3ZM11.0909 9.66C11.0909 8.63706 11.0902 7.92397 11.0444 7.36882C10.9994 6.82417 10.9156 6.51125 10.7937 6.27423C10.5322 5.76619 10.115 5.35314 9.60179 5.09428C9.36238 4.97352 9.0463 4.89056 8.49615 4.84606C7.93538 4.8007 7.2151 4.8 6.18182 4.8H5.81818C5.29404 4.8 4.95561 4.8007 4.69803 4.82154C4.45107 4.84151 4.3595 4.87542 4.31456 4.8981C4.1435 4.98438 4.00443 5.12206 3.91727 5.29141C3.89437 5.33591 3.86011 5.42656 3.83994 5.67105C3.81889 5.92606 3.81818 6.2611 3.81818 6.78V14.52C3.81818 15.0389 3.81889 15.3739 3.83994 15.6289C3.86011 15.8734 3.89437 15.9641 3.91727 16.0086C4.00443 16.1779 4.1435 16.3156 4.31456 16.4019C4.3595 16.4246 4.45107 16.4585 4.69803 16.4785C4.95561 16.4993 5.29404 16.5 5.81818 16.5H7.06802C7.11336 16.5 7.15807 16.5 7.2022 16.5C8.21097 16.4996 8.90853 16.4994 9.55654 16.6942C10.1156 16.8623 10.6365 17.1354 11.0909 17.4986V9.66ZM12.9091 17.4986C13.3635 17.1354 13.8844 16.8623 14.4435 16.6942C15.0915 16.4994 15.789 16.4996 16.7978 16.5C16.8419 16.5 16.8866 16.5 16.932 16.5H18.1818C18.706 16.5 19.0444 16.4993 19.302 16.4785C19.5489 16.4585 19.6405 16.4246 19.6854 16.4019C19.8565 16.3156 19.9956 16.1779 20.0827 16.0086C20.1056 15.9641 20.1399 15.8734 20.1601 15.6289C20.1811 15.3739 20.1818 15.0389 20.1818 14.52V6.78C20.1818 6.2611 20.1811 5.92606 20.1601 5.67105C20.1399 5.42656 20.1056 5.33591 20.0827 5.29141C19.9956 5.12206 19.8565 4.98438 19.6854 4.8981C19.6405 4.87542 19.5489 4.84151 19.302 4.82154C19.0444 4.8007 18.706 4.8 18.1818 4.8H17.8182C16.7849 4.8 16.0646 4.8007 15.5039 4.84606C14.9537 4.89056 14.6376 4.97352 14.3982 5.09428C13.885 5.35314 13.4678 5.76619 13.2063 6.27423C13.0844 6.51125 13.0006 6.82417 12.9556 7.36882C12.9098 7.92397 12.9091 8.63706 12.9091 9.66V17.4986Z" fill="#0D0D0D"/>
</svg>
