<svg width="100" height="100" viewBox="0 0 100 100" fill="none" xmlns="http://www.w3.org/2000/svg">
<circle cx="50" cy="50" r="49.5" fill="#00DBDC" fill-opacity="0.05" stroke="#00DBDC"/>
<path d="M66 32V40M70 36H62M34 60V64M36 62H32M45.871 57.0005C45.6924 56.3084 45.3316 55.6767 44.8262 55.1713C44.3207 54.6658 43.6891 54.3051 42.997 54.1265L30.727 50.9625C30.5176 50.9031 30.3334 50.777 30.2022 50.6034C30.071 50.4298 30 50.2181 30 50.0005C30 49.7829 30.071 49.5712 30.2022 49.3976C30.3334 49.224 30.5176 49.0979 30.727 49.0385L42.997 45.8725C43.6888 45.6941 44.3203 45.3336 44.8258 44.8286C45.3312 44.3235 45.6921 43.6923 45.871 43.0005L49.035 30.7305C49.0938 30.5203 49.2197 30.3352 49.3936 30.2033C49.5675 30.0714 49.7797 30 49.9979 30C50.2162 30 50.4284 30.0714 50.6023 30.2033C50.7762 30.3352 50.9021 30.5203 50.961 30.7305L54.1229 43.0005C54.3015 43.6926 54.6623 44.3243 55.1677 44.8297C55.6732 45.3352 56.3048 45.6959 56.997 45.8745L69.267 49.0365C69.478 49.0947 69.664 49.2205 69.7966 49.3947C69.9292 49.5688 70.001 49.7816 70.001 50.0005C70.001 50.2194 69.9292 50.4322 69.7966 50.6063C69.664 50.7805 69.478 50.9063 69.267 50.9645L56.997 54.1265C56.3048 54.3051 55.6732 54.6658 55.1677 55.1713C54.6623 55.6767 54.3015 56.3084 54.1229 57.0005L50.959 69.2705C50.9001 69.4807 50.7742 69.6658 50.6003 69.7977C50.4264 69.9296 50.2142 70.001 49.996 70.001C49.7777 70.001 49.5655 69.9296 49.3916 69.7977C49.2177 69.6658 49.0918 69.4807 49.0329 69.2705L45.871 57.0005Z" stroke="#00DBDC" stroke-width="3.2" stroke-linecap="round" stroke-linejoin="round"/>
</svg>
