<svg width="96" height="96" viewBox="0 0 96 96" fill="none" xmlns="http://www.w3.org/2000/svg">
<path d="M0 48C0 25.3726 0 14.0589 7.02944 7.02944C14.0589 0 25.3726 0 48 0C70.6274 0 81.9411 0 88.9706 7.02944C96 14.0589 96 25.3726 96 48C96 70.6274 96 81.9411 88.9706 88.9706C81.9411 96 70.6274 96 48 96C25.3726 96 14.0589 96 7.02944 88.9706C0 81.9411 0 70.6274 0 48Z" fill="#00DBDC" fill-opacity="0.05"/>
<path d="M73 35.5L51.75 56.75L39.25 44.25L23 60.5" stroke="#00DBDC" stroke-width="4" stroke-linecap="round" stroke-linejoin="round"/>
<path d="M58 35.5H73V50.5" stroke="#00DBDC" stroke-width="4" stroke-linecap="round" stroke-linejoin="round"/>
</svg>
