<svg width="56" height="56" viewBox="0 0 56 56" fill="none" xmlns="http://www.w3.org/2000/svg">
<path d="M14.7734 38C9.6868 36.7659 2.97075 36.248 4.13261 31.3059C5.34719 26.1396 12.7921 20 22.0405 20C31.2882 20 39.2137 27.0425 39.9563 31.3059C40.699 35.5694 31.753 37.3671 29.6039 37.9107M23 20C21.4178 20 19.871 19.5308 18.5554 18.6518C17.2398 17.7727 16.2145 16.5233 15.609 15.0615C15.0035 13.5997 14.845 11.9911 15.1537 10.4393C15.4624 8.88743 16.2243 7.46197 17.3431 6.34315C18.462 5.22433 19.8874 4.4624 21.4393 4.15372C22.9911 3.84504 24.5997 4.00347 26.0615 4.60897C27.5233 5.21447 28.7727 6.23985 29.6518 7.55544C30.5308 8.87103 31 10.4178 31 12C30.996 14.1205 30.1519 16.153 28.6524 17.6524C27.153 19.1519 25.1205 19.996 23 20Z" stroke="#00DBDC" stroke-width="2.5" stroke-linecap="round"/>
<rect x="18.7915" y="37.8474" width="3.79527" height="13.2881" rx="1.89764" fill="#121212" stroke="#00DBDC" stroke-width="2.5"/>
<rect x="14.9961" y="42.5933" width="3.79527" height="4.74576" rx="1.89764" fill="#00DBDC" stroke="#00DBDC" stroke-width="2.5"/>
<rect x="22.5869" y="35" width="3.79527" height="18.983" rx="1.89764" fill="#121212" stroke="#00DBDC" stroke-width="2.5"/>
<rect width="3.79527" height="13.2881" rx="1.89764" transform="matrix(-1 0 0 1 48.2056 37.8474)" fill="#121212" stroke="#00DBDC" stroke-width="2.5"/>
<rect width="3.79527" height="4.74576" rx="1.89764" transform="matrix(-1 0 0 1 52.001 42.5933)" fill="#00DBDC" stroke="#00DBDC" stroke-width="2.5"/>
<rect width="3.79527" height="18.983" rx="1.89764" transform="matrix(-1 0 0 1 44.4102 35)" fill="#121212" stroke="#00DBDC" stroke-width="2.5"/>
<path d="M25.5 44H41" stroke="#00DBDC" stroke-width="2.5"/>
</svg>
