<svg width="100" height="100" viewBox="0 0 100 100" fill="none" xmlns="http://www.w3.org/2000/svg">
<circle cx="50" cy="50" r="49.5" fill="#00DBDC" fill-opacity="0.05" stroke="#00DBDC"/>
<path d="M57.0187 34.8823H47.7664L28 70H57.0187C60.5223 69.696 67.6169 67.446 67.9533 59.0542C68.3737 48.5645 59.1215 43.0916 51.972 46.7402C44.8224 50.3888 44.8243 61.3346 51.1308 64.071C54.4943 65.1352 62.486 64.9832 62.4755 57.686C62.4651 50.3753 55.757 49.9327 53.2336 52.2131C50.7103 54.4935 51.972 59.9664 57.0187 58.1421M57.0187 34.8823L49.028 49.0206M57.0187 34.8823C58.2804 32.2979 61.6449 27.5851 67.1121 29.4094C71.8926 31.0045 72.8598 35.6424 73 37.6187L67.9533 58.5982" stroke="#00DBDC" stroke-width="3.2" stroke-linecap="round" stroke-linejoin="round"/>
</svg>
