<svg width="60" height="60" viewBox="0 0 60 60" fill="none" xmlns="http://www.w3.org/2000/svg">
<circle cx="30" cy="30" r="29" fill="url(#paint0_linear_1641_1716)" stroke="url(#paint1_linear_1641_1716)" stroke-width="2"/>
<mask id="mask0_1641_1716" style="mask-type:alpha" maskUnits="userSpaceOnUse" x="13" y="14" width="34" height="34">
<rect x="13.2856" y="14.5723" width="33.4286" height="33.4286" fill="#D9D9D9"/>
</mask>
<g mask="url(#mask0_1641_1716)">
<path d="M24.292 96.6094C24.5092 96.6094 24.712 96.5758 24.8951 96.5038C25.4538 96.2834 26.1037 96.1534 26.3226 95.5252H21.9476C21.9669 95.6873 22.071 95.8374 22.2975 95.9649C22.9982 96.3594 23.6988 96.6094 24.292 96.6094ZM36.8453 96.6094C37.4386 96.6094 38.1391 96.3594 38.8399 95.9649C39.0664 95.8374 39.1704 95.6873 39.1897 95.5252H34.8147C35.0336 96.1534 35.6835 96.2834 36.2423 96.5038C36.4253 96.5758 36.6282 96.6094 36.8453 96.6094ZM21.9539 95.3648H26.3667C26.3878 95.2625 26.3991 95.149 26.3991 95.0223C26.3991 93.9452 26.3991 93.5411 26.6725 93.5411C26.8681 93.5411 26.9939 93.265 26.9993 92.9106H23.6121C23.5116 93.3187 23.3752 93.6915 23.1179 93.9452C22.7424 94.3152 22.0445 94.8754 21.9539 95.3648ZM34.7708 95.3648H39.1834C39.0931 94.8754 38.3951 94.3152 38.0195 93.9452C37.7621 93.6915 37.6258 93.3187 37.5252 92.9106H34.1383C34.1437 93.265 34.2692 93.5411 34.4651 93.5411C34.7385 93.5411 34.7385 93.9452 34.7385 95.0223C34.7385 95.149 34.7498 95.2625 34.7708 95.3648ZM23.6497 92.7502H26.9936C26.986 92.6567 26.9702 92.5602 26.9457 92.4637C26.8091 91.9252 26.5357 91.6559 26.5357 91.2519C26.5357 90.9958 26.5906 90.6316 26.596 90.2962H23.9947C24.0568 90.7327 24.1244 90.9708 23.9381 91.5214C23.8099 91.8995 23.742 92.3367 23.6497 92.7502ZM34.1437 92.7502H37.4877C37.3954 92.3367 37.3274 91.8995 37.1993 91.5214C37.013 90.9708 37.0807 90.7327 37.1426 90.2962H34.5413C34.5467 90.6316 34.6017 90.9958 34.6017 91.2519C34.6017 91.6559 34.3283 91.9252 34.1917 92.4637C34.1671 92.5602 34.1515 92.6567 34.1437 92.7502ZM23.9739 90.1357H26.5943C26.5887 90.0021 26.5717 89.877 26.5357 89.7707C26.3991 89.3668 26.2623 88.6935 26.3991 87.8854C26.4075 87.8354 26.4197 87.7669 26.4349 87.682H23.7027C23.8458 88.4914 23.9381 89.1403 23.9381 89.5014C23.9381 89.7598 23.9537 89.9636 23.9739 90.1357ZM34.543 90.1357H37.1634C37.1836 89.9636 37.1993 89.7598 37.1993 89.5014C37.1993 89.1403 37.2916 88.4914 37.4347 87.682H34.7026C34.7178 87.7669 34.73 87.8354 34.7385 87.8854C34.8751 88.6935 34.7385 89.3668 34.6017 89.7707C34.5658 89.877 34.5487 90.0021 34.543 90.1357ZM23.674 87.5216H26.464C26.5589 87.0006 26.7281 86.0903 26.9085 85.0676H23.1958C23.3739 85.9461 23.5424 86.7925 23.674 87.5216ZM34.6735 87.5216H37.4633C37.5949 86.7925 37.7634 85.9461 37.9417 85.0676H34.2288C34.4093 86.0903 34.5786 87.0006 34.6735 87.5216ZM23.1633 84.9072H26.937C27.0777 84.1051 27.2236 83.244 27.3448 82.4532H22.6675C22.8243 83.2483 22.9971 84.0891 23.1633 84.9072ZM34.2006 84.9072H37.9741C38.1404 84.0891 38.3131 83.2483 38.4701 82.4532H33.7925C33.9139 83.244 34.0596 84.1051 34.2006 84.9072ZM22.6358 82.2928H27.3691C27.5215 81.2835 27.6295 80.4061 27.6295 79.9407C27.6295 79.9069 27.6293 79.8729 27.6286 79.8391H22.3174C22.3483 80.4983 22.426 81.2105 22.5711 81.9607C22.5921 82.0702 22.6139 82.1812 22.6358 82.2928ZM33.7682 82.2928H38.5016C38.5237 82.1812 38.5452 82.0702 38.5665 81.9607C38.7115 81.2105 38.7893 80.4983 38.8201 79.8391H33.5089C33.5083 79.8729 33.5081 79.9069 33.5081 79.9407C33.5081 80.4061 33.616 81.2835 33.7682 82.2928ZM22.3109 79.6786H27.624C27.59 78.8271 27.4041 77.9833 27.353 77.2247H22.4345C22.3392 77.8961 22.2768 78.7296 22.3109 79.6786ZM33.5135 79.6786H38.8266C38.8605 78.7296 38.7982 77.8961 38.7029 77.2247H33.7843C33.7333 77.9833 33.5476 78.8271 33.5135 79.6786ZM22.4584 77.0643H27.3444C27.3272 76.6431 27.3596 76.2506 27.4927 75.9009C27.6618 75.4564 27.8312 75.0577 27.9908 74.6103H22.8977C22.8573 75.1266 22.7971 75.5929 22.7077 75.9009C22.6271 76.1785 22.5346 76.5734 22.4584 77.0643ZM33.793 77.0643H38.6792C38.6027 76.5734 38.5102 76.1785 38.4297 75.9009C38.3404 75.5929 38.2803 75.1266 38.2397 74.6103H33.1467C33.3063 75.0577 33.4755 75.4564 33.6449 75.9009C33.778 76.2506 33.8101 76.6431 33.793 77.0643ZM22.9096 74.4499H28.0469C28.2521 73.849 28.439 73.1462 28.5863 72.1306C28.5926 72.0879 28.5993 72.0429 28.6062 71.9959H22.9808C22.9795 72.5879 22.9706 73.5731 22.9096 74.4499ZM33.0907 74.4499H38.2279C38.1667 73.5731 38.1578 72.5879 38.1565 71.9959H32.5311C32.5383 72.0429 32.5448 72.0879 32.5511 72.1306C32.6983 73.1462 32.8853 73.849 33.0907 74.4499ZM22.9811 71.8355H28.6312C28.7261 71.2344 28.8807 70.362 29.0547 69.3815H22.6968C22.8479 70.5031 22.9813 71.3277 22.9813 71.7264C22.9813 71.76 22.9813 71.7963 22.9811 71.8355ZM32.5061 71.8355H38.1563C38.1563 71.7963 38.1563 71.76 38.1563 71.7264C38.1563 71.3277 38.2894 70.5031 38.4407 69.3815H32.0829C32.2566 70.362 32.4112 71.2344 32.5061 71.8355ZM22.6753 69.2211H29.0831C29.2219 68.4378 29.3715 67.5927 29.5118 66.7671H22.4028C22.4801 67.677 22.58 68.5054 22.6753 69.2211ZM32.0544 69.2211H38.4622C38.5574 68.5054 38.6575 67.677 38.7348 66.7671H31.6258C31.7658 67.5927 31.9155 68.4378 32.0544 69.2211ZM22.3893 66.6067H29.5389C29.6875 65.7276 29.8238 64.8769 29.9237 64.1529H22.2799C22.2783 64.4765 22.2838 64.8023 22.2975 65.1281C22.3192 65.6393 22.3511 66.1336 22.3893 66.6067ZM31.5984 66.6067H38.748C38.7865 66.1336 38.8182 65.6393 38.8399 65.1281C38.8536 64.8023 38.859 64.4765 38.8577 64.1529H31.2136C31.3137 64.8769 31.4501 65.7276 31.5984 66.6067ZM21.8093 64.6778C22.0582 64.6778 22.2293 64.6361 22.2293 64.5221C22.2293 64.438 22.1294 64.3082 21.9878 64.1529H20.0486C20.2343 64.3489 20.4199 64.4889 20.5887 64.5221C20.9832 64.6 21.469 64.6778 21.8093 64.6778ZM39.3283 64.6778C39.6683 64.6778 40.1541 64.6 40.5487 64.5221C40.7176 64.4889 40.9031 64.3489 41.0887 64.1529H39.1495C39.0082 64.3082 38.9083 64.438 38.9083 64.5221C38.9083 64.6361 39.0792 64.6778 39.3283 64.6778ZM19.9066 63.9925H21.8371C21.532 63.6738 21.1472 63.289 21.0671 62.9737C20.9305 62.4349 20.5205 62.0311 20.9305 61.7618C21.0121 61.7081 21.1103 61.632 21.2115 61.5385H18.7255C18.7454 61.8915 18.773 62.1575 18.8113 62.233C18.9057 62.4189 19.3904 63.3739 19.9066 63.9925ZM22.2812 63.9925H29.9457C30.0351 63.3245 30.0903 62.7772 30.0903 62.435C30.0903 62.435 30.2796 62.5271 30.5005 62.5586V62.5697C30.5233 62.5697 30.5461 62.5676 30.5687 62.5659C30.5913 62.5676 30.614 62.5697 30.6369 62.5697V62.5586C30.8577 62.5271 31.0471 62.435 31.0471 62.435C31.0471 62.7772 31.1022 63.3245 31.1919 63.9925H38.8564C38.8464 63.1455 38.7906 62.315 38.7137 61.5385H22.4236C22.347 62.315 22.2909 63.1455 22.2812 63.9925ZM39.3002 63.9925H41.2308C41.7469 63.3739 42.2316 62.4189 42.3261 62.233C42.3643 62.1575 42.3919 61.8915 42.4119 61.5385H39.9259C40.0271 61.632 40.1252 61.7081 40.2069 61.7618C40.6171 62.0311 40.2069 62.4349 40.0703 62.9737C39.9901 63.289 39.6056 63.6738 39.3002 63.9925ZM21.7365 63.2227C21.9216 63.2227 21.9216 62.676 21.9216 62.1295C21.9216 61.9062 21.9524 61.7135 21.9889 61.5385H21.2462C21.3659 61.817 21.3667 61.9965 21.3667 62.3115C21.3667 62.676 21.5517 63.2227 21.7365 63.2227ZM39.4475 63.0403C39.6325 63.0403 39.8173 62.494 39.8173 62.1295C39.8173 61.888 39.8186 61.7261 39.8724 61.5385H39.229C39.2488 61.6639 39.2625 61.7988 39.2625 61.9473C39.2625 62.494 39.2625 63.0403 39.4475 63.0403ZM18.7172 61.3781H22.0243C22.0671 61.1914 22.1066 61.0228 22.1066 60.8541C22.1066 60.7035 21.9889 60.4055 21.8514 60.1085C21.8364 59.9891 21.8052 59.8668 21.7509 59.7418C21.6938 59.6109 21.6317 59.4905 21.5665 59.3787H18.6757C18.6786 59.9211 18.6877 60.7495 18.7172 61.3781ZM22.4399 61.3781H38.6976C38.6223 60.6505 38.53 59.9735 38.4418 59.3787H22.6955C22.6076 59.9735 22.515 60.6505 22.4399 61.3781ZM39.1997 61.3781H42.4201C42.4496 60.7495 42.4588 59.9211 42.4616 59.3787H39.571C39.5057 59.4905 39.4436 59.6109 39.3867 59.7418C39.3532 59.8189 39.3306 59.8946 39.3126 59.9694C39.1839 60.252 39.0774 60.5285 39.0774 60.6718C39.0774 60.8937 39.1461 61.1155 39.1997 61.3781ZM18.6036 58.3094H20.7583C20.6462 58.1588 20.5602 58.0134 20.5205 57.8566C20.4862 57.7216 20.5378 57.2729 20.6323 56.6573H18.3276C18.4414 57.3221 18.5407 57.9049 18.6036 58.3094ZM22.8595 58.3094H38.2781C38.2247 57.9644 38.1812 57.6746 38.1563 57.4528C38.1322 57.2395 38.0913 56.9681 38.0408 56.6573H23.0966C23.0462 56.9681 23.0052 57.2395 22.9813 57.4528C22.9561 57.6746 22.9127 57.9644 22.8595 58.3094ZM40.3791 58.3094H42.5337C42.5967 57.9049 42.6959 57.3221 42.8097 56.6573H40.505C40.5997 57.2729 40.6514 57.7216 40.6171 57.8566C40.5773 58.0134 40.4911 58.1588 40.3791 58.3094ZM18.1811 55.8018H20.7715C20.8692 55.2217 20.9826 54.5753 21.0899 53.9362H17.869C17.9683 54.549 18.0768 55.1907 18.1811 55.8018ZM23.2395 55.8018H37.8979C37.7991 55.214 37.6918 54.565 37.6073 53.9362H23.53C23.4458 54.565 23.3383 55.214 23.2395 55.8018ZM40.366 55.8018H42.9563C43.0605 55.1907 43.1691 54.549 43.2683 53.9362H40.0475C40.1548 54.5753 40.2681 55.2217 40.366 55.8018ZM17.7672 53.2945H21.1956C21.3235 52.4993 21.4299 51.7556 21.4703 51.2149H17.5109C17.5257 51.4809 17.5485 51.7436 17.5808 51.999C17.6288 52.3759 17.6933 52.8184 17.7672 53.2945ZM23.6078 53.2945H37.5296C37.4631 52.6704 37.4325 52.0967 37.4727 51.6623C37.4864 51.5145 37.4918 51.3652 37.4909 51.2149H23.6464C23.6456 51.3652 23.651 51.5145 23.6647 51.6623C23.7048 52.0967 23.6742 52.6704 23.6078 53.2945ZM39.9417 53.2945H43.3702C43.444 52.8184 43.5085 52.3759 43.5565 51.999C43.5888 51.7436 43.6116 51.4809 43.6264 51.2149H39.667C39.7074 51.7556 39.8138 52.4993 39.9417 53.2945ZM17.494 50.7871H21.4877C21.4873 50.7107 21.4838 50.6429 21.4773 50.5852C21.3943 49.8487 21.2608 49.1125 21.2299 48.4668H17.5848C17.5185 49.1647 17.4738 49.979 17.494 50.7871ZM23.6638 50.7871H37.4735C37.4188 50.0231 37.251 49.2383 37.2114 48.4668H23.9259C23.8866 49.2383 23.7187 50.0231 23.6638 50.7871ZM39.6496 50.7871H43.6436C43.6638 49.979 43.6188 49.1647 43.5526 48.4668H39.9074C39.8766 49.1125 39.7432 49.8487 39.6601 50.5852C39.6536 50.6429 39.6501 50.7107 39.6496 50.7871ZM17.6006 48.3064H21.2245C21.2175 47.9524 21.2473 47.6292 21.3407 47.3533C21.433 47.0806 21.603 46.5165 21.7932 45.8524H17.9717C17.9216 46.235 17.8803 46.5099 17.8543 46.6126C17.7952 46.8459 17.6847 47.4835 17.6006 48.3064ZM23.9322 48.3064H37.2054C37.1943 47.8927 37.2253 47.4833 37.3361 47.084C37.4286 46.7495 37.5352 46.3187 37.6447 45.8524H23.4927C23.6023 46.3187 23.7087 46.7495 23.8015 47.084C23.912 47.4833 23.9431 47.8927 23.9322 48.3064ZM39.9128 48.3064H43.5367C43.4527 47.4835 43.3422 46.8459 43.2831 46.6126C43.257 46.5099 43.2158 46.235 43.1656 45.8524H39.3441C39.5343 46.5165 39.7046 47.0806 39.7969 47.3533C39.8903 47.6292 39.9198 47.9524 39.9128 48.3064ZM17.9926 45.692H21.839C22.0681 44.8865 22.319 43.9618 22.4948 43.238H18.2849C18.1813 44.1368 18.0762 45.0398 17.9926 45.692ZM23.4553 45.692H37.6822C37.8772 44.8522 38.0777 43.9218 38.2216 43.238H22.9157C23.0599 43.9218 23.2601 44.8522 23.4553 45.692ZM39.2985 45.692H43.1448C43.0612 45.0398 42.956 44.1368 42.8525 43.238H38.6425C38.8186 43.9618 39.0694 44.8865 39.2985 45.692ZM18.3033 43.0778H22.5333C22.6173 42.724 22.6797 42.4295 22.7077 42.2363C22.7077 42.2363 22.7758 42.5717 22.882 43.0778H38.2555C38.3617 42.5717 38.4297 42.2363 38.4297 42.2363C38.4577 42.4295 38.5202 42.724 38.604 43.0778H42.834C42.7263 42.1422 42.6219 41.2276 42.5463 40.6238H18.5911C18.5155 41.2276 18.411 42.1422 18.3033 43.0778ZM18.6115 40.4634H42.5259C42.5002 40.263 42.4787 40.1086 42.4627 40.0145C42.4069 39.6848 42.3511 38.9065 42.2303 38.0094H18.907C18.7863 38.9065 18.7305 39.6848 18.6747 40.0145C18.6586 40.1086 18.6371 40.263 18.6115 40.4634ZM18.9292 37.849H42.2082C42.0926 37.032 41.9215 36.1343 41.6479 35.395H19.4896C19.2158 36.1343 19.0447 37.032 18.9292 37.849ZM19.5515 35.2346H41.5858C41.4481 34.8943 41.2863 34.5938 41.0957 34.3587C40.6874 33.8563 39.6134 33.2976 38.4127 32.7807H22.6818C21.5051 33.2976 20.4499 33.8563 20.0417 34.3587C19.851 34.5938 19.6892 34.8943 19.5515 35.2346ZM23.0536 32.6202H38.0334C36.1089 31.8211 34.0106 31.1506 33.8499 30.9923C33.7711 30.9149 33.6668 30.5881 33.5732 30.1665H27.4275C27.3339 30.5881 27.2295 30.9149 27.1509 30.9923C26.9902 31.1506 24.9389 31.8211 23.0536 32.6202ZM27.4618 30.0061H33.5389C33.4683 29.6608 33.4067 29.2694 33.3713 28.9052C33.3 28.1713 33.3713 27.6932 33.3713 27.6932C33.408 27.6571 33.4375 27.6088 33.4607 27.5521H27.54C27.5632 27.6088 27.5928 27.6571 27.6295 27.6932C27.6295 27.6932 27.7005 28.1713 27.6295 28.9052C27.5941 29.2694 27.5324 29.6608 27.4618 30.0061ZM27.4929 27.3917H33.5079C33.5852 27.0129 33.5081 26.4813 33.5081 26.4813C33.576 26.5081 33.6386 26.5203 33.6961 26.5203C34.2188 26.5203 34.3419 25.5252 34.4651 25.404C34.5252 25.3447 34.6119 25.1548 34.6785 24.9377H26.3222C26.3887 25.1548 26.4755 25.3447 26.5357 25.404C26.6588 25.5252 26.7819 26.5203 27.3044 26.5203C27.3622 26.5203 27.4247 26.5081 27.4927 26.4813C27.4927 26.4813 27.4156 27.0129 27.4929 27.3917ZM26.2781 24.7773H34.7224C34.7782 24.5469 34.8004 24.3142 34.7385 24.1921C34.6701 24.0573 34.5333 24.0237 34.4136 24.0237C34.2942 24.0237 34.1917 24.0573 34.1917 24.0573C34.1917 24.0573 34.2258 23.2492 34.0718 22.3233H26.9287C26.775 23.2492 26.8091 24.0573 26.8091 24.0573C26.8091 24.0573 26.7066 24.0237 26.5871 24.0237C26.4675 24.0237 26.3307 24.0573 26.2623 24.1921C26.2002 24.3142 26.2225 24.5469 26.2781 24.7773ZM26.9572 22.1629H34.0436C33.8775 21.2797 33.5331 20.3273 32.8245 19.883C32.7244 19.8201 32.6199 19.7622 32.5118 19.7091H28.4888C28.3808 19.7622 28.2764 19.8201 28.1761 19.883C27.4675 20.3273 27.1233 21.2797 26.9572 22.1629ZM28.8644 19.5487H32.1361C31.6282 19.362 31.0642 19.2687 30.5003 19.2687C29.9363 19.2687 29.3724 19.362 28.8644 19.5487Z" fill="#0D0D0D"/>
</g>
<path d="M22.0385 15.8574H16.3517C15.7236 15.8574 15.2144 16.3666 15.2144 16.9948V22.6816" stroke="#0D0D0D" stroke-width="1.81978" stroke-linecap="round"/>
<path d="M37.9615 15.8574H43.6483C44.2764 15.8574 44.7856 16.3666 44.7856 16.9948V22.6816" stroke="#0D0D0D" stroke-width="1.81978" stroke-linecap="round"/>
<path d="M22.0385 45.4277H16.3517C15.7236 45.4277 15.2144 44.9185 15.2144 44.2904V38.6036" stroke="#0D0D0D" stroke-width="1.81978" stroke-linecap="round"/>
<path d="M37.9615 45.4277H43.6483C44.2764 45.4277 44.7856 44.9185 44.7856 44.2904V38.6036" stroke="#0D0D0D" stroke-width="1.81978" stroke-linecap="round"/>
<line x1="19.1951" y1="31.2126" x2="41.9424" y2="31.2126" stroke="#0D0D0D" stroke-width="1.13736" stroke-linecap="round"/>
<defs>
<linearGradient id="paint0_linear_1641_1716" x1="4.192" y1="4.3247e-07" x2="55.808" y2="60" gradientUnits="userSpaceOnUse">
<stop stop-color="#0BFFB6"/>
<stop offset="0.581731" stop-color="#00DBDC"/>
</linearGradient>
<linearGradient id="paint1_linear_1641_1716" x1="30" y1="0" x2="30" y2="60" gradientUnits="userSpaceOnUse">
<stop stop-color="#91FFFF"/>
<stop offset="1" stop-color="#0D0D0D"/>
</linearGradient>
</defs>
</svg>
