<svg width="60" height="60" viewBox="0 0 60 60" fill="none" xmlns="http://www.w3.org/2000/svg">
<circle cx="30" cy="30" r="29" fill="url(#paint0_linear_1608_1129)" stroke="url(#paint1_linear_1608_1129)" stroke-width="2"/>
<path d="M25.4464 35.4606C25.4464 35.4606 25.9154 29.8615 26.1496 29.3949C26.2679 29.159 28.4817 29.3219 30.7031 29.2053C32.877 29.0912 35.0583 28.695 35.2902 28.695C35.7591 28.695 33.6542 36.1605 33.6496 36.6271C33.645 37.0937 34.1181 41.7597 34.3527 42.2263C34.5872 42.6929 38.3369 47.1255 38.5714 47.8254C38.806 48.5253 38.7477 49.4868 38.1027 50.1584C37.4576 50.83 36.6966 50.625 35.7591 50.3917C34.8216 50.1584 30.1339 43.3928 30.1339 43.3928C30.1339 43.3928 30.0168 38.7268 29.8996 38.4935C29.7824 38.2602 28.2591 38.2602 28.0246 38.4935C27.79 38.7268 24.2746 41.6432 24.0403 41.993C23.806 42.3427 24.5089 48.7586 24.5089 48.7586C24.5089 48.7586 24.2747 50.625 22.6339 50.625C20.9931 50.625 20.5248 49.2252 20.5248 49.2252C20.5248 49.2252 19.1181 41.0598 19.5871 40.3599C20.056 39.66 25.4464 35.4606 25.4464 35.4606Z" fill="#0D0D0D"/>
<path d="M37.6341 18.4299C37.6341 20.6203 35.8503 22.3959 33.6497 22.3959C31.4492 22.3959 29.6654 20.6203 29.6654 18.4299C29.6654 16.2395 31.4492 14.4638 33.6497 14.4638C35.8503 14.4638 37.6341 16.2395 37.6341 18.4299Z" fill="#0D0D0D"/>
<path d="M41.7188 30.1385C41.7188 31.2981 40.7744 32.2382 39.6094 32.2382C38.4444 32.2382 37.5 31.2981 37.5 30.1385C37.5 28.9789 38.4444 28.0388 39.6094 28.0388C40.7744 28.0388 41.7188 28.9789 41.7188 30.1385Z" fill="#0D0D0D"/>
<path d="M20.7591 22.8623C21.306 22.8623 21.4622 22.1624 21.4622 21.6958C21.4622 21.2292 21.0495 21.0059 20.5247 20.7626C19.9999 20.5193 25.681 10.2644 26.15 9.56426C26.619 8.86409 29.431 10.2642 29.431 11.1973C29.431 12.1305 24.5047 22.4447 24.0406 22.3957C23.5765 22.3466 23.1028 22.2883 22.8685 22.3957C22.6341 22.503 22.404 22.9859 22.4 23.5621C22.3959 24.1384 25.2225 24.4211 27.0872 24.4953C28.7956 24.5634 31.0719 24.4953 34.1187 24.0287C36.5545 23.6557 36.9312 26.8283 34.3531 27.5742C32.2437 28.1844 28.4012 28.1757 26.3844 27.9948C22.5545 27.6514 19.1935 26.4735 18.6501 25.6618C17.7128 24.2619 18.8224 23.2431 19.1188 23.0956C19.5874 22.8623 20.2122 22.8623 20.7591 22.8623Z" fill="#0D0D0D"/>
<defs>
<linearGradient id="paint0_linear_1608_1129" x1="4.192" y1="4.3247e-07" x2="55.808" y2="60" gradientUnits="userSpaceOnUse">
<stop stop-color="#0BFFB6"/>
<stop offset="0.581731" stop-color="#00DBDC"/>
</linearGradient>
<linearGradient id="paint1_linear_1608_1129" x1="30" y1="0" x2="30" y2="60" gradientUnits="userSpaceOnUse">
<stop stop-color="#91FFFF"/>
<stop offset="1" stop-color="#0D0D0D"/>
</linearGradient>
</defs>
</svg>
