<svg width="60" height="60" viewBox="0 0 60 60" fill="none" xmlns="http://www.w3.org/2000/svg">
<circle cx="30" cy="30" r="29" fill="url(#paint0_linear_1608_1123)" stroke="url(#paint1_linear_1608_1123)" stroke-width="2"/>
<path d="M41.1462 20.6161C41.1462 20.1979 41.0638 19.7837 40.9038 19.3974C40.7438 19.011 40.5092 18.66 40.2135 18.3643C39.9178 18.0686 39.5667 17.8341 39.1804 17.674C38.794 17.514 38.3799 17.4316 37.9618 17.4316C37.5436 17.4316 37.1295 17.514 36.7431 17.674C36.3568 17.8341 36.0057 18.0686 35.71 18.3643C35.4143 18.66 35.1798 19.011 35.0197 19.3974C34.8597 19.7837 34.7773 20.1979 34.7773 20.6161C34.7773 21.0343 34.8597 21.4484 35.0197 21.8347C35.1798 22.2211 35.4143 22.5721 35.71 22.8678C36.0057 23.1635 36.3568 23.398 36.7431 23.5581C37.1295 23.7181 37.5436 23.8005 37.9618 23.8005C38.3799 23.8005 38.794 23.7181 39.1804 23.5581C39.5667 23.398 39.9178 23.1635 40.2135 22.8678C40.5092 22.5721 40.7438 22.2211 40.9038 21.8347C41.0638 21.4484 41.1462 21.0343 41.1462 20.6161Z" fill="black"/>
<path d="M42.3338 11.25C39.3387 11.2861 36.41 12.1367 33.8616 13.7107C31.3132 15.2848 29.2414 17.5229 27.8683 20.1849L28.0047 19.9167L23.234 28.9698L16.1137 45.6789C16.0002 45.9456 15.9404 46.232 15.9376 46.5218C15.9348 46.8116 15.9891 47.0991 16.0975 47.368C16.2058 47.6368 16.366 47.8815 16.5689 48.0884C16.7719 48.2953 17.0136 48.4602 17.2803 48.5737C17.5469 48.6872 17.8334 48.7471 18.1232 48.7499C18.413 48.7527 18.7005 48.6983 18.9693 48.59C19.2381 48.4817 19.4829 48.3215 19.6898 48.1185C19.8967 47.9156 20.0616 47.6739 20.1751 47.4072L24.5562 37.1219C24.5772 37.0755 24.6111 37.0362 24.6539 37.0086C24.6967 36.9809 24.7465 36.9663 24.7975 36.9663C24.8484 36.9663 24.8983 36.9809 24.9411 37.0086C24.9838 37.0362 25.0178 37.0755 25.0387 37.1219L29.8256 47.0691C30.0798 47.5962 30.5328 48.0008 31.0851 48.1939C31.6374 48.3871 32.2438 48.353 32.771 48.0991C33.2982 47.8453 33.7031 47.3925 33.8965 46.8403C34.0899 46.2881 34.0562 45.6817 33.8026 45.1543L28.5307 34.1998C28.5131 34.1632 28.5042 34.123 28.5047 34.0824C28.5052 34.0418 28.515 34.0018 28.5334 33.9656C28.5517 33.9294 28.5782 33.8979 28.6107 33.8736C28.6432 33.8492 28.6809 33.8326 28.7208 33.8252L37.1488 32.3C37.4088 32.2528 37.6551 32.1485 37.87 31.9947C38.0849 31.8409 38.263 31.6414 38.3915 31.4105C38.52 31.1796 38.5957 30.9231 38.6131 30.6594C38.6306 30.3957 38.5893 30.1315 38.4923 29.8856C37.1362 26.2873 34.9221 23.0744 32.0422 20.5262C31.9926 20.4831 31.9607 20.4232 31.9528 20.3579C31.9449 20.2927 31.9616 20.2268 31.9996 20.1732C33.1855 18.5251 34.7419 17.1785 36.5434 16.2418C38.3448 15.305 40.341 14.8044 42.3713 14.78C42.836 14.7692 43.2776 14.5756 43.6004 14.2412C43.9232 13.9069 44.1011 13.4586 44.0955 12.9939C44.0899 12.5292 43.9012 12.0855 43.5704 11.759C43.2397 11.4325 42.7935 11.2496 42.3287 11.2501L42.3338 11.25ZM32.5716 26.3089C33.2469 27.2263 33.843 28.1995 34.3534 29.2179L30.6884 29.8822L32.5716 26.3089Z" fill="#0D0D0D"/>
<defs>
<linearGradient id="paint0_linear_1608_1123" x1="4.192" y1="4.3247e-07" x2="55.808" y2="60" gradientUnits="userSpaceOnUse">
<stop stop-color="#0BFFB6"/>
<stop offset="0.581731" stop-color="#00DBDC"/>
</linearGradient>
<linearGradient id="paint1_linear_1608_1123" x1="30" y1="0" x2="30" y2="60" gradientUnits="userSpaceOnUse">
<stop stop-color="#91FFFF"/>
<stop offset="1" stop-color="#0D0D0D"/>
</linearGradient>
</defs>
</svg>
