<svg width="60" height="60" viewBox="0 0 60 60" fill="none" xmlns="http://www.w3.org/2000/svg">
<circle cx="30" cy="30" r="29" fill="url(#paint0_linear_1608_1132)" stroke="url(#paint1_linear_1608_1132)" stroke-width="2"/>
<path d="M17.9329 37.4602C17.9329 37.4602 22.1438 33.5884 22.1438 28.4261C22.1438 28.4261 18.8167 31.0073 15.8014 26.9204C13.9819 24.3392 11.8504 22.5647 11.6945 22.4571C11.2266 22.0807 10.6027 22.1882 10.2388 22.6184C9.87491 23.1024 9.97888 23.7477 10.3948 24.1241C10.4468 24.1241 11.8504 25.3609 13.306 27.1355L14.1898 28.3185C14.8657 29.3402 15.9054 30.362 15.9054 31.5988V33.4809C15.9054 34.7177 14.8137 35.7932 14.1378 36.8149C13.7739 37.2451 13.514 37.6215 13.41 37.7828C11.9544 39.6112 10.4468 40.848 10.3948 40.9018C9.92689 41.2782 9.87491 41.9235 10.2388 42.4074C10.4468 42.6763 10.7587 42.8376 11.0706 42.8376C11.2786 42.8376 11.5385 42.7839 11.6945 42.6225C11.8504 42.3537 15.6975 39.8801 17.9329 37.4602ZM29.63 20.091C31.7094 20.091 33.373 18.3702 33.373 16.2193C33.373 14.0683 31.7094 12.3475 29.63 12.3475C27.5505 12.3475 25.8869 14.0683 25.8869 16.2193C25.9389 18.3702 27.6025 20.091 29.63 20.091ZM21.364 25.4147C21.364 24.1241 20.3243 23.0486 19.0766 23.0486C17.8289 23.0486 16.7892 24.1241 16.7892 25.4147C16.7892 26.7053 17.8289 27.7808 19.0766 27.7808C20.3243 27.7808 21.364 26.7591 21.364 25.4147ZM48.6052 40.7942C48.5532 40.7942 47.0976 39.5036 45.59 37.6753C45.486 37.514 45.2261 37.1376 44.8622 36.7074C44.1343 35.6856 43.0946 34.6101 43.0946 33.3733V31.4912C43.0946 30.3082 44.1343 29.2327 44.8102 28.211L45.6939 27.0279C47.1496 25.2534 48.5532 24.0703 48.6052 24.0166C49.0731 23.6402 49.1251 22.9949 48.7612 22.5109C48.3973 22.0269 47.7734 21.9731 47.3055 22.3496C47.1496 22.4571 45.0181 24.2317 43.1986 26.8128C40.1833 30.8459 36.8562 28.3185 36.8562 28.3185C36.8562 33.4809 41.0671 37.3526 41.0671 37.3526C43.3026 39.7725 47.1496 42.2461 47.3055 42.4074C47.5135 42.5688 47.7214 42.6225 47.9294 42.6225C48.2413 42.6225 48.5532 42.4612 48.7612 42.1924C49.1251 41.8697 49.0731 41.1706 48.6052 40.7942ZM43.8224 44.8811C43.7704 44.8273 41.327 42.7839 38.8836 39.7187C38.6237 39.3961 38.4158 39.0734 38.1558 38.7508C36.8562 36.9762 34.8287 34.879 34.8287 32.7818V26.2751C34.8287 24.1241 36.3883 22.8335 37.428 21.2741L39.0916 19.0693C41.483 16.1655 43.7704 14.1758 43.8224 14.1221C44.5502 13.5305 44.6542 12.4013 44.0824 11.6484C43.5105 10.8956 42.4188 10.788 41.691 11.3796C41.431 11.5947 37.8439 14.606 34.7767 19.0155C33.633 20.2524 31.8654 21.758 29.7859 21.8118C27.9664 21.9194 26.0949 20.8439 24.2233 18.6929C21.2601 14.4447 17.7769 11.5947 17.517 11.3796C16.7892 10.788 15.6975 10.8956 15.1256 11.6484C14.5537 12.4013 14.6577 13.5305 15.3855 14.1221C17.5298 16.34 19.6792 18.4503 21.572 20.8976C22.7157 22.5109 24.4313 24.0703 24.4313 26.2751V32.7818C24.4313 34.8252 22.6637 36.5998 21.52 38.213C20.8962 38.9659 20.4803 39.5574 20.3243 39.7725C17.8809 42.7839 15.4895 44.8273 15.4375 44.8811C14.7097 45.4726 14.6057 46.6019 15.1776 47.3547C15.4895 47.7849 16.0094 48 16.5292 48C16.8932 48 17.2571 47.8925 17.569 47.6236C17.8289 47.4085 21.0001 44.3971 24.1713 40.4178C25.2631 39.1272 27.1866 37.3526 29.474 37.2989C31.4495 37.1913 33.425 38.4281 35.4525 40.848C38.6237 44.666 41.483 47.4085 41.7429 47.6236C42.0549 47.8925 42.4188 48 42.7827 48C43.3025 48 43.7704 47.7849 44.1343 47.3547C44.6542 46.6019 44.5502 45.5264 43.8224 44.8811ZM39.9234 23.1024C38.6757 23.1024 37.636 24.1779 37.636 25.4685C37.636 26.7591 38.6757 27.8346 39.9234 27.8346C41.1711 27.8346 42.2108 26.7591 42.2108 25.4685C42.2108 24.1241 41.1711 23.1024 39.9234 23.1024Z" fill="#0D0D0D"/>
<defs>
<linearGradient id="paint0_linear_1608_1132" x1="4.192" y1="4.3247e-07" x2="55.808" y2="60" gradientUnits="userSpaceOnUse">
<stop stop-color="#0BFFB6"/>
<stop offset="0.581731" stop-color="#00DBDC"/>
</linearGradient>
<linearGradient id="paint1_linear_1608_1132" x1="30" y1="0" x2="30" y2="60" gradientUnits="userSpaceOnUse">
<stop stop-color="#91FFFF"/>
<stop offset="1" stop-color="#0D0D0D"/>
</linearGradient>
</defs>
</svg>
