<svg width="60" height="60" viewBox="0 0 60 60" fill="none" xmlns="http://www.w3.org/2000/svg">
<circle cx="30" cy="30" r="29" fill="url(#paint0_linear_1641_1738)" stroke="url(#paint1_linear_1641_1738)" stroke-width="2"/>
<path d="M31.8927 18.7876C35.2794 19.338 40.524 22.2927 42.7228 23.7016L40.5568 30.7798L35.8312 28.9116L36.3234 46.4594H16.5343V28.9116C15.681 29.3376 13.7979 30.308 13.089 30.7798C12.3804 31.2514 11.9402 30.7797 11.8088 30.4848C11.415 29.0105 10.5288 25.8063 10.1349 24.7837C9.74124 23.7617 10.2989 23.3748 10.6271 23.3091C11.4803 22.8831 13.4231 21.8737 14.3683 21.2446C15.3134 20.6156 18.9624 19.3447 20.6691 18.7876C21.2598 18.5948 22.4416 22.6988 26.0841 22.5229C30.8095 22.2945 31.2037 18.5925 31.8927 18.7876ZM26.0216 29.1792L23.3322 30.6997V32.5171L25.8195 31.1255H25.8839V38.8755H28.1798V29.1792H26.0216ZM26.2814 11.1206C27.7581 10.6291 29.5018 11.7173 29.6291 12.9887C29.7276 13.9721 30.0217 15.7402 27.0685 16.4282V17.6079L30.6134 19.2788L29.924 20.3608L26.2814 18.6899L22.9338 20.3608L21.9494 19.2788L25.592 17.6079V16.0356C25.7232 15.8063 26.2816 15.2691 27.463 14.9546C28.9396 14.5611 28.9392 11.9071 26.675 12.3003C26.4147 12.4304 25.8002 13.3646 25.7892 13.3813C25.7892 13.3813 24.6078 13.7157 24.6076 12.6938C24.6732 12.3989 25.0446 11.5324 26.2814 11.1206Z" fill="#0D0D0D"/>
<path d="M33.9106 37.9453C35.6049 37.9453 36.9437 39.37 36.9438 41.084V46.3623C36.9437 48.0763 35.6048 49.501 33.9106 49.501C32.3611 49.5009 31.1093 48.3089 30.9067 46.7939C30.1501 46.5797 29.611 45.8657 29.6108 45.043V42.4033C29.611 41.5805 30.1499 40.8655 30.9067 40.6514C31.1097 39.1368 32.3614 37.9454 33.9106 37.9453Z" fill="#0D0D0D" stroke="#01DBDC"/>
<path d="M46.3667 37.9453C44.6725 37.9453 43.3336 39.37 43.3335 41.084V46.3623C43.3337 48.0763 44.6725 49.501 46.3667 49.501C47.9162 49.5009 49.168 48.3089 49.3706 46.7939C50.1273 46.5797 50.6663 45.8657 50.6665 45.043V42.4033C50.6664 41.5805 50.1274 40.8655 49.3706 40.6514C49.1677 39.1368 47.916 37.9454 46.3667 37.9453Z" fill="#0D0D0D" stroke="#01DBDC"/>
<rect x="35.3887" y="42.666" width="9.5" height="2.11111" fill="#0D0D0D"/>
<defs>
<linearGradient id="paint0_linear_1641_1738" x1="4.192" y1="4.3247e-07" x2="55.808" y2="60" gradientUnits="userSpaceOnUse">
<stop stop-color="#0BFFB6"/>
<stop offset="0.581731" stop-color="#00DBDC"/>
</linearGradient>
<linearGradient id="paint1_linear_1641_1738" x1="30" y1="0" x2="30" y2="60" gradientUnits="userSpaceOnUse">
<stop stop-color="#91FFFF"/>
<stop offset="1" stop-color="#0D0D0D"/>
</linearGradient>
</defs>
</svg>
