<svg width="60" height="60" viewBox="0 0 60 60" fill="none" xmlns="http://www.w3.org/2000/svg">
<circle cx="30" cy="30" r="29" fill="url(#paint0_linear_1608_1136)" stroke="url(#paint1_linear_1608_1136)" stroke-width="2"/>
<g filter="url(#filter0_d_1608_1136)">
<path d="M18.6284 27.1657C15.4959 28.0131 12.9711 31.4291 12.8075 35.0569L12.7608 35.7454L24.3557 35.7984L35.9507 35.8249L35.8805 35.0834C35.7169 33.5211 34.8286 32.1176 33.4961 31.2967C32.748 30.82 32.561 30.7936 31.5324 30.7671C30.5973 30.7671 30.2934 30.82 29.6623 31.1643C29.2415 31.4026 28.6804 31.7998 28.3765 32.0911L27.8622 32.6207L27.4181 31.6145C26.483 29.549 24.4726 27.7748 22.4154 27.1657C21.457 26.8744 19.6803 26.8744 18.6284 27.1657Z" fill="#0D0D0D"/>
<path d="M12.8091 37.3287C12.7447 37.4011 12.6964 37.528 12.6964 37.6004C12.6964 37.691 13.2922 39.0136 14.0169 40.5355L15.3375 43.3074H44.6469L45.9513 40.5355C46.676 38.9955 47.2719 37.691 47.2719 37.6004C47.2719 37.5098 47.2236 37.4011 47.1591 37.3287C47.0142 37.1475 12.9701 37.1475 12.8091 37.3287Z" fill="#0D0D0D"/>
<path d="M11.7945 44.938C11.2309 45.2641 10.9571 45.8258 11.0054 46.4961C11.0538 47.0578 11.247 47.4382 11.714 47.7644L12.02 47.9999H47.9805L48.2864 47.7644C48.7212 47.4382 48.9467 47.0578 48.995 46.5505C49.0433 45.8983 48.7374 45.246 48.2059 44.938L47.8033 44.7025H12.1972L11.7945 44.938Z" fill="#0D0D0D"/>
</g>
<g filter="url(#filter1_d_1608_1136)">
<path d="M35.4675 21.874H48.5118L46.9014 35.0998H37.0779L35.4675 21.874Z" fill="#0D0D0D"/>
<path d="M34.9844 18.4316H48.9949L48.6533 21.1493H35.326L34.9844 18.4316Z" fill="#0D0D0D"/>
</g>
<defs>
<filter id="filter0_d_1608_1136" x="7" y="22.9473" width="46" height="29.0527" filterUnits="userSpaceOnUse" color-interpolation-filters="sRGB">
<feFlood flood-opacity="0" result="BackgroundImageFix"/>
<feColorMatrix in="SourceAlpha" type="matrix" values="0 0 0 0 0 0 0 0 0 0 0 0 0 0 0 0 0 0 127 0" result="hardAlpha"/>
<feOffset/>
<feGaussianBlur stdDeviation="2"/>
<feComposite in2="hardAlpha" operator="out"/>
<feColorMatrix type="matrix" values="0 0 0 0 0 0 0 0 0 0.858824 0 0 0 0 0.862745 0 0 0 1 0"/>
<feBlend mode="normal" in2="BackgroundImageFix" result="effect1_dropShadow_1608_1136"/>
<feBlend mode="normal" in="SourceGraphic" in2="effect1_dropShadow_1608_1136" result="shape"/>
</filter>
<filter id="filter1_d_1608_1136" x="30.9844" y="14.4316" width="22.0107" height="24.668" filterUnits="userSpaceOnUse" color-interpolation-filters="sRGB">
<feFlood flood-opacity="0" result="BackgroundImageFix"/>
<feColorMatrix in="SourceAlpha" type="matrix" values="0 0 0 0 0 0 0 0 0 0 0 0 0 0 0 0 0 0 127 0" result="hardAlpha"/>
<feOffset/>
<feGaussianBlur stdDeviation="2"/>
<feComposite in2="hardAlpha" operator="out"/>
<feColorMatrix type="matrix" values="0 0 0 0 0 0 0 0 0 0.858824 0 0 0 0 0.862745 0 0 0 1 0"/>
<feBlend mode="normal" in2="BackgroundImageFix" result="effect1_dropShadow_1608_1136"/>
<feBlend mode="normal" in="SourceGraphic" in2="effect1_dropShadow_1608_1136" result="shape"/>
</filter>
<linearGradient id="paint0_linear_1608_1136" x1="4.192" y1="4.3247e-07" x2="55.808" y2="60" gradientUnits="userSpaceOnUse">
<stop stop-color="#0BFFB6"/>
<stop offset="0.581731" stop-color="#00DBDC"/>
</linearGradient>
<linearGradient id="paint1_linear_1608_1136" x1="30" y1="0" x2="30" y2="60" gradientUnits="userSpaceOnUse">
<stop stop-color="#91FFFF"/>
<stop offset="1" stop-color="#0D0D0D"/>
</linearGradient>
</defs>
</svg>
