<svg width="60" height="60" viewBox="0 0 60 60" fill="none" xmlns="http://www.w3.org/2000/svg">
<circle cx="30" cy="30" r="29" fill="url(#paint0_linear_1608_1144)" stroke="url(#paint1_linear_1608_1144)" stroke-width="2"/>
<path d="M44.9821 33.2414C46.822 33.2414 48.3135 31.7528 48.3135 29.9165C48.3135 28.0802 46.822 26.5916 44.9821 26.5916C43.1422 26.5916 41.6507 28.0802 41.6507 29.9165C41.6507 31.7528 43.1422 33.2414 44.9821 33.2414Z" fill="#0D0D0D"/>
<path d="M44.1124 34.7131H39.882L39.4736 33.3153C39.7846 33.1239 40.0414 32.8561 40.2195 32.5377C40.3976 32.2192 40.491 31.8605 40.491 31.4957V30.1005C40.491 29.8138 40.4333 29.53 40.3213 29.2659C40.2093 29.0019 40.0453 28.763 39.8391 28.5634C39.6328 28.3638 39.3885 28.2076 39.1206 28.1041C38.8527 28.0005 38.5667 27.9518 38.2796 27.9606L15.7128 28.6583C15.1557 28.6755 14.6271 28.9085 14.2391 29.3079C13.8511 29.7073 13.6341 30.2418 13.6341 30.7981C13.6341 31.3545 13.8511 31.8889 14.2391 32.2884C14.6271 32.6878 15.1557 32.9208 15.7128 32.938L36.5263 33.5814L37.3991 36.5681C37.4871 36.8691 37.6705 37.1335 37.9218 37.3216C38.1732 37.5097 38.4789 37.6114 38.793 37.6114H44.1124C44.4975 37.6114 44.8668 37.4587 45.1391 37.187C45.4114 36.9152 45.5644 36.5466 45.5644 36.1622C45.5644 35.7779 45.4114 35.4093 45.1391 35.1375C44.8668 34.8657 44.4975 34.7131 44.1124 34.7131Z" fill="#0D0D0D"/>
<path d="M49.516 34.854H46.879C47.1967 35.517 47.2635 36.2724 47.0669 36.9807C46.8703 37.689 46.4236 38.3025 45.8093 38.7079H49.516C49.6444 38.7079 49.7675 38.657 49.8582 38.5664C49.949 38.4758 50 38.3529 50 38.2248V35.337C50 35.2089 49.949 35.086 49.8582 34.9955C49.7675 34.9049 49.6444 34.854 49.516 34.854Z" fill="#0D0D0D"/>
<path d="M31.4929 26.6055L33.8285 22.3825C33.8285 22.3825 37.4253 25.6501 40.7456 26.1357L42.4238 24.8198C42.4238 24.8198 36.5805 21.6321 34.6194 19.5901C34.0289 18.9803 33.2948 18.5279 32.484 18.2741C31.6755 18.0166 30.8159 17.9617 29.9811 18.1142C29.1463 18.2667 28.3619 18.622 27.6973 19.1487C26.015 20.4838 23.9077 22.8555 22.5523 26.8819L31.4929 26.6055Z" fill="#0D0D0D"/>
<path d="M34.0602 17.4318C36.3931 17.4318 38.2843 15.5443 38.2843 13.2159C38.2843 10.8875 36.3931 9 34.0602 9C31.7274 9 29.8362 10.8875 29.8362 13.2159C29.8362 15.5443 31.7274 17.4318 34.0602 17.4318Z" fill="#0D0D0D"/>
<path d="M16.9676 46.7862C17.2336 46.6609 17.5242 46.596 17.8184 46.596C18.1125 46.596 18.4031 46.6609 18.6692 46.7862V38.7078H37.1028C36.4986 38.3101 36.0548 37.7119 35.85 37.0191L35.3052 35.1546L25.5811 34.854H10.484C10.4204 34.854 10.3575 34.8665 10.2988 34.8907C10.2401 34.915 10.1867 34.9506 10.1418 34.9954C10.0968 35.0403 10.0612 35.0936 10.0368 35.1522C10.0125 35.2108 10 35.2736 10 35.337V38.2248C10 38.2882 10.0125 38.351 10.0368 38.4097C10.0612 38.4683 10.0968 38.5215 10.1418 38.5664C10.1867 38.6112 10.2401 38.6468 10.2988 38.6711C10.3575 38.6953 10.4204 38.7078 10.484 38.7078H16.9676V46.7862Z" fill="#0D0D0D"/>
<path d="M17.8185 50C18.5871 50 19.2102 49.3781 19.2102 48.6109C19.2102 47.8437 18.5871 47.2218 17.8185 47.2218C17.0498 47.2218 16.4267 47.8437 16.4267 48.6109C16.4267 49.3781 17.0498 50 17.8185 50Z" fill="#0D0D0D"/>
<path d="M42.1815 46.596C42.4757 46.5963 42.7661 46.6613 43.0323 46.7862V39.2216H41.3306V46.7862C41.5968 46.6612 41.8873 46.5963 42.1815 46.596Z" fill="#0D0D0D"/>
<path d="M42.1815 50C42.9501 50 43.5733 49.3781 43.5733 48.6109C43.5733 47.8437 42.9501 47.2218 42.1815 47.2218C41.4128 47.2218 40.7897 47.8437 40.7897 48.6109C40.7897 49.3781 41.4128 50 42.1815 50Z" fill="#0D0D0D"/>
<defs>
<linearGradient id="paint0_linear_1608_1144" x1="4.192" y1="4.3247e-07" x2="55.808" y2="60" gradientUnits="userSpaceOnUse">
<stop stop-color="#0BFFB6"/>
<stop offset="0.581731" stop-color="#00DBDC"/>
</linearGradient>
<linearGradient id="paint1_linear_1608_1144" x1="30" y1="0" x2="30" y2="60" gradientUnits="userSpaceOnUse">
<stop stop-color="#91FFFF"/>
<stop offset="1" stop-color="#0D0D0D"/>
</linearGradient>
</defs>
</svg>
