<svg width="60" height="60" viewBox="0 0 60 60" fill="none" xmlns="http://www.w3.org/2000/svg">
<circle cx="30" cy="30" r="29" fill="url(#paint0_linear_1641_1732)" stroke="url(#paint1_linear_1641_1732)" stroke-width="2"/>
<path fill-rule="evenodd" clip-rule="evenodd" d="M39.0204 34.7698C35.9488 36.8556 24.0461 36.9004 19.9795 34.7698C19.9797 22.2052 39.0204 22.1873 39.0204 34.7698ZM12.8744 33.6901L13.4927 35.1356L15.0848 35.2918L13.8974 36.325L14.2405 37.8834L12.8884 37.0765L11.5084 37.8834L11.8601 36.3513L10.664 35.2918L12.2336 35.152L12.8744 33.6901ZM29.5001 38.372L30.6247 41.0017L33.521 41.2857L31.361 43.1651L31.985 46L29.5254 44.532L27.015 46L27.6549 43.2132L25.4792 41.2857L28.3344 41.0314L29.5001 38.372ZM39.0108 36.6341L39.8772 38.6602L42.1085 38.8789L40.4445 40.327L40.9252 42.5111L39.0302 41.38L37.0962 42.5111L37.5892 40.364L35.9129 38.8789L38.1127 38.683L39.0108 36.6341ZM19.9893 36.6341L20.8558 38.6602L23.0871 38.8789L21.4229 40.327L21.9038 42.5111L20.0088 41.38L18.0748 42.5111L18.5677 40.364L16.8915 38.8789L19.0912 38.683L19.9893 36.6341ZM46.1256 33.6901L46.744 35.1356L48.336 35.2918L47.1486 36.325L47.4916 37.8834L46.1396 37.0765L44.7596 37.8834L45.1111 36.3513L43.9153 35.2918L45.4848 35.152L46.1256 33.6901ZM19.3983 32.3911C15.8778 32.5425 11.8916 32.1332 10 31.1421C10.0001 23.0748 19.6973 21.3994 23.7066 26.1352C21.6055 27.4367 19.9779 29.5223 19.3983 32.3911ZM49 31.1421C47.492 32.1661 43.354 32.5822 39.597 32.3664C39.0142 29.5084 37.3917 27.431 35.2983 26.1337C39.3107 21.4052 49 23.0665 49 31.1421ZM41.2945 15.1413C43.3585 15.1413 45.0316 16.8099 45.0316 18.8683C45.0316 20.9267 43.3585 22.5955 41.2945 22.5955C39.2307 22.5955 37.5577 20.9267 37.5577 18.8683C37.5577 16.8099 39.2307 15.1413 41.2945 15.1413ZM17.7055 15.1413C19.7694 15.1413 21.4425 16.8099 21.4425 18.8683C21.4425 20.9267 19.7694 22.5955 17.7055 22.5955C15.6416 22.5955 13.9685 20.9267 13.9685 18.8683C13.9685 16.8099 15.6416 15.1413 17.7055 15.1413ZM29.5001 15C32.0501 15 34.1173 17.0618 34.1173 19.6051C34.1173 22.1484 32.0501 24.2102 29.5001 24.2102C26.9501 24.2102 24.8829 22.1484 24.8829 19.6051C24.8829 17.0618 26.9501 15 29.5001 15Z" fill="#0D0D0D"/>
<defs>
<linearGradient id="paint0_linear_1641_1732" x1="4.192" y1="4.3247e-07" x2="55.808" y2="60" gradientUnits="userSpaceOnUse">
<stop stop-color="#0BFFB6"/>
<stop offset="0.581731" stop-color="#00DBDC"/>
</linearGradient>
<linearGradient id="paint1_linear_1641_1732" x1="30" y1="0" x2="30" y2="60" gradientUnits="userSpaceOnUse">
<stop stop-color="#91FFFF"/>
<stop offset="1" stop-color="#0D0D0D"/>
</linearGradient>
</defs>
</svg>
