<svg width="60" height="60" viewBox="0 0 60 60" fill="none" xmlns="http://www.w3.org/2000/svg">
<circle cx="30" cy="30" r="29" fill="url(#paint0_linear_1608_1109)" stroke="url(#paint1_linear_1608_1109)" stroke-width="2"/>
<g filter="url(#filter0_d_1608_1109)">
<path d="M22.4275 34.8068L27.8958 32.99C26.8832 32.662 24.7212 31.9605 24.1743 31.7788C23.6275 31.5972 23.7946 30.9966 23.9465 30.7191C24.63 29.1041 26.0275 25.8289 26.149 25.6472C26.3009 25.4201 26.5287 25.3444 26.9085 25.5715C27.2123 25.7532 27.1363 26.1519 27.0604 26.3285L25.1617 30.9462L30.0983 32.3844L34.883 30.8705C34.3008 29.5079 33.0907 26.6919 32.9084 26.3285C32.7261 25.9652 32.8831 25.7734 32.9843 25.7229C33.5312 25.3596 33.8704 25.622 33.9717 25.7986C34.6046 27.2369 35.9311 30.2649 36.1742 30.8705C36.4172 31.476 35.9716 31.7788 35.7185 31.8545L24.3262 35.4124C24.2047 37.7136 26.2503 38.0366 27.2882 37.9105L38.2248 34.5797C40.7766 33.7924 40.4526 31.8293 39.9716 30.9462L36.6299 23.3763C36.2653 22.2862 34.959 22.0137 34.3514 22.0137H25.8452C24.2047 22.0137 23.3895 23.2753 23.187 23.9061C22.6525 24.9716 22.0002 26.6404 21.3056 28.221C20.5854 29.8597 19.8312 31.4035 19.7693 32.0816C19.6478 33.4139 20.4782 34.1507 20.9086 34.3526L22.4275 34.8068Z" fill="#0D0D0D"/>
<path d="M22.4275 34.8068L27.8958 32.99C26.8832 32.662 24.7212 31.9605 24.1743 31.7788C23.6275 31.5972 23.7946 30.9966 23.9465 30.7191C24.63 29.1041 26.0275 25.8289 26.149 25.6472C26.3009 25.4201 26.5287 25.3444 26.9085 25.5715C27.2123 25.7532 27.1363 26.1519 27.0604 26.3285L25.1617 30.9462L30.0983 32.3844L34.883 30.8705C34.3008 29.5079 33.0907 26.6919 32.9084 26.3285C32.7261 25.9652 32.8831 25.7734 32.9843 25.7229C33.5312 25.3596 33.8704 25.622 33.9717 25.7986C34.6046 27.2369 35.9311 30.2649 36.1742 30.8705C36.4172 31.476 35.9716 31.7788 35.7185 31.8545L24.3262 35.4124C24.2047 37.7136 26.2503 38.0366 27.2882 37.9105L38.2248 34.5797C40.7766 33.7924 40.4526 31.8293 39.9716 30.9462L36.6299 23.3763C36.2653 22.2862 34.959 22.0137 34.3514 22.0137H25.8452C24.2047 22.0137 23.3895 23.2753 23.187 23.9061C22.6525 24.9716 22.0002 26.6404 21.3056 28.221C20.5854 29.8597 19.8312 31.4035 19.7693 32.0816C19.6478 33.4139 20.4782 34.1507 20.9086 34.3526L22.4275 34.8068Z" stroke="#0D0D0D" stroke-width="0.46875"/>
</g>
<g filter="url(#filter1_d_1608_1109)">
<path d="M26.2249 39.1208C23.9161 38.8786 23.187 36.6985 23.111 35.6387C21.106 35.8809 20.6554 37.304 20.6807 37.9853L22.1996 48.2804C22.1996 48.2804 22.1462 49.6867 24.3754 49.6867C26.6046 49.6867 26.6046 48.2804 26.6046 48.2804L25.8452 39.3479C26.149 39.2874 26.2249 39.1713 26.2249 39.1208Z" fill="#0D0D0D"/>
<path d="M26.2249 39.1208C23.9161 38.8786 23.187 36.6985 23.111 35.6387C21.106 35.8809 20.6554 37.304 20.6807 37.9853L22.1996 48.2804C22.1996 48.2804 22.1462 49.6867 24.3754 49.6867C26.6046 49.6867 26.6046 48.2804 26.6046 48.2804L25.8452 39.3479C26.149 39.2874 26.2249 39.1713 26.2249 39.1208Z" stroke="#0D0D0D" stroke-width="0.46875"/>
</g>
<g filter="url(#filter2_d_1608_1109)">
<path d="M33.5155 48.2817L34.275 39.3492C32.5281 38.5166 31.4648 37.9866 31.4648 37.9866C31.4648 37.9866 37.2847 35.8777 38.2481 36.0185C39.2116 36.1592 39.4395 37.2297 39.4395 37.9866L37.9205 48.2817C37.9205 48.2817 37.9205 49.7764 35.6247 49.688C33.3289 49.5997 33.5155 48.2817 33.5155 48.2817Z" fill="#0D0D0D"/>
<path d="M33.5155 48.2817L34.275 39.3492C32.5281 38.5166 31.4648 37.9866 31.4648 37.9866C31.4648 37.9866 37.2847 35.8777 38.2481 36.0185C39.2116 36.1592 39.4395 37.2297 39.4395 37.9866L37.9205 48.2817C37.9205 48.2817 37.9205 49.7764 35.6247 49.688C33.3289 49.5997 33.5155 48.2817 33.5155 48.2817Z" stroke="#0D0D0D" stroke-width="0.46875"/>
</g>
<g filter="url(#filter3_d_1608_1109)">
<path d="M40.5031 36.8508L39.8955 35.791H47.946C48.5536 36.2149 48.1992 36.6742 47.946 36.8508H40.5031Z" fill="#0D0D0D"/>
<path d="M40.5031 36.8508L39.8955 35.791H47.946C48.5536 36.2149 48.1992 36.6742 47.946 36.8508H40.5031Z" stroke="#0D0D0D" stroke-width="0.46875"/>
</g>
<g filter="url(#filter4_d_1608_1109)">
<path d="M19.6174 36.8508C19.6174 36.8508 20.0224 36.0938 20.225 35.791H12.1744C12.0225 35.8162 11.7188 35.9576 11.7188 36.3209C11.7188 36.6843 12.0225 36.8256 12.1744 36.8508H19.6174Z" fill="#0D0D0D"/>
<path d="M19.6174 36.8508C19.6174 36.8508 20.0224 36.0938 20.225 35.791H12.1744C12.0225 35.8162 11.7188 35.9576 11.7188 36.3209C11.7188 36.6843 12.0225 36.8256 12.1744 36.8508H19.6174Z" stroke="#0D0D0D" stroke-width="0.46875"/>
</g>
<g filter="url(#filter5_d_1608_1109)">
<ellipse cx="30.0222" cy="16.2607" rx="4.5569" ry="4.54194" fill="#0D0D0D"/>
<ellipse cx="30.0222" cy="16.2607" rx="4.5569" ry="4.54194" stroke="#0D0D0D" stroke-width="0.46875"/>
</g>
<g filter="url(#filter6_d_1608_1109)">
<path d="M15.9903 16.2891L18.0816 19.7742C18.457 20.4814 18.7573 22.0775 16.9555 22.8048C15.1537 23.5322 15.3468 25.3303 15.6685 26.1385L17.4381 29.1691" stroke="#0D0D0D" stroke-width="0.9375" stroke-linecap="round"/>
</g>
<g filter="url(#filter7_d_1608_1109)">
<path d="M12.251 16.2891L14.3424 19.7742C14.7178 20.4814 15.0181 22.0775 13.2163 22.8048C11.4145 23.5322 11.6075 25.3303 11.9293 26.1385L13.6989 29.1691" stroke="#0D0D0D" stroke-width="0.9375" stroke-linecap="round"/>
</g>
<g filter="url(#filter8_d_1608_1109)">
<path d="M44.0097 16.2891L41.9184 19.7742C41.543 20.4814 41.2427 22.0775 43.0445 22.8048C44.8463 23.5322 44.6532 25.3303 44.3315 26.1385L42.5619 29.1691" stroke="#0D0D0D" stroke-width="0.9375" stroke-linecap="round"/>
</g>
<g filter="url(#filter9_d_1608_1109)">
<path d="M47.749 16.2891L45.6576 19.7742C45.2822 20.4814 44.9819 22.0775 46.7837 22.8048C48.5855 23.5322 48.3925 25.3303 48.0707 26.1385L46.3011 29.1691" stroke="#0D0D0D" stroke-width="0.9375" stroke-linecap="round"/>
</g>
<defs>
<filter id="filter0_d_1608_1109" x="17.6479" y="19.9043" width="24.7646" height="20.1387" filterUnits="userSpaceOnUse" color-interpolation-filters="sRGB">
<feFlood flood-opacity="0" result="BackgroundImageFix"/>
<feColorMatrix in="SourceAlpha" type="matrix" values="0 0 0 0 0 0 0 0 0 0 0 0 0 0 0 0 0 0 127 0" result="hardAlpha"/>
<feOffset/>
<feGaussianBlur stdDeviation="0.9375"/>
<feComposite in2="hardAlpha" operator="out"/>
<feColorMatrix type="matrix" values="0 0 0 0 0 0 0 0 0 0.858824 0 0 0 0 0.862745 0 0 0 1 0"/>
<feBlend mode="normal" in2="BackgroundImageFix" result="effect1_dropShadow_1608_1109"/>
<feBlend mode="normal" in="SourceGraphic" in2="effect1_dropShadow_1608_1109" result="shape"/>
</filter>
<filter id="filter1_d_1608_1109" x="18.5703" y="33.502" width="10.1436" height="18.2949" filterUnits="userSpaceOnUse" color-interpolation-filters="sRGB">
<feFlood flood-opacity="0" result="BackgroundImageFix"/>
<feColorMatrix in="SourceAlpha" type="matrix" values="0 0 0 0 0 0 0 0 0 0 0 0 0 0 0 0 0 0 127 0" result="hardAlpha"/>
<feOffset/>
<feGaussianBlur stdDeviation="0.9375"/>
<feComposite in2="hardAlpha" operator="out"/>
<feColorMatrix type="matrix" values="0 0 0 0 0 0 0 0 0 0.858824 0 0 0 0 0.862745 0 0 0 1 0"/>
<feBlend mode="normal" in2="BackgroundImageFix" result="effect1_dropShadow_1608_1109"/>
<feBlend mode="normal" in="SourceGraphic" in2="effect1_dropShadow_1608_1109" result="shape"/>
</filter>
<filter id="filter2_d_1608_1109" x="28.9961" y="33.9023" width="12.5527" height="17.8984" filterUnits="userSpaceOnUse" color-interpolation-filters="sRGB">
<feFlood flood-opacity="0" result="BackgroundImageFix"/>
<feColorMatrix in="SourceAlpha" type="matrix" values="0 0 0 0 0 0 0 0 0 0 0 0 0 0 0 0 0 0 127 0" result="hardAlpha"/>
<feOffset/>
<feGaussianBlur stdDeviation="0.9375"/>
<feComposite in2="hardAlpha" operator="out"/>
<feColorMatrix type="matrix" values="0 0 0 0 0 0 0 0 0 0.858824 0 0 0 0 0.862745 0 0 0 1 0"/>
<feBlend mode="normal" in2="BackgroundImageFix" result="effect1_dropShadow_1608_1109"/>
<feBlend mode="normal" in="SourceGraphic" in2="effect1_dropShadow_1608_1109" result="shape"/>
</filter>
<filter id="filter3_d_1608_1109" x="37.6162" y="33.6816" width="12.7744" height="5.2793" filterUnits="userSpaceOnUse" color-interpolation-filters="sRGB">
<feFlood flood-opacity="0" result="BackgroundImageFix"/>
<feColorMatrix in="SourceAlpha" type="matrix" values="0 0 0 0 0 0 0 0 0 0 0 0 0 0 0 0 0 0 127 0" result="hardAlpha"/>
<feOffset/>
<feGaussianBlur stdDeviation="0.9375"/>
<feComposite in2="hardAlpha" operator="out"/>
<feColorMatrix type="matrix" values="0 0 0 0 0 0 0 0 0 0.858824 0 0 0 0 0.862745 0 0 0 1 0"/>
<feBlend mode="normal" in2="BackgroundImageFix" result="effect1_dropShadow_1608_1109"/>
<feBlend mode="normal" in="SourceGraphic" in2="effect1_dropShadow_1608_1109" result="shape"/>
</filter>
<filter id="filter4_d_1608_1109" x="9.60938" y="33.6816" width="12.9292" height="5.2793" filterUnits="userSpaceOnUse" color-interpolation-filters="sRGB">
<feFlood flood-opacity="0" result="BackgroundImageFix"/>
<feColorMatrix in="SourceAlpha" type="matrix" values="0 0 0 0 0 0 0 0 0 0 0 0 0 0 0 0 0 0 127 0" result="hardAlpha"/>
<feOffset/>
<feGaussianBlur stdDeviation="0.9375"/>
<feComposite in2="hardAlpha" operator="out"/>
<feColorMatrix type="matrix" values="0 0 0 0 0 0 0 0 0 0.858824 0 0 0 0 0.862745 0 0 0 1 0"/>
<feBlend mode="normal" in2="BackgroundImageFix" result="effect1_dropShadow_1608_1109"/>
<feBlend mode="normal" in="SourceGraphic" in2="effect1_dropShadow_1608_1109" result="shape"/>
</filter>
<filter id="filter5_d_1608_1109" x="23.356" y="9.60938" width="13.3325" height="13.3027" filterUnits="userSpaceOnUse" color-interpolation-filters="sRGB">
<feFlood flood-opacity="0" result="BackgroundImageFix"/>
<feColorMatrix in="SourceAlpha" type="matrix" values="0 0 0 0 0 0 0 0 0 0 0 0 0 0 0 0 0 0 127 0" result="hardAlpha"/>
<feOffset/>
<feGaussianBlur stdDeviation="0.9375"/>
<feComposite in2="hardAlpha" operator="out"/>
<feColorMatrix type="matrix" values="0 0 0 0 0 0 0 0 0 0.858824 0 0 0 0 0.862745 0 0 0 1 0"/>
<feBlend mode="normal" in2="BackgroundImageFix" result="effect1_dropShadow_1608_1109"/>
<feBlend mode="normal" in="SourceGraphic" in2="effect1_dropShadow_1608_1109" result="shape"/>
</filter>
<filter id="filter6_d_1608_1109" x="13.1143" y="13.9453" width="7.59619" height="17.5684" filterUnits="userSpaceOnUse" color-interpolation-filters="sRGB">
<feFlood flood-opacity="0" result="BackgroundImageFix"/>
<feColorMatrix in="SourceAlpha" type="matrix" values="0 0 0 0 0 0 0 0 0 0 0 0 0 0 0 0 0 0 127 0" result="hardAlpha"/>
<feOffset/>
<feGaussianBlur stdDeviation="0.9375"/>
<feComposite in2="hardAlpha" operator="out"/>
<feColorMatrix type="matrix" values="0 0 0 0 0 0 0 0 0 0.858824 0 0 0 0 0.862745 0 0 0 1 0"/>
<feBlend mode="normal" in2="BackgroundImageFix" result="effect1_dropShadow_1608_1109"/>
<feBlend mode="normal" in="SourceGraphic" in2="effect1_dropShadow_1608_1109" result="shape"/>
</filter>
<filter id="filter7_d_1608_1109" x="9.375" y="13.9453" width="7.59619" height="17.5684" filterUnits="userSpaceOnUse" color-interpolation-filters="sRGB">
<feFlood flood-opacity="0" result="BackgroundImageFix"/>
<feColorMatrix in="SourceAlpha" type="matrix" values="0 0 0 0 0 0 0 0 0 0 0 0 0 0 0 0 0 0 127 0" result="hardAlpha"/>
<feOffset/>
<feGaussianBlur stdDeviation="0.9375"/>
<feComposite in2="hardAlpha" operator="out"/>
<feColorMatrix type="matrix" values="0 0 0 0 0 0 0 0 0 0.858824 0 0 0 0 0.862745 0 0 0 1 0"/>
<feBlend mode="normal" in2="BackgroundImageFix" result="effect1_dropShadow_1608_1109"/>
<feBlend mode="normal" in="SourceGraphic" in2="effect1_dropShadow_1608_1109" result="shape"/>
</filter>
<filter id="filter8_d_1608_1109" x="39.2896" y="13.9453" width="7.59619" height="17.5684" filterUnits="userSpaceOnUse" color-interpolation-filters="sRGB">
<feFlood flood-opacity="0" result="BackgroundImageFix"/>
<feColorMatrix in="SourceAlpha" type="matrix" values="0 0 0 0 0 0 0 0 0 0 0 0 0 0 0 0 0 0 127 0" result="hardAlpha"/>
<feOffset/>
<feGaussianBlur stdDeviation="0.9375"/>
<feComposite in2="hardAlpha" operator="out"/>
<feColorMatrix type="matrix" values="0 0 0 0 0 0 0 0 0 0.858824 0 0 0 0 0.862745 0 0 0 1 0"/>
<feBlend mode="normal" in2="BackgroundImageFix" result="effect1_dropShadow_1608_1109"/>
<feBlend mode="normal" in="SourceGraphic" in2="effect1_dropShadow_1608_1109" result="shape"/>
</filter>
<filter id="filter9_d_1608_1109" x="43.0288" y="13.9453" width="7.59619" height="17.5684" filterUnits="userSpaceOnUse" color-interpolation-filters="sRGB">
<feFlood flood-opacity="0" result="BackgroundImageFix"/>
<feColorMatrix in="SourceAlpha" type="matrix" values="0 0 0 0 0 0 0 0 0 0 0 0 0 0 0 0 0 0 127 0" result="hardAlpha"/>
<feOffset/>
<feGaussianBlur stdDeviation="0.9375"/>
<feComposite in2="hardAlpha" operator="out"/>
<feColorMatrix type="matrix" values="0 0 0 0 0 0 0 0 0 0.858824 0 0 0 0 0.862745 0 0 0 1 0"/>
<feBlend mode="normal" in2="BackgroundImageFix" result="effect1_dropShadow_1608_1109"/>
<feBlend mode="normal" in="SourceGraphic" in2="effect1_dropShadow_1608_1109" result="shape"/>
</filter>
<linearGradient id="paint0_linear_1608_1109" x1="4.192" y1="4.3247e-07" x2="55.808" y2="60" gradientUnits="userSpaceOnUse">
<stop stop-color="#0BFFB6"/>
<stop offset="0.581731" stop-color="#00DBDC"/>
</linearGradient>
<linearGradient id="paint1_linear_1608_1109" x1="30" y1="0" x2="30" y2="60" gradientUnits="userSpaceOnUse">
<stop stop-color="#91FFFF"/>
<stop offset="1" stop-color="#0D0D0D"/>
</linearGradient>
</defs>
</svg>
