<svg width="60" height="60" viewBox="0 0 60 60" fill="none" xmlns="http://www.w3.org/2000/svg">
<circle cx="30" cy="30" r="29" fill="url(#paint0_linear_1641_1709)" stroke="url(#paint1_linear_1641_1709)" stroke-width="2"/>
<path d="M19.0454 41.6133V39.3353H22.3312V41.6133C21.7817 41.5138 21.2226 41.4689 20.6882 41.4689C20.1539 41.4689 19.5949 41.5138 19.0454 41.6133Z" fill="#0D0D0D"/>
<path d="M21.7205 12.9993C22.7963 12.9993 23.7702 13.4354 24.4753 14.1405C25.1803 14.8454 25.6164 15.8194 25.6164 16.8952C25.6164 17.9709 25.1803 18.9449 24.4753 19.6499C23.7702 20.3549 22.7963 20.791 21.7205 20.791C20.6448 20.791 19.6708 20.3549 18.9658 19.6499C18.2608 18.9449 17.8247 17.9709 17.8247 16.8952C17.8247 15.8194 18.2608 14.8454 18.9658 14.1405C19.6708 13.4354 20.6448 12.9993 21.7205 12.9993Z" fill="#0D0D0D"/>
<path fill-rule="evenodd" clip-rule="evenodd" d="M16.5991 37.2974H25.6937C26.1352 37.2974 26.4933 37.6555 26.4933 38.097C26.4933 38.5383 26.1352 38.8965 25.6937 38.8965H15.7995C15.358 38.8965 15 38.5383 15 38.097V22.9311C15 22.4896 15.358 22.1315 15.7995 22.1315C16.241 22.1315 16.5991 22.4896 16.5991 22.9311V37.2974Z" fill="#0D0D0D"/>
<path d="M18.5494 22.3243C19.148 21.7257 19.9749 21.3554 20.8882 21.3554C22.3324 21.3554 23.4949 22.6175 24.611 23.8292C24.9701 24.219 25.324 24.6032 25.6634 24.918H27.3489H30.8212C31.2748 24.918 31.6856 25.1019 31.9829 25.3992C32.2802 25.6965 32.4642 26.1073 32.4642 26.5609C32.4642 27.0145 32.2802 27.4252 31.9829 27.7226C31.6856 28.0197 31.2748 28.2037 30.8212 28.2037H27.3489H25.0501C25.0306 28.2037 25.0112 28.2026 24.9922 28.2006C24.8151 28.1946 24.6391 28.1604 24.472 28.0976C24.3772 28.0619 24.2847 28.017 24.1958 27.9626V32.4205H29.5782C30.0931 32.4205 30.5593 32.6293 30.8969 32.9667C31.2342 33.3042 31.443 33.7704 31.443 34.2853V42.4089H32.5415C33.0564 42.4089 33.5226 42.6178 33.8601 42.9552C34.1976 43.2926 34.4062 43.759 34.4062 44.2738C34.4062 44.7887 34.1976 45.255 33.8601 45.5924C33.5226 45.9299 33.0564 46.1387 32.5415 46.1387H29.5782C29.0633 46.1387 28.5971 45.9299 28.2596 45.5924C27.9222 45.255 27.7133 44.7887 27.7133 44.2738V36.6588C25.3869 36.659 24.6881 36.66 24.0559 36.6609C22.1316 36.6636 21.4546 36.6663 20.8882 36.6663C19.9749 36.6663 19.148 36.296 18.5494 35.6974C17.9508 35.0989 17.5806 34.2719 17.5806 33.3586V24.6631C17.5806 23.7497 17.9508 22.9228 18.5494 22.3243Z" fill="#0D0D0D"/>
<path d="M45.9977 29.9995L45.9952 47.1135H45.4642L45.9971 47.1136C45.9971 47.4079 45.7585 47.6465 45.4642 47.6465H45.4641H37.4734C37.179 47.6465 36.9404 47.4078 36.9404 47.1135C36.9404 47.0977 36.941 47.082 36.9424 47.0665L36.9449 32.7118H31.7861C31.3324 32.7118 30.9217 32.5279 30.6243 32.2305C30.327 31.9332 30.1431 31.5225 30.1431 31.0689C30.1431 30.6153 30.327 30.2046 30.6243 29.9072C30.9217 29.6099 31.3324 29.426 31.7861 29.426H37.3926C37.4197 29.4218 37.4475 29.4195 37.4759 29.4195H45.4667C45.7611 29.4195 45.9998 29.6582 45.9998 29.9525C45.9998 29.9684 45.999 29.984 45.9977 29.9995ZM39.6223 43.2022C39.3278 43.2022 39.0891 43.4409 39.0891 43.7353C39.0891 44.0296 39.3278 44.2683 39.6223 44.2683H43.318C43.6124 44.2683 43.851 44.0296 43.851 43.7353C43.851 43.4409 43.6124 43.2022 43.318 43.2022H39.6223ZM39.6223 39.734C39.3278 39.734 39.0891 39.9728 39.0891 40.2671C39.0891 40.5615 39.3278 40.8001 39.6223 40.8001H43.318C43.6124 40.8001 43.851 40.5615 43.851 40.2671C43.851 39.9728 43.6124 39.734 43.318 39.734H39.6223ZM39.6223 36.2659C39.3278 36.2659 39.0891 36.5045 39.0891 36.799C39.0891 37.0934 39.3278 37.332 39.6223 37.332H43.318C43.6124 37.332 43.851 37.0934 43.851 36.799C43.851 36.5045 43.6124 36.2659 43.318 36.2659H39.6223ZM39.6223 32.7977C39.3278 32.7977 39.0891 33.0364 39.0891 33.3308C39.0891 33.6252 39.3278 33.8638 39.6223 33.8638H43.318C43.6124 33.8638 43.851 33.6252 43.851 33.3308C43.851 33.0364 43.6124 32.7977 43.318 32.7977H39.6223Z" fill="#0D0D0D"/>
<path fill-rule="evenodd" clip-rule="evenodd" d="M42.6387 27.8725L42.6394 27.8726L42.5704 28.1301C42.5676 28.1409 42.5644 28.1516 42.5611 28.1622L42.5009 28.3868L42.4572 28.3751C42.3091 28.5899 42.0601 28.7227 41.7883 28.7227H34.0998C33.6584 28.7227 33.3003 28.3647 33.3003 27.9231C33.3003 27.4817 33.6584 27.1237 34.0998 27.1237H41.1853L42.8126 21.0503C42.9262 20.6264 43.3663 20.3716 43.7905 20.485C44.2149 20.5983 44.4698 21.0389 44.3561 21.4632L42.6387 27.8725Z" fill="#0D0D0D"/>
<path fill-rule="evenodd" clip-rule="evenodd" d="M15.6855 44.6906C15.6855 43.6631 16.5087 42.9369 17.3655 42.5166C18.3635 42.027 19.5841 41.8292 20.688 41.8292C21.7919 41.8292 23.0124 42.027 24.0105 42.5166C24.8673 42.9369 25.6905 43.6631 25.6905 44.6906V44.957H24.0914V44.6906C24.0914 44.3778 23.5439 44.0638 23.3093 43.9487C22.5325 43.5677 21.5453 43.4283 20.688 43.4283C19.8307 43.4283 18.8434 43.5677 18.0666 43.9487C17.8321 44.0638 17.2846 44.3778 17.2846 44.6906V44.957H15.6855V44.6906Z" fill="#0D0D0D"/>
<path fill-rule="evenodd" clip-rule="evenodd" d="M24.8773 46.1758C25.45 46.1758 25.9171 45.7087 25.9171 45.1359C25.9171 44.5632 25.45 44.096 24.8773 44.096C24.3045 44.096 23.8374 44.5632 23.8374 45.1359C23.8374 45.7087 24.3045 46.1758 24.8773 46.1758Z" fill="#0D0D0D"/>
<path d="M20.1553 44.7754V42.6335H21.2213V44.7754H20.1553Z" fill="#0D0D0D"/>
<path fill-rule="evenodd" clip-rule="evenodd" d="M20.6887 45.7363C21.2186 45.7363 21.6508 45.3041 21.6508 44.7743C21.6508 44.2443 21.2186 43.8121 20.6887 43.8121C20.1588 43.8121 19.7266 44.2443 19.7266 44.7743C19.7266 45.3041 20.1588 45.7363 20.6887 45.7363Z" fill="#0D0D0D"/>
<path fill-rule="evenodd" clip-rule="evenodd" d="M16.5711 46.1758C17.1438 46.1758 17.6109 45.7087 17.6109 45.1359C17.6109 44.5632 17.1438 44.096 16.5711 44.096C15.9983 44.096 15.5312 44.5632 15.5312 45.1359C15.5312 45.7087 15.9983 46.1758 16.5711 46.1758Z" fill="#0D0D0D"/>
<defs>
<linearGradient id="paint0_linear_1641_1709" x1="4.192" y1="4.3247e-07" x2="55.808" y2="60" gradientUnits="userSpaceOnUse">
<stop stop-color="#0BFFB6"/>
<stop offset="0.581731" stop-color="#00DBDC"/>
</linearGradient>
<linearGradient id="paint1_linear_1641_1709" x1="30" y1="0" x2="30" y2="60" gradientUnits="userSpaceOnUse">
<stop stop-color="#91FFFF"/>
<stop offset="1" stop-color="#0D0D0D"/>
</linearGradient>
</defs>
</svg>
