<svg width="56" height="56" viewBox="0 0 56 56" fill="none" xmlns="http://www.w3.org/2000/svg">
<path d="M4 27V44.3204C4 48.0095 6.99054 51 10.6796 51H32.3204C36.0095 51 39 48.0095 39 44.3204V27" stroke="#00DBDC" stroke-width="2.5"/>
<path d="M26.8218 22.1406C35.1713 22.7205 39.4017 24.5603 39.4017 26.8957C39.4017 29.8421 31.4767 32.2307 21.7008 32.2307C11.9249 32.2307 4 29.8421 4 26.8957C4 24.6232 9.67762 22.5447 16.4685 22.1406" stroke="#00DBDC" stroke-width="2.5"/>
<path d="M26.8532 28.9195C26.8532 28.9195 27.0781 12.4916 26.8532 11.1212C26.6282 9.75082 25.9327 6.72945 21.4383 6M17.2909 28.9195C17.2909 28.9195 17.5158 12.4916 17.2909 11.1212C17.066 9.75082 15.4007 6.45207 10.9531 6.72945M17.4021 17.1145H26.742M17.4021 23.3555H26.742" stroke="#00DBDC" stroke-width="2.5" stroke-linecap="round" stroke-linejoin="round"/>
<path d="M38.6652 18.9032C38.6652 16.3824 40.7088 14.3389 43.2296 14.3389C45.7504 14.3389 47.794 16.3824 47.794 18.9032V29.1897C47.794 31.9187 49.6346 34.3342 51.2677 36.5206C52.2214 37.7974 52.9986 39.5665 52.9986 41.9418C52.9986 47.2768 48.9068 51.916 43.6744 51.916C38.4421 51.916 34.4071 48.3206 33.8775 42.7537C33.5888 39.7196 34.6634 37.4171 35.8671 35.8381C37.3074 33.9487 38.6652 31.7825 38.6652 29.4067L38.6652 18.9032Z" fill="#131313" stroke="#00DBDC" stroke-width="2.5" stroke-linejoin="round"/>
<circle cx="43.5" cy="41.5" r="4.5" fill="#131313" stroke="#00DBDC" stroke-width="2.5" stroke-linejoin="round"/>
<path d="M43.4043 23.8496V36.1434" stroke="#00DBDC" stroke-width="2.5" stroke-linecap="round" stroke-linejoin="round"/>
</svg>
