<svg width="56" height="56" viewBox="0 0 56 56" fill="none" xmlns="http://www.w3.org/2000/svg">
<circle cx="46" cy="22" r="8" stroke="#00DBDC" stroke-width="2.5"/>
<path d="M19.9589 12.0001H11.8693V18.1038H4.67822V27.3845H11.8693V45.0001H19.9589V27.3845H37.532V18.1038H19.9589V12.0001Z" stroke="#00DBDC" stroke-width="2.5" stroke-linejoin="round"/>
<path d="M12.5518 38.9108H16.4504" stroke="#00DBDC" stroke-width="2.5" stroke-linecap="round"/>
<path d="M24.8789 22.9736H26.8282" stroke="#00DBDC" stroke-width="2.5" stroke-linecap="round"/>
<path d="M19.7129 22.9736H21.6622" stroke="#00DBDC" stroke-width="2.5" stroke-linecap="round"/>
<path d="M39 10C39 10 41.0741 8 46.2593 8C50.4074 8 53 10 53 10" stroke="#00DBDC" stroke-width="2.5" stroke-linecap="round" stroke-linejoin="round"/>
<path d="M40 34C40 34 42.0741 36 47.2593 36C51.4074 36 54 34 54 34" stroke="#00DBDC" stroke-width="2.5" stroke-linecap="round" stroke-linejoin="round"/>
<path d="M43 40C43 40 44.037 41 47 41C49.3704 41 51 40 51 40" stroke="#00DBDC" stroke-width="2.5" stroke-linecap="round" stroke-linejoin="round"/>
<path d="M42 4C42 4 43.037 3 46 3C48.3704 3 50 4 50 4" stroke="#00DBDC" stroke-width="2.5" stroke-linecap="round" stroke-linejoin="round"/>
</svg>
