<svg width="56" height="56" viewBox="0 0 56 56" fill="none" xmlns="http://www.w3.org/2000/svg">
<path d="M19.4232 3.07165C16.8177 3.66901 17.2193 6.67645 17.7831 8.60698C18.499 11.0586 18.1931 14.5523 17.7831 16.3974C18.0906 21.4202 18.9209 31.6196 19.782 32.2346C20.8583 33.0034 21.7296 38.0775 21.0633 44.8429C20.5303 50.2552 21.5534 52.0618 23.4497 52.6768C29.4006 54.6068 34.97 47.5081 35.1067 41.6139C34.5941 38.8121 33.9996 31.7734 35.7217 26.033C37.4438 20.2927 36.9518 16.5683 36.4905 15.4236C36.4905 15.4236 37.7718 15.1365 38.3644 12.9044C38.9569 10.6723 37.2251 10.1104 35.7217 10.0933C35.2707 7.34611 33.0395 7.10351 31.9802 7.32561C31.999 5 29.499 4.6092 27.9312 5.4805C26.0861 2.2413 23.8822 3.54996 23.0109 4.6092C22.9255 4.1821 21.2459 2.65374 19.4232 3.07165Z" stroke="#00DBDC" stroke-width="2.5" stroke-linecap="round" stroke-linejoin="round"/>
<path d="M7.9203 32.2272L3 40.3764L10.6367 44.7842L16.0183 36.43C18.6322 35.1999 20.5286 33.7648 22.6812 30.5358C24.8338 27.3069 24.3726 23.4949 22.6812 24.1292C21.4511 24.5905 20.7848 25.6155 19.3497 27.4607C18.2017 28.9367 16.0354 27.9087 15.5058 27.1228C15.2666 26.1661 14.746 24.0579 14.5 22.6228C14.1928 20.8308 16.275 18.9813 17.2996 17.7226C19.1447 15.1394 18.5126 12.8877 17.9659 12.0847C16.2404 13.554 12.2666 16.9435 10.1754 18.7476C8.08431 20.5517 7.80071 22.3353 7.9203 23.0016V32.2272Z" fill="#121212" stroke="#00DBDC" stroke-width="2.5" stroke-linecap="round" stroke-linejoin="round"/>
<path d="M3 40.5007L5.5 36.5007L13 41.0007L10.688 44.7842L3 40.5007Z" fill="#00DBDC" stroke="#00DBDC" stroke-width="2.5" stroke-linejoin="round"/>
<path d="M47.0895 38.275L52.0098 46.4243L44.3731 50.8321L38.9915 42.4778C36.3776 41.2477 34.4812 39.8126 32.3286 36.5837C30.1759 33.3547 30.6372 29.5428 32.3286 30.1771C33.5586 30.6383 34.2249 31.6634 35.66 33.5085C36.8081 34.9846 38.4619 33.7306 38.9915 32.9447C39.3308 31.5874 41.1603 27.0095 39.504 25.9743C37.8138 23.8977 35.1555 20.9061 37.0439 18.1326C38.7694 19.6018 42.7432 22.9914 44.8343 24.7955C46.9255 26.5996 47.2091 28.3832 47.0895 29.0495V38.275Z" fill="#121212" stroke="#00DBDC" stroke-width="2.5" stroke-linecap="round" stroke-linejoin="round"/>
<path d="M52.0098 46.3218L49.7546 42.4265L41.9129 47.1931L44.3218 50.832L52.0098 46.3218Z" fill="#00DBDC" stroke="#00DBDC" stroke-width="2.5" stroke-linejoin="round"/>
<path d="M27.6018 8.08653C26.7817 8.85533 26.2692 9.2836 25.4492 9.2141C23.03 9.00909 22.8693 5.95098 23.0401 4.60132" stroke="#00DBDC" stroke-width="2.5" stroke-linecap="round" stroke-linejoin="round"/>
<path d="M32.0099 7.3178C32.215 8.51371 30.9846 10.8543 29.1906 10.3417C26.8562 9.6748 27.7899 6.92486 27.9607 5.5752" stroke="#00DBDC" stroke-width="2.5" stroke-linecap="round" stroke-linejoin="round"/>
<path d="M35.7717 10.1368C35.9767 11.3327 34.7463 13.6732 32.9523 13.1607C31.1582 12.6482 31.4286 10.4614 31.5995 9.11169" stroke="#00DBDC" stroke-width="2.5" stroke-linecap="round" stroke-linejoin="round"/>
<path d="M36.4684 15.4158C35.6825 15.1766 34.0595 14.4113 33.8545 13.2632" stroke="#00DBDC" stroke-width="2.5" stroke-linecap="round" stroke-linejoin="round"/>
<path d="M23.5013 8.18909C23.501 9.49963 21.0431 12.8368 18.501 10.4996" stroke="#00DBDC" stroke-width="2.5" stroke-linecap="round" stroke-linejoin="round"/>
</svg>
