<svg width="56" height="56" viewBox="0 0 56 56" fill="none" xmlns="http://www.w3.org/2000/svg">
<path d="M33.4444 3H22.8888L16.2222 23.5556H25.6666L22.8888 40.2222L40.6666 15.2222H29.5555L33.4444 3Z" fill="#0D0D0D" stroke="#00DBDC" stroke-width="2.5" stroke-linecap="round" stroke-linejoin="round"/>
<path d="M15.1111 36.3335H41.7778M15.1111 43.0002H41.7778M9.27778 29.1113V50.2224C9.27778 51.7565 10.5214 53.0002 12.0556 53.0002C13.5897 53.0002 14.8333 51.7565 14.8333 50.2224V29.1113C14.8333 27.5771 13.5897 26.3335 12.0556 26.3335C10.5214 26.3335 9.27778 27.5771 9.27778 29.1113ZM4 29.1113V50.2224C4 51.7565 5.24365 53.0002 6.77778 53.0002C8.3119 53.0002 9.55556 51.7565 9.55556 50.2224V29.1113C9.55556 27.5771 8.3119 26.3335 6.77778 26.3335C5.24365 26.3335 4 27.5771 4 29.1113ZM48.1667 29.1113V50.2224C48.1667 51.7565 49.4103 53.0002 50.9444 53.0002C52.4786 53.0002 53.7222 51.7565 53.7222 50.2224V29.1113C53.7222 27.5771 52.4786 26.3335 50.9444 26.3335C49.4103 26.3335 48.1667 27.5771 48.1667 29.1113ZM42.8889 29.1113V50.2224C42.8889 51.7565 44.1325 53.0002 45.6667 53.0002C47.2008 53.0002 48.4444 51.7565 48.4444 50.2224V29.1113C48.4444 27.5771 47.2008 26.3335 45.6667 26.3335C44.1325 26.3335 42.8889 27.5771 42.8889 29.1113Z" stroke="#00DBDC" stroke-width="2.5" stroke-linecap="round" stroke-linejoin="round"/>
</svg>
