<svg width="56" height="56" viewBox="0 0 56 56" fill="none" xmlns="http://www.w3.org/2000/svg">
<path d="M22.3669 39.2422C21.6814 37.7493 18.8737 35.5696 18.1751 35.2551C16.5769 34.3619 14.7189 34.004 12.8892 34.2372C11.0595 34.4703 9.36046 35.2814 8.05546 36.5446C6.75046 37.8078 5.91247 39.4526 5.67144 41.2239C5.4304 42.9951 5.7998 44.7939 6.72234 46.3412C7.64489 47.8885 9.06902 49.0979 10.7739 49.7818C12.4788 50.4658 14.3691 50.586 16.1517 50.1239C17.9344 49.6618 19.5097 48.6432 20.6334 47.226C21.7572 45.8088 22.3665 44.0723 22.3669 42.2858V13.7904C22.3669 12.6996 23.1226 11.7544 24.1867 11.5143L50.3996 5.6001L50.3993 36.4934M50.3993 36.4934L50.3996 39.5375C50.3992 41.3241 49.7899 43.0606 48.6662 44.4778C47.5424 45.8949 45.9671 46.9136 44.1845 47.3757C42.4018 47.8378 40.5115 47.7175 38.8066 47.0336C37.1017 46.3497 35.6776 45.1403 34.7551 43.593C33.8325 42.0457 33.4631 40.2469 33.7042 38.4757C33.9452 36.7044 34.7832 35.0596 36.0882 33.7964C37.3932 32.5332 39.0923 31.7221 40.9219 31.4889C42.7516 31.2558 44.6096 31.6136 46.2078 32.5069C46.9063 32.8214 49.7134 35.0005 50.3993 36.4934Z" stroke="#00DBDC" stroke-width="2.5" stroke-linecap="round" stroke-linejoin="round"/>
</svg>
