<svg width="56" height="56" viewBox="0 0 56 56" fill="none" xmlns="http://www.w3.org/2000/svg">
<path d="M11.5079 25.8913C14.5492 20.9134 19.7998 17.3844 25.5811 16.5093C27.6469 16.1937 29.8274 16.3659 31.678 17.4131C33.5286 18.4603 34.8054 20.1387 36.7277 20.9851C41.5623 23.1082 47.5014 21.229 50.8153 17.2983M35.6819 52L34.0608 44.3108C33.6018 42.1016 32.4685 40.0932 30.8187 38.5583L24.7361 32.8631L24.607 32.734C22.0391 30.2235 21.5227 26.2498 23.4163 23.1655L27.5766 16.3658M22.2824 36.8081L18.4521 39.9068C15.5686 42.2451 11.6953 43.1919 8.13752 42.0873C7.37719 41.8434 6.64556 41.5278 6 41.0687M25.8543 33.9104C25.8543 33.9104 31.9512 25.6617 35.7959 20.4687M41.5914 8.36103C41.5914 10.7696 39.6389 12.7221 37.2303 12.7221C34.8218 12.7221 32.8692 10.7696 32.8692 8.36103C32.8692 5.9525 34.8218 4 37.2303 4C39.6389 4 41.5914 5.9525 41.5914 8.36103Z" stroke="#00DBDC" stroke-width="2.5" stroke-linecap="round" stroke-linejoin="round"/>
</svg>
