<svg width="56" height="56" viewBox="0 0 56 56" fill="none" xmlns="http://www.w3.org/2000/svg">
<path d="M28.25 13V24M34.25 13V24M19 43H37C45.2843 43 52 36.2843 52 28C52 19.7157 45.2843 13 37 13H19C10.7157 13 4 19.7157 4 28C4 36.2843 10.7157 43 19 43ZM19 37H37C41.9706 37 46 32.9706 46 28C46 23.0294 41.9706 19 37 19H19C14.0294 19 10 23.0294 10 28C10 32.9706 14.0294 37 19 37ZM19 31H37C38.6569 31 40 29.6569 40 28C40 26.3431 38.6569 25 37 25H19C17.3431 25 16 26.3431 16 28C16 29.6569 17.3431 31 19 31Z" stroke="#00DBDC" stroke-width="2.5"/>
</svg>
