<svg width="48" height="48" viewBox="0 0 48 48" fill="none" xmlns="http://www.w3.org/2000/svg">
<path d="M4 25.868C8.37329 21.4722 17.0498 21.4021 21.5609 25.6568M16.428 29.3858C18.0185 27.3716 19.7928 26.2244 21.5609 25.6568M4 40.6275C8.08944 45.0666 16.2158 45.1233 20.4089 40.7985C20.5177 40.6863 20.6108 40.5596 20.6905 40.425L20.7591 40.309C25.8169 42.2865 30.1336 42.1176 35.0727 40.4914C39.9658 38.8803 42.4124 38.0748 43.5563 35.2077C44.7003 32.3407 43.5323 29.7745 41.1962 24.6419C38.3079 18.2959 34.9105 13.3039 29.6935 6.86815C28.8731 5.85611 28.8512 5.84003 27.6332 5.50027L22.8598 4.16871C20.1686 3.41802 18.9289 5.31214 17.2859 7.0955C15.7691 8.74192 15.0107 9.56513 15.2143 10.7328C15.6468 13.213 19.8072 13.7994 21.7615 13.4768C23.5295 13.1849 24.4136 13.0389 24.922 13.2483C26.0173 13.6993 26.7597 15.1889 27.4697 16.1138C28.2426 17.1205 28.629 17.6238 28.7478 17.9227C28.8665 18.2216 29.0528 19.9037 29.4253 23.2678C29.5821 24.6838 30.0258 26.1591 30.9272 27.1375C29.0491 25.8634 25.319 24.4506 21.5609 25.6568" stroke="#00DBDC" stroke-width="3" stroke-linecap="round" stroke-linejoin="round"/>
</svg>
