<svg width="182" height="62" viewBox="0 0 182 62" fill="none" xmlns="http://www.w3.org/2000/svg">
<rect x="0.5" y="0.5" width="181" height="61" rx="11" fill="black"/>
<rect x="0.5" y="0.5" width="181" height="61" rx="11" stroke="white"/>
<path d="M123.289 29.8015V33.2381H121.135V35.4917H123.289V43.1492C123.289 45.7639 124.472 46.8098 127.448 46.8098C127.971 46.8098 128.469 46.7476 128.904 46.6729V44.4441C128.531 44.4815 128.294 44.5064 127.883 44.5064C126.551 44.5064 125.966 43.8838 125.966 42.4644V35.4917H128.904V33.2381H125.966V29.8015H123.289Z" fill="white"/>
<path d="M136.485 46.9966C140.445 46.9966 142.873 44.3445 142.873 39.9492C142.873 35.5789 140.432 32.9143 136.485 32.9143C132.526 32.9143 130.085 35.5789 130.085 39.9492C130.085 44.3445 132.513 46.9966 136.485 46.9966ZM136.485 44.6184C134.157 44.6184 132.849 42.9126 132.849 39.9492C132.849 37.0108 134.157 35.2925 136.485 35.2925C138.801 35.2925 140.121 37.0108 140.121 39.9492C140.121 42.9002 138.801 44.6184 136.485 44.6184Z" fill="white"/>
<path d="M144.95 46.7351H147.627V38.729C147.627 36.824 149.059 35.5415 151.088 35.5415C151.562 35.5415 152.358 35.6287 152.583 35.7034V33.0637C152.296 32.989 151.786 32.9517 151.387 32.9517C149.619 32.9517 148.113 33.9229 147.727 35.2551H147.527V33.1758H144.95V46.7351Z" fill="white"/>
<path d="M159.229 35.1929C161.209 35.1929 162.504 36.575 162.566 38.7041H155.718C155.868 36.5874 157.25 35.1929 159.229 35.1929ZM162.554 43.0745C162.056 44.1328 160.948 44.718 159.329 44.718C157.187 44.718 155.805 43.2114 155.718 40.8333V40.6839H165.293V39.75C165.293 35.4917 163.015 32.9143 159.242 32.9143C155.419 32.9143 152.991 35.666 152.991 39.999C152.991 44.3321 155.37 46.9966 159.254 46.9966C162.355 46.9966 164.521 45.5025 165.131 43.0745H162.554Z" fill="white"/>
<path d="M105.734 41.7279C105.94 45.0574 108.715 47.1868 112.844 47.1868C117.258 47.1868 120.02 44.9542 120.02 41.3923C120.02 38.5919 118.445 37.0433 114.625 36.1528L112.573 35.6495C110.147 35.0817 109.166 34.3203 109.166 32.991C109.166 31.3133 110.689 30.2164 112.973 30.2164C115.141 30.2164 116.638 31.2875 116.909 33.0039H119.723C119.555 29.8679 116.793 27.6611 113.012 27.6611C108.947 27.6611 106.237 29.8679 106.237 33.1846C106.237 35.9205 107.773 37.5466 111.141 38.3338L113.541 38.9145C116.006 39.4953 117.09 40.347 117.09 41.7666C117.09 43.4185 115.387 44.6187 113.064 44.6187C110.573 44.6187 108.844 43.4959 108.598 41.7279H105.734Z" fill="white"/>
<path d="M78.0025 32.9517C76.1597 32.9517 74.566 33.8731 73.7442 35.417H73.545V33.1758H70.9676V51.2425H73.6446V44.6807H73.8563C74.566 46.1126 76.0975 46.9592 78.0274 46.9592C81.4515 46.9592 83.6304 44.2573 83.6304 39.9492C83.6304 35.6411 81.4515 32.9517 78.0025 32.9517ZM77.243 44.5562C75.0018 44.5562 73.5948 42.7881 73.5948 39.9617C73.5948 37.1228 75.0018 35.3548 77.2554 35.3548C79.5216 35.3548 80.8787 37.0855 80.8787 39.9492C80.8787 42.8255 79.5216 44.5562 77.243 44.5562Z" fill="white"/>
<path d="M92.9977 32.9517C91.1549 32.9517 89.5612 33.8731 88.7394 35.417H88.5402V33.1758H85.9628V51.2425H88.6398V44.6807H88.8515C89.5612 46.1126 91.0927 46.9592 93.0226 46.9592C96.4467 46.9592 98.6256 44.2573 98.6256 39.9492C98.6256 35.6411 96.4467 32.9517 92.9977 32.9517ZM92.2382 44.5562C89.997 44.5562 88.59 42.7881 88.59 39.9617C88.59 37.1228 89.997 35.3548 92.2506 35.3548C94.5168 35.3548 95.8739 37.0855 95.8739 39.9492C95.8739 42.8255 94.5168 44.5562 92.2382 44.5562Z" fill="white"/>
<path d="M66.1646 46.7351H69.2361L62.5124 28.1128H59.4022L52.6786 46.7351H55.6468L57.3632 41.7924H64.4611L66.1646 46.7351ZM60.8089 31.494H61.0283L63.7255 39.3662H58.0988L60.8089 31.494Z" fill="white"/>
<path d="M54.4767 14.066V23.0496H57.7202C60.3972 23.0496 61.9474 21.3998 61.9474 18.5298C61.9474 15.7034 60.3848 14.066 57.7202 14.066H54.4767ZM55.8712 15.3361H57.5646C59.426 15.3361 60.528 16.5189 60.528 18.5485C60.528 20.6091 59.4447 21.7795 57.5646 21.7795H55.8712V15.3361Z" fill="white"/>
<path d="M66.695 23.1803C68.6748 23.1803 69.8887 21.8542 69.8887 19.6566C69.8887 17.4714 68.6685 16.1392 66.695 16.1392C64.7153 16.1392 63.4951 17.4714 63.4951 19.6566C63.4951 21.8542 64.7091 23.1803 66.695 23.1803ZM66.695 21.9912C65.5308 21.9912 64.8771 21.1383 64.8771 19.6566C64.8771 18.1874 65.5308 17.3282 66.695 17.3282C67.853 17.3282 68.5129 18.1874 68.5129 19.6566C68.5129 21.1321 67.853 21.9912 66.695 21.9912Z" fill="white"/>
<path d="M80.227 16.2699H78.8885L77.6807 21.4434H77.5749L76.1803 16.2699H74.8979L73.5033 21.4434H73.4037L72.1897 16.2699H70.8325L72.7002 23.0496H74.0761L75.4706 18.0566H75.5764L76.9772 23.0496H78.3655L80.227 16.2699Z" fill="white"/>
<path d="M81.7684 23.0496H83.1069V19.0839C83.1069 18.0255 83.7357 17.3656 84.7256 17.3656C85.7154 17.3656 86.1886 17.9072 86.1886 18.9967V23.0496H87.5271V18.6605C87.5271 17.0481 86.6928 16.1392 85.18 16.1392C84.159 16.1392 83.4867 16.5936 83.1567 17.3469H83.0571V16.2699H81.7684V23.0496Z" fill="white"/>
<path d="M89.6351 23.0496H90.9736V13.624H89.6351V23.0496Z" fill="white"/>
<path d="M96.0076 23.1803C97.9873 23.1803 99.2013 21.8542 99.2013 19.6566C99.2013 17.4714 97.9811 16.1392 96.0076 16.1392C94.0278 16.1392 92.8076 17.4714 92.8076 19.6566C92.8076 21.8542 94.0216 23.1803 96.0076 23.1803ZM96.0076 21.9912C94.8434 21.9912 94.1897 21.1383 94.1897 19.6566C94.1897 18.1874 94.8434 17.3282 96.0076 17.3282C97.1655 17.3282 97.8254 18.1874 97.8254 19.6566C97.8254 21.1321 97.1655 21.9912 96.0076 21.9912Z" fill="white"/>
<path d="M103.189 22.0348C102.461 22.0348 101.932 21.6799 101.932 21.0698C101.932 20.4722 102.355 20.1547 103.289 20.0924L104.945 19.9866V20.5531C104.945 21.3936 104.198 22.0348 103.189 22.0348ZM102.847 23.1616C103.737 23.1616 104.478 22.7756 104.883 22.097H104.989V23.0496H106.277V18.4177C106.277 16.9858 105.319 16.1392 103.619 16.1392C102.081 16.1392 100.986 16.8862 100.849 18.0504H102.144C102.293 17.571 102.81 17.2971 103.557 17.2971C104.472 17.2971 104.945 17.7018 104.945 18.4177V19.0029L103.108 19.1088C101.496 19.2084 100.587 19.9119 100.587 21.1321C100.587 22.371 101.54 23.1616 102.847 23.1616Z" fill="white"/>
<path d="M110.819 23.1616C111.753 23.1616 112.544 22.7196 112.949 21.9788H113.054V23.0496H114.337V13.624H112.998V17.3469H112.899C112.532 16.5999 111.747 16.1578 110.819 16.1578C109.107 16.1578 108.006 17.515 108.006 19.6566C108.006 21.8044 109.095 23.1616 110.819 23.1616ZM111.199 17.3594C112.32 17.3594 113.023 18.2496 113.023 19.6628C113.023 21.0823 112.326 21.9601 111.199 21.9601C110.066 21.9601 109.388 21.0947 109.388 19.6566C109.388 18.231 110.072 17.3594 111.199 17.3594Z" fill="white"/>
<path d="M123.017 23.1803C124.996 23.1803 126.21 21.8542 126.21 19.6566C126.21 17.4714 124.99 16.1392 123.017 16.1392C121.037 16.1392 119.817 17.4714 119.817 19.6566C119.817 21.8542 121.031 23.1803 123.017 23.1803ZM123.017 21.9912C121.852 21.9912 121.199 21.1383 121.199 19.6566C121.199 18.1874 121.852 17.3282 123.017 17.3282C124.175 17.3282 124.835 18.1874 124.835 19.6566C124.835 21.1321 124.175 21.9912 123.017 21.9912Z" fill="white"/>
<path d="M127.982 23.0496H129.321V19.0839C129.321 18.0255 129.949 17.3656 130.939 17.3656C131.929 17.3656 132.402 17.9072 132.402 18.9967V23.0496H133.741V18.6605C133.741 17.0481 132.907 16.1392 131.394 16.1392C130.373 16.1392 129.7 16.5936 129.37 17.3469H129.271V16.2699H127.982V23.0496Z" fill="white"/>
<path d="M139.905 14.5828V16.301H138.828V17.4279H139.905V21.2566C139.905 22.564 140.497 23.0869 141.985 23.0869C142.246 23.0869 142.495 23.0558 142.713 23.0184V21.9041C142.526 21.9227 142.408 21.9352 142.203 21.9352C141.537 21.9352 141.244 21.6239 141.244 20.9142V17.4279H142.713V16.301H141.244V14.5828H139.905Z" fill="white"/>
<path d="M144.51 23.0496H145.848V19.0901C145.848 18.0629 146.458 17.3718 147.554 17.3718C148.5 17.3718 149.005 17.9197 149.005 19.0029V23.0496H150.343V18.673C150.343 17.0605 149.453 16.1454 148.009 16.1454C146.988 16.1454 146.272 16.5999 145.942 17.3594H145.836V13.624H144.51V23.0496Z" fill="white"/>
<path d="M155.172 17.2784C156.162 17.2784 156.809 17.9695 156.84 19.0341H153.416C153.491 17.9757 154.182 17.2784 155.172 17.2784ZM156.834 21.2192C156.585 21.7484 156.031 22.041 155.222 22.041C154.151 22.041 153.46 21.2877 153.416 20.0986V20.0239H158.204V19.557C158.204 17.4279 157.064 16.1392 155.178 16.1392C153.267 16.1392 152.053 17.515 152.053 19.6815C152.053 21.848 153.242 23.1803 155.184 23.1803C156.734 23.1803 157.818 22.4332 158.123 21.2192H156.834Z" fill="white"/>
<path d="M38.1535 31.4516C38.186 28.9301 39.5401 26.5442 41.6883 25.2235C40.3331 23.288 38.0632 22.0609 35.7016 21.987C33.1827 21.7226 30.7408 23.4942 29.4572 23.4942C28.1488 23.4942 26.1726 22.0132 24.0445 22.057C21.2706 22.1466 18.6847 23.7237 17.3351 26.1488C14.4341 31.1715 16.598 38.553 19.3769 42.6129C20.7673 44.601 22.3922 46.8216 24.5184 46.7429C26.5989 46.6566 27.376 45.4162 29.8875 45.4162C32.3756 45.4162 33.1046 46.7429 35.274 46.6928C37.5065 46.6566 38.9131 44.696 40.2547 42.6891C41.2537 41.2726 42.0224 39.707 42.5323 38.0503C39.9087 36.9407 38.1566 34.3003 38.1535 31.4516Z" fill="white"/>
<path d="M34.056 19.317C35.2733 17.8557 35.873 15.9774 35.7278 14.0811C33.868 14.2764 32.1501 15.1652 30.9164 16.5705C29.71 17.9435 29.0821 19.7887 29.2008 21.6126C31.0613 21.6317 32.8902 20.767 34.056 19.317Z" fill="white"/>
</svg>
