<svg width="205" height="62" viewBox="0 0 205 62" fill="none" xmlns="http://www.w3.org/2000/svg">
<path d="M187.75 0.5C190.189 0.5 192.044 0.499247 193.529 0.600586C195.019 0.702233 196.174 0.907849 197.21 1.33691C199.905 2.45334 202.047 4.59492 203.163 7.29004C203.592 8.32589 203.798 9.48099 203.899 10.9707C204.001 12.456 204 14.3106 204 16.75V45.25C204 47.6894 204.001 49.544 203.899 51.0293C203.798 52.519 203.592 53.6741 203.163 54.71C202.047 57.4051 199.905 59.5467 197.21 60.6631C196.174 61.0922 195.019 61.2978 193.529 61.3994C192.044 61.5008 190.189 61.5 187.75 61.5H16.75C14.3106 61.5 12.456 61.5008 10.9707 61.3994C9.48099 61.2978 8.32589 61.0922 7.29004 60.6631C4.59492 59.5467 2.45334 57.4051 1.33691 54.71C0.907849 53.6741 0.702233 52.519 0.600586 51.0293C0.499247 49.544 0.5 47.6894 0.5 45.25V16.75C0.5 14.3106 0.499247 12.456 0.600586 10.9707C0.702233 9.48099 0.907849 8.32589 1.33691 7.29004C2.45334 4.59492 4.59492 2.45334 7.29004 1.33691C8.32589 0.907849 9.48099 0.702233 10.9707 0.600586C12.456 0.499247 14.3106 0.5 16.75 0.5H187.75Z" fill="black"/>
<path d="M187.75 0.5C190.189 0.5 192.044 0.499247 193.529 0.600586C195.019 0.702233 196.174 0.907849 197.21 1.33691C199.905 2.45334 202.047 4.59492 203.163 7.29004C203.592 8.32589 203.798 9.48099 203.899 10.9707C204.001 12.456 204 14.3106 204 16.75V45.25C204 47.6894 204.001 49.544 203.899 51.0293C203.798 52.519 203.592 53.6741 203.163 54.71C202.047 57.4051 199.905 59.5467 197.21 60.6631C196.174 61.0922 195.019 61.2978 193.529 61.3994C192.044 61.5008 190.189 61.5 187.75 61.5H16.75C14.3106 61.5 12.456 61.5008 10.9707 61.3994C9.48099 61.2978 8.32589 61.0922 7.29004 60.6631C4.59492 59.5467 2.45334 57.4051 1.33691 54.71C0.907849 53.6741 0.702233 52.519 0.600586 51.0293C0.499247 49.544 0.5 47.6894 0.5 45.25V16.75C0.5 14.3106 0.499247 12.456 0.600586 10.9707C0.702233 9.48099 0.907849 8.32589 1.33691 7.29004C2.45334 4.59492 4.59492 2.45334 7.29004 1.33691C8.32589 0.907849 9.48099 0.702233 10.9707 0.600586C12.456 0.499247 14.3106 0.5 16.75 0.5H187.75Z" stroke="white"/>
<mask id="path-2-inside-1_113_54665" fill="white">
<path d="M103.204 33.6263C99.676 33.6263 96.8005 36.3098 96.8005 40.0058C96.8005 43.6793 99.676 46.3853 103.204 46.3853C106.733 46.3853 109.609 43.6793 109.609 40.0058C109.607 36.3098 106.732 33.6263 103.204 33.6263ZM103.204 43.8743C101.27 43.8743 99.604 42.2798 99.604 40.0073C99.604 37.7108 101.272 36.1403 103.204 36.1403C105.137 36.1403 106.804 37.7108 106.804 40.0073C106.804 42.2783 105.137 43.8743 103.204 43.8743ZM89.233 33.6263C85.705 33.6263 82.8295 36.3098 82.8295 40.0058C82.8295 43.6793 85.705 46.3853 89.233 46.3853C92.7625 46.3853 95.638 43.6793 95.638 40.0058C95.638 36.3098 92.7625 33.6263 89.233 33.6263ZM89.233 43.8743C87.2995 43.8743 85.633 42.2798 85.633 40.0073C85.633 37.7108 87.301 36.1403 89.233 36.1403C91.1665 36.1403 92.833 37.7108 92.833 40.0073C92.8345 42.2783 91.1665 43.8743 89.233 43.8743ZM72.616 35.5853V38.2913H79.093C78.8995 39.8138 78.3925 40.9253 77.6185 41.6978C76.6765 42.6398 75.202 43.6793 72.616 43.6793C68.629 43.6793 65.512 40.4648 65.512 36.4778C65.512 32.4908 68.629 29.2763 72.616 29.2763C74.767 29.2763 76.3375 30.1223 77.497 31.2098L79.4065 29.3003C77.7865 27.7538 75.637 26.5703 72.616 26.5703C67.1545 26.5703 62.563 31.0163 62.563 36.4778C62.563 41.9393 67.1545 46.3853 72.616 46.3853C75.5635 46.3853 77.788 45.4178 79.5265 43.6058C81.3145 41.8178 81.871 39.3038 81.871 37.2743C81.871 36.6473 81.823 36.0668 81.7255 35.5838H72.616V35.5853ZM140.578 37.6868C140.047 36.2618 138.427 33.6263 135.116 33.6263C131.83 33.6263 129.098 36.2123 129.098 40.0058C129.098 43.5818 131.806 46.3853 135.43 46.3853C138.353 46.3853 140.045 44.5973 140.747 43.5578L138.572 42.1073C137.848 43.1708 136.856 43.8713 135.43 43.8713C134.005 43.8713 132.989 43.2188 132.337 41.9378L140.867 38.4098L140.578 37.6868ZM131.878 39.8138C131.806 37.3478 133.787 36.0923 135.214 36.0923C136.325 36.0923 137.267 36.6488 137.582 37.4453L131.878 39.8138ZM124.943 45.9998H127.745V27.2483H124.943V45.9998ZM120.35 35.0528H120.254C119.626 34.3028 118.417 33.6263 116.896 33.6263C113.705 33.6263 110.782 36.4298 110.782 40.0313C110.782 43.6073 113.705 46.3868 116.896 46.3868C118.418 46.3868 119.626 45.7103 120.254 44.9378H120.35V45.8558C120.35 48.2963 119.045 49.6013 116.944 49.6013C115.228 49.6013 114.164 48.3698 113.729 47.3303L111.289 48.3458C111.989 50.0363 113.849 52.1153 116.944 52.1153C120.23 52.1153 123.01 50.1818 123.01 45.4688V34.0148H120.352V35.0528H120.35ZM117.137 43.8743C115.204 43.8743 113.585 42.2543 113.585 40.0313C113.585 37.7828 115.204 36.1403 117.137 36.1403C119.045 36.1403 120.544 37.7828 120.544 40.0313C120.544 42.2543 119.045 43.8743 117.137 43.8743ZM153.709 27.2483H147.002V45.9998H149.8V38.8958H153.707C156.809 38.8958 159.86 36.6503 159.86 33.0728C159.86 29.4953 156.811 27.2483 153.709 27.2483ZM153.781 36.2858H149.8V29.8583H153.781C155.873 29.8583 157.061 31.5908 157.061 33.0728C157.061 34.5248 155.873 36.2858 153.781 36.2858ZM171.079 33.5933C169.052 33.5933 166.954 34.4858 166.085 36.4643L168.569 37.5008C169.1 36.4643 170.09 36.1253 171.127 36.1253C172.574 36.1253 174.046 36.9938 174.07 38.5373V38.7308C173.563 38.4413 172.477 38.0078 171.151 38.0078C168.473 38.0078 165.746 39.4793 165.746 42.2288C165.746 44.7383 167.942 46.3538 170.402 46.3538C172.283 46.3538 173.321 45.5093 173.972 44.5193H174.068V45.9668H176.771V38.7773C176.773 35.4503 174.286 33.5933 171.079 33.5933ZM170.74 43.8698C169.825 43.8698 168.545 43.4108 168.545 42.2768C168.545 40.8293 170.138 40.2743 171.514 40.2743C172.742 40.2743 173.323 40.5398 174.07 40.9013C173.852 42.6398 172.357 43.8698 170.74 43.8698ZM186.614 34.0028L183.406 42.1328H183.31L179.98 34.0028H176.965L181.958 45.3653L179.111 51.6863H182.03L189.727 34.0028H186.614ZM161.405 45.9998H164.203V27.2483H161.405V45.9998Z"/>
</mask>
<path d="M103.204 33.6263C99.676 33.6263 96.8005 36.3098 96.8005 40.0058C96.8005 43.6793 99.676 46.3853 103.204 46.3853C106.733 46.3853 109.609 43.6793 109.609 40.0058C109.607 36.3098 106.732 33.6263 103.204 33.6263ZM103.204 43.8743C101.27 43.8743 99.604 42.2798 99.604 40.0073C99.604 37.7108 101.272 36.1403 103.204 36.1403C105.137 36.1403 106.804 37.7108 106.804 40.0073C106.804 42.2783 105.137 43.8743 103.204 43.8743ZM89.233 33.6263C85.705 33.6263 82.8295 36.3098 82.8295 40.0058C82.8295 43.6793 85.705 46.3853 89.233 46.3853C92.7625 46.3853 95.638 43.6793 95.638 40.0058C95.638 36.3098 92.7625 33.6263 89.233 33.6263ZM89.233 43.8743C87.2995 43.8743 85.633 42.2798 85.633 40.0073C85.633 37.7108 87.301 36.1403 89.233 36.1403C91.1665 36.1403 92.833 37.7108 92.833 40.0073C92.8345 42.2783 91.1665 43.8743 89.233 43.8743ZM72.616 35.5853V38.2913H79.093C78.8995 39.8138 78.3925 40.9253 77.6185 41.6978C76.6765 42.6398 75.202 43.6793 72.616 43.6793C68.629 43.6793 65.512 40.4648 65.512 36.4778C65.512 32.4908 68.629 29.2763 72.616 29.2763C74.767 29.2763 76.3375 30.1223 77.497 31.2098L79.4065 29.3003C77.7865 27.7538 75.637 26.5703 72.616 26.5703C67.1545 26.5703 62.563 31.0163 62.563 36.4778C62.563 41.9393 67.1545 46.3853 72.616 46.3853C75.5635 46.3853 77.788 45.4178 79.5265 43.6058C81.3145 41.8178 81.871 39.3038 81.871 37.2743C81.871 36.6473 81.823 36.0668 81.7255 35.5838H72.616V35.5853ZM140.578 37.6868C140.047 36.2618 138.427 33.6263 135.116 33.6263C131.83 33.6263 129.098 36.2123 129.098 40.0058C129.098 43.5818 131.806 46.3853 135.43 46.3853C138.353 46.3853 140.045 44.5973 140.747 43.5578L138.572 42.1073C137.848 43.1708 136.856 43.8713 135.43 43.8713C134.005 43.8713 132.989 43.2188 132.337 41.9378L140.867 38.4098L140.578 37.6868ZM131.878 39.8138C131.806 37.3478 133.787 36.0923 135.214 36.0923C136.325 36.0923 137.267 36.6488 137.582 37.4453L131.878 39.8138ZM124.943 45.9998H127.745V27.2483H124.943V45.9998ZM120.35 35.0528H120.254C119.626 34.3028 118.417 33.6263 116.896 33.6263C113.705 33.6263 110.782 36.4298 110.782 40.0313C110.782 43.6073 113.705 46.3868 116.896 46.3868C118.418 46.3868 119.626 45.7103 120.254 44.9378H120.35V45.8558C120.35 48.2963 119.045 49.6013 116.944 49.6013C115.228 49.6013 114.164 48.3698 113.729 47.3303L111.289 48.3458C111.989 50.0363 113.849 52.1153 116.944 52.1153C120.23 52.1153 123.01 50.1818 123.01 45.4688V34.0148H120.352V35.0528H120.35ZM117.137 43.8743C115.204 43.8743 113.585 42.2543 113.585 40.0313C113.585 37.7828 115.204 36.1403 117.137 36.1403C119.045 36.1403 120.544 37.7828 120.544 40.0313C120.544 42.2543 119.045 43.8743 117.137 43.8743ZM153.709 27.2483H147.002V45.9998H149.8V38.8958H153.707C156.809 38.8958 159.86 36.6503 159.86 33.0728C159.86 29.4953 156.811 27.2483 153.709 27.2483ZM153.781 36.2858H149.8V29.8583H153.781C155.873 29.8583 157.061 31.5908 157.061 33.0728C157.061 34.5248 155.873 36.2858 153.781 36.2858ZM171.079 33.5933C169.052 33.5933 166.954 34.4858 166.085 36.4643L168.569 37.5008C169.1 36.4643 170.09 36.1253 171.127 36.1253C172.574 36.1253 174.046 36.9938 174.07 38.5373V38.7308C173.563 38.4413 172.477 38.0078 171.151 38.0078C168.473 38.0078 165.746 39.4793 165.746 42.2288C165.746 44.7383 167.942 46.3538 170.402 46.3538C172.283 46.3538 173.321 45.5093 173.972 44.5193H174.068V45.9668H176.771V38.7773C176.773 35.4503 174.286 33.5933 171.079 33.5933ZM170.74 43.8698C169.825 43.8698 168.545 43.4108 168.545 42.2768C168.545 40.8293 170.138 40.2743 171.514 40.2743C172.742 40.2743 173.323 40.5398 174.07 40.9013C173.852 42.6398 172.357 43.8698 170.74 43.8698ZM186.614 34.0028L183.406 42.1328H183.31L179.98 34.0028H176.965L181.958 45.3653L179.111 51.6863H182.03L189.727 34.0028H186.614ZM161.405 45.9998H164.203V27.2483H161.405V45.9998Z" fill="white" stroke="white" stroke-width="3" mask="url(#path-2-inside-1_113_54665)"/>
<path d="M72.1271 16.3648C72.1271 17.6218 71.7551 18.6223 71.0096 19.3693C70.1636 20.2573 69.0596 20.7013 67.7036 20.7013C66.4046 20.7013 65.2991 20.2513 64.3916 19.3513C63.4826 18.4498 63.0281 17.3338 63.0281 16.0018C63.0281 14.6683 63.4826 13.5523 64.3916 12.6523C65.2991 11.7508 66.4046 11.3008 67.7036 11.3008C68.3486 11.3008 68.9651 11.4268 69.5501 11.6773C70.1366 11.9293 70.6061 12.2638 70.9571 12.6823L70.1666 13.4743C69.5711 12.7618 68.7506 12.4063 67.7021 12.4063C66.7541 12.4063 65.9351 12.7393 65.2436 13.4053C64.5521 14.0713 64.2071 14.9368 64.2071 16.0003C64.2071 17.0638 64.5521 17.9293 65.2436 18.5953C65.9351 19.2613 66.7541 19.5943 67.7021 19.5943C68.7071 19.5943 69.5456 19.2598 70.2161 18.5893C70.6511 18.1528 70.9031 17.5453 70.9706 16.7668H67.7021V15.6853H72.0626C72.1076 15.9208 72.1271 16.1473 72.1271 16.3648Z" fill="white"/>
<path d="M79.0422 12.6059H74.9442V15.4589H78.6402V16.5404H74.9442V19.3934H79.0422V20.5004H73.7877V11.5004H79.0422V12.6059Z" fill="white"/>
<path d="M83.9185 20.5004H82.7621V12.6059H80.248V11.5004H86.4325V12.6059H83.9185V20.5004Z" fill="white"/>
<path d="M90.907 20.5004V11.5004H92.0635V20.5004H90.907Z" fill="white"/>
<path d="M97.1922 20.5004H96.0357V12.6059H93.5217V11.5004H99.7062V12.6059H97.1922V20.5004Z" fill="white"/>
<path d="M111.413 19.3379C110.528 20.2469 109.429 20.7014 108.113 20.7014C106.798 20.7014 105.698 20.2469 104.815 19.3379C103.93 18.4289 103.489 17.3159 103.489 16.0004C103.489 14.6849 103.93 13.5719 104.815 12.6629C105.698 11.7539 106.798 11.2979 108.113 11.2979C109.421 11.2979 110.519 11.7554 111.407 12.6689C112.295 13.5824 112.739 14.6924 112.739 16.0004C112.739 17.3159 112.297 18.4289 111.413 19.3379ZM105.668 18.5834C106.334 19.2584 107.149 19.5944 108.113 19.5944C109.078 19.5944 109.894 19.2569 110.558 18.5834C111.224 17.9084 111.559 17.0474 111.559 16.0004C111.559 14.9534 111.224 14.0924 110.558 13.4174C109.894 12.7424 109.078 12.4064 108.113 12.4064C107.149 12.4064 106.334 12.7439 105.668 13.4174C105.004 14.0924 104.669 14.9534 104.669 16.0004C104.669 17.0474 105.004 17.9084 105.668 18.5834Z" fill="white"/>
<path d="M114.362 20.5004V11.5004H115.769L120.143 18.5009H120.193L120.143 16.7669V11.5004H121.3V20.5004H120.092L115.516 13.1594H115.466L115.516 14.8934V20.5004H114.362Z" fill="white"/>
<path d="M72.1271 16.3648C72.1271 17.6218 71.7551 18.6223 71.0096 19.3693C70.1636 20.2573 69.0596 20.7013 67.7036 20.7013C66.4046 20.7013 65.2991 20.2513 64.3916 19.3513C63.4826 18.4498 63.0281 17.3338 63.0281 16.0018C63.0281 14.6683 63.4826 13.5523 64.3916 12.6523C65.2991 11.7508 66.4046 11.3008 67.7036 11.3008C68.3486 11.3008 68.9651 11.4268 69.5501 11.6773C70.1366 11.9293 70.6061 12.2638 70.9571 12.6823L70.1666 13.4743C69.5711 12.7618 68.7506 12.4063 67.7021 12.4063C66.7541 12.4063 65.9351 12.7393 65.2436 13.4053C64.5521 14.0713 64.2071 14.9368 64.2071 16.0003C64.2071 17.0638 64.5521 17.9293 65.2436 18.5953C65.9351 19.2613 66.7541 19.5943 67.7021 19.5943C68.7071 19.5943 69.5456 19.2598 70.2161 18.5893C70.6511 18.1528 70.9031 17.5453 70.9706 16.7668H67.7021V15.6853H72.0626C72.1076 15.9208 72.1271 16.1473 72.1271 16.3648Z" stroke="white" stroke-width="0.3" stroke-miterlimit="10"/>
<path d="M79.0422 12.6059H74.9442V15.4589H78.6402V16.5404H74.9442V19.3934H79.0422V20.5004H73.7877V11.5004H79.0422V12.6059Z" stroke="white" stroke-width="0.3" stroke-miterlimit="10"/>
<path d="M83.9185 20.5004H82.7621V12.6059H80.248V11.5004H86.4325V12.6059H83.9185V20.5004Z" stroke="white" stroke-width="0.3" stroke-miterlimit="10"/>
<path d="M90.907 20.5004V11.5004H92.0635V20.5004H90.907Z" stroke="white" stroke-width="0.3" stroke-miterlimit="10"/>
<path d="M97.1922 20.5004H96.0357V12.6059H93.5217V11.5004H99.7062V12.6059H97.1922V20.5004Z" stroke="white" stroke-width="0.3" stroke-miterlimit="10"/>
<path d="M111.413 19.3379C110.528 20.2469 109.429 20.7014 108.113 20.7014C106.798 20.7014 105.698 20.2469 104.815 19.3379C103.93 18.4289 103.489 17.3159 103.489 16.0004C103.489 14.6849 103.93 13.5719 104.815 12.6629C105.698 11.7539 106.798 11.2979 108.113 11.2979C109.421 11.2979 110.519 11.7554 111.407 12.6689C112.295 13.5824 112.739 14.6924 112.739 16.0004C112.739 17.3159 112.297 18.4289 111.413 19.3379ZM105.668 18.5834C106.334 19.2584 107.149 19.5944 108.113 19.5944C109.078 19.5944 109.894 19.2569 110.558 18.5834C111.224 17.9084 111.559 17.0474 111.559 16.0004C111.559 14.9534 111.224 14.0924 110.558 13.4174C109.894 12.7424 109.078 12.4064 108.113 12.4064C107.149 12.4064 106.334 12.7439 105.668 13.4174C105.004 14.0924 104.669 14.9534 104.669 16.0004C104.669 17.0474 105.004 17.9084 105.668 18.5834Z" stroke="white" stroke-width="0.3" stroke-miterlimit="10"/>
<path d="M114.362 20.5004V11.5004H115.769L120.143 18.5009H120.193L120.143 16.7669V11.5004H121.3V20.5004H120.092L115.516 13.1594H115.466L115.516 14.8934V20.5004H114.362Z" stroke="white" stroke-width="0.3" stroke-miterlimit="10"/>
<path d="M39.8114 39.6802L22.5096 49.6665L22.4589 49.6968C21.8168 50.0752 21.0678 50.2905 20.2704 50.2905C18.5887 50.2905 17.1095 49.271 16.4003 47.8462L16.5302 47.7173L32.1893 32.0601L39.8114 39.6802ZM31.1288 30.9995L15.9598 46.1655C15.9569 46.1026 15.955 46.0395 15.955 45.9761V16.0239C15.955 15.9602 15.9569 15.8967 15.9598 15.8335L31.1288 30.9995ZM48.2128 27.2378L48.2284 27.2485C49.5683 27.9816 50.4744 29.4012 50.4745 31.0347C50.4745 32.6799 49.5562 34.1067 48.203 34.8374L41.1561 38.9038L33.2509 30.9995L41.1249 23.1265L48.2128 27.2378ZM20.2704 11.7095C21.0854 11.7095 21.8473 11.9348 22.4999 12.3257L39.7811 22.3481L32.1893 29.939L16.5302 14.2827L16.4003 14.1528C17.1095 12.7284 18.5886 11.7095 20.2704 11.7095Z" fill="white"/>
</svg>
