<svg width="56" height="56" viewBox="0 0 56 56" fill="none" xmlns="http://www.w3.org/2000/svg">
<path d="M35.7077 34.4451L36.9535 34.5483L35.7077 34.4451ZM38.9282 32.0566L38.8024 33.3003L38.9282 32.0566ZM41.5045 34.4451L40.2783 34.6876L40.2808 34.7005L40.2837 34.7134L41.5045 34.4451ZM36.7812 36.6165L36.2171 37.7319L36.3406 37.7944L36.4748 37.8283L36.7812 36.6165ZM51.5948 41.1759L51.6918 39.9297L51.6434 39.9259H51.5948V41.1759ZM50.9507 46.6043L51.1585 45.3717L51.0554 45.3543H50.9507V46.6043ZM24.6166 22.338C23.9262 22.338 23.3666 22.8976 23.3666 23.588C23.3666 24.2783 23.9262 24.838 24.6166 24.838V22.338ZM27.6223 24.838C28.3127 24.838 28.8723 24.2783 28.8723 23.588C28.8723 22.8976 28.3127 22.338 27.6223 22.338V24.838ZM36.0862 23.4131C35.9897 22.7296 35.3573 22.2537 34.6737 22.3503C33.9901 22.4468 33.5143 23.0792 33.6108 23.7628L36.0862 23.4131ZM34.0402 26.8027C34.1368 27.4863 34.7692 27.9621 35.4528 27.8656C36.1363 27.769 36.6122 27.1366 36.5156 26.453L34.0402 26.8027ZM37.4249 40.9588L38.6233 40.6033L38.6208 40.595L37.4249 40.9588ZM31.4134 47.0386L31.4816 45.7905L31.4475 45.7886H31.4134V47.0386ZM27.94 27.1936C27.94 26.5033 27.3803 25.9436 26.69 25.9436C25.9996 25.9436 25.44 26.5033 25.44 27.1936H27.94ZM26.69 28.7992H25.44V29.6489L26.23 29.9615L26.69 28.7992ZM21.752 31.622L22.1423 30.4345L22.0527 30.4051L21.9597 30.3894L21.752 31.622ZM21.752 20.9824L20.6314 20.4284L20.5638 20.5651L20.5311 20.7141L21.752 20.9824ZM27.9782 19.7253L28.7559 18.7467L28.6677 18.6766L28.5683 18.6233L27.9782 19.7253ZM30.984 22.1138L30.2063 23.0924L30.9577 23.6895L31.7286 23.1178L30.984 22.1138ZM34.2044 19.7253L33.9658 18.4983L33.6875 18.5524L33.4598 18.7213L34.2044 19.7253ZM39.183 27.1392C39.2256 27.8283 39.8187 28.3523 40.5077 28.3098C41.1968 28.2672 41.7208 27.6741 41.6782 26.985L39.183 27.1392ZM44.5099 29.0163L44.6357 27.7727L44.573 27.7663H44.5099V29.0163ZM32.4869 29.0163L32.39 30.2626L32.4384 30.2663H32.4869V29.0163ZM29.6959 38.5703L29.5943 39.8162L30.9459 39.9264V38.5703H29.6959ZM16.3847 37.4846L16.4863 36.2388L16.4356 36.2346H16.3847V37.4846ZM14.2378 45.9529L13.5564 47.0009L13.5693 47.0093L13.5824 47.0174L14.2378 45.9529ZM19.1757 48.9928L18.5204 50.0573L18.5272 50.0615L19.1757 48.9928ZM31.8428 46.3872L32.3003 47.5504L32.7174 47.3864L32.9352 46.9948L31.8428 46.3872ZM30.1252 42.6959L30.1994 41.4481L29.9069 41.4307L29.6371 41.5451L30.1252 42.6959ZM23.4696 45.5186L22.9055 46.6341L23.4234 46.896L23.9577 46.6694L23.4696 45.5186ZM19.7398 42.2318C19.1237 41.9203 18.3717 42.1671 18.0602 42.7832C17.7487 43.3993 17.9956 44.1512 18.6116 44.4628L19.7398 42.2318ZM35.7077 34.4451L36.9535 34.5483C36.9695 34.3547 37.1216 34.0059 37.4973 33.7023C37.8516 33.416 38.3108 33.2506 38.8024 33.3003L38.9282 32.0566L39.054 30.813C37.828 30.689 36.7273 31.1102 35.926 31.7578C35.146 32.3881 34.5467 33.3203 34.462 34.3419L35.7077 34.4451ZM38.9282 32.0566L38.8024 33.3003C39.2879 33.3494 39.6151 33.5722 39.8537 33.8533C40.1136 34.1597 40.2437 34.5128 40.2783 34.6876L41.5045 34.4451L42.7308 34.2026C42.5372 33.2238 41.5608 31.0665 39.054 30.813L38.9282 32.0566ZM41.5045 34.4451L40.2837 34.7134C40.2926 34.7541 40.3014 34.8316 40.2933 34.9211C40.2853 35.0086 40.264 35.0774 40.2386 35.1254C40.2171 35.166 40.1872 35.2038 40.129 35.2409C40.0671 35.2803 39.9301 35.3456 39.6612 35.3728L39.787 36.6165L39.9127 37.8601C41.1379 37.7362 41.998 37.1459 42.4484 36.2944C42.8538 35.5281 42.8427 34.7105 42.7254 34.1768L41.5045 34.4451ZM39.787 36.6165L39.6612 35.3728C38.8499 35.4548 38.2228 35.4704 37.7789 35.4591C37.5568 35.4535 37.3845 35.4413 37.2611 35.4283C37.1281 35.4143 37.0776 35.4021 37.0876 35.4046L36.7812 36.6165L36.4748 37.8283C36.9703 37.9536 38.1425 38.0391 39.9127 37.8601L39.787 36.6165ZM36.7812 36.6165L37.3453 35.501C37.3544 35.5056 37.3213 35.489 37.2663 35.4382C37.2145 35.3904 37.1571 35.3248 37.1058 35.2427C37.0091 35.0879 36.9272 34.8654 36.9535 34.5483L35.7077 34.4451L34.462 34.3419C34.3115 36.1576 35.4236 37.3307 36.2171 37.7319L36.7812 36.6165ZM37.4249 41.1759V42.4259H51.5948V41.1759V39.9259H37.4249V41.1759ZM51.5948 41.1759L51.4979 42.4222C51.7626 42.4428 52.152 42.565 52.4139 42.8024C52.6063 42.9768 52.8324 43.2939 52.7207 44.0278L53.9565 44.2158L55.1923 44.4038C55.4241 42.8796 54.9345 41.7129 54.0928 40.95C53.3206 40.2501 52.3574 39.9815 51.6918 39.9297L51.5948 41.1759ZM53.9565 44.2158L52.7207 44.0278C52.6035 44.7981 52.2823 45.0842 52.0412 45.2177C51.7353 45.3871 51.3678 45.407 51.1585 45.3717L50.9507 46.6043L50.743 47.8369C51.3925 47.9464 52.3561 47.9011 53.2525 47.4047C54.2137 46.8723 54.9659 45.8918 55.1923 44.4038L53.9565 44.2158ZM50.9507 46.6043V45.3543H34.8485V46.6043V47.8543H50.9507V46.6043ZM24.6166 23.588V24.838H27.6223V23.588V22.338H24.6166V23.588ZM34.8485 23.588L33.6108 23.7628L34.0402 26.8027L35.2779 26.6279L36.5156 26.453L36.0862 23.4131L34.8485 23.588ZM35.7073 35.3133L34.5114 35.6771L36.229 41.3226L37.4249 40.9588L38.6208 40.595L36.9032 34.9495L35.7073 35.3133ZM37.4249 40.9588L36.2265 41.3143C36.4914 42.2074 36.5147 43.4113 35.977 44.2917C35.5078 45.06 34.3768 45.9487 31.4816 45.7905L31.4134 47.0386L31.3452 48.2867C34.805 48.4759 37.0018 47.4104 38.1106 45.5947C39.1509 43.8912 39.0024 41.8816 38.6233 40.6033L37.4249 40.9588ZM31.4134 47.0386V45.7886H29.9105V47.0386V48.2886H31.4134V47.0386ZM26.69 27.1936H25.44V28.7992H26.69H27.94V27.1936H26.69ZM21.752 31.622L21.9597 30.3894C22.3151 30.4493 22.2751 30.6504 22.1329 30.3291C22.0055 30.0411 21.848 29.4106 21.9258 28.23L20.6785 28.1478L19.4312 28.0656C19.3373 29.4906 19.5018 30.5611 19.8467 31.3406C20.1769 32.0869 20.7595 32.7223 21.5442 32.8546L21.752 31.622ZM20.6785 28.1478L21.9258 28.23C22.0915 25.7154 22.6921 22.5283 22.9729 21.2506L21.752 20.9824L20.5311 20.7141C20.2393 22.042 19.609 25.369 19.4312 28.0656L20.6785 28.1478ZM21.752 20.9824L22.8725 21.5364C23.3701 20.5299 24.9907 19.5436 27.3882 20.8273L27.9782 19.7253L28.5683 18.6233C25.1262 16.7803 21.8515 17.9606 20.6314 20.4284L21.752 20.9824ZM27.9782 19.7253L27.2006 20.704L30.2063 23.0924L30.984 22.1138L31.7617 21.1352L28.7559 18.7467L27.9782 19.7253ZM30.984 22.1138L31.7286 23.1178L34.9491 20.7293L34.2044 19.7253L33.4598 18.7213L30.2394 21.1098L30.984 22.1138ZM34.2044 19.7253L34.4431 20.9523C35.4033 20.7656 36.3423 20.6486 37.1301 21.1723C37.8924 21.6789 38.9331 23.095 39.183 27.1392L40.4306 27.0621L41.6782 26.985C41.4129 22.6913 40.2709 20.258 38.514 19.0902C36.7828 17.9395 34.8662 18.3232 33.9658 18.4983L34.2044 19.7253ZM29.6958 34.2331L30.0861 33.0456L22.1423 30.4345L21.752 31.622L21.3617 32.8095L29.3055 35.4206L29.6958 34.2331ZM26.69 28.7992L26.23 29.9615L29.6652 31.321L30.1252 30.1587L30.5852 28.9964L27.15 27.6369L26.69 28.7992ZM36.7808 11.6455H35.5308C35.5308 14.0865 33.578 16.041 31.1987 16.041V17.291V18.541C34.9852 18.541 38.0308 15.4405 38.0308 11.6455H36.7808ZM31.1987 17.291V16.041C28.8194 16.041 26.8666 14.0865 26.8666 11.6455H25.6166H24.3666C24.3666 15.4405 27.4121 18.541 31.1987 18.541V17.291ZM25.6166 11.6455H26.8666C26.8666 9.20459 28.8194 7.25 31.1987 7.25V6V4.75C27.4121 4.75 24.3666 7.85058 24.3666 11.6455H25.6166ZM31.1987 6V7.25C33.578 7.25 35.5308 9.20459 35.5308 11.6455H36.7808H38.0308C38.0308 7.85058 34.9852 4.75 31.1987 4.75V6ZM13.1642 37.7018H11.9142C11.9142 40.1427 9.96138 42.0973 7.5821 42.0973V43.3473V44.5973C11.3686 44.5973 14.4142 41.4967 14.4142 37.7018H13.1642ZM7.5821 43.3473V42.0973C5.20283 42.0973 3.25 40.1427 3.25 37.7018H2H0.75C0.75 41.4967 3.79556 44.5973 7.5821 44.5973V43.3473ZM2 37.7018H3.25C3.25 35.2608 5.20282 33.3062 7.5821 33.3062V32.0562V30.8062C3.79556 30.8062 0.75 33.9068 0.75 37.7018H2ZM7.5821 32.0562V33.3062C9.96138 33.3062 11.9142 35.2608 11.9142 37.7018H13.1642H14.4142C14.4142 33.9068 11.3686 30.8062 7.5821 30.8062V32.0562ZM44.5099 29.0163V27.7663H32.4869V29.0163V30.2663H44.5099V29.0163ZM32.4869 29.0163L32.5839 27.7701C31.8807 27.7154 30.8598 27.8707 29.9847 28.538C29.0495 29.2509 28.4459 30.4216 28.4459 32.0562H29.6959H30.9459C30.9459 31.0852 31.2726 30.6998 31.5004 30.5261C31.7881 30.3067 32.1628 30.2449 32.39 30.2626L32.4869 29.0163ZM29.6959 32.0562H28.4459V38.5703H29.6959H30.9459V32.0562H29.6959ZM29.6959 38.5703L29.7975 37.3244L16.4863 36.2388L16.3847 37.4846L16.2831 38.7305L29.5943 39.8162L29.6959 38.5703ZM16.3847 37.4846V36.2346C14.9958 36.2346 12.1893 37.1009 11.1183 40.3504L12.3055 40.7417L13.4927 41.1329C14.1392 39.1712 15.7698 38.7346 16.3847 38.7346V37.4846ZM12.3055 40.7417L11.1183 40.3504C10.5666 42.0244 10.871 43.5135 11.4645 44.6562C12.0412 45.7665 12.8975 46.5725 13.5564 47.0009L14.2378 45.9529L14.9191 44.9049C14.5761 44.6819 14.0369 44.1851 13.6832 43.504C13.3463 42.8554 13.1856 42.0646 13.4927 41.1329L12.3055 40.7417ZM14.2378 45.9529L13.5824 47.0174L18.5204 50.0573L19.1757 48.9928L19.831 47.9284L14.8931 44.8885L14.2378 45.9529ZM19.1757 48.9928L18.5272 50.0615C19.1896 50.4634 20.2843 50.9366 21.5439 51.1437C22.808 51.3515 24.3481 51.3074 25.785 50.5249L25.1872 49.4271L24.5894 48.3293C23.7935 48.7627 22.8646 48.8272 21.9495 48.6768C21.0299 48.5256 20.2353 48.1737 19.8242 47.9242L19.1757 48.9928ZM25.1872 49.4271L25.785 50.5249C27.95 49.3459 31.0282 48.0508 32.3003 47.5504L31.8428 46.3872L31.3853 45.2239C30.081 45.7369 26.8901 47.0764 24.5894 48.3293L25.1872 49.4271ZM31.8428 46.3872L32.9352 46.9948C33.3156 46.3107 33.7739 45.1152 33.5481 43.9372C33.4255 43.2972 33.0971 42.6611 32.4707 42.1866C31.8657 41.7285 31.0888 41.501 30.1994 41.4481L30.1252 42.6959L30.051 43.9437C30.6215 43.9776 30.8698 44.1103 30.9613 44.1795C31.0313 44.2326 31.0705 44.2912 31.0928 44.4076C31.1203 44.5511 31.1136 44.7665 31.0445 45.0414C30.977 45.3098 30.8652 45.5731 30.7504 45.7796L31.8428 46.3872ZM30.1252 42.6959L29.6371 41.5451L22.9816 44.3679L23.4696 45.5186L23.9577 46.6694L30.6133 43.8467L30.1252 42.6959ZM23.4696 45.5186L24.0337 44.4032L19.7398 42.2318L19.1757 43.3473L18.6116 44.4628L22.9055 46.6341L23.4696 45.5186ZM44.5099 29.0163L44.3841 30.26C44.5143 30.2732 44.7907 30.356 45.0144 30.5579C45.197 30.7226 45.4068 31.0178 45.4068 31.622H46.6568H47.9068C47.9068 30.3154 47.401 29.3439 46.6891 28.7016C46.0182 28.0964 45.2211 27.8319 44.6357 27.7727L44.5099 29.0163ZM46.6568 31.622H45.4068C45.4068 32.1759 45.2058 32.3982 45.0354 32.5223C44.802 32.6922 44.4859 32.7605 44.2952 32.7605V34.0105V35.2605C44.8917 35.2605 45.7564 35.0899 46.507 34.5433C47.3206 33.9508 47.9068 32.9789 47.9068 31.622H46.6568ZM44.2952 34.0105V32.7605H41.7188V34.0105V35.2605H44.2952V34.0105Z" fill="#00DBDC"/>
</svg>
