<svg width="56" height="56" viewBox="0 0 56 56" fill="none" xmlns="http://www.w3.org/2000/svg">
<path d="M39.1263 28.5813L39.235 29.5753L39.1263 28.5813ZM25.0324 30.1228L25.0878 31.1212C25.1056 31.1202 25.1234 31.1188 25.1411 31.1168L25.0324 30.1228ZM21.2887 34.9675L20.2898 35.0151L21.2887 34.9675ZM21.7292 42.8954V43.8954C22.006 43.8954 22.2704 43.7806 22.4594 43.5785C22.6485 43.3764 22.7454 43.105 22.727 42.8288L21.7292 42.8954ZM14.9025 42.8954V41.8954C14.8136 41.8954 14.7251 41.9072 14.6393 41.9306L14.9025 42.8954ZM14.9025 48.8412L14.7236 49.8251C14.7826 49.8358 14.8425 49.8412 14.9025 49.8412V48.8412ZM26.1335 48.8412V49.8412C26.1638 49.8412 26.194 49.8398 26.2241 49.8371L26.1335 48.8412ZM28.5559 36.9495V35.9495C28.0036 35.9495 27.5559 36.3972 27.5559 36.9495H28.5559ZM37.3646 36.9495L38.3605 36.859C38.3137 36.3439 37.8818 35.9495 37.3646 35.9495V36.9495ZM38.2455 46.639L37.2496 46.7296L38.2455 46.639ZM43.0902 46.639L44.0873 46.7157C44.0893 46.6902 44.0902 46.6646 44.0902 46.639H43.0902ZM43.0902 31.4441H44.0902C44.0902 31.2908 44.055 31.1395 43.9872 31.002L43.0902 31.4441ZM31.4187 46.4188L32.4126 46.5293C32.4167 46.4926 32.4187 46.4557 32.4187 46.4188H31.4187ZM5.87368 30.5632L5.86148 29.5633C5.84177 29.5635 5.82208 29.5643 5.80243 29.5658L5.87368 30.5632ZM3.01086 33.8665L4.00832 33.7952L3.01086 33.8665ZM5.87368 36.5091V35.5091C5.8186 35.5091 5.76361 35.5136 5.70928 35.5227L5.87368 36.5091ZM12.9205 36.5091L11.9399 36.313C11.927 36.3775 11.9205 36.4432 11.9205 36.5091H12.9205ZM15.4467 28.5083C15.4063 29.0591 15.8202 29.5383 16.371 29.5786C16.9218 29.6189 17.401 29.205 17.4413 28.6542L15.4467 28.5083ZM22.8303 19.7726L23.503 19.0326C23.3287 18.8742 23.1041 18.7824 22.8687 18.7733L22.8303 19.7726ZM25.2527 21.9748L24.58 22.7147C24.9195 23.0234 25.4256 23.0613 25.8074 22.8068L25.2527 21.9748ZM28.5559 19.7726L28.6881 18.7813C28.4474 18.7493 28.2033 18.8058 28.0012 18.9405L28.5559 19.7726ZM32.4367 26.7738C32.2898 27.3062 32.6024 27.8569 33.1348 28.0037C33.6672 28.1506 34.2178 27.8381 34.3647 27.3057L32.4367 26.7738ZM24.0206 25.0801C24.1546 24.5443 23.8288 24.0014 23.293 23.8674C22.7572 23.7335 22.2143 24.0592 22.0804 24.595L24.0206 25.0801ZM20.9793 28.9994C20.8453 29.5352 21.1711 30.0781 21.7069 30.2121C22.2427 30.346 22.7856 30.0202 22.9196 29.4844L20.9793 28.9994ZM28.1155 24.7184C27.5632 24.7184 27.1155 25.1662 27.1155 25.7184C27.1155 26.2707 27.5632 26.7184 28.1155 26.7184V24.7184ZM30.5379 26.7184C31.0902 26.7184 31.5379 26.2707 31.5379 25.7184C31.5379 25.1662 31.0902 24.7184 30.5379 24.7184V26.7184ZM39.1263 28.5813L39.0175 27.5872L24.9236 29.1287L25.0324 30.1228L25.1411 31.1168L39.235 29.5753L39.1263 28.5813ZM25.0324 30.1228L24.9769 29.1243C24.1218 29.1718 22.9075 29.5299 21.9168 30.4541C20.8895 31.4124 20.1891 32.8997 20.2898 35.0151L21.2887 34.9675L22.2875 34.92C22.2121 33.3357 22.7229 32.4373 23.2811 31.9165C23.876 31.3616 24.6216 31.1471 25.0878 31.1212L25.0324 30.1228ZM21.2887 34.9675L20.2898 35.0151C20.4663 38.721 20.6576 41.8544 20.7314 42.9619L21.7292 42.8954L22.727 42.8288C22.654 41.7341 22.4634 38.6133 22.2875 34.92L21.2887 34.9675ZM21.7292 42.8954V41.8954H14.9025V42.8954V43.8954H21.7292V42.8954ZM14.9025 42.8954L14.6393 41.9306C13.6373 42.2039 11.4801 43.3813 11.4801 45.9784H12.4801H13.4801C13.4801 44.6997 14.5527 44.0273 15.1656 43.8601L14.9025 42.8954ZM12.4801 45.9784H11.4801C11.4801 47.2621 12.0285 48.2016 12.7188 48.8241C13.3808 49.4211 14.1645 49.7234 14.7236 49.8251L14.9025 48.8412L15.0814 47.8573C14.833 47.8122 14.4055 47.652 14.0582 47.3388C13.7391 47.0511 13.4801 46.6326 13.4801 45.9784H12.4801ZM14.9025 48.8412V49.8412H26.1335V48.8412V47.8412H14.9025V48.8412ZM26.1335 48.8412L26.2241 49.8371C26.7534 49.789 27.5326 49.5946 28.2098 49.1341C28.9218 48.65 29.5559 47.836 29.5559 46.639H28.5559H27.5559C27.5559 47.0276 27.3826 47.278 27.0852 47.4803C26.7531 47.7061 26.3212 47.82 26.043 47.8453L26.1335 48.8412ZM28.5559 46.639H29.5559V36.9495H28.5559H27.5559V46.639H28.5559ZM28.5559 36.9495V37.9495H37.3646V36.9495V35.9495H28.5559V36.9495ZM37.3646 36.9495L36.3687 37.04L37.2496 46.7296L38.2455 46.639L39.2414 46.5485L38.3605 36.859L37.3646 36.9495ZM38.2455 46.639L37.2496 46.7296C37.2993 47.2765 37.5119 48.0668 38.0042 48.7704C38.5163 49.5024 39.3476 50.1546 40.5683 50.2767L40.6679 49.2816L40.7674 48.2866C40.2263 48.2325 39.8831 47.9672 39.6429 47.6238C39.3827 47.252 39.265 46.8091 39.2414 46.5485L38.2455 46.639ZM40.6679 49.2816L40.5683 50.2767C41.8996 50.4098 42.8129 49.7346 43.3438 48.9396C43.8424 48.1929 44.0418 47.3076 44.0873 46.7157L43.0902 46.639L42.0932 46.5623C42.0653 46.9247 41.9343 47.4489 41.6805 47.8289C41.459 48.1607 41.1979 48.3297 40.7674 48.2866L40.6679 49.2816ZM43.0902 46.639H44.0902V31.4441H43.0902H42.0902V46.639H43.0902ZM43.0902 31.4441L43.9872 31.002C43.6848 30.3884 43.106 29.5094 42.3087 28.7966C41.516 28.0881 40.3817 27.438 39.0175 27.5872L39.1263 28.5813L39.235 29.5753C39.8086 29.5126 40.3994 29.7725 40.9758 30.2878C41.5475 30.7988 41.9818 31.4571 42.1933 31.8862L43.0902 31.4441ZM31.4187 37.1697H30.4187V46.4188H31.4187H32.4187V37.1697H31.4187ZM31.4187 46.4188L30.4249 46.3084C30.4166 46.3827 30.3497 46.5934 30.1191 46.7617C29.9077 46.9159 29.4404 47.1185 28.4878 46.972L28.3357 47.9603L28.1836 48.9487C29.5212 49.1545 30.5588 48.9167 31.298 48.3773C32.018 47.8519 32.3475 47.1156 32.4126 46.5293L31.4187 46.4188ZM23.9206 30.343L23.9084 29.3431L5.86148 29.5633L5.87368 30.5632L5.88588 31.5631L23.9328 31.3429L23.9206 30.343ZM5.87368 30.5632L5.80243 29.5658C5.12897 29.6139 4.15484 29.8783 3.35018 30.5496C2.49728 31.2612 1.90209 32.3794 2.0134 33.9377L3.01086 33.8665L4.00832 33.7952C3.94345 32.8871 4.26583 32.3904 4.63146 32.0853C5.04534 31.74 5.5907 31.586 5.94493 31.5607L5.87368 30.5632ZM3.01086 33.8665L2.0134 33.9377C2.12058 35.4382 2.75185 36.4465 3.64182 37.0118C4.47801 37.543 5.41228 37.5998 6.03808 37.4955L5.87368 36.5091L5.70928 35.5227C5.45421 35.5652 5.04515 35.5339 4.7142 35.3236C4.43701 35.1476 4.07731 34.7612 4.00832 33.7952L3.01086 33.8665ZM5.87368 36.5091V37.5091H12.7003V36.5091V35.5091H5.87368V36.5091ZM12.9205 36.5091L13.9011 36.7052C13.9693 36.3644 14.1498 36.0285 14.4657 35.7752C14.7766 35.5258 15.281 35.3069 16.0808 35.3069V34.3069V33.3069C14.8988 33.3069 13.9331 33.6385 13.2144 34.215C12.5006 34.7874 12.092 35.5527 11.9399 36.313L12.9205 36.5091ZM16.0808 34.3069V35.3069C16.8896 35.3069 17.3878 35.5298 17.6687 35.7754C17.9418 36.0142 18.0866 36.3389 18.0866 36.7293H19.0866H20.0866C20.0866 35.7984 19.7194 34.9118 18.9852 34.2698C18.2587 33.6345 17.254 33.3069 16.0808 33.3069V34.3069ZM19.0866 36.7293H18.0866C18.0866 37.3961 17.3933 38.3114 16.0356 38.3729L16.0808 39.3719L16.1261 40.3709C18.2952 40.2726 20.0866 38.7051 20.0866 36.7293H19.0866ZM16.0808 39.3719L16.0356 38.3729C15.3286 38.4049 14.8064 38.2305 14.4786 37.958C14.1737 37.7046 13.9205 37.2712 13.9205 36.5091H12.9205H11.9205C11.9205 37.7646 12.3658 38.8026 13.2002 39.4961C14.0117 40.1706 15.0697 40.4187 16.1261 40.3709L16.0808 39.3719ZM16.444 28.5813L17.4413 28.6542C17.5447 27.2417 17.9724 25.1441 18.8822 23.4569C19.789 21.7752 21.0433 20.7046 22.7918 20.7718L22.8303 19.7726L22.8687 18.7733C20.0367 18.6644 18.208 20.4933 17.1218 22.5076C16.0387 24.5163 15.5635 26.9112 15.4467 28.5083L16.444 28.5813ZM22.8303 19.7726L22.1576 20.5125L24.58 22.7147L25.2527 21.9748L25.9253 21.2348L23.503 19.0326L22.8303 19.7726ZM25.2527 21.9748L25.8074 22.8068L29.1106 20.6046L28.5559 19.7726L28.0012 18.9405L24.698 21.1427L25.2527 21.9748ZM28.5559 19.7726L28.4238 20.7638C29.3749 20.8906 30.7048 21.3625 31.6164 22.2982C32.4643 23.1685 33.0533 24.5386 32.4367 26.7738L33.4007 27.0397L34.3647 27.3057C35.1575 24.4319 34.4252 22.3152 33.0489 20.9025C31.7363 19.5553 29.9391 18.9482 28.6881 18.7813L28.5559 19.7726ZM23.0505 24.8376L22.0804 24.595L20.9793 28.9994L21.9494 29.2419L22.9196 29.4844L24.0206 25.0801L23.0505 24.8376ZM28.1155 25.7184V26.7184H30.5379V25.7184V24.7184H28.1155V25.7184ZM31.4187 12.5054H30.4187C30.4187 14.9937 28.4016 17.0108 25.9133 17.0108V18.0108V19.0108C29.5062 19.0108 32.4187 16.0983 32.4187 12.5054H31.4187ZM25.9133 18.0108V17.0108C23.425 17.0108 21.4079 14.9937 21.4079 12.5054H20.4079H19.4079C19.4079 16.0983 22.3205 19.0108 25.9133 19.0108V18.0108ZM20.4079 12.5054H21.4079C21.4079 10.0171 23.425 8 25.9133 8V7V6C22.3205 6 19.4079 8.91258 19.4079 12.5054H20.4079ZM25.9133 7V8C28.4016 8 30.4187 10.0171 30.4187 12.5054H31.4187H32.4187C32.4187 8.91258 29.5062 6 25.9133 6V7ZM53 25.7184H52C52 28.2067 49.9828 30.2239 47.4946 30.2239V31.2239V32.2239C51.0874 32.2239 54 29.3113 54 25.7184H53ZM47.4946 31.2239V30.2239C45.0063 30.2239 42.9892 28.2067 42.9892 25.7184H41.9892H40.9892C40.9892 29.3113 43.9017 32.2239 47.4946 32.2239V31.2239ZM41.9892 25.7184H42.9892C42.9892 23.2302 45.0063 21.213 47.4946 21.213V20.213V19.213C43.9017 19.213 40.9892 22.1256 40.9892 25.7184H41.9892ZM47.4946 20.213V21.213C49.9828 21.213 52 23.2302 52 25.7184H53H54C54 22.1256 51.0874 19.213 47.4946 19.213V20.213ZM19.2961 36.0686V37.0686H21.278V36.0686V35.0686H19.2961V36.0686Z" fill="#00DBDC"/>
</svg>
