<svg width="56" height="56" viewBox="0 0 56 56" fill="none" xmlns="http://www.w3.org/2000/svg">
<path d="M37.9482 8.39466C38.4423 7.91253 38.452 7.12113 37.9699 6.62703C37.4877 6.13292 36.6963 6.12321 36.2022 6.60534L37.9482 8.39466ZM35.0857 10L36.2247 10.5151L35.0857 10ZM35.8318 14.25L36.5843 13.2519V13.2519L35.8318 14.25ZM37.0752 18.75L35.956 18.1933L37.0752 18.75ZM34.6819 21.0098C34.4112 21.6449 34.7065 22.3792 35.3416 22.6499C35.9766 22.9206 36.7109 22.6252 36.9816 21.9902L34.6819 21.0098ZM45.0619 8.39466C45.556 7.91253 45.5658 7.12113 45.0836 6.62703C44.6015 6.13292 43.8101 6.12321 43.316 6.60534L45.0619 8.39466ZM42.1995 10L43.3384 10.5151L42.1995 10ZM42.9455 14.25L43.6981 13.2519V13.2519L42.9455 14.25ZM44.189 18.75L43.0698 18.1933L44.189 18.75ZM41.7957 21.0098C41.5249 21.6449 41.8203 22.3792 42.4554 22.6499C43.0904 22.9206 43.8247 22.6252 44.0954 21.9902L41.7957 21.0098ZM52.5225 8.39466C53.0166 7.91253 53.0263 7.12113 52.5442 6.62703C52.0621 6.13292 51.2707 6.12321 50.7766 6.60534L52.5225 8.39466ZM49.6601 10L50.799 10.5151L49.6601 10ZM50.4061 14.25L51.1586 13.2519V13.2519L50.4061 14.25ZM51.6495 18.75L50.5304 18.1933L51.6495 18.75ZM49.2562 21.0098C48.9855 21.6449 49.2809 22.3792 49.9159 22.6499C50.551 22.9206 51.2853 22.6252 51.556 21.9902L49.2562 21.0098ZM45.7792 49.25L46.2201 50.4196C46.5332 50.3016 46.7859 50.063 46.9217 49.7572C47.0574 49.4514 47.0649 49.1039 46.9425 48.7925L45.7792 49.25ZM4 13C3.30964 13 2.75 13.5596 2.75 14.25C2.75 14.9403 3.30964 15.5 4 15.5V13ZM8.97371 14.25V15.5C9.00588 15.5 9.03802 15.4987 9.07009 15.4963L8.97371 14.25ZM30.3607 37.75V39C30.4024 39 30.4442 38.9979 30.4857 38.9937L30.3607 37.75ZM25.1383 28.75L24.1104 29.4613C24.1525 29.5221 24.1999 29.5791 24.2521 29.6316L25.1383 28.75ZM33.8423 31.75V33C33.9308 33 34.019 32.9906 34.1055 32.972L33.8423 31.75ZM37.8213 29.25L39.0236 29.5917C39.2102 28.9352 38.8357 28.2503 38.1822 28.0533L37.8213 29.25ZM30.6094 26L31.3793 25.0153L30.6094 26ZM25.6357 20.25L24.5772 20.915C24.5858 20.9287 24.5947 20.9423 24.6039 20.9556L25.6357 20.25ZM18.9211 16.75L18.524 15.5648L18.9211 16.75ZM15.6882 21.5L14.5018 21.8934L15.6882 21.5ZM37.0752 7.5C36.2022 6.60534 36.2021 6.60543 36.202 6.60552C36.202 6.60555 36.2019 6.60565 36.2018 6.60573C36.2017 6.60588 36.2015 6.60605 36.2013 6.60625C36.2009 6.60665 36.2004 6.60714 36.1998 6.60772C36.1986 6.60888 36.197 6.6104 36.1951 6.61228C36.1913 6.61604 36.186 6.62123 36.1794 6.62778C36.1661 6.64089 36.1474 6.65947 36.1238 6.68305C36.0768 6.73017 36.0103 6.79741 35.9296 6.8808C35.7688 7.04701 35.5488 7.28027 35.3124 7.54832C34.8734 8.04625 34.2584 8.79573 33.9468 9.48494L35.0857 10L36.2247 10.5151C36.3652 10.2043 36.745 9.70375 37.1876 9.20168C37.3921 8.96973 37.5847 8.76549 37.7263 8.6192C37.7967 8.54634 37.8539 8.48858 37.8927 8.44976C37.912 8.43037 37.9268 8.41576 37.9362 8.4064C37.941 8.40172 37.9444 8.39837 37.9464 8.39639C37.9474 8.3954 37.9481 8.39475 37.9484 8.39446C37.9485 8.39432 37.9486 8.39426 37.9485 8.39429C37.9485 8.39431 37.9485 8.39435 37.9484 8.39441C37.9484 8.39444 37.9483 8.3945 37.9483 8.39452C37.9482 8.39459 37.9482 8.39466 37.0752 7.5ZM35.0857 10L33.9468 9.48494C33.6582 10.123 33.3864 11.0871 33.4443 12.1199C33.5041 13.1887 33.9273 14.3796 35.0792 15.2481L35.8318 14.25L36.5843 13.2519C36.1446 12.9204 35.9687 12.4863 35.9404 11.9801C35.91 11.4379 36.061 10.877 36.2247 10.5151L35.0857 10ZM35.8318 14.25L35.0792 15.2481C36.4569 16.2868 36.2659 17.5703 35.956 18.1933L37.0752 18.75L38.1944 19.3067C38.8794 17.9297 39.1856 15.2132 36.5843 13.2519L35.8318 14.25ZM37.0752 18.75L35.956 18.1933C35.5401 19.0293 34.9308 20.426 34.6819 21.0098L35.8318 21.5L36.9816 21.9902C37.2301 21.4074 37.8144 20.0707 38.1944 19.3067L37.0752 18.75ZM44.189 7.5C43.316 6.60534 43.3159 6.60543 43.3158 6.60552C43.3158 6.60555 43.3157 6.60565 43.3156 6.60573C43.3154 6.60588 43.3153 6.60605 43.3151 6.60625C43.3147 6.60665 43.3142 6.60714 43.3136 6.60772C43.3124 6.60888 43.3108 6.6104 43.3089 6.61228C43.3051 6.61604 43.2998 6.62123 43.2932 6.62778C43.2799 6.64088 43.2612 6.65947 43.2376 6.68305C43.1906 6.73017 43.1241 6.79741 43.0434 6.8808C42.8826 7.04701 42.6625 7.28027 42.4262 7.54832C41.9872 8.04625 41.3722 8.79573 41.0605 9.48494L42.1995 10L43.3384 10.5151C43.479 10.2043 43.8587 9.70375 44.3014 9.20168C44.5059 8.96973 44.6985 8.76549 44.84 8.6192C44.9105 8.54634 44.9677 8.48858 45.0064 8.44977C45.0258 8.43037 45.0405 8.41576 45.05 8.4064C45.0547 8.40172 45.0582 8.39837 45.0602 8.39639C45.0612 8.3954 45.0618 8.39476 45.0621 8.39446C45.0623 8.39432 45.0623 8.39426 45.0623 8.39429C45.0623 8.39431 45.0623 8.39435 45.0622 8.39441C45.0622 8.39444 45.0621 8.3945 45.0621 8.39452C45.062 8.39459 45.0619 8.39466 44.189 7.5ZM42.1995 10L41.0605 9.48494C40.772 10.123 40.5002 11.0871 40.558 12.1199C40.6179 13.1887 41.0411 14.3796 42.193 15.2481L42.9455 14.25L43.6981 13.2519C43.2584 12.9204 43.0825 12.4863 43.0541 11.9801C43.0238 11.4379 43.1748 10.877 43.3384 10.5151L42.1995 10ZM42.9455 14.25L42.193 15.2481C43.5707 16.2868 43.3797 17.5703 43.0698 18.1933L44.189 18.75L45.3081 19.3067C45.9931 17.9297 46.2994 15.2132 43.6981 13.2519L42.9455 14.25ZM44.189 18.75L43.0698 18.1933C42.6539 19.0293 42.0445 20.426 41.7957 21.0098L42.9455 21.5L44.0954 21.9902C44.3439 21.4074 44.9281 20.0707 45.3081 19.3067L44.189 18.75ZM51.6495 7.5C50.7766 6.60534 50.7765 6.60543 50.7764 6.60552C50.7763 6.60556 50.7762 6.60565 50.7762 6.60573C50.776 6.60588 50.7758 6.60606 50.7756 6.60625C50.7752 6.60665 50.7747 6.60714 50.7741 6.60772C50.7729 6.60888 50.7714 6.6104 50.7695 6.61228C50.7656 6.61604 50.7604 6.62123 50.7537 6.62778C50.7405 6.64089 50.7217 6.65947 50.6982 6.68305C50.6511 6.73017 50.5846 6.79741 50.5039 6.8808C50.3431 7.04701 50.1231 7.28027 49.8868 7.54833C49.4478 8.04625 48.8328 8.79573 48.5211 9.48494L49.6601 10L50.799 10.5151C50.9396 10.2043 51.3193 9.70375 51.762 9.20167C51.9665 8.96973 52.1591 8.76549 52.3006 8.6192C52.3711 8.54634 52.4282 8.48858 52.467 8.44976C52.4864 8.43037 52.5011 8.41575 52.5106 8.4064C52.5153 8.40172 52.5187 8.39837 52.5207 8.39639C52.5218 8.3954 52.5224 8.39475 52.5227 8.39446C52.5229 8.39432 52.5229 8.39426 52.5229 8.39429C52.5229 8.39431 52.5228 8.39435 52.5228 8.39441C52.5227 8.39444 52.5227 8.3945 52.5227 8.39452C52.5226 8.39459 52.5225 8.39466 51.6495 7.5ZM49.6601 10L48.5211 9.48494C48.2325 10.123 47.9608 11.0871 48.0186 12.1199C48.0784 13.1887 48.5017 14.3796 49.6536 15.2481L50.4061 14.25L51.1586 13.2519C50.7189 12.9204 50.543 12.4863 50.5147 11.9801C50.4843 11.4379 50.6353 10.877 50.799 10.5151L49.6601 10ZM50.4061 14.25L49.6536 15.2481C51.0313 16.2868 50.8402 17.5703 50.5304 18.1933L51.6495 18.75L52.7687 19.3067C53.4537 17.9297 53.7599 15.2132 51.1586 13.2519L50.4061 14.25ZM51.6495 18.75L50.5304 18.1933C50.1145 19.0293 49.5051 20.426 49.2562 21.0098L50.4061 21.5L51.556 21.9902C51.8044 21.4074 52.3887 20.0707 52.7687 19.3067L51.6495 18.75ZM33.5936 31.75L33.5239 32.9981C34.1291 33.0319 35.1827 33.2243 36.2246 33.6953C37.2656 34.1659 38.1855 34.8631 38.7089 35.8402L39.8107 35.25L40.9126 34.6598C40.0434 33.0369 38.6007 32.0258 37.2544 31.4172C35.9089 30.809 34.5503 30.5515 33.6633 30.5019L33.5936 31.75ZM39.8107 35.25L38.7089 35.8402C40.0586 38.3601 43.1951 46.0947 44.6159 49.7075L45.7792 49.25L46.9425 48.7925C45.5448 45.2386 42.3482 37.3399 40.9126 34.6598L39.8107 35.25ZM45.7792 49.25L45.3383 48.0804C44.8403 48.2681 43.965 48.4387 43.0862 48.3023C42.2497 48.1724 41.4459 47.7769 40.8769 46.8474L39.8107 47.5L38.7446 48.1526C39.7672 49.8231 41.2845 50.5526 42.7027 50.7727C44.0786 50.9863 45.3918 50.7319 46.2201 50.4196L45.7792 49.25ZM39.8107 47.5L40.8769 46.8474C39.3517 44.3559 38.1606 41.3019 37.7643 40.1066L36.5778 40.5L35.3914 40.8934C35.824 42.1981 37.0866 45.4441 38.7446 48.1526L39.8107 47.5ZM4 14.25V15.5H8.97371V14.25V13H4V14.25ZM8.97371 14.25L9.07009 15.4963C9.41319 15.4697 9.92946 15.5438 10.3157 15.7935C10.6208 15.9907 10.9566 16.3595 10.9566 17.25H12.2066H13.4566C13.4566 15.5405 12.7148 14.3676 11.6729 13.694C10.7121 13.0728 9.61187 12.9469 8.87734 13.0037L8.97371 14.25ZM12.2066 17.25H10.9566V35H12.2066H13.4566V17.25H12.2066ZM12.2066 35H10.9566C10.9566 35.6802 11.167 36.6546 11.8185 37.4883C12.5143 38.3789 13.6312 39 15.1909 39V37.75V36.5C14.3632 36.5 13.9879 36.2044 13.7885 35.9492C13.5447 35.6371 13.4566 35.2365 13.4566 35H12.2066ZM15.1909 37.75V39H30.3607V37.75V36.5H15.1909V37.75ZM30.3607 37.75L30.4857 38.9937C30.5971 38.9825 30.8517 39.0157 31.0723 39.217C31.2653 39.3932 31.5975 39.8514 31.5975 41H32.8475H34.0975C34.0975 39.3486 33.6009 38.1402 32.7577 37.3705C31.942 36.626 30.9533 36.4341 30.2357 36.5063L30.3607 37.75ZM32.8475 41H31.5975V53H32.8475H34.0975V41H32.8475ZM21.1593 23L20.1314 23.7113L24.1104 29.4613L25.1383 28.75L26.1662 28.0387L22.1872 22.2887L21.1593 23ZM25.1383 28.75L24.2521 29.6316C25.4742 30.8601 28.9237 33 33.8423 33V31.75V30.5C29.6092 30.5 26.7919 28.6399 26.0245 27.8685L25.1383 28.75ZM33.8423 31.75L34.1055 32.972C34.7699 32.8289 35.7765 32.5208 36.6975 32.0387C37.5446 31.5953 38.6737 30.823 39.0236 29.5917L37.8213 29.25L36.6189 28.9083C36.5709 29.077 36.2908 29.4298 35.538 29.8238C34.8591 30.1792 34.0753 30.4212 33.5791 30.528L33.8423 31.75ZM37.8213 29.25L38.1822 28.0533C37.3904 27.8145 36.0763 27.3663 34.7482 26.8097C33.3944 26.2422 32.136 25.6069 31.3793 25.0153L30.6094 26L29.8394 26.9847C30.8733 27.7931 32.3919 28.5328 33.7819 29.1154C35.1977 29.7087 36.5942 30.1856 37.4603 30.4468L37.8213 29.25ZM30.6094 26L31.3793 25.0153C29.7564 23.7463 27.5788 20.877 26.6674 19.5444L25.6357 20.25L24.6039 20.9556C25.5162 22.2897 27.8813 25.4537 29.8394 26.9847L30.6094 26ZM25.6357 20.25L26.6941 19.585C26.1266 18.6817 25.0813 17.4169 23.7266 16.4971C22.3687 15.5751 20.5264 14.8938 18.524 15.5648L18.9211 16.75L19.3183 17.9352C20.3001 17.6062 21.3177 17.8833 22.3223 18.5654C23.3302 19.2498 24.15 20.235 24.5772 20.915L25.6357 20.25ZM18.9211 16.75L18.524 15.5648C16.3594 16.2901 15.1783 17.5256 14.6511 18.8504C14.1509 20.1075 14.3018 21.2904 14.5018 21.8934L15.6882 21.5L16.8747 21.1066C16.826 20.9596 16.7282 20.3925 16.974 19.7746C17.1929 19.2244 17.7526 18.4599 19.3183 17.9352L18.9211 16.75ZM15.6882 21.5L14.5018 21.8934C14.7182 22.5463 18.9425 32.9335 20.9966 37.9719L22.1541 37.5L23.3116 37.0281C22.2756 34.4869 20.7092 30.6379 19.3772 27.3494C18.7111 25.7051 18.104 24.202 17.6512 23.073C17.4247 22.5083 17.2375 22.0388 17.1011 21.6928C17.0327 21.5195 16.978 21.3793 16.9378 21.2745C16.9176 21.2221 16.9019 21.1805 16.8903 21.1493C16.8774 21.1146 16.8737 21.1034 16.8747 21.1066L15.6882 21.5ZM25.387 8.5H24.137C24.137 10.8534 22.2409 12.75 19.9159 12.75V14V15.25C23.634 15.25 26.637 12.2217 26.637 8.5H25.387ZM19.9159 14V12.75C17.5908 12.75 15.6948 10.8534 15.6948 8.5H14.4448H13.1948C13.1948 12.2217 16.1977 15.25 19.9159 15.25V14ZM14.4448 8.5H15.6948C15.6948 6.14657 17.5908 4.25 19.9159 4.25V3V1.75C16.1977 1.75 13.1948 4.7783 13.1948 8.5H14.4448ZM19.9159 3V4.25C22.2409 4.25 24.137 6.14657 24.137 8.5H25.387H26.637C26.637 4.7783 23.634 1.75 19.9159 1.75V3Z" fill="#00DBDC"/>
</svg>
