<svg width="75" height="35" viewBox="0 0 75 35" fill="none" xmlns="http://www.w3.org/2000/svg">
<g filter="url(#filter0_d_2325_2063)">
<rect x="4.43945" y="0.838135" width="67" height="24" rx="12" transform="rotate(2 4.43945 0.838135)" fill="url(#paint0_linear_2325_2063)"/>
<path d="M19.7455 17.5017C19.1606 17.4812 18.6417 17.3622 18.1888 17.1446C17.7388 16.927 17.3865 16.6347 17.1321 16.2677C16.8807 15.8979 16.7533 15.4755 16.75 15.0007L18.0872 15.0474C18.0952 15.3064 18.174 15.5337 18.3235 15.7294C18.476 15.9223 18.6782 16.0743 18.9301 16.1855C19.1821 16.2966 19.4642 16.3576 19.7765 16.3685C20.1201 16.3805 20.4259 16.3315 20.6942 16.2215C20.9652 16.1116 21.1797 15.9528 21.3376 15.7451C21.4956 15.5346 21.5795 15.2888 21.5893 15.0077C21.5995 14.7152 21.5333 14.4557 21.3905 14.229C21.2507 13.9995 21.0397 13.8159 20.7574 13.6781C20.4779 13.5404 20.1366 13.4646 19.7335 13.4505L18.9967 13.4248L19.0342 12.3515L19.7709 12.3773C20.0946 12.3886 20.3806 12.3403 20.6288 12.2324C20.8799 12.1246 21.0786 11.9695 21.2249 11.7671C21.3714 11.5619 21.4495 11.3187 21.4593 11.0377C21.4688 10.7679 21.4159 10.5316 21.3008 10.3286C21.1885 10.1228 21.0237 9.95929 20.8062 9.83799C20.5916 9.71679 20.3352 9.65098 20.0371 9.64057C19.7531 9.63066 19.4858 9.67391 19.2352 9.77034C18.9874 9.86402 18.7835 10.0047 18.6235 10.1924C18.4635 10.3773 18.3732 10.603 18.3525 10.8695L17.0792 10.825C17.1098 10.3542 17.2634 9.94453 17.5399 9.59601C17.8193 9.2476 18.1811 8.98023 18.6254 8.79392C19.0697 8.6076 19.5587 8.52377 20.0925 8.54241C20.6518 8.56194 21.1306 8.6881 21.529 8.9209C21.9303 9.15095 22.2354 9.45013 22.4443 9.81844C22.656 10.1869 22.7529 10.5854 22.7351 11.014C22.7209 11.5024 22.5701 11.9122 22.2828 12.2433C21.9984 12.5744 21.627 12.7903 21.1686 12.8909L21.1663 12.959C21.7424 13.0672 22.1829 13.3129 22.4879 13.6959C22.7958 14.079 22.9387 14.546 22.9166 15.0967C22.9027 15.5766 22.7542 16.0021 22.4712 16.3731C22.191 16.7442 21.8157 17.031 21.3453 17.2335C20.875 17.4331 20.3417 17.5225 19.7455 17.5017ZM27.3676 8.91585L28.8624 8.96805L31.0024 13.0125L31.0961 13.0158L33.513 9.13045L35.0078 9.18265L31.6586 14.3701L31.539 17.7941L30.2273 17.7483L30.3469 14.3243L27.3676 8.91585ZM37.5808 18.1373C36.9363 18.1148 36.386 17.9577 35.93 17.666C35.4769 17.3716 35.1328 16.9687 34.8977 16.4574C34.6655 15.9433 34.5612 15.347 34.5849 14.6684C34.6083 13.9984 34.7539 13.4122 35.0216 12.9098C35.2921 12.4076 35.6581 12.021 36.1195 11.75C36.5838 11.4791 37.1198 11.3543 37.7273 11.3755C38.0964 11.3884 38.452 11.4619 38.7942 11.5961C39.1363 11.7303 39.4405 11.9328 39.7068 12.2036C39.973 12.4744 40.1784 12.8213 40.3228 13.2442C40.4673 13.6643 40.5292 14.171 40.5085 14.7644L40.4927 15.2158L35.2928 15.0342L35.3261 14.0803L39.2782 14.2183C39.2899 13.8833 39.2321 13.5842 39.1049 13.3211C38.9777 13.0551 38.7933 12.8426 38.5515 12.6835C38.3126 12.5245 38.0285 12.4392 37.6991 12.4277C37.3414 12.4152 37.026 12.4923 36.753 12.659C36.4829 12.823 36.2705 13.043 36.1159 13.319C35.9642 13.5923 35.8827 13.8922 35.8713 14.2187L35.8453 14.964C35.83 15.4012 35.8937 15.7758 36.0363 16.0878C36.1817 16.3999 36.3908 16.6417 36.6633 16.8133C36.936 16.982 37.2583 17.0728 37.6303 17.0858C37.8716 17.0942 38.0928 17.0678 38.294 17.0066C38.4952 16.9426 38.6706 16.8436 38.8203 16.7095C38.9699 16.5754 39.0866 16.4075 39.1704 16.2058L40.3681 16.4651C40.2592 16.8166 40.0751 17.1214 39.816 17.3796C39.5597 17.635 39.2416 17.83 38.8617 17.9645C38.4847 18.0964 38.0577 18.1539 37.5808 18.1373ZM43.7034 18.3639C43.2888 18.3494 42.9167 18.2597 42.5871 18.0946C42.2575 17.9268 41.9999 17.6918 41.8143 17.3897C41.6316 17.0877 41.5477 16.7223 41.5627 16.2936C41.5755 15.9245 41.6571 15.6232 41.8074 15.3896C41.9577 15.1561 42.1559 14.974 42.4021 14.8433C42.6483 14.7126 42.9217 14.617 43.2223 14.5564C43.5229 14.4958 43.8286 14.4525 44.1393 14.4264C44.5327 14.3947 44.852 14.3689 45.0972 14.349C45.3424 14.3263 45.5216 14.2828 45.6347 14.2185C45.7478 14.1543 45.8071 14.0455 45.8124 13.8921L45.8135 13.8623C45.8264 13.4904 45.7315 13.1986 45.5285 12.9868C45.3284 12.7751 45.0225 12.6621 44.6108 12.6477C44.1821 12.6328 43.8409 12.7161 43.5872 12.8977C43.3365 13.0765 43.1603 13.2793 43.0586 13.506L41.8714 13.1917C42.0272 12.7991 42.2457 12.4856 42.5268 12.2509C42.8108 12.0135 43.1336 11.8457 43.4952 11.7475C43.8569 11.6464 44.2351 11.6027 44.6297 11.6165C44.8909 11.6256 45.1667 11.6665 45.4569 11.7392C45.7501 11.8092 46.0217 11.9295 46.2715 12.1003C46.5242 12.2711 46.7277 12.5099 46.8818 12.8166C47.0361 13.1205 47.1049 13.5109 47.0883 13.9879L46.9366 18.3318L45.693 18.2884L45.7242 17.394L45.6731 17.3923C45.585 17.5541 45.4559 17.7116 45.2857 17.8648C45.1154 18.0181 44.8993 18.1427 44.6373 18.2387C44.3752 18.3347 44.0639 18.3765 43.7034 18.3639ZM44.0159 17.3514C44.3679 17.3637 44.6713 17.3047 44.926 17.1743C45.1836 17.044 45.3816 16.869 45.52 16.6492C45.6614 16.4268 45.7366 16.1863 45.7456 15.928L45.775 15.0847C45.728 15.1286 45.6385 15.1681 45.5065 15.2033C45.3775 15.2357 45.2301 15.2633 45.0644 15.2859C44.8989 15.3057 44.7376 15.3243 44.5807 15.3415C44.4238 15.3559 44.2926 15.3684 44.1871 15.3789C43.939 15.4015 43.7114 15.4462 43.5044 15.5129C43.3003 15.5796 43.1347 15.6805 43.0078 15.8153C42.8838 15.9474 42.8178 16.1271 42.8099 16.3542C42.7989 16.6693 42.907 16.9119 43.1341 17.0819C43.3614 17.249 43.6553 17.3388 44.0159 17.3514ZM48.6326 18.391L48.861 11.8496L50.0918 11.8925L50.0555 12.9317L50.1237 12.9341C50.2552 12.5862 50.475 12.3167 50.783 12.1256C51.0939 11.9318 51.441 11.8416 51.8243 11.855C51.9038 11.8578 51.9974 11.8639 52.1051 11.8733C52.2156 11.8829 52.302 11.893 52.3641 11.9037L52.3216 13.1217C52.271 13.1057 52.1807 13.0869 52.0507 13.0653C51.9208 13.0409 51.7905 13.0264 51.6599 13.0218C51.359 13.0113 51.0884 13.0658 50.8483 13.1854C50.6111 13.3022 50.4205 13.4703 50.2764 13.6899C50.1324 13.9066 50.0554 14.1569 50.0455 14.4408L49.906 18.4355L48.6326 18.391ZM58.3098 13.7785L57.1485 13.9426C57.1054 13.7933 57.0337 13.6501 56.9333 13.513C56.8357 13.376 56.7004 13.2618 56.5274 13.1705C56.3543 13.0792 56.1358 13.0289 55.8717 13.0197C55.5111 13.0071 55.2074 13.0775 54.9604 13.2309C54.7135 13.3815 54.5856 13.5831 54.5768 13.8358C54.5692 14.0544 54.644 14.2332 54.8011 14.3723C54.9583 14.5114 55.2157 14.6299 55.5733 14.7276L56.6041 15.0024C57.2011 15.1625 57.6423 15.3926 57.9274 15.6925C58.2126 15.9924 58.3471 16.3737 58.3309 16.8365C58.3172 17.2283 58.1915 17.5736 57.9536 17.8723C57.7187 18.1682 57.3967 18.3958 56.9875 18.5549C56.5811 18.7141 56.1139 18.7845 55.5858 18.766C54.8533 18.7404 54.2611 18.5634 53.8092 18.235C53.3574 17.9036 53.0891 17.4466 53.0043 16.8637L54.2416 16.7193C54.3071 17.0428 54.4562 17.291 54.6889 17.464C54.9217 17.6342 55.2298 17.726 55.6131 17.7394C56.0305 17.7539 56.3671 17.679 56.623 17.5145C56.879 17.3472 57.0114 17.1372 57.0202 16.8845C57.0273 16.6801 56.9567 16.5057 56.8082 16.3612C56.6626 16.2168 56.4349 16.1037 56.1251 16.0218L55.0262 15.7404C54.4207 15.58 53.977 15.3427 53.6952 15.0287C53.4162 14.7148 53.2848 14.3251 53.3011 13.8594C53.3146 13.4733 53.4342 13.1392 53.6601 12.8572C53.886 12.5751 54.192 12.3598 54.5781 12.2112C54.9643 12.0599 55.403 11.9927 55.8942 12.0099C56.6011 12.0346 57.1523 12.2073 57.5476 12.5281C57.943 12.8461 58.197 13.2629 58.3098 13.7785Z" fill="#141414"/>
</g>
<defs>
<filter id="filter0_d_2325_2063" x="0.0136719" y="1.24951" width="74.9727" height="33.501" filterUnits="userSpaceOnUse" color-interpolation-filters="sRGB">
<feFlood flood-opacity="0" result="BackgroundImageFix"/>
<feColorMatrix in="SourceAlpha" type="matrix" values="0 0 0 0 0 0 0 0 0 0 0 0 0 0 0 0 0 0 127 0" result="hardAlpha"/>
<feOffset dy="4"/>
<feGaussianBlur stdDeviation="2"/>
<feComposite in2="hardAlpha" operator="out"/>
<feColorMatrix type="matrix" values="0 0 0 0 0 0 0 0 0 0 0 0 0 0 0 0 0 0 0.25 0"/>
<feBlend mode="normal" in2="BackgroundImageFix" result="effect1_dropShadow_2325_2063"/>
<feBlend mode="normal" in="SourceGraphic" in2="effect1_dropShadow_2325_2063" result="shape"/>
</filter>
<linearGradient id="paint0_linear_2325_2063" x1="9.12052" y1="0.838135" x2="20.8735" y2="38.9778" gradientUnits="userSpaceOnUse">
<stop stop-color="#0BFFB6"/>
<stop offset="0.581731" stop-color="#00DBDC"/>
</linearGradient>
</defs>
</svg>
