<svg width="116" height="32" viewBox="0 0 116 32" fill="none" xmlns="http://www.w3.org/2000/svg">
<g filter="url(#filter0_d_2325_1943)">
<rect x="4" width="108" height="24" rx="12" fill="url(#paint0_linear_2325_1943)"/>
<path d="M22.8651 10.0298C22.7827 9.77131 22.6719 9.53977 22.5327 9.33523C22.3963 9.12784 22.233 8.9517 22.0426 8.80682C21.8523 8.65909 21.6349 8.54687 21.3906 8.47017C21.1491 8.39347 20.8835 8.35511 20.5938 8.35511C20.1023 8.35511 19.6591 8.48153 19.2642 8.73438C18.8693 8.98722 18.5568 9.35795 18.3267 9.84659C18.0994 10.3324 17.9858 10.9276 17.9858 11.6321C17.9858 12.3395 18.1009 12.9375 18.331 13.4261C18.5611 13.9148 18.8764 14.2855 19.277 14.5384C19.6776 14.7912 20.1335 14.9176 20.6449 14.9176C21.1193 14.9176 21.5327 14.821 21.8849 14.6278C22.2401 14.4347 22.5142 14.1619 22.7074 13.8097C22.9034 13.4545 23.0014 13.0369 23.0014 12.5568L23.3423 12.6207H20.8452V11.5341H24.2756V12.527C24.2756 13.2599 24.1193 13.8963 23.8068 14.4361C23.4972 14.973 23.0682 15.3878 22.5199 15.6804C21.9744 15.973 21.3494 16.1193 20.6449 16.1193C19.8551 16.1193 19.1619 15.9375 18.5653 15.5739C17.9716 15.2102 17.5085 14.6946 17.1761 14.027C16.8438 13.3565 16.6776 12.5611 16.6776 11.6406C16.6776 10.9446 16.7741 10.3196 16.9673 9.76562C17.1605 9.21165 17.4318 8.74148 17.7812 8.35511C18.1335 7.96591 18.5469 7.66903 19.0213 7.46449C19.4986 7.2571 20.0199 7.15341 20.5852 7.15341C21.0568 7.15341 21.4957 7.22301 21.902 7.36222C22.3111 7.50142 22.6747 7.69886 22.9929 7.95455C23.3139 8.21023 23.5795 8.5142 23.7898 8.86648C24 9.21591 24.142 9.60369 24.2159 10.0298H22.8651ZM27.119 7.27273V16H25.8448V7.27273H27.119ZM31.6541 16.1321C31.0092 16.1321 30.4538 15.9943 29.9879 15.7188C29.5249 15.4403 29.1669 15.0497 28.9141 14.5469C28.6641 14.0412 28.5391 13.4489 28.5391 12.7699C28.5391 12.0994 28.6641 11.5085 28.9141 10.9972C29.1669 10.4858 29.5192 10.0866 29.9709 9.79972C30.4254 9.51278 30.9567 9.36932 31.5646 9.36932C31.9339 9.36932 32.2919 9.4304 32.6385 9.55256C32.9851 9.67472 33.2962 9.86648 33.5717 10.1278C33.8473 10.3892 34.0646 10.7287 34.2237 11.1463C34.3828 11.5611 34.4624 12.0653 34.4624 12.6591V13.1108H29.2592V12.1562H33.2138C33.2138 11.821 33.1456 11.5241 33.0092 11.2656C32.8729 11.0043 32.6811 10.7983 32.4339 10.6477C32.1896 10.4972 31.9027 10.4219 31.5732 10.4219C31.2152 10.4219 30.9027 10.5099 30.6357 10.6861C30.3714 10.8594 30.1669 11.0866 30.022 11.3679C29.88 11.6463 29.8089 11.9489 29.8089 12.2756V13.0213C29.8089 13.4588 29.8857 13.831 30.0391 14.1378C30.1953 14.4446 30.4126 14.679 30.6911 14.8409C30.9695 15 31.2947 15.0795 31.6669 15.0795C31.9084 15.0795 32.1286 15.0455 32.3274 14.9773C32.5263 14.9062 32.6982 14.8011 32.843 14.6619C32.9879 14.5227 33.0987 14.3509 33.1754 14.1463L34.3814 14.3636C34.2848 14.7187 34.1115 15.0298 33.8615 15.2969C33.6143 15.5611 33.3033 15.767 32.9283 15.9148C32.5561 16.0597 32.1314 16.1321 31.6541 16.1321ZM37.1502 12.1136V16H35.8761V9.45455H37.0991V10.5199H37.18C37.3306 10.1733 37.5664 9.89489 37.8874 9.68466C38.2113 9.47443 38.619 9.36932 39.1104 9.36932C39.5565 9.36932 39.9471 9.46307 40.2823 9.65057C40.6175 9.83523 40.8775 10.1108 41.0621 10.4773C41.2468 10.8437 41.3391 11.2969 41.3391 11.8366V16H40.065V11.9901C40.065 11.5156 39.9414 11.1449 39.6942 10.8778C39.4471 10.608 39.1076 10.473 38.6758 10.473C38.3803 10.473 38.1175 10.5369 37.8874 10.6648C37.6602 10.7926 37.4798 10.9801 37.3462 11.2273C37.2156 11.4716 37.1502 11.767 37.1502 12.1136ZM44.3221 12.1136V16H43.0479V9.45455H44.271V10.5199H44.3519C44.5025 10.1733 44.7383 9.89489 45.0593 9.68466C45.3832 9.47443 45.7908 9.36932 46.2823 9.36932C46.7283 9.36932 47.119 9.46307 47.4542 9.65057C47.7894 9.83523 48.0494 10.1108 48.234 10.4773C48.4187 10.8437 48.511 11.2969 48.511 11.8366V16H47.2369V11.9901C47.2369 11.5156 47.1133 11.1449 46.8661 10.8778C46.619 10.608 46.2795 10.473 45.8477 10.473C45.5522 10.473 45.2894 10.5369 45.0593 10.6648C44.832 10.7926 44.6516 10.9801 44.5181 11.2273C44.3874 11.4716 44.3221 11.767 44.3221 12.1136ZM53.4979 7.27273H55.0959L57.8743 14.0568H57.9766L60.755 7.27273H62.353V16H61.1001V9.68466H61.0192L58.4453 15.9872H57.4055L54.8317 9.6804H54.7507V16H53.4979V7.27273ZM66.07 16.1449C65.6552 16.1449 65.2802 16.0682 64.945 15.9148C64.6097 15.7585 64.3441 15.5327 64.1481 15.2372C63.9549 14.9418 63.8583 14.5795 63.8583 14.1506C63.8583 13.7812 63.9293 13.4773 64.0714 13.2386C64.2134 13 64.4052 12.8111 64.6467 12.6719C64.8881 12.5327 65.158 12.4276 65.4563 12.3565C65.7546 12.2855 66.0586 12.2315 66.3683 12.1946C66.7603 12.1491 67.0785 12.1122 67.3228 12.0838C67.5671 12.0526 67.7447 12.0028 67.8555 11.9347C67.9663 11.8665 68.0217 11.7557 68.0217 11.6023V11.5724C68.0217 11.2003 67.9165 10.9119 67.7063 10.7074C67.4989 10.5028 67.1893 10.4006 66.7773 10.4006C66.3484 10.4006 66.0103 10.4957 65.7631 10.6861C65.5188 10.8736 65.3498 11.0824 65.256 11.3125L64.0586 11.0398C64.2006 10.642 64.408 10.321 64.6808 10.0767C64.9563 9.82955 65.2731 9.65057 65.631 9.53977C65.989 9.42614 66.3654 9.36932 66.7603 9.36932C67.0217 9.36932 67.2987 9.40057 67.5913 9.46307C67.8867 9.52273 68.1623 9.63352 68.418 9.79545C68.6765 9.95739 68.8881 10.1889 69.0529 10.4901C69.2177 10.7884 69.3001 11.1761 69.3001 11.6534V16H68.0558V15.1051H68.0046C67.9222 15.2699 67.7987 15.4318 67.6339 15.5909C67.4691 15.75 67.2575 15.8821 66.9989 15.9872C66.7404 16.0923 66.4308 16.1449 66.07 16.1449ZM66.3469 15.1222C66.6992 15.1222 67.0004 15.0526 67.2504 14.9134C67.5032 14.7741 67.695 14.5923 67.8256 14.3679C67.9592 14.1406 68.0259 13.8977 68.0259 13.6392V12.7955C67.9805 12.8409 67.8924 12.8835 67.7617 12.9233C67.6339 12.9602 67.4876 12.9929 67.3228 13.0213C67.158 13.0469 66.9975 13.071 66.8413 13.0938C66.685 13.1136 66.5543 13.1307 66.4492 13.1449C66.2021 13.1761 65.9762 13.2287 65.7717 13.3026C65.57 13.3764 65.408 13.483 65.2859 13.6222C65.1665 13.7585 65.1069 13.9403 65.1069 14.1676C65.1069 14.483 65.2234 14.7216 65.4563 14.8835C65.6893 15.0426 65.9862 15.1222 66.3469 15.1222ZM72.0028 9.45455L73.4474 12.0028L74.9048 9.45455H76.2983L74.2571 12.7273L76.3153 16H74.9219L73.4474 13.554L71.9773 16H70.5795L72.6165 12.7273L70.6051 9.45455H72.0028ZM79.0256 16L77.0994 9.45455H78.4162L79.6989 14.2614H79.7628L81.0497 9.45455H82.3665L83.6449 14.2401H83.7088L84.983 9.45455H86.2997L84.3778 16H83.0781L81.7486 11.2741H81.6506L80.321 16H79.0256ZM90.1307 16.1321C89.4858 16.1321 88.9304 15.9943 88.4645 15.7188C88.0014 15.4403 87.6435 15.0497 87.3906 14.5469C87.1406 14.0412 87.0156 13.4489 87.0156 12.7699C87.0156 12.0994 87.1406 11.5085 87.3906 10.9972C87.6435 10.4858 87.9957 10.0866 88.4474 9.79972C88.902 9.51278 89.4332 9.36932 90.0412 9.36932C90.4105 9.36932 90.7685 9.4304 91.1151 9.55256C91.4616 9.67472 91.7727 9.86648 92.0483 10.1278C92.3239 10.3892 92.5412 10.7287 92.7003 11.1463C92.8594 11.5611 92.9389 12.0653 92.9389 12.6591V13.1108H87.7358V12.1562H91.6903C91.6903 11.821 91.6222 11.5241 91.4858 11.2656C91.3494 11.0043 91.1577 10.7983 90.9105 10.6477C90.6662 10.4972 90.3793 10.4219 90.0497 10.4219C89.6918 10.4219 89.3793 10.5099 89.1122 10.6861C88.848 10.8594 88.6435 11.0866 88.4986 11.3679C88.3565 11.6463 88.2855 11.9489 88.2855 12.2756V13.0213C88.2855 13.4588 88.3622 13.831 88.5156 14.1378C88.6719 14.4446 88.8892 14.679 89.1676 14.8409C89.446 15 89.7713 15.0795 90.1435 15.0795C90.3849 15.0795 90.6051 15.0455 90.804 14.9773C91.0028 14.9062 91.1747 14.8011 91.3196 14.6619C91.4645 14.5227 91.5753 14.3509 91.652 14.1463L92.858 14.3636C92.7614 14.7187 92.5881 15.0298 92.3381 15.2969C92.0909 15.5611 91.7798 15.767 91.4048 15.9148C91.0327 16.0597 90.608 16.1321 90.1307 16.1321ZM95.6268 7.27273V16H94.3526V7.27273H95.6268ZM98.6151 7.27273V16H97.3409V7.27273H98.6151Z" fill="#141414"/>
</g>
<defs>
<filter id="filter0_d_2325_1943" x="0" y="0" width="116" height="32" filterUnits="userSpaceOnUse" color-interpolation-filters="sRGB">
<feFlood flood-opacity="0" result="BackgroundImageFix"/>
<feColorMatrix in="SourceAlpha" type="matrix" values="0 0 0 0 0 0 0 0 0 0 0 0 0 0 0 0 0 0 127 0" result="hardAlpha"/>
<feOffset dy="4"/>
<feGaussianBlur stdDeviation="2"/>
<feComposite in2="hardAlpha" operator="out"/>
<feColorMatrix type="matrix" values="0 0 0 0 0 0 0 0 0 0 0 0 0 0 0 0 0 0 0.25 0"/>
<feBlend mode="normal" in2="BackgroundImageFix" result="effect1_dropShadow_2325_1943"/>
<feBlend mode="normal" in="SourceGraphic" in2="effect1_dropShadow_2325_1943" result="shape"/>
</filter>
<linearGradient id="paint0_linear_2325_1943" x1="11.5456" y1="1.72988e-07" x2="19.2477" y2="40.289" gradientUnits="userSpaceOnUse">
<stop stop-color="#0BFFB6"/>
<stop offset="0.581731" stop-color="#00DBDC"/>
</linearGradient>
</defs>
</svg>
