<svg width="151" height="37" viewBox="0 0 151 37" fill="none" xmlns="http://www.w3.org/2000/svg">
<rect x="0.976562" y="0.384277" width="150" height="36" rx="18" fill="url(#paint0_linear_2532_1369)"/>
<path d="M30.13 16.424C30.0201 16.0794 29.8724 15.7706 29.6868 15.4979C29.505 15.2214 29.2872 14.9865 29.0334 14.7934C28.7796 14.5964 28.4898 14.4468 28.1641 14.3445C27.8421 14.2422 27.4879 14.1911 27.1016 14.1911C26.4463 14.1911 25.8554 14.3597 25.3288 14.6968C24.8023 15.0339 24.3857 15.5282 24.0788 16.1797C23.7758 16.8275 23.6243 17.621 23.6243 18.5604C23.6243 19.5036 23.7777 20.3009 24.0845 20.9525C24.3913 21.604 24.8118 22.0983 25.3459 22.4354C25.88 22.7725 26.4879 22.9411 27.1697 22.9411C27.8023 22.9411 28.3535 22.8123 28.8232 22.5547C29.2966 22.2972 29.6622 21.9335 29.9197 21.4638C30.1811 20.9903 30.3118 20.4335 30.3118 19.7934L30.7663 19.8786L27.4368 19.8786L27.4368 18.4297L32.0107 18.4297L32.0107 19.7536C32.0107 20.7309 31.8023 21.5794 31.3857 22.299C30.9728 23.015 30.4008 23.568 29.6697 23.9581C28.9425 24.3483 28.1091 24.5434 27.1697 24.5434C26.1167 24.5434 25.1925 24.3009 24.397 23.8161C23.6054 23.3312 22.9879 22.6437 22.5447 21.7536C22.1016 20.8597 21.88 19.799 21.88 18.5718C21.88 17.6437 22.0088 16.8104 22.2663 16.0718C22.5239 15.3331 22.8857 14.7062 23.3516 14.1911C23.8213 13.6722 24.3724 13.2763 25.005 13.0036C25.6413 12.7271 26.3364 12.5888 27.0902 12.5888C27.719 12.5888 28.3042 12.6816 28.8459 12.8672C29.3913 13.0528 29.8762 13.3161 30.3004 13.657C30.7285 13.9979 31.0826 14.4032 31.3629 14.8729C31.6432 15.3388 31.8326 15.8559 31.9311 16.424L30.13 16.424ZM35.6418 12.7479L35.6418 24.3843L33.943 24.3843L33.943 12.7479L35.6418 12.7479ZM41.5287 24.5604C40.6689 24.5604 39.9283 24.3767 39.3071 24.0093C38.6897 23.6381 38.2124 23.1172 37.8753 22.4468C37.542 21.7725 37.3753 20.9828 37.3753 20.0775C37.3753 19.1835 37.542 18.3956 37.8753 17.7138C38.2124 17.032 38.6821 16.4998 39.2844 16.1172C39.8905 15.7347 40.5988 15.5434 41.4094 15.5434C41.9018 15.5434 42.3791 15.6248 42.8412 15.7877C43.3033 15.9506 43.7181 16.2062 44.0855 16.5547C44.453 16.9032 44.7427 17.3559 44.9549 17.9127C45.167 18.4657 45.273 19.1381 45.273 19.9297L45.273 20.532L38.3355 20.532L38.3355 19.2593L43.6083 19.2593C43.6083 18.8123 43.5174 18.4165 43.3355 18.0718C43.1537 17.7233 42.898 17.4487 42.5685 17.2479C42.2427 17.0472 41.8602 16.9468 41.4208 16.9468C40.9435 16.9468 40.5268 17.0642 40.1708 17.299C39.8185 17.5301 39.5458 17.8331 39.3526 18.2081C39.1632 18.5794 39.0685 18.9828 39.0685 19.4184L39.0685 20.4127C39.0685 20.996 39.1708 21.4922 39.3753 21.9013C39.5836 22.3104 39.8734 22.6229 40.2446 22.8388C40.6158 23.0509 41.0496 23.157 41.5458 23.157C41.8677 23.157 42.1613 23.1115 42.4264 23.0206C42.6916 22.9259 42.9208 22.7858 43.1139 22.6002C43.3071 22.4146 43.4549 22.1854 43.5571 21.9127L45.1651 22.2025C45.0363 22.6759 44.8052 23.0907 44.4719 23.4468C44.1424 23.799 43.7276 24.0737 43.2276 24.2706C42.7314 24.4638 42.1651 24.5604 41.5287 24.5604ZM48.6968 19.2025L48.6968 24.3843L46.998 24.3843L46.998 15.657L48.6287 15.657L48.6287 17.0775L48.7366 17.0775C48.9374 16.6153 49.2518 16.2441 49.6798 15.9638C50.1116 15.6835 50.6552 15.5434 51.3105 15.5434C51.9052 15.5434 52.426 15.6684 52.873 15.9184C53.32 16.1646 53.6665 16.532 53.9128 17.0206C54.159 17.5093 54.2821 18.1134 54.2821 18.8331L54.2821 24.3843L52.5832 24.3843L52.5832 19.0377C52.5832 18.4051 52.4184 17.9108 52.0889 17.5547C51.7593 17.1949 51.3067 17.015 50.7309 17.015C50.337 17.015 49.9866 17.1002 49.6798 17.2706C49.3768 17.4411 49.1362 17.6911 48.9582 18.0206C48.784 18.3464 48.6968 18.7403 48.6968 19.2025ZM58.0993 19.2025L58.0993 24.3843L56.4005 24.3843L56.4005 15.657L58.0312 15.657L58.0312 17.0775L58.1391 17.0775C58.3399 16.6153 58.6543 16.2441 59.0823 15.9638C59.5141 15.6835 60.0577 15.5434 60.713 15.5434C61.3077 15.5434 61.8285 15.6684 62.2755 15.9184C62.7225 16.1646 63.069 16.532 63.3153 17.0206C63.5615 17.5093 63.6846 18.1134 63.6846 18.8331L63.6846 24.3843L61.9857 24.3843L61.9857 19.0377C61.9857 18.4051 61.8209 17.9108 61.4914 17.5547C61.1618 17.1949 60.7092 17.015 60.1334 17.015C59.7395 17.015 59.3891 17.1002 59.0823 17.2706C58.7793 17.4411 58.5387 17.6911 58.3607 18.0206C58.1865 18.3464 58.0993 18.7403 58.0993 19.2025ZM70.0137 12.7479L72.1444 12.7479L75.8489 21.7934L75.9853 21.7934L79.6899 12.7479L81.8205 12.7479L81.8205 24.3843L80.1501 24.3843L80.1501 15.9638L80.0421 15.9638L76.6103 24.3672L75.2239 24.3672L71.7921 15.9581L71.6842 15.9581L71.6842 24.3843L70.0137 24.3843L70.0137 12.7479ZM86.6165 24.5775C86.0635 24.5775 85.5635 24.4752 85.1165 24.2706C84.6695 24.0623 84.3154 23.7612 84.054 23.3672C83.7964 22.9733 83.6676 22.4903 83.6676 21.9184C83.6676 21.4259 83.7623 21.0206 83.9517 20.7025C84.1411 20.3843 84.3968 20.1324 84.7188 19.9468C85.0407 19.7612 85.4006 19.621 85.7983 19.5263C86.196 19.4316 86.6014 19.3597 87.0142 19.3104C87.537 19.2498 87.9612 19.2006 88.287 19.1627C88.6127 19.121 88.8495 19.0547 88.9972 18.9638C89.1449 18.8729 89.2188 18.7252 89.2188 18.5206L89.2188 18.4809C89.2188 17.9847 89.0786 17.6002 88.7983 17.3275C88.5218 17.0547 88.1089 16.9184 87.5597 16.9184C86.9877 16.9184 86.537 17.0453 86.2074 17.299C85.8817 17.549 85.6563 17.8275 85.5313 18.1343L83.9347 17.7706C84.1241 17.2403 84.4006 16.8123 84.7642 16.4865C85.1317 16.157 85.554 15.9184 86.0313 15.7706C86.5085 15.6191 87.0104 15.5434 87.537 15.5434C87.8854 15.5434 88.2548 15.585 88.6449 15.6684C89.0389 15.7479 89.4063 15.8956 89.7472 16.1115C90.0919 16.3275 90.3741 16.6362 90.5938 17.0377C90.8135 17.4354 90.9233 17.9525 90.9233 18.5888L90.9233 24.3843L89.2642 24.3843L89.2642 23.1911L89.196 23.1911C89.0862 23.4108 88.9214 23.6267 88.7017 23.8388C88.482 24.0509 88.1998 24.2271 87.8551 24.3672C87.5104 24.5074 87.0976 24.5775 86.6165 24.5775ZM86.9858 23.2138C87.4555 23.2138 87.857 23.121 88.1904 22.9354C88.5275 22.7498 88.7832 22.5074 88.9574 22.2081C89.1354 21.9051 89.2245 21.5812 89.2245 21.2365L89.2245 20.1115C89.1639 20.1722 89.0464 20.229 88.8722 20.282C88.7017 20.3312 88.5067 20.3748 88.287 20.4127C88.0673 20.4468 87.8532 20.479 87.6449 20.5093C87.4366 20.5358 87.2623 20.5585 87.1222 20.5775C86.7926 20.6191 86.4915 20.6892 86.2188 20.7877C85.9498 20.8862 85.7339 21.0282 85.571 21.2138C85.412 21.3956 85.3324 21.6381 85.3324 21.9411C85.3324 22.3615 85.4877 22.6797 85.7983 22.8956C86.1089 23.1078 86.5048 23.2138 86.9858 23.2138ZM94.367 15.657L96.2932 19.0547L98.2363 15.657L100.094 15.657L97.3727 20.0206L100.117 24.3843L98.2591 24.3843L96.2932 21.1229L94.3329 24.3843L92.4693 24.3843L95.1852 20.0206L92.5034 15.657L94.367 15.657ZM103.571 24.3843L101.002 15.657L102.758 15.657L104.468 22.0661L104.554 22.0661L106.27 15.657L108.025 15.657L109.73 22.0377L109.815 22.0377L111.514 15.657L113.27 15.657L110.707 24.3843L108.974 24.3843L107.201 18.0831L107.071 18.0831L105.298 24.3843L103.571 24.3843ZM118.217 24.5604C117.358 24.5604 116.617 24.3767 115.996 24.0093C115.378 23.6381 114.901 23.1172 114.564 22.4468C114.231 21.7725 114.064 20.9828 114.064 20.0775C114.064 19.1835 114.231 18.3956 114.564 17.7138C114.901 17.032 115.371 16.4998 115.973 16.1172C116.579 15.7347 117.288 15.5434 118.098 15.5434C118.591 15.5434 119.068 15.6248 119.53 15.7877C119.992 15.9506 120.407 16.2062 120.774 16.5547C121.142 16.9032 121.431 17.3559 121.644 17.9127C121.856 18.4657 121.962 19.1381 121.962 19.9297L121.962 20.532L115.024 20.532L115.024 19.2593L120.297 19.2593C120.297 18.8123 120.206 18.4165 120.024 18.0718C119.842 17.7233 119.587 17.4487 119.257 17.2479C118.931 17.0472 118.549 16.9468 118.11 16.9468C117.632 16.9468 117.216 17.0642 116.86 17.299C116.507 17.5301 116.235 17.8331 116.041 18.2081C115.852 18.5794 115.757 18.9828 115.757 19.4184L115.757 20.4127C115.757 20.996 115.86 21.4922 116.064 21.9013C116.272 22.3104 116.562 22.6229 116.933 22.8388C117.305 23.0509 117.738 23.157 118.235 23.157C118.556 23.157 118.85 23.1115 119.115 23.0206C119.38 22.9259 119.61 22.7858 119.803 22.6002C119.996 22.4146 120.144 22.1854 120.246 21.9127L121.854 22.2025C121.725 22.6759 121.494 23.0907 121.161 23.4468C120.831 23.799 120.416 24.0737 119.916 24.2706C119.42 24.4638 118.854 24.5604 118.217 24.5604ZM125.386 12.7479L125.386 24.3843L123.687 24.3843L123.687 12.7479L125.386 12.7479ZM129.21 12.7479L129.21 24.3843L127.511 24.3843L127.511 12.7479L129.21 12.7479Z" fill="#141414"/>
<defs>
<linearGradient id="paint0_linear_2532_1369" x1="11.4566" y1="0.384278" x2="23.8611" y2="60.4653" gradientUnits="userSpaceOnUse">
<stop stop-color="#0BFFB6"/>
<stop offset="0.581731" stop-color="#00DBDC"/>
</linearGradient>
</defs>
</svg>
